<svg xmlns="http://www.w3.org/2000/svg" width="550" height="452" viewBox="0 0 550 452">
    <g fill="none" fill-rule="evenodd">
        <g fill-rule="nonzero">
            <g>
                <g>
                    <g transform="translate(-525 -166) translate(525 166)">
                        <circle cx="380.67" cy="95.296" r="6.988" fill="#3BB3C1"/>
                        <circle cx="388.087" cy="79.649" r="3.258" fill="#3BB3C1"/>
                        <circle cx="174.474" cy="37.167" r="3.344" fill="#3BB3C1"/>
                        <circle cx="393.274" cy="426.196" r="5.659" fill="#EC615B"/>
                        <circle cx="135.764" cy="448.617" r="2.615" fill="#EC615B"/>
                        <circle cx="168.429" cy="255.366" r="2.701" fill="#3BB3C1"/>
                        <circle cx="173.745" cy="269.213" r="2.615" fill="#5222D0"/>
                        <circle cx="170.616" cy="339.817" r="4.887" fill="#FF554B"/>
                        <circle cx="376.769" cy="63.874" r="3.087" fill="#5222D0"/>
                        <circle cx="259.353" cy="69.661" r="2.701" fill="#5222D0"/>
                        <circle cx="18.562" cy="281.559" r="2.058" fill="#5222D0"/>
                        <circle cx="386.115" cy="440.857" r="5.144" fill="#5222D0"/>
                        <circle cx="441.2" cy="2.872" r="2.701" fill="#5222D0"/>
                        <path fill="#FF554B" d="M178.804 124.275c-.43-2.658-.815-7.973 3.429-7.545 1.543.172 2.4 1.544 4.115.943 3.216-1.114 2.487-5.272 3.816-7.673 2.186-3.858 6.43 1.758 9.688-.086 1.072-.6 1.329-1.714 1.286-2.872-.086-4.33 3.73-4.03 6.859-3.172.814.214 1.157-1.029.343-1.243-3.172-.858-8.445-1.158-8.574 3.43-.043 1.114.557 2.228-1.072 2.914-.514.215-1.371-.043-1.843-.171-1.114-.343-2.1-1.115-3.258-1.415-1.5-.429-2.958-.129-3.987 1.072-1.286 1.543-1.243 3.644-1.843 5.444-.643 1.93-1.886 3.044-3.987 2.1-.857-.385-1.629-.728-2.615-.6-4.415.6-4.2 5.96-3.643 9.217.171.815 1.414.472 1.286-.343zM183.862 126.761c.343-2.657 2.486-3.815 4.973-3.815 1.329 0 2.658.215 3.944-.257 2.915-1.115 2.357-4.287 3.043-6.773 1.286-4.716 7.245-1.8 10.546-2.572 2.229-.558 4.115-2.787 3.172-5.144-.3-.772-1.543-.43-1.243.342 1.457 3.559-3.515 3.773-5.616 3.516-1.543-.172-3.043-.429-4.587-.043-2.443.643-3.386 2.443-3.73 4.758-.3 2.144-.256 4.501-3.043 4.844-1.5.172-3-.257-4.501.086-2.4.557-3.944 2.572-4.244 4.973-.129.9 1.157.9 1.286.085zM272.428 21.477c-1.5 1.886-3.087 4.201-2.358 6.73.6 2.058 2.23 2.83 4.201 2.701 1.158-.086 2.358-.386 3.301.643.729.772.257 2.4.043 3.258-.343 1.329-.986 2.615-.857 4.03.214 1.929 1.757 3.43 3.73 3 .814-.171.47-1.414-.344-1.243-3.73.858-1.157-5.358-.986-6.859.129-1.243-.086-2.615-1.029-3.515-.943-.9-2.1-.814-3.3-.686-1.887.215-3.644-.386-3.73-2.658-.043-1.714 1.157-3.258 2.186-4.544.6-.557-.343-1.5-.857-.857zM282.545 20.834c-2.015.857-3.301 2.958-2.787 5.144.258.986.858 1.93 1.715 2.53 1.029.771 2.23.6 3.258 1.243 1.93 1.157.386 3.429.472 5.23.043.9.257 1.714 1.028 2.272 1.158.9 2.873.6 3.344-.858.257-.771-.986-1.114-1.243-.343-1.629-.214-2.186-.943-1.715-2.186l.258-1.286c.085-.429.128-.857.128-1.286 0-.9-.257-1.843-.943-2.487-1.029-.943-2.615-.557-3.73-1.328-2.272-1.587-1.457-4.587.858-5.573.771-.3.086-1.372-.643-1.072z"/>
                        <path fill="#3BB3C1" d="M2.23 274.228c-.987-1.543-.987-3.43 0-5.015.985-1.543 2.357-1.586 3.943-2.187 2.186-.9 2.23-3.172 2.1-5.23-.042-.728-.085-1.5.13-2.229.556-1.714 2.014-1.243 3.343-1.028.772.128 1.5 0 2.143-.43.815-.556 1.33-1.542 1.586-2.485.215-.772.258-1.587.43-2.358.085-.558.256-1.072.514-1.543.685-1.072 1.5-1.158 2.486-.215.214.815 1.457.472 1.243-.343-.772-2.786-4.201-1.543-5.058.429-.386.9-.429 1.886-.643 2.83-.129.557-.215 1.157-.515 1.671-.643 1.158-1.843.943-2.958.815-1.329-.129-2.357-.258-3.215.986-.986 1.414-.729 3.086-.729 4.715.043 1.972-.385 2.744-2.314 3.387-.772.257-1.415.385-2.101.9-2.486 1.757-3.13 5.401-1.5 7.93.428.73 1.543.086 1.114-.6zM7.588 277.186c-1.8-.257-1.115-2.229-.3-3 .6-.558 1.414-.9 2.186-1.287.943-.471 1.886-1.028 2.572-1.843 1.843-2.315-.815-5.401 1.758-7.245 2.572-1.8 9.473-2.615 7.459-7.416-.3-.771-1.415-.086-1.115.643 1.458 3.473-5.616 4.501-7.416 5.959-.643.514-1.2 1.2-1.458 2.015-.514 1.8.986 3.643-.343 5.358-1.543 1.886-4.844 1.886-5.615 4.544-.472 1.5.343 3.301 1.972 3.558.771.086 1.114-1.157.3-1.286z"/>
                        <path fill="#EC615B" d="M477.51 177.56c-.558-.986-.472-2.057.128-3 .943-1.372 2.058-1.072 3.516-.943.986.085 1.886.3 2.829-.258 1.672-1.029 1.415-3.172 1.715-4.8.685-3.816 3.986-.344 6.215-1.544.815-.429 1.115-1.243 1.287-2.1.3-1.673.385-6.645 3.6-4.63.686.428 1.372-.686.643-1.115-2.872-1.758-5.187 1.157-5.444 3.858-.171 1.543 0 3.044-2.057 2.83-.73-.086-1.458-.472-2.187-.558-1.157-.129-2.186.214-2.829 1.243-.729 1.2-.472 2.701-.772 3.987-.643 2.915-3.13 1.286-5.144 1.629-2.7.472-3.944 3.73-2.658 6.002.429.771 1.544.128 1.158-.6zM483.897 180.261c-.729-1.972 1.543-4.158 3.515-3.13.258.13.6.13.772-.085.986-1.072 1.243-2.315 1.672-3.687.771-2.486 2.615-2.829 4.844-3.515 2.186-.686 4.63-2.486 3.73-5.058-.3-.772-1.544-.429-1.244.343 1.243 3.386-4.844 3.643-6.644 4.887-2.187 1.543-1.544 4.33-3.215 6.13.257-.043.514-.086.771-.086-2.872-1.5-6.516 1.458-5.401 4.587.257.729 1.5.429 1.2-.386zM310.752 191.493c.086 0 1.029 2.314 1.415 2.615.6.471 1.329.514 2.057.385 1.287-.214 2.101-1.157 3.216-1.757 2.4-1.372 2.4.986 3.343 2.315 1.072 1.586 2.23.814 3.473.043.814-.515 1.586-.858 2.315-.13.385.387.643 1.03.943 1.501.471.686.986 1.243 1.757 1.586.729.343 1.415-.771.643-1.114-1.757-.772-1.972-3.687-4.072-3.987-.986-.128-1.415.429-2.187.857-.943.558-1.5.944-2.1-.128-.257-.429-.3-1.029-.6-1.458-1.372-2.272-3.515-1.028-5.23.086-.3.214-.6.429-.943.6-.729-.214-1.5-.428-2.23-.643-.3-.3-.3-1.029-.557-1.414-.428-.6-.857-.772-1.543-.643-.857.171-.514 1.414.3 1.286zM320.826 187.377c1.286-2.015 4.244 2.187 5.444 2.7.73.301 1.415.301 2.187.087.343-.086.643-.258.943-.386 1.157-.472 2.143-.172 3.086.643 1.372 1.157 1.758 2.7 3.73 3.13 1.157.256 2.23-.086 2.743-1.201.343-.729-.771-1.415-1.114-.643-1.2 2.572-4.501-2.486-5.359-3.044-1.586-1.029-2.572-.171-4.158.172-2.53.514-3.344-2.315-5.444-3.001-1.243-.429-2.444-.214-3.13.943-.514.686.6 1.329 1.072.6z"/>
                    </g>
                    <g fill="#E8E8E8">
                        <path d="M476.738 239.162h68.332c.815 0 .815-1.286 0-1.286h-68.332c-.814 0-.814 1.286 0 1.286z" transform="translate(-525 -166) translate(525 166) translate(4.287 23.149)"/>
                        <path d="M495.386 238.862v19.89c0 .815 1.286.815 1.286 0v-19.89c0-.814-1.286-.814-1.286 0zM527.194 238.219V210.44c0-.814-1.286-.814-1.286 0v27.779c0 .857 1.286.857 1.286 0z" transform="translate(-525 -166) translate(525 166) translate(4.287 23.149)"/>
                        <path d="M512.062 210.955h25.85c.814 0 .814-1.286 0-1.286h-25.85c-.815 0-.815 1.286 0 1.286zM495.129 56.586v24.006c0 .815 1.286.815 1.286 0V56.586c0-.814-1.286-.814-1.286 0z" transform="translate(-525 -166) translate(525 166) translate(4.287 23.149)"/>
                        <path d="M475.11 82.436h46.383c.814 0 .814-1.286 0-1.286h-46.384c-.857 0-.857 1.286 0 1.286z" transform="translate(-525 -166) translate(525 166) translate(4.287 23.149)"/>
                        <path d="M521.064 82.264v15.947c0 .815 1.286.815 1.286 0V82.264c0-.814-1.286-.814-1.286 0zM90.538 31.594h45.44c.815 0 .815-1.286 0-1.286h-45.44c-.815 0-.858 1.286 0 1.286z" transform="translate(-525 -166) translate(525 166) translate(4.287 23.149)"/>
                        <path d="M134.092 31.465v12.346c0 .815 1.286.815 1.286 0V31.465c0-.857-1.286-.857-1.286 0zM120.331 30.436V10.674c0-.814-1.286-.814-1.286 0v19.762c0 .858 1.286.858 1.286 0zM.643 163.714h31.38c.814 0 .814-1.286 0-1.286H.643c-.814 0-.814 1.286 0 1.286z" transform="translate(-525 -166) translate(525 166) translate(4.287 23.149)"/>
                        <path d="M19.805 150.81v11.575c0 .815 1.286.815 1.286 0v-11.574c0-.815-1.286-.815-1.286 0z" transform="translate(-525 -166) translate(525 166) translate(4.287 23.149)"/>
                        <path d="M12.26 151.454H28.98c.814 0 .814-1.286 0-1.286H12.26c-.857 0-.857 1.286 0 1.286zM201.052 421.738h41.925c.815 0 .815-1.286 0-1.286h-41.925c-.857 0-.857 1.286 0 1.286z" transform="translate(-525 -166) translate(525 166) translate(4.287 23.149)"/>
                        <path d="M226.859 420.452v-9.045c0-.815-1.286-.815-1.286 0v9.045c0 .857 1.286.857 1.286 0z" transform="translate(-525 -166) translate(525 166) translate(4.287 23.149)"/>
                        <path d="M222.958 411.45h17.404c.815 0 .815-1.286 0-1.286h-17.404c-.815 0-.815 1.286 0 1.286zM1.629 399.19h41.925c.815 0 .815-1.287 0-1.287H1.63c-.815 0-.815 1.286 0 1.286z" transform="translate(-525 -166) translate(525 166) translate(4.287 23.149)"/>
                        <path d="M21.005 382.385v14.832c0 .815 1.287.815 1.287 0v-14.832c0-.814-1.287-.814-1.287 0z" transform="translate(-525 -166) translate(525 166) translate(4.287 23.149)"/>
                        <path d="M21.005 380.456H4.244c-.815 0-.815 1.286 0 1.286h16.761c.815 0 .815-1.286 0-1.286zM467.65 361.465c-1.415-1.414-1.072-4.158 1.115-4.63 1.157-.257 2.272.472 3.386.6.858.13 1.758.044 2.315-.728.857-1.115.172-2.4.129-3.644-.086-3.9 4.544-3.644 6.859-2.272.514.3 1.071-.214.943-.729-1.115-5.358 5.015-9.045 9.216-5.487.643.515 1.544-.386.9-.9-5.186-4.373-12.774.086-11.36 6.773.3-.257.644-.471.944-.729-1.972-1.2-4.502-1.8-6.602-.471-.772.471-1.458 1.2-1.8 2.058-.258.6-.386 1.157-.343 1.8.042 1.157.428 1.072-.43 2.186-.942 1.243-1.028.686-2.357.386-.471-.129-.9-.214-1.415-.171-1.071.042-2.057.557-2.743 1.329-1.5 1.671-1.115 4.03.386 5.53.557.6 1.457-.3.857-.9zM476.01 362.751c-.472-3.9 5.915-3.944 7.716-6.644.471-.686.643-1.458.943-2.187.557-1.328 1.543-2.186 3-2.572 2.358-.6 4.802.472 6.945 1.372.772.3 1.115-.943.343-1.243-3.944-1.629-9.26-2.872-11.446 1.93-.771 1.714-1.029 2.657-2.829 3.557-1.072.515-2.186.815-3.215 1.415-1.63.943-2.915 2.4-2.7 4.372.085.815 1.371.815 1.242 0zM291.633 238.09c.857 2.144 1.715 4.33 2.572 6.474.086-.258.214-.472.3-.73-.471.3-.943.6-1.415.944-.728-1.715-.428-2.144.944-1.372.814.514 1.2 1.63 1.371 2.53.386 2.057-.043 4.2-.728 6.172-.172.515.342.858.771.772 2.572-.514 3.601 2.572 3.087 4.501-.386 1.415-1.158 2.658-1.93 3.901-.428.686.687 1.33 1.115.643 1.372-2.143 2.958-4.801 2.015-7.459-.729-1.972-2.53-3.215-4.63-2.83l.772.772c.857-2.486 1.415-5.615.343-8.145-.729-1.671-2.4-2.957-4.287-2.4-1.458.429-2.186 1.886-1.5 3.3 1.157 2.358 3.172.772 4.672-.214.215-.128.386-.471.3-.728-.857-2.144-1.714-4.33-2.572-6.474-.257-.728-1.5-.428-1.2.343zM38.11 35.28c-.815-2.057 1.929-2.614 3.215-1.886.986.558 1.629 1.544 2.23 2.444.556.814 1.157 1.715 1.457 2.658.343.814.3 1.586-.129 2.357-1.5.686-2.272.515-2.315-.471-.386-1.415 1.115-2.358 2.4-2.315 1.33.043 2.573.815 3.473 1.758 1.543 1.629 2.1 3.772 1.886 5.958.386-.128.815-.214 1.2-.343-.857-1.243-.042-2.572 1.115-3.215.986-.514 2.1-.386 3.044.129 1.543.814 2.615 2.315 3.6 3.687.472.685 1.587.042 1.115-.643-1.629-2.273-4.072-5.445-7.287-4.716-2.358.514-4.244 3.258-2.7 5.401.385.558 1.114.3 1.2-.343.385-4.072-2.616-9.645-7.417-8.959-1.715.257-2.958 1.458-2.958 3.215 0 1.372.858 2.787 2.315 2.872 1.715.129 2.872-1.543 2.958-3.086.129-2.144-1.543-4.459-2.83-6.045-1.2-1.414-2.957-2.615-4.843-1.886-1.544.557-2.572 2.1-1.93 3.687.258.857 1.501.514 1.2-.257zM263.94 98.168c-1.8-1.071-.514-4.244 1.5-2.915 1.93 1.286-.643 3.473-1.886 1.972-.514-.643-1.414.257-.9.9.986 1.2 2.872 1.115 3.987.13 1.286-1.158.943-3.045-.386-3.988-1.329-.943-3.258-.771-4.073.772-.814 1.457-.257 3.43 1.158 4.244.643.386 1.286-.686.6-1.115zM400.518 4.415c-.943-1.328.686-3.343 2.187-2.743-.129-.086-.258-.214-.386-.3.814 1.414-.386 3.344-1.972 3.258.214.171.429.3.6.471-.257-.728-.557-1.5-.814-2.229-.3-.771-1.544-.429-1.244.343.258.729.558 1.5.815 2.23.086.3.3.47.6.47 1.372.087 2.572-.77 3.172-1.971.472-.943.729-2.915-.428-3.515-2.53-1.243-5.145 2.529-3.644 4.63.471.685 1.586.042 1.114-.644zM435.413 68.16c-.214-.985.515-2.057 1.5-2.271.9-.172 1.715.557 1.93 1.371.557 1.93-1.972 2.83-3.173 1.5-.557-.6-1.457.3-.9.901 2.23 2.486 6.516.043 5.144-3.13-.6-1.414-2.1-2.314-3.6-1.843-1.587.515-2.53 2.187-2.187 3.816.257.814 1.5.471 1.286-.343zM296.263 422.981c-1.63-.771-1.5-3 0-3.858 1.457-.814 2.829-.086 4.158.515 1.114.514 2.4.986 3.386 0 .9-.858.73-2.187.772-3.301.172-4.33 4.373-3.473 7.245-2.4.771.3 1.114-.944.343-1.244-2.53-.986-6.045-1.93-8.06.557-.6.729-.771 1.586-.814 2.487-.043.6.214 1.929-.129 2.486-.943 1.415-2.229.129-3.215-.3-1.886-.815-4.587-.6-5.744 1.372-.986 1.671-.386 3.944 1.372 4.758.771.386 1.414-.729.686-1.072z" transform="translate(-525 -166) translate(525 166) translate(4.287 23.149)"/>
                    </g>
                    <g fill="#E8E8E8">
                        <path d="M.643 88.309c-1.286 15.732-.6 31.508 2.058 47.069.128.815 1.371.472 1.243-.343C1.329 119.602.643 103.913 1.929 88.31c.086-.815-1.2-.815-1.286 0z" transform="translate(-525 -166) translate(525 166) translate(320.655 256.781)"/>
                        <path d="M1.5 89.295c6.688 2.315 13.59 3.858 20.62 4.63 6.602.685 14.19 1.414 20.534-1.072.772-.3.429-1.544-.343-1.243-6.173 2.443-13.675 1.714-20.191 1.028-6.902-.728-13.718-2.315-20.277-4.587-.814-.3-1.114.944-.343 1.244z" transform="translate(-525 -166) translate(525 166) translate(320.655 256.781)"/>
                        <path d="M11.703 91.052c-2.23-3.472-4.072-7.159-5.358-11.103-.6-1.886-1.115-3.772-1.5-5.701-.215-1.158-.43-2.315-.558-3.472 0-.13-.472-3.173.429-2.744.428.214 1.157-.172.943-.729C3.3 61.345 2.015 55.086 1.886 48.655l-.643.644c.343.128.643.257.986.385.429.515 1.243-.043 1.072-.643-.858-2.743-1.415-5.573-1.586-8.488-.043-.686.085-8.402.557-8.273.514.128.857-.343.772-.772-.815-4.844-1.2-9.774-.986-14.66.085-2.444.3-4.845.686-7.246.343-2.186.514-4.844 2.229-6.43l-1.03-.128c3.602 6.773 5.617 14.189 7.46 21.562 1.8 7.245 3.387 14.576 4.758 21.949 2.787 15.218 4.544 30.608 5.316 46.083.043.815 1.329.815 1.286 0-.772-15.56-2.53-31.08-5.358-46.426-1.415-7.63-3.044-15.218-4.93-22.763C10.63 16.204 8.617 9.002 5.058 2.358c-.214-.386-.728-.386-1.028-.129C2.572 3.56 2.143 5.316 1.8 7.16 1.33 9.774.986 12.475.814 15.133c-.342 5.572 0 11.145.944 16.675l.771-.771C.043 30.35.343 35.709.3 36.91c-.171 4.2.472 8.402 1.715 12.431.343-.214.729-.428 1.072-.643-.558-.643-1.03-.857-1.887-.771-.343.043-.643.257-.643.643.129 6.516 1.415 12.903 3.816 18.99.3-.257.643-.471.943-.728-4.287-2.058-1.8 7.63-1.458 9.088 1.286 5.573 3.601 10.888 6.688 15.69.514.771 1.629.128 1.157-.558z" transform="translate(-525 -166) translate(525 166) translate(320.655 256.781)"/>
                        <path d="M18.52 48.227c-.387-2.744-.472-5.53-.13-8.274.086-.686 1.715-8.745 2.53-8.402.428.214.943-.043.986-.557.257-5.487 1.972-10.374 3.986-15.433 2.015-5.015 3.987-9.86 7.33-14.19h-.9c2.444 2.787 2.144 7.031 2.273 10.504.171 3.9.3 7.802.343 11.703.085 7.673-.043 15.346-.386 23.02-.729 15.69-2.487 31.337-5.144 46.812-.129.814 1.114 1.157 1.243.343 2.786-16.119 4.544-32.451 5.273-48.827.343-8.23.428-16.461.257-24.692-.086-4.116-.172-8.23-.472-12.346-.171-2.7-.6-5.359-2.486-7.46-.214-.257-.686-.257-.9 0-3.301 4.288-5.359 9.003-7.33 14.019-2.187 5.401-4.03 10.63-4.33 16.547.342-.172.643-.386.985-.558-2.614-1.157-3.472 4.416-3.815 5.916-.943 4.03-1.029 8.102-.428 12.175-.043.857 1.2.514 1.114-.3zM3.3 136.45c13.419 4.33 27.951 4.115 41.24-.6.772-.258.429-1.5-.343-1.244-13.075 4.63-27.35 4.845-40.553.6-.815-.257-1.158.987-.343 1.244z" transform="translate(-525 -166) translate(525 166) translate(320.655 256.781)"/>
                        <path d="M42.482 92.424c.515 6.945 1.072 13.89 1.544 20.834.471 7.073.643 14.232-.515 21.263-.128.814 1.115 1.157 1.243.343 1.158-6.902 1.072-13.847.6-20.792-.47-7.201-1.028-14.446-1.585-21.648-.043-.814-1.33-.814-1.287 0z" transform="translate(-525 -166) translate(525 166) translate(320.655 256.781)"/>
                    </g>
                </g>
                <g>
                    <path fill="#FFF" d="M84.193 287.646c8.745-4.673 17.533-9.345 26.279-14.018 4.115.686 9.774 1.586 16.547 2.53 13.546 1.886 35.366 4.93 62.973 5.744 27.607.814 48.313-.943 56.2-1.715 18.991-1.8 30.48-4.244 39.868-6.773 8.53-2.315 15.561-4.844 20.577-6.773 4.115 1.371 8.702 3.215 13.589 5.744 2.786 1.458 5.359 2.958 7.63 4.458-8.059 2.315-18.904 5.273-31.808 8.274-27.178 6.344-48.012 9.345-52.385 9.988-24.992 3.558-60.615 8.574-105.413 3.387-13.932-1.672-32.494-4.716-54.057-10.846z" transform="translate(-525 -166) translate(525 166) translate(50.156 116.602)"/>
                    <path fill="#161616" d="M83.722 287.689c.214 1.8.471 3.558.686 5.359 3.215.9 7.93 2.186 13.76 3.472 11.146 2.486 22.463 4.201 37.253 5.358 54.614 4.287 98.254.472 98.254.472 21.82-1.93 42.997-3.901 70.347-11.875 10.288-3 18.69-6.044 24.692-8.402l-1.415-6.044c-1.672.686-4.158 1.672-7.202 2.786-20.662 7.545-37.68 10.031-52.856 11.875-33.352 4.115-50.027 6.13-74.505 6.516-27.865.471-65.246-1.2-109.014-9.517z" transform="translate(-525 -166) translate(525 166) translate(50.156 116.602)"/>
                    <path fill="#161616" d="M83.422 288.504v4.115c0 .814 1.286.814 1.286 0v-4.115c0-.858-1.286-.858-1.286 0z" transform="translate(-525 -166) translate(525 166) translate(50.156 116.602)"/>
                    <path fill="#161616" d="M83.893 293.82c32.023 8.659 65.46 9.773 98.426 10.245 31.68.428 63.573-.943 94.782-6.73 17.576-3.259 34.894-8.017 51.613-14.49.772-.3.429-1.543-.343-1.243-29.493 11.446-60.83 17.276-92.338 19.72-31.766 2.443-63.831 1.885-95.597-.044-18.99-1.2-37.81-3.686-56.2-8.66-.814-.256-1.157.987-.343 1.201z" transform="translate(-525 -166) translate(525 166) translate(50.156 116.602)"/>
                    <path fill="#161616" d="M328.714 281.945c.257-1.8.343-3.644.171-5.445-.085-.814-1.371-.814-1.286 0 .129 1.715.129 3.43-.128 5.102-.129.771 1.114 1.157 1.243.343zM84.45 288.375c9.003-4.287 17.834-8.874 26.493-13.847.729-.428.086-1.5-.643-1.114-8.66 4.93-17.49 9.56-26.493 13.846-.771.343-.128 1.458.644 1.115z" transform="translate(-525 -166) translate(525 166) translate(50.156 116.602)"/>
                    <path fill="#161616" d="M110.6 273.928c51.142 9.731 104.299 11.532 155.87 4.159 13.717-1.972 27.35-5.016 40.038-10.675.772-.343.086-1.457-.643-1.114-11.403 5.058-23.577 8.016-35.88 9.945-12.518 1.972-25.164 3.172-37.81 3.987-25.679 1.629-51.485 1.2-77.078-1.243-14.832-1.415-29.536-3.558-44.154-6.302-.814-.128-1.157 1.115-.343 1.243z" transform="translate(-525 -166) translate(525 166) translate(50.156 116.602)"/>
                    <path fill="#161616" d="M306.251 267.198c7.63 2.486 14.79 5.959 21.477 10.374.686.472 1.329-.643.643-1.114-6.773-4.459-14.06-7.974-21.777-10.503-.815-.257-1.158.986-.343 1.243z" transform="translate(-525 -166) translate(525 166) translate(50.156 116.602)"/>
                    <path fill="#161616" d="M84.536 287.689c15.133 5.101 30.908 7.502 46.77 8.788 16.075 1.286 32.28 1.672 48.398 1.672 32.022 0 64.13-2.186 95.682-7.93 17.919-3.259 35.666-7.674 52.942-13.461.772-.258.429-1.5-.343-1.244-30.393 10.117-61.987 16.033-93.881 18.948-31.723 2.915-63.788 3.087-95.597 1.2-18.176-1.114-36.395-3.386-53.714-9.216-.685-.257-1.028.986-.257 1.243zM109.228 42.868c52.385-12.131 106.314-14.79 159.899-15.304 15.175-.171 30.35-.128 45.526-.128.815 0 .815-1.286 0-1.286-53.757-.086-107.77-.129-161.142 7.287-15.004 2.1-29.879 4.759-44.626 8.188-.814.214-.471 1.458.343 1.243z" transform="translate(-525 -166) translate(525 166) translate(50.156 116.602)"/>
                    <path fill="#FFF" d="M317.311 26.278c.557 19.934.9 43.04.772 68.718-.086 14.918-.215 7.802-1.544 69.875-.771 35.753-.986 49.213-3.515 69.876-1.629 13.46-3.6 24.52-5.058 32.022 11.06 3.087 21.605 6.002 30.865 8.574 14.318 3.987 18.133 5.058 23.835 5.873 8.83 1.2 19.59 1.372 32.022-1.158 4.587-37.552 7.116-69.575 8.574-94.095 5.23-86.166.343-125.862-1.543-139.794-2.572-18.776-5.745-34.209-8.188-44.883-9.174 1.758-16.633 3.644-21.863 5.059-17.962 4.93-32.194 10.717-44.111 15.604-4.416 1.843-7.974 3.343-10.246 4.33zM21.777 2.058c-.343 3.686-.729 8.23-1.072 12.174-7.116 81.15-10.674 121.746-11.831 147.853-1.2 28.036-1.286 68.675 4.672 119.217.472 1.028 1.33 2.443 2.873 3.6 2.014 1.501 3.858 1.458 7.501 2.487 2.873.814 4.373 1.629 5.745 2.143 3.944 1.544 12.775 3.301 24.006 2.873 16.119-.644 28.507-5.573 37.596-9.303 8.53-3.472 15.346-7.202 20.062-10.031-2.658-23.878-4.63-49.084-5.744-75.534-2.272-56.243 0-107.9 4.672-153.94-1.972-.772-4.844-1.843-8.23-3.215-5.83-2.358-19.806-8.06-44.412-20.062-9.731-4.716-21.906-10.846-35.838-18.262z" transform="translate(-525 -166) translate(525 166) translate(50.156 116.602)"/>
                    <path fill="#3BB3C1" d="M393.274 1.115c.514 2.829 1.2 6.73 1.972 11.403 1.071 6.644 3.472 22.377 5.23 43.04 1.8 21.52 2.229 40.038 2.271 54.785.13 29.922-.986 51.87-3.9 103.055-.9 15.947-2.23 39.31-3.902 67.818 1.758-.129 3.473-.214 5.23-.343.858-7.116 2.015-17.705 2.915-30.65.686-9.346.986-16.162 1.286-23.493 1.5-33.608 1.758-33.223 2.272-46.94 1.03-27.05.815-47.841.644-66.532-.13-12.903-.515-25.12-1.287-49.556-.557-16.633-1.114-31.38-4.887-50.541-.985-4.887-1.929-8.96-2.614-11.746-1.758-.086-3.473-.172-5.23-.3zM15.218 2.83c-.3 1.5-.771 3.815-1.243 6.644-1.372 8.188-1.715 14.36-1.843 16.376-.943 14.575-2.83 21.69-5.573 54.056-.515 5.916-.9 11.103-1.672 21.52-1.586 21.263-2.358 31.894-2.915 43.897-.6 13.418-.686 22.892-.815 41.84-.128 16.376-.214 28.207.215 43.683.343 12.346 1.029 29.107 2.7 49.084 3.473 1.029 6.902 2.058 10.375 3.086-.043-1.929-.172-5.401-.43-9.73-1.028-19.249-2.7-27.05-3.086-43.083-.128-4.93-.042-8.188 0-12.86.472-33.524-.085-48.828.215-70.605.514-35.538 2.915-63.316 4.972-86.98 1.93-22.377 4.116-41.539 6.002-56.543-2.358-.128-4.63-.257-6.902-.386z" transform="translate(-525 -166) translate(525 166) translate(50.156 116.602)"/>
                    <path fill="#161616" d="M316.282 27.007c1.586 31.465 1.372 63.016.943 94.482-.471 30.78-.686 61.644-3.043 92.38-1.33 17.491-3.43 34.938-6.688 52.214-.171.815 1.072 1.158 1.243.343 5.702-30.222 7.802-60.958 8.745-91.652.986-31.337 1.415-62.76 1.372-94.139-.043-17.876-.343-35.752-1.243-53.628-.086-.814-1.372-.814-1.329 0z" transform="translate(-525 -166) translate(525 166) translate(50.156 116.602)"/>
                    <path fill="#161616" d="M317.868 27.007C341.66 15.218 366.91 6.73 392.974 1.715c.814-.172.471-1.415-.343-1.243-26.15 5.058-51.528 13.632-75.406 25.42-.729.386-.085 1.5.643 1.115z" transform="translate(-525 -166) translate(525 166) translate(50.156 116.602)"/>
                    <path fill="#161616" d="M392.545 1.329c7.073 35.623 9.216 72.019 9.174 108.285-.086 36.267-2.23 72.448-3.987 108.671l-3.087 62.588c-.043.814 1.244.814 1.286 0 1.844-36.953 3.773-73.905 5.445-110.9 1.629-36.267 2.658-72.62.214-108.843-1.372-20.19-3.815-40.296-7.76-60.101-.213-.858-1.457-.515-1.285.3z" transform="translate(-525 -166) translate(525 166) translate(50.156 116.602)"/>
                    <path fill="#161616" d="M307.708 266.34c1.93 2.23 5.359 2.658 8.06 3.473 3.686 1.115 7.416 2.23 11.103 3.344 7.459 2.229 14.875 4.587 22.42 6.473 14.746 3.6 29.879 4.33 44.84 1.757.814-.128.471-1.371-.343-1.243-14.747 2.53-29.665 1.8-44.154-1.757-6.902-1.672-13.675-3.816-20.448-5.873l-10.289-3.087-5.144-1.543c-1.8-.557-3.815-.943-5.101-2.444-.6-.6-1.5.3-.944.9zM393.402 1.372c1.586.386 3.172.771 4.801 1.157.815.215 1.158-1.029.343-1.243-1.586-.386-3.172-.772-4.8-1.157-.815-.172-1.158 1.071-.344 1.243z" transform="translate(-525 -166) translate(525 166) translate(50.156 116.602)"/>
                    <path fill="#3BB3C1" d="M398.118 2.1c4.287 17.32 5.444 35.41 6.687 53.2 1.286 18.176 1.972 36.395 2.272 54.657.515 36.224-.729 72.448-2.786 108.628-1.158 20.491-2.615 40.982-4.116 61.473-.042.815 1.244.815 1.286 0 2.701-36.438 5.145-72.876 6.302-109.4 1.157-36.437 1.072-72.961-1.243-109.4-1.243-19.804-2.358-40.124-7.116-59.458-.257-.857-1.5-.514-1.286.3z" transform="translate(-525 -166) translate(525 166) translate(50.156 116.602)"/>
                    <path fill="#161616" d="M395.331 281.602l5.616-.515c.814-.085.814-1.371 0-1.286l-5.616.515c-.814.085-.814 1.371 0 1.286zM109.186 43.254c-2.873 29.708-4.587 59.501-5.145 89.338-.557 29.965.043 59.972 1.844 89.894.986 16.805 2.4 33.566 4.115 50.285.086.814 1.372.814 1.286 0-3.086-29.665-5.016-59.458-5.787-89.295-.772-29.965-.386-59.972 1.2-89.895.9-16.804 2.144-33.565 3.73-50.327.128-.814-1.158-.814-1.243 0z" transform="translate(-525 -166) translate(525 166) translate(50.156 116.602)"/>
                    <path fill="#161616" d="M22.592 3.087c27.821 15.475 56.714 29.021 86.38 40.553.77.3 1.114-.943.342-1.243C79.735 30.908 50.97 17.405 23.234 1.972c-.728-.429-1.371.686-.642 1.115z" transform="translate(-525 -166) translate(525 166) translate(50.156 116.602)"/>
                    <path fill="#161616" d="M21.263 2.786c-4.759 36.267-8.06 72.748-9.86 109.315-1.8 36.566-2.058 73.176-.857 109.742.685 20.534 1.843 41.068 3.472 61.56.086.814 1.372.814 1.286 0-2.915-36.482-4.287-73.091-4.201-109.658.086-36.61 1.715-73.176 4.801-109.657 1.758-20.491 3.987-40.896 6.645-61.302.085-.814-1.2-.814-1.286 0z" transform="translate(-525 -166) translate(525 166) translate(50.156 116.602)"/>
                    <path fill="#161616" d="M13.975 284.217c23.878 12.989 52.47 10.202 76.734-.086 7.288-3.087 14.318-6.816 21.091-10.889.686-.428.043-1.543-.643-1.114-22.591 13.675-49.084 23.234-75.79 18.262-7.245-1.33-14.276-3.773-20.749-7.288-.686-.386-1.372.729-.643 1.115z" transform="translate(-525 -166) translate(525 166) translate(50.156 116.602)"/>
                    <path fill="#161616" d="M4.501 280.659c3 1.414 6.087 2.615 9.217 3.686.771.257 1.114-.986.343-1.243-3.044-1.029-6.002-2.186-8.917-3.558-.771-.343-1.414.772-.643 1.115z" transform="translate(-525 -166) translate(525 166) translate(50.156 116.602)"/>
                    <path fill="#161616" d="M14.36 3.087C9.732 39.01 5.874 75.019 3.345 111.157.857 147.124-.343 183.177.429 219.228c.428 20.406 1.457 40.811 3.215 61.13.086.815 1.372.815 1.286 0C1.843 244.307.943 208.126 1.8 171.946c.815-36.053 3.301-72.062 6.86-107.986 2.014-20.32 4.372-40.639 6.987-60.915.129-.772-1.158-.772-1.286.043z" transform="translate(-525 -166) translate(525 166) translate(50.156 116.602)"/>
                    <path fill="#161616" d="M15.09 3.987c2.486-.515 4.972-.686 7.544-.558.815.043.815-1.243 0-1.286-2.657-.128-5.272.086-7.887.6-.815.172-.472 1.415.343 1.244zM332.7 29.922c1.801 49.727 1.715 99.497-.342 149.225-.558 13.932-1.286 27.821-2.187 41.753-.042.815 1.244.815 1.287 0 3.129-49.641 4.33-99.411 3.6-149.181-.214-13.933-.557-27.865-1.071-41.797-.043-.814-1.33-.814-1.286 0zM353.492 12.089c1.715 34.595 2.572 69.275 2.529 103.913 0 34.637-.857 69.318-2.572 103.912-.943 19.591-2.186 39.139-3.687 58.687-.043.814 1.243.814 1.286 0 2.658-34.552 4.459-69.147 5.445-103.784.943-34.638 1.071-69.318.343-103.956-.43-19.59-1.115-39.181-2.058-58.772-.043-.815-1.33-.815-1.286 0zM378.441 4.458c2.4 35.967 3.858 72.019 4.244 108.114.386 36.224-.214 72.405-1.843 108.585-.9 20.277-2.144 40.554-3.73 60.788-.043.814 1.243.814 1.286 0 2.744-35.967 4.544-72.019 5.273-108.071.729-36.181.472-72.405-.814-108.628-.73-20.277-1.758-40.554-3.13-60.83-.043-.815-1.329-.815-1.286.042zM328.285 236.976c-.986 11.231-2.786 22.377-5.401 33.351-.172.815 1.029 1.158 1.243.343 2.658-11.103 4.458-22.334 5.444-33.694.086-.815-1.2-.815-1.286 0zM36.652 11.446c-5.144 35.966-7.33 72.319-7.673 108.628-.3 36.524 1.2 73.005 3.43 109.443 1.243 20.62 2.7 41.196 4.158 61.816.043.814 1.329.814 1.286 0-2.572-36.31-5.145-72.619-6.56-108.971-1.414-36.267-1.628-72.62.472-108.886 1.2-20.62 3.173-41.24 6.088-61.687.171-.772-1.072-1.158-1.2-.343zM61.302 23.449c-3.258 34.766-5.445 69.66-6.173 104.599-.686 34.894.128 69.79 3 104.598 1.587 19.334 3.816 38.582 6.73 57.744.13.814 1.372.471 1.244-.343-5.23-34.552-8.23-69.447-9.345-104.384-1.115-34.467-.472-69.018 1.414-103.442 1.072-19.59 2.572-39.181 4.416-58.73.085-.857-1.2-.857-1.286-.042zM85.994 33.694c-4.201 32.452-6.645 65.117-7.288 97.826-.643 32.708.472 65.46 3.344 98.04 1.629 18.176 3.772 36.266 6.473 54.314.129.814 1.372.471 1.243-.343-4.844-32.323-7.93-64.86-9.26-97.483-1.328-32.537-.857-65.16 1.33-97.696 1.243-18.262 3.043-36.524 5.4-54.7.172-.772-1.114-.772-1.242.042z" transform="translate(-525 -166) translate(525 166) translate(50.156 116.602)"/>
                    <path fill="#3F3F3F" d="M368.839 7.373c4.758 19.42 8.616 42.183 9.902 67.69 3.215 64.902-12.046 117.93-25.335 151.967-9.388 15.047-18.733 30.094-28.122 45.14 9.131 3.945 22.678 8.531 39.568 9.903 11.66.943 21.777.086 29.665-1.2.085-1.886 1.5-30.565 1.586-32.451 4.673-96.068 4.973-102.627 5.144-109.229.772-26.878.643-65.46-3.944-113.6-1.586-8.188-3.172-16.376-4.758-24.521-7.845 2.057-15.776 4.158-23.706 6.301z" opacity=".12" transform="translate(-525 -166) translate(525 166) translate(50.156 116.602)"/>
                    <path fill="#3F3F3F" d="M69.661 28.336c-1.115 4.673-2.786 11.66-4.758 20.19-8.746 38.068-15.176 66.06-18.605 91.825-6.088 45.397-11.96 89.38 13.075 125.475 7.287 10.503 15.26 17.576 20.576 21.777-5.144 2.015-11.531 3.858-18.99 4.759-20.749 2.443-37.381-4.287-45.526-8.317-3.087-28.421-5.23-58.858-5.916-91.052C7.973 121.746 13.76 57.701 22.592 2.615c15.647 8.574 31.336 17.147 47.069 25.72z" opacity=".13" transform="translate(-525 -166) translate(525 166) translate(50.156 116.602)"/>
                </g>
                <g>
                    <path fill="#000" d="M6.687 6.645c-.557.428-.128 2.1.643 4.972.3 1.115.6 1.972.772 2.53-.343 2.314-.643 4.63-.986 6.944-.686.086-2.443.472-4.072 1.886-1.5 1.33-2.1 2.873-2.315 3.558 1.372.13 3.043.43 4.844.986 2.615.815 4.673 1.93 6.173 2.873 0 .514.086 1.5.772 2.229.6.6 1.328.686 1.757.771 1.543.258 3.387.6 5.744 1.115 1.03.6 2.744 1.586 4.845 2.744 7.116 3.858 9.688 4.5 16.804 8.273 4.587 2.444 4.201 2.53 7.416 4.073 4.93 2.4 9.174 3.815 12.046 4.63 1.2-1.33 3.13-3.902 4.201-7.631.858-2.958.815-5.53.643-7.202.729.386 1.886.814 3.215.643 3.43-.386 5.616-4.287 6.302-7.073.6-2.444.043-3.987-.429-6.86-1.071-6.43-2.014-12.174.643-15.818 2.23-3.043 6.816-4.458 10.503-8.53.343-.386.986-1.115.772-1.458-.386-.643-3.387.472-4.844 1.115-.943.428-8.017 3.686-10.16 11.06-.343 1.157-.386 4.5-.429 11.145-.043 4.845.043 7.588-1.886 9.174-.986.815-2.444 1.286-3.772.986-1.972-.428-2.916-2.358-3.773-3.644-2.229-3.386-5.401-4.8-9.302-6.73-3.044-1.5-5.659-2.058-10.932-3.215-4.972-1.072-6.473-.943-8.616-2.53-2.4-1.8-3.73-4.329-4.416-5.744-.686-1.329-1.757-3.43-2.229-6.43-.257-1.757-.214-3-.643-3.086-.771-.172-1.157 3.386-3.772 4.63-1.586.771-2.615.042-5.402.128-1.8.043-3.858.429-6.173 1.458-.771-.558-3.172-2.53-3.944-1.972z" transform="translate(-525 -166) translate(525 166) translate(68.16 92.167)"/>
                    <path fill="#000" d="M7.973 20.748c-.9-7.073 5.53-13.503 12.647-12.775 6.73.686 11.188 8.874 10.974 15.004-.043.815 1.243.815 1.286 0 .214-6.773-4.844-15.69-12.26-16.29-7.802-.643-14.919 6.26-13.933 14.061.13.772 1.415.815 1.286 0z" transform="translate(-525 -166) translate(525 166) translate(68.16 92.167)"/>
                    <path fill="#000" d="M7.845 25.207c2.615 5.1 8.23 8.702 14.104 7.93 5.358-.729 9.902-5.058 10.717-10.417.128-.814-1.115-1.157-1.244-.343-.728 4.887-4.758 8.831-9.645 9.474-5.358.729-10.417-2.615-12.818-7.287-.385-.73-1.5-.086-1.114.643z" transform="translate(-525 -166) translate(525 166) translate(68.16 92.167)"/>
                    <path fill="#000" d="M12.475 31.422c-.129-1.629 4.5-2.314 5.658-2.572 2.1-.471 4.244-.728 6.388-.728 3.986 0 7.802 1.028 11.188 3.129.686.429 1.372-.686.643-1.115-4.372-2.7-9.474-3.643-14.532-3.172-2.658.257-5.273.815-7.802 1.672-1.372.472-3 1.072-2.872 2.786.085.815 1.414.815 1.329 0zM30.908 16.59c2.7 3.258 7.073 4.03 10.974 4.887 5.187 1.2 10.546 2.272 15.09 5.144 9.388 5.916 11.146 18.82 3.73 27.093-.558.6.342 1.543.9.9 6.601-7.33 6.773-18.562-.043-25.85-3.601-3.858-8.745-5.872-13.76-7.201-5.102-1.33-12.433-1.544-16.034-5.916-.471-.6-1.371.3-.857.943z" transform="translate(-525 -166) translate(525 166) translate(68.16 92.167)"/>
                    <path fill="#000" d="M60.916 39.01c-2.144-2.83-5.916-3.815-9.217-2.443-4.072 1.672-4.287 6.687-3.815 10.502.086.815 1.372.815 1.286 0-.386-3-.429-7.63 2.658-9.13 2.658-1.33 6.13-.644 7.93 1.757.515.643 1.63 0 1.158-.686z" transform="translate(-525 -166) translate(525 166) translate(68.16 92.167)"/>
                    <path fill="#000" d="M48.998 46.47c-2.357-1.801-4.8-3.345-7.844-2.53-.343.086-.515.472-.43.772.772 3 5.488 4.244 7.974 5.315 3.816 1.672 7.717 3.087 11.66 4.33.772.257 1.115-.986.343-1.243-3.172-.986-6.258-2.058-9.345-3.344-1.672-.686-3.3-1.415-4.93-2.186-1.457-.686-4.072-1.5-4.5-3.215-.13.257-.3.514-.43.771 2.658-.728 4.845.858 6.817 2.4.685.558 1.328-.556.685-1.07zM11.317 31.294c1.672 2.743 5.059 3.215 8.017 3.644 4.372.643 8.745.643 13.117.171.815-.086.815-1.372 0-1.286-3.515.386-7.03.472-10.545.129-2.958-.3-7.717-.472-9.517-3.301-.386-.729-1.5-.086-1.072.643zM1.329 26.921c.557-3 3.172-4.544 6.087-4.672-.214-.172-.428-.3-.6-.472.214 1.029.514 2.015.943 2.958.3.772 1.543.429 1.243-.343-.385-.986-.686-1.929-.943-2.958-.043-.257-.343-.471-.6-.471-3.43.171-6.687 2.057-7.33 5.615-.172.815 1.071 1.158 1.2.343zM8.788 13.632C8.145 11.79 7.673 9.86 7.502 7.888c0-.172-.043-.343-.043-.515-.043-.385 0-.343.172.129.385.257.771.557 1.157.857.643.558 1.243 1.158 1.758 1.8.557.644 1.457-.3.9-.9-.729-.857-3.773-4.372-5.059-3-.643.686-.171 2.272-.042 3.043.214 1.587.643 3.173 1.157 4.673.343.772 1.586.472 1.286-.343zM23.277 7.63c.386-.685.772-1.371 1.2-2.057.172-.3.344-.557.472-.857.258-.43.258-.815.772-.686.6.128.386 1.543.386 2.057 0 .815.043 1.63.043 2.444 0 .814 1.286.814 1.286 0 0-1.33.043-2.658-.043-3.987-.043-.857-.343-1.8-1.286-2.1-.858-.258-1.458.3-1.886.943-.73 1.157-1.372 2.4-2.058 3.558-.429.771.686 1.414 1.114.686zM64.345 35.666c.257 3.258 3.901 4.33 6.43 2.744 3.73-2.315 4.545-7.545 4.073-11.489-.643-5.401-1.93-10.417-.086-15.775 1.758-5.102 6.13-9.26 11.66-9.603.815-.043.815-1.329 0-1.286-7.544.472-12.689 6.902-13.76 14.018-.643 4.244.3 8.188.857 12.346.343 2.744.172 5.359-1.072 7.888-.557 1.072-1.329 2.143-2.357 2.83-1.586.985-4.33.685-4.502-1.63 0-.857-1.286-.9-1.243-.043z" transform="translate(-525 -166) translate(525 166) translate(68.16 92.167)"/>
                    <path fill="#000" d="M65.031 37.981c1.33 3.558 5.959 1.972 7.974-.085 3.3-3.344 2.572-8.917 2.315-13.161-.043-.815-1.33-.815-1.286 0 .171 2.7.428 5.616-.043 8.316-.215 1.286-.686 2.487-1.544 3.516-.943 1.157-5.058 4.072-6.173 1.071-.3-.771-1.543-.428-1.243.343z" transform="translate(-525 -166) translate(525 166) translate(68.16 92.167)"/>
                    <path fill="#000" d="M86.465.214c-4.887 1.887-9.817 4.544-11.788 9.689-2.272 5.915-.643 12.346-.772 18.476 0 .814 1.286.814 1.286 0 .129-5.359-1.157-10.846.129-16.162 1.414-5.83 6.258-8.745 11.488-10.76.772-.3.429-1.543-.343-1.243z" transform="translate(-525 -166) translate(525 166) translate(68.16 92.167)"/>
                    <path fill="#000" d="M85.48.943c-4.502 2.058-8.617 5.659-10.718 10.246-1.114 2.4-.943 5.058-.943 7.673 0 3.344.129 6.73.386 10.074.043.815 1.329.815 1.286 0-.171-2.7-.3-5.358-.343-8.06-.043-2.828-.429-6.172.643-8.83 1.843-4.501 6.002-7.974 10.331-9.988.772-.343.129-1.458-.643-1.115z" transform="translate(-525 -166) translate(525 166) translate(68.16 92.167)"/>
                    <path fill="#FFF" d="M10.503 16.461c1.2 2.101 4.244 1.372 4.544-.943.043-.428-.6-.385-.643 0-.215 1.758-2.444 2.1-3.344.643-.214-.385-.772-.043-.557.3zM19.59 14.79c1.33 2.272 4.716 1.371 4.76-1.244 0-.428-.644-.428-.644 0-.043 2.015-2.53 2.658-3.558.943-.214-.385-.772-.085-.557.3zM17.019 17.619c.3 1.243.043 2.486-.73 3.515-.256.343.301.643.558.343.858-1.157 1.115-2.615.815-4.03-.129-.385-.772-.214-.643.172z" transform="translate(-525 -166) translate(525 166) translate(68.16 92.167)"/>
                    <path fill="#FFF" d="M17.276 17.576c-.129 1.629.772 3.172 2.272 3.858.386.172.686-.386.343-.557-1.286-.6-2.1-1.886-1.972-3.301 0-.429-.643-.429-.643 0zM6.816 21.391c3.772-.3 6.173 2.787 8.702 5.059.3.257.772-.172.472-.472-2.658-2.4-5.23-5.53-9.174-5.273-.386.043-.386.686 0 .686zM13.846 28.936c4.845-3.086 10.589-4.115 16.205-2.872.385.086.557-.515.171-.6-5.787-1.243-11.703-.215-16.676 2.958-.385.171-.042.728.3.514zM26.021 34.809c3.987.257 7.76-.986 10.803-3.6.3-.258-.129-.73-.472-.472-2.915 2.486-6.516 3.686-10.331 3.429-.386 0-.386.643 0 .643zM24.864 4.373c-.944 1.586-1.158 3.429-.6 5.187.128.385.728.214.6-.172-.515-1.586-.343-3.258.514-4.672.257-.386-.3-.73-.514-.343zM7.888 8.36c1.029.642 1.672 1.628 1.929 2.786.086.386.686.214.6-.172-.3-1.329-1.072-2.443-2.23-3.172-.342-.214-.642.343-.3.557zM30.565 15.218c.815.986 1.758 1.844 2.83 2.487.342.214.685-.343.342-.558-1.029-.643-1.972-1.457-2.7-2.4-.3-.3-.73.171-.472.471zM57.015 36.267c-.9-2.272-5.23-.73-6.645.171-2.529 1.672-3.644 4.801-2.7 7.673.128.386.728.215.6-.171-.73-2.272-.129-4.716 1.672-6.387.771-.73 1.8-1.244 2.829-1.5.729-.215 3.215-.687 3.6.342.172.429.772.257.644-.128z" transform="translate(-525 -166) translate(525 166) translate(68.16 92.167)"/>
                    <path fill="#FFF" d="M48.184 44.154c-3.344-1.414-6.902-1.543-10.374-.471-.386.128-.215.729.171.6 3.387-1.072 6.773-.9 10.031.471.386.172.558-.471.172-.6z" transform="translate(-525 -166) translate(525 166) translate(68.16 92.167)"/>
                </g>
                <g>
                    <g>
                        <path fill="#3BB3C1" d="M3.901 18.82c-1.758 4.2-1.758 7.33-2.015 15.389-.3 9.945-1.157 19.848-1.243 29.75-.086 8.36-.214 21.006-.557 37.467 13.718.772 28.893.943 45.354.129 15.69-.772 30.18-2.358 43.254-4.33-6.173-20.877-10.245-36.095-13.16-47.884-1.543-6.301-3.815-15.732-10.074-26.75-3.43-6.044-6.988-10.588-9.603-13.632-.686-.6-15.818-13.332-33.308-7.33-.858.343-13.59 4.973-18.648 17.19z" transform="translate(-525 -166) translate(525 166) translate(177.475 58.73) translate(52.728 237.062)"/>
                        <path fill="#3BB3C1" d="M29.15 43.811c2.873 5.102 5.745 10.203 8.574 15.304.386.73 1.5.086 1.115-.643-2.873-5.101-5.745-10.202-8.574-15.304-.386-.728-1.5-.085-1.115.643z" transform="translate(-525 -166) translate(525 166) translate(177.475 58.73) translate(52.728 237.062)"/>
                        <path fill="#16565E" d="M28.807 43.554c6.602 8.23 10.417 17.619 12.475 27.907 1.93 9.732 3.172 19.591 3.901 29.494.043.814 1.33.814 1.286 0-.771-10.16-2.057-20.32-4.03-30.308-2.057-10.331-6.087-19.762-12.688-27.993-.515-.686-1.458.257-.944.9z" transform="translate(-525 -166) translate(525 166) translate(177.475 58.73) translate(52.728 237.062)"/>
                        <path fill="#3F3F3F" d="M39.139.643c1.5 3 3.644 7.416 6.044 12.732 6.988 15.518 14.232 31.894 18.09 52.042 1.587 8.145 3.087 19.934 2.444 34.638 3.601-.172 7.416-.472 11.403-.9 3.987-.43 7.802-.944 11.403-1.544-1.115-3.772-2.915-9.774-4.93-17.19-5.616-20.748-6.387-27.221-11.188-40.896-3.559-10.16-6.86-17.062-11.618-23.664C56.5 9.903 52.471 6.173 47.37 3.558 44.197 1.93 41.24 1.115 39.14.643z" opacity=".19" transform="translate(-525 -166) translate(525 166) translate(177.475 58.73) translate(52.728 237.062)"/>
                        <path fill="#073035" d="M28.893 44.026c1.672 6.258 3.13 13.718 3.815 22.12 1.2 14.532-.342 26.921-2.229 36.18l14.747-.9c-.514-9.73-1.629-17.919-2.7-24.134-2.701-15.819-5.53-21.692-7.803-25.464-2.143-3.473-4.287-6.088-5.83-7.802z" opacity=".11" transform="translate(-525 -166) translate(525 166) translate(177.475 58.73) translate(52.728 237.062)"/>
                    </g>
                    <g>
                        <path fill="#FFF" d="M17.276 1.072c-1.415.943-2.272 2.743-3.944 6.301-1.372 2.915-2.015 5.187-3.044 8.574C7.46 25.549 7.76 23.92 6.773 27.564c-1.286 4.844-3.6 13.332-4.887 24.521C.643 62.931.9 71.29.943 73.305c.472 12.732 2.7 22.206 4.201 28.293 2.658 10.931 6.216 20.02 13.29 38.153 1.543 3.9 2.829 7.116 3.729 9.345-.643.086-1.672.214-2.915.386-6.473.771-7.373.6-9.988 1.157-3.344.729-6.345 1.458-7.502 3.987-.515 1.157-.73 2.786-.086 3.344.814.685 2.4-.858 5.144-1.758 2.315-.729 4.373-.686 5.787-.472-1.114 2.187-1.757 4.159-2.143 5.573-.943 3.258-1.672 5.916-.472 7.802.6.943 1.758 1.8 2.701 1.544.514-.129.986-.6 2.272-3.987 1.243-3.387 1.329-4.458 2.358-5.787.9-1.115 1.929-1.715 2.615-2.058-.343 1.072-.729 2.658-.9 4.587-.086 1.157-.215 2.229 0 3.6.171 1.244.557 3.902 2.529 5.36.343.257 1.757 1.328 2.615.771.728-.429.514-1.629.814-5.487.257-3.258.515-4.158.729-4.673.557-1.5 1.415-2.572 2.058-3.215-.215 3.087-.172 5.659-.086 7.545.171 3.044.471 4.415 1.457 5.273.558.471 1.5.943 2.272.6.772-.343 1.03-1.415 1.244-2.744.943-5.015.385-6.473 1.457-9.002.429-.986.9-2.186 2.058-3.044 2.443-1.8 5.916-.728 6.387-.6 2.058.643 2.83 1.758 3.858 1.286.858-.386 1.33-1.629 1.372-2.658.043-2.529-2.743-4.458-5.144-6.044-1.2-.815-3-1.886-5.401-2.744-2.101-4.158-4.759-10.202-6.945-17.876-1.458-5.144-2.144-9.088-2.787-12.817-2.272-13.075-1.457-18.09-3.986-31.08-.6-3.13-1.2-5.616-1.544-7.03.172-2.144.472-5.487.9-9.56 1.415-13.289 2.358-21.605 5.23-31.38 2.273-7.673 4.587-13.975 4.587-13.975 2.916-7.844 3.859-8.916 3.516-11.445C35.024 4.5 22.549-2.443 17.276 1.072z" transform="translate(-525 -166) translate(525 166) translate(177.475 58.73) translate(9.431 181.761)"/>
                        <path fill="#161616" d="M13.975 5.144C6.345 22.764 1.543 41.582.515 60.787-.558 80.378 2.828 99.54 9.173 118.06c3.6 10.589 7.973 20.877 12.432 31.165.343.772 1.414.086 1.114-.643-7.716-17.833-15.26-35.923-18.862-55.042C.3 74.677 1.028 55.17 5.144 36.438 7.46 25.935 10.803 15.69 15.09 5.83c.3-.772-.772-1.457-1.115-.686zM29.965 29.622c-5.401 16.333-8.23 33.437-8.53 50.627 0 .815 1.285.815 1.285 0 .3-17.104 3.13-34.037 8.488-50.284.257-.772-.986-1.115-1.243-.343z" transform="translate(-525 -166) translate(525 166) translate(177.475 58.73) translate(9.431 181.761)"/>
                        <path fill="#161616" d="M16.933 72.447c3.815 5.316 5.359 11.66 6.259 18.005.943 6.473 1.372 13.032 2.315 19.505 1.886 13.16 4.972 26.278 11.188 38.067.386.729 1.5.086 1.115-.643-6.473-12.26-9.517-25.935-11.317-39.567-1.587-11.96-1.115-25.807-8.445-36.01-.472-.643-1.587 0-1.115.643zM21.434 148.624c-3.987.215-7.973.6-11.874 1.33-2.787.557-5.745 1.457-7.674 3.686-1.114 1.329-2.529 4.501-.086 5.401 1.072.386 2.015-.343 2.916-.857 2.229-1.286 4.544-2.615 7.201-1.886.815.214 1.158-1.03.343-1.243-2.186-.6-4.158-.086-6.13.9-.6.3-1.157.6-1.715.943-.343.171-.643.386-.986.6-.385-.686-.814-1.372-1.2-2.058.086-1.071 2.23-2.315 3-2.743 2.101-1.115 4.545-1.5 6.86-1.844 3.13-.471 6.259-.771 9.388-.943.815-.043.815-1.329-.043-1.286z" transform="translate(-525 -166) translate(525 166) translate(177.475 58.73) translate(9.431 181.761)"/>
                        <path fill="#161616" d="M17.919 152.44c-3.387.557-6.173 2.872-7.46 6.001-1.37 3.258-2.528 8.102-.942 11.446 1.2 2.53 4.158 3.43 5.273.343.685-1.93.557-4.03 1.243-5.959.857-2.4 2.315-4.458 4.458-5.873.686-.471.043-1.586-.643-1.114-2.015 1.329-3.515 3.13-4.501 5.315-.515 1.115-.9 2.272-1.158 3.473-.214.986-.343 5.958-2.7 4.5-1.33-.814-1.458-3.429-1.415-4.758.086-1.971.6-4.243 1.243-6.13 1.072-3.172 3.601-5.444 6.902-6.001.857-.129.514-1.372-.3-1.243z" transform="translate(-525 -166) translate(525 166) translate(177.475 58.73) translate(9.431 181.761)"/>
                        <path fill="#161616" d="M21.949 155.612c-2.658 1.715-3.601 5.444-3.859 8.445-.257 3.215.643 6.687 3.044 8.96 1.415 1.328 3.601 2.014 3.987-.472.643-4.158-1.029-10.031 3.515-12.518.729-.386.086-1.5-.643-1.114-1.629.9-2.658 2.357-3.3 4.115-.901 2.572-.387 5.187-.773 7.845-.171 1.2-.514 2.486-1.843 1.243-.471-.429-.9-.986-1.243-1.543-.815-1.286-1.286-2.744-1.415-4.244-.3-3 .472-7.802 3.215-9.603.643-.471 0-1.586-.685-1.114z" transform="translate(-525 -166) translate(525 166) translate(177.475 58.73) translate(9.431 181.761)"/>
                        <path fill="#161616" d="M28.036 159.041c-.815 3.087-1.586 6.302-1.072 9.517.214 1.543 1.115 5.316 3.087 5.702 2.229.428 3.129-3.516 3.343-4.973.472-3.172-.128-6.988 2.358-9.431.6-.6-.3-1.5-.9-.9-3 2.957-1.972 7.244-2.872 11.017-.3 1.372-1.158 3.43-2.572 1.843-.772-.814-.986-2.4-1.158-3.472-.428-3.001.3-6.002 1.072-8.917.171-.814-1.072-1.157-1.286-.386z" transform="translate(-525 -166) translate(525 166) translate(177.475 58.73) translate(9.431 181.761)"/>
                        <path fill="#161616" d="M37.295 148.753c2.53 1.029 5.145 2.143 7.117 4.115.9.9 2.014 2.272 2.272 3.558.643 3.558-2.015 1.286-3.001.858-2.7-1.2-8.06-.343-9.603 2.4-.386.73.729 1.372 1.115.643.814-1.5 3.044-1.886 4.587-2.1.943-.129 2.015-.215 2.915.043 1.029.3 1.672 1.2 2.658 1.5 1.414.429 2.486-.557 2.7-1.929.386-2.23-1.543-4.716-3.043-6.173-2.1-2.015-4.802-3.13-7.46-4.201-.685-.257-.985.986-.257 1.286z" transform="translate(-525 -166) translate(525 166) translate(177.475 58.73) translate(9.431 181.761)"/>
                        <path fill="#3F3F3F" d="M28.636 15.776c-4.93.3-7.888 12.903-9.517 19.89-1.843 7.845-3.515 18.648-3.172 34.38.3 14.062 2.1 24.779 2.7 28.508 2.701 16.033 6.945 29.494 11.104 40.04 1.371 3.857 2.7 7.715 4.072 11.53-.772 3.173-1.543 6.43-2.272 9.818-.943 4.458-1.8 8.83-2.486 13.031.814.086 1.929.043 2.7-.728.986-.986.858-2.572.9-3.944.043-1.286.172-7.502 2.959-9.817 1.714-1.415 4.458-1.415 6.344-.729 1.93.729 2.786 2.144 4.073 1.715.986-.3 1.671-1.5 1.8-2.444.429-3.129-5.573-6.344-6.559-6.858-1.929-1.03-2.83-1.158-4.072-2.444-1.544-1.629-2.058-3.558-2.272-4.415-3.558-13.547-5.316-12.69-7.717-28.25-1.8-11.746-.643-11.06-2.486-20.406-1.286-6.602-2.358-9.302-2.7-15.004-.387-6.259.342-11.145 1.114-15.475 3.215-17.705 9.388-39.139 10.888-44.24-1.371-2.144-3.258-4.287-5.401-4.158z" opacity=".13" transform="translate(-525 -166) translate(525 166) translate(177.475 58.73) translate(9.431 181.761)"/>
                    </g>
                    <g>
                        <path fill="#FFF" d="M53.971 21.306c-1.329-.043-2.358 2.357-2.615 3-.386.943-.986 2.787-.557 5.402 0 0 .257 1.8 1.114 12.689.215 2.443.258 6.001-.385 10.46-1.715 4.715-3.344 8.402-4.459 10.802-3.772 8.06-6.301 11.275-11.574 21.477-1.972 3.816-2.143 4.416-4.458 9.131-5.788 11.703-10.032 19.034-14.361 26.879-3.816 6.859-9.174 16.933-15.476 29.879-.3 1.115-1.8 7.073 1.672 12.303 3.687 5.53 11.403 8.017 18.862 5.616 1.158-1.63 2.787-4.158 4.287-7.46 1.458-3.214 2.143-5.7 2.615-7.287.472-1.586 2.358-6.944 6.173-17.747 1.2-3.344 2.658-7.33 5.616-15.133 4.501-11.96 6.73-17.919 8.23-21.648 3.387-8.488 5.96-14.361 11.018-25.764 2.657-6.002 5.915-13.246 9.688-21.477 2.186-1.243 5.187-3.172 8.402-5.959 4.63-3.987 6.945-7.373 11.403-13.803 2.872-4.201 5.058-7.888 4.458-11.575-.085-.514-.3-2.015-1.114-2.229-1.03-.3-2.315 1.758-3.73 3.558-1.457 1.843-3.644 4.244-6.902 6.73 1.115-3.086 2.23-5.487 3.001-7.073 1.758-3.6 3.215-5.916 4.116-9.902.986-4.244.085-5.016-.172-5.23-1.157-.858-3.13.771-4.287-.172-1.029-.9-.128-2.872-.943-3.344-.814-.471-2.615.944-3.9 2.444-2.23 2.572-2.744 5.058-3.559 7.459-.772 2.358-2.186 5.573-4.844 9.131-.643.086-1.5.129-1.886-.386-.429-.6.171-1.586.729-3.172.128-.386.042-.172.943-4.115.343-1.5.986-4.287 1.5-6.516.729-3.216 1.072-4.544.386-5.96-.129-.3-.686-1.457-1.5-1.5-.944-.042-1.672 1.458-2.23 2.615-2.272 4.673-3.43 7.03-3.73 7.845-1.5 4.073-3.514 10.289-3.815 12.432-.042.257-.128 1.158-.557 2.315-.214.557-.343.772-.471 1.115-1.072 2.4-.172 3.986-1.286 4.844-.129.085-.772.557-1.286.386-.558-.172-.815-.9-1.115-3.344-.429-3.344-.172-4.33-.943-5.787-.515-.643-1.158-1.887-2.058-1.93z" transform="translate(-525 -166) translate(525 166) translate(177.475 58.73) translate(71.59)"/>
                        <path fill="#161616" d="M51.913 41.154c.3-3.13-.171-6.173-.342-9.303-.086-1.5-.086-3.044.128-4.544.129-.857.3-1.715.557-2.53.43-1.242.472-2.271 1.844-2.314 1.286-.043 1.2.729 1.414 1.8.215.944.258 1.93.3 2.873.086 1.329.13 2.7.43 3.986.3 1.33 1.114 2.444 2.614 1.972.772-.257.472-1.5-.343-1.243-1.5.429-1.372-4.63-1.457-5.487-.129-1.372-.258-2.786-.772-4.072-.729-1.801-2.4-2.701-3.815-1.03-1.844 2.144-2.23 6.002-2.23 8.66 0 3.772.73 7.46.386 11.232-.042.814 1.244.814 1.286 0z" transform="translate(-525 -166) translate(525 166) translate(177.475 58.73) translate(71.59)"/>
                        <path fill="#161616" d="M59.373 32.58c2.143-4.158 2.786-8.874 4.03-13.332 1.328-4.801 3-9.517 5.486-13.804.558-.943 1.115-2.272 1.93-3 1.586-1.458 1.586 1.328 1.457 2.529-.257 2.658-.943 5.358-1.543 7.973-.558 2.4-1.33 4.716-1.887 7.116-.3 1.33-.3 2.487.643 3.516.558.6 1.458-.3.9-.9-1.071-1.158.044-3.473.387-4.716.385-1.415.771-2.83 1.071-4.244.6-2.615 1.2-5.273 1.586-7.974.215-1.414.515-3.9-.728-4.972-1.072-.9-2.144-.043-2.873.814-3.129 3.901-5.058 9.045-6.601 13.76-1.758 5.445-2.315 11.532-4.973 16.634-.386.686.729 1.329 1.115.6z" transform="translate(-525 -166) translate(525 166) translate(177.475 58.73) translate(71.59)"/>
                        <path fill="#161616" d="M69.79 23.706c1.286.129 1.757-.814 2.357-1.843.943-1.63 1.8-3.344 2.615-5.016 1.586-3.258 2.701-6.816 4.63-9.86.429-.685.943-1.543 1.629-2.057.557-.643 1.286-.858 2.23-.557.128.6.214 1.2.214 1.8.042 2.1-.643 4.201-1.372 6.173-1.458 3.901-3.087 7.76-4.673 11.66-.3.772.943 1.115 1.243.343.9-2.229 10.16-21.777 4.116-21.906-1.2-.042-2.572 1.458-3.258 2.273-1.2 1.414-2.058 3.043-2.83 4.715-.9 2.015-1.714 4.03-2.657 6.002-.558 1.2-1.2 2.443-1.801 3.6-.386.772-1.329 3.43-2.4 3.344-.858-.043-.858 1.243-.043 1.33z" transform="translate(-525 -166) translate(525 166) translate(177.475 58.73) translate(71.59)"/>
                        <path fill="#161616" d="M84.965 7.93c.471-2.486 3.172-.771 3.515.815.3 1.329-.214 2.658-.643 3.901-.643 1.886-1.372 3.73-2.143 5.53-1.5 3.515-3.258 6.86-5.23 10.16-.429.729.686 1.372 1.114.643 1.844-3.044 3.473-6.216 4.93-9.431 1.243-2.787 2.744-5.873 3.215-8.917.3-1.929-.257-4.415-2.4-5.101-1.586-.514-3.301.472-3.601 2.1-.129.772 1.114 1.115 1.243.3z" transform="translate(-525 -166) translate(525 166) translate(177.475 58.73) translate(71.59)"/>
                        <path fill="#161616" d="M82.479 29.493c1.629-1.843 3.215-3.686 4.844-5.53.857-.986 1.629-2.057 2.572-2.915.3-.257.6-.471.857-.728.729.257 1.458.514 2.23.771.214.386-.3 1.5-.43 1.844-1.328 4.072-3.257 7.93-5.53 11.531-4.586 7.245-10.888 13.332-18.261 17.748-.729.428-.043 1.543.643 1.114 9.174-5.487 16.718-13.546 21.477-23.106 1.157-2.315 2.272-4.758 3-7.245.43-1.457.686-3.43-.985-4.2-1.63-.772-3.344.728-4.373 1.8-2.443 2.529-4.673 5.358-6.988 8.016-.514.6.386 1.5.944.9zM50.799 39.825c.3 3.944.6 7.973-.043 11.917-.643 3.901-2.272 7.502-4.072 11.017-3.644 7.116-7.46 14.147-11.19 21.22-7.458 14.146-14.917 28.25-22.376 42.397-4.287 8.102-8.574 16.247-12.86 24.349-.387.729.728 1.372 1.114.643 15.39-29.193 31.08-58.258 46.212-87.623 1.8-3.472 3.472-7.03 4.2-10.846.858-4.33.558-8.702.215-13.074.043-.815-1.243-.815-1.2 0z" transform="translate(-525 -166) translate(525 166) translate(177.475 58.73) translate(71.59)"/>
                        <path fill="#161616" d="M68.675 51.913c-13.718 28.98-25.678 58.644-36.224 88.91-3.086 8.787-6.173 17.575-9.902 26.106-.343.772.771 1.415 1.114.643 6.388-14.532 11.06-29.75 16.547-44.583 5.616-15.261 11.703-30.394 18.177-45.312 3.686-8.445 7.459-16.804 11.403-25.12.343-.73-.772-1.372-1.115-.644z" transform="translate(-525 -166) translate(525 166) translate(177.475 58.73) translate(71.59)"/>
                        <path fill="#3F3F3F" d="M88.051 7.416c-1.757-.257-4.115 6.945-5.487 10.546-4.158 11.06-7.673 12.346-16.59 27.35-3.3 5.53-7.845 13.846-12.432 24.692-13.717 28.893-27.392 57.83-41.11 86.722 3.344 4.073 6.644 8.188 9.988 12.26 1.672-4.758 4.115-11.745 7.16-20.19 5.53-15.218 12.688-34.81 22.805-58.644 4.03-9.431 9.603-22.163 16.762-37.124 1.971-1.243 4.715-3.172 7.716-5.83 4.03-3.515 9.345-8.274 12.989-16.033 1.157-2.4 2.615-6.087 3.387-10.931-.558-.257-1.372-.557-2.273-.386-1.543.3-2.357 1.8-3 2.83-2.487 3.815-6.13 6.344-6.602 6.044-.257-.215.472-1.458 2.443-5.487 4.03-8.274 2.358-6.088 3.944-8.874.9-1.586 1.8-2.958 1.5-4.716 0-.771-.47-2.1-1.2-2.229z" opacity=".1" transform="translate(-525 -166) translate(525 166) translate(177.475 58.73) translate(71.59)"/>
                        <path fill="#3F3F3F" d="M85.436 36.652c-2.143 1.372-5.187 3.387-8.659 6.045-3.987 3-8.273 6.259-11.874 10.374-4.887 5.573-7.03 11.103-8.317 14.318-11.789 30.093-25.807 62.76-29.793 71.847-2.187 4.973-5.616 12.475-10.16 21.477 2.058 2.7 4.158 5.402 6.216 8.102 5.916-18.047 12.732-36.952 20.534-56.543 8.402-21.048 17.104-40.725 25.85-59.03 2.357-1.586 5.015-3.6 7.716-6.215 3.815-3.644 6.558-7.331 8.487-10.375z" opacity=".13" transform="translate(-525 -166) translate(525 166) translate(177.475 58.73) translate(71.59)"/>
                    </g>
                    <g>
                        <path fill="#FFF" d="M20.32 15.433c-1.587 1.071-5.145 3.558-8.788 7.587-3.773 4.158-5.96 8.06-7.76 11.36C2.358 36.91 1.33 39.14.6 40.768c1.115 2.143 2.915 5.444 5.402 9.388 4.415 6.987 7.844 10.76 13.76 18.348 2.487 3.172 6.088 7.93 10.374 13.932.686 3.215 1.286 6.601 1.8 10.16 1.03 7.287 1.416 14.06 1.416 20.148 1.586 1.714 4.33 4.2 8.359 5.958 6.687 2.958 12.775 2.1 15.947 1.586 7.03-1.071 11.831-4.2 15.132-6.387 6.002-3.944 10.074-8.66 12.775-12.56-.557-6.688-1.286-13.59-2.186-20.749-.772-6.087-1.63-12.003-2.572-17.747-.086-4.501-.515-10.631-1.972-17.748-1.2-5.958-2.658-12.903-6.988-21.134C66.446 13.718 59.716 7.502 57.101 5.23c-2.315-2.015-4.416-3.515-5.96-4.587-6.258 3.987-11.66 6.473-15.346 7.974-6.859 2.829-10.074 3.258-15.475 6.816z" transform="translate(-525 -166) translate(525 166) translate(177.475 58.73) translate(22.72 145.323)"/>
                        <path fill="#161616" d="M1.286 40.94c1.329-5.06 5.016-9.775 8.188-13.89 3.344-4.287 7.116-8.188 11.617-11.317.686-.472.043-1.586-.643-1.115-4.63 3.215-8.53 7.202-11.96 11.617-3.3 4.244-7.03 9.046-8.402 14.318-.215.858 1.029 1.158 1.2.386z" transform="translate(-525 -166) translate(525 166) translate(177.475 58.73) translate(22.72 145.323)"/>
                        <path fill="#161616" d="M.343 41.368C9.173 56.8 19.633 71.29 31.508 84.536c.557.6 1.458-.3.9-.9-11.788-13.16-22.162-27.564-30.95-42.911-.43-.729-1.544-.086-1.115.643zM36.61 9.217C41.41 5.83 46.684 3.3 52.3 1.672c.814-.214.47-1.458-.344-1.243-5.744 1.672-11.103 4.244-15.99 7.673-.685.472-.042 1.586.644 1.115z" transform="translate(-525 -166) translate(525 166) translate(177.475 58.73) translate(22.72 145.323)"/>
                        <path fill="#161616" d="M51.228 2.015c20.49 14.275 29.279 39.31 28.293 63.53-.043.815 1.243.815 1.286 0C81.836 40.812 72.747 15.434 51.87.9c-.643-.471-1.286.643-.643 1.115zM28.722 82.007c2.229 4.587 2.486 10.288 2.958 15.261.514 5.059.686 10.16.686 15.261 0 .815 1.286.815 1.286 0 .042-5.658-.215-11.317-.858-16.933-.514-4.758-.857-9.902-2.958-14.275-.385-.729-1.457-.086-1.114.686z" transform="translate(-525 -166) translate(525 166) translate(177.475 58.73) translate(22.72 145.323)"/>
                        <path fill="#161616" d="M33.18 112.786c6.43 7.888 17.405 10.117 26.964 7.674 5.316-1.372 10.246-3.987 14.661-7.245 4.416-3.258 8.617-7.03 11.103-12.003.386-.729-.729-1.372-1.115-.643-2.4 4.758-6.43 8.402-10.674 11.532-4.115 3.043-8.702 5.53-13.675 6.944-9.345 2.615-20.105.6-26.407-7.159-.471-.643-1.371.257-.857.9z" transform="translate(-525 -166) translate(525 166) translate(177.475 58.73) translate(22.72 145.323)"/>
                        <path fill="#161616" d="M79.992 63.617c2.1 12.56 4.158 25.12 4.887 37.81.043.814 1.33.814 1.286 0-.771-12.818-2.83-25.507-4.93-38.153-.128-.815-1.371-.472-1.243.343z" transform="translate(-525 -166) translate(525 166) translate(177.475 58.73) translate(22.72 145.323)"/>
                        <path fill="#3F3F3F" d="M38.239 7.502c4.758 5.616 11.274 14.36 16.718 26.192 7.974 17.32 9.56 32.28 10.76 45.012.943 9.688 1.458 23.192-.429 39.31 3.644-1.586 8.788-4.33 13.761-9.088 2.744-2.658 4.801-5.315 6.345-7.63-1.415-11.96-2.83-23.964-4.244-35.924.257-9.86-1.286-17.833-2.744-23.234-4.501-16.72-13.16-27.479-16.076-30.866C58.344 6.602 54.443 3.172 51.57.9c-4.458 2.23-8.873 4.416-13.331 6.602z" opacity=".13" transform="translate(-525 -166) translate(525 166) translate(177.475 58.73) translate(22.72 145.323)"/>
                        <path fill="#3F3F3F" d="M70.175 22.506c-.771.214 1.03 7.202 2.744 17.533 0 0 2.615 15.69 3.172 30.865.386 10.031-.128 24.692-4.63 42.911 2.058-1.029 4.587-2.529 7.202-4.63 3.173-2.572 5.445-5.272 6.988-7.416-.557-17.276-2.015-26.235-3.387-31.294-.257-.986-.943-3.3-1.5-6.558-1.029-6.088-.515-8.703-1.072-13.761-.429-4.03-1.243-6.688-2.743-11.617-2.272-7.417-5.916-16.29-6.774-16.033z" opacity=".14" transform="translate(-525 -166) translate(525 166) translate(177.475 58.73) translate(22.72 145.323)"/>
                    </g>
                    <g>
                        <path fill="#111A37" d="M42.44 10.074c-2.83 1.586-6.43 3.987-9.903 7.63-7.202 7.674-9.517 16.248-10.331 20.492-.643-.086-2.4-.215-3.816.9-2.1 1.629-2.143 4.844-1.328 6.73.3.686.728 1.243 1.629 2.358 1.071 1.329 1.757 2.143 2.872 2.615.471.214 1.543.514 3.086.171.472 1.415 1.243 3.387 2.4 5.659 1.501 2.915 3.773 7.245 8.317 11.017 1.33 1.115 3.387 2.572 6.173 3.901 1.03 1.33 2.915 4.116 3.13 7.888.428 6.645-4.416 12.175-9.003 14.618-7.973 4.244-16.632 0-19.805-1.586C14.147 91.61 5.53 87.15 1.93 77.377-2.443 65.588 3.258 53.8 6.645 46.77c3.429-7.073 5.015-6.601 7.63-13.503 3.472-9.131 1.63-12.346 5.616-19.334 1.543-2.743 4.673-8.23 11.231-10.803 5.616-2.186 10.803-1.071 13.032-.428C45.998 1.586 49.256 0 53.371 0c9.774 0 16.033 9.26 17.533 11.489 4.458 6.559 2.1 8.573 6.087 17.79 5.016 11.617 9.903 10.931 14.404 21.82 2.186 5.316 5.83 14.104 1.8 22.506-4.158 8.66-13.631 11.188-14.832 11.489-2.186.557-8.059 2.014-13.932-1.115-.557-.3-7.93-4.33-8.53-11.232-.215-2.529.514-4.887.685-5.4.9-2.787 2.444-4.588 2.915-5.188 1.844-2.272 4.073-6.473 5.616-14.832.729-.043 1.929-.215 3.13-.9 2.529-1.458 3.729-4.416 3.6-6.988-.043-.6-.214-4.03-2.7-5.187-1.03-.472-2.101-.343-2.701-.215-7.974-8.059-15.99-15.99-24.006-23.963z" transform="translate(-525 -166) translate(525 166) translate(177.475 58.73) translate(0 80.164)"/>
                        <path fill="#FFF" d="M42.44 10.031c-4.759 2.787-8.06 5.873-10.16 8.145-6.988 7.588-9.217 15.518-9.688 17.362-.3 1.157-.515 2.1-.6 2.786-.472-.171-1.544-.471-2.616 0-1.629.729-1.971 2.7-2.143 3.687-.429 2.272.429 4.072.772 4.758.471.986 1.243 2.572 3.086 3.387 1.5.686 2.915.429 3.515.3.6 1.543 1.458 3.687 2.787 6.13 2.015 3.858 3.9 7.416 7.545 10.589 1.414 1.243 3.73 2.958 7.073 4.286.686 1.072 1.629 2.744 2.143 4.93.429 1.715.515 3.173.472 4.287 1.114.557 3.215 1.415 5.83 1.372 5.016-.086 8.316-3.215 9.088-3.987-.814-2.443-1.543-5.444-1.843-8.916-.129-1.587-.172-3.087-.172-4.459 1.33-1.414 2.958-3.43 4.287-6.13 2.358-4.673 2.744-9.002 2.786-11.531.6.085 1.801.214 3.087-.3 1.8-.73 2.615-2.315 3.087-3.216.128-.214 1.929-3.9.3-7.545-.386-.814-1.03-2.314-2.315-2.443-.943-.086-1.715.643-2.015.943-1.758-2.1-5.059-6.001-9.688-11.36-3.987-4.673-6.516-7.588-10.76-10.588-1.544-1.115-2.915-1.93-3.858-2.487z" transform="translate(-525 -166) translate(525 166) translate(177.475 58.73) translate(0 80.164)"/>
                        <path fill="#000" d="M36.524 55.514c-.429.986 1.586 2.744 2.529 3.473 1.972 1.457 4.072 1.672 4.844 1.714.9.086 3.858.3 6.559-1.629.643-.471 2.443-1.714 3.13-4.03.47-1.671.342-3.986-.558-4.372-.686-.257-1.329.6-2.786 1.63-2.572 1.757-5.23 2.186-7.502 2.529-3.858.6-5.788-.172-6.216.685z" transform="translate(-525 -166) translate(525 166) translate(177.475 58.73) translate(0 80.164)"/>
                        <path fill="#161616" d="M22.935 45.612c1.543 6.43 4.03 12.732 8.145 17.962 3.643 4.672 9.045 9.173 15.346 8.573 5.83-.557 10.589-5.101 13.675-9.73 3.644-5.402 5.402-11.875 5.23-18.391-.043-.815-1.329-.815-1.286 0 .172 5.958-1.372 11.788-4.501 16.847-2.958 4.758-7.845 9.774-13.804 10.031-6.301.257-11.488-4.887-14.832-9.688-3.344-4.801-5.401-10.331-6.773-15.99-.172-.772-1.415-.429-1.2.386z" transform="translate(-525 -166) translate(525 166) translate(177.475 58.73) translate(0 80.164)"/>
                        <path fill="#161616" d="M41.154 71.547c1.8 2.744 2.7 5.745 2.7 9.045 0 .815 1.286.815 1.286 0 0-3.472-.986-6.773-2.872-9.688-.429-.729-1.543-.086-1.114.643z" transform="translate(-525 -166) translate(525 166) translate(177.475 58.73) translate(0 80.164)"/>
                        <path fill="#161616" d="M44.454 81.107c5.23 3 12.004 1.543 15.562-3.258.514-.643-.6-1.286-1.115-.643-3.172 4.244-9.26 5.444-13.804 2.786-.728-.386-1.371.729-.643 1.115z" transform="translate(-525 -166) translate(525 166) translate(177.475 58.73) translate(0 80.164)"/>
                        <path fill="#161616" d="M56.8 65.803c.043 3.9.643 7.759 1.887 11.489.257.771 1.5.428 1.243-.343-1.158-3.644-1.8-7.33-1.843-11.146 0-.858-1.287-.858-1.287 0zM24.22 49.684c-.557.6-1.928.386-2.572.043-.514-.257-.985-.643-1.371-1.029-.858-.814-1.544-1.8-1.972-2.872-.858-2.015-1.243-7.802 2.572-6.773.814.214 1.157-1.029.343-1.243-4.716-1.243-5.444 5.015-4.244 8.145.943 2.529 5.273 7.759 8.188 4.63.514-.6-.386-1.5-.943-.9zM67.303 34.68c.515-1.714 2.744 1.587 3.001 2.187.514 1.372.686 2.872.472 4.33-.343 2.914-2.658 5.7-5.873 4.886-.815-.214-1.158 1.03-.343 1.244 5.187 1.328 7.973-4.073 7.502-8.488-.215-1.93-.986-4.416-2.83-5.445-1.2-.643-2.743-.471-3.172.9-.257.858.986 1.158 1.243.386zM28.807 25.592c1.415-2.7 3.901-4.458 6.902-4.887.815-.128.472-1.371-.343-1.243-3.3.472-6.13 2.53-7.673 5.487-.386.73.729 1.372 1.114.643zM48.613 18.99c3.6-.857 7.201.944 8.83 4.202.386.728 1.458.085 1.115-.643-1.886-3.816-6.173-5.788-10.288-4.802-.815.215-.472 1.458.343 1.244zM39.267 24.263c.815 4.544 1.03 9.217.558 13.847-.172 1.415-.858 3.43-.215 4.844.686 1.543 2.53 2.872 3.687 4.073.557.6 1.5-.3.9-.9-.771-.815-1.543-1.587-2.315-2.401-1.2-1.244-1.329-1.63-1.071-3.43.214-1.629.428-3.3.514-4.973.171-3.815-.129-7.63-.814-11.36-.13-.857-1.372-.514-1.244.3zM33.866 35.28c-.643-1.028-.943-2.143-.857-3.343 0-.257.171-1.372.385-1.415.129 0 .343 1.5.386 1.672.086.557.129 1.158.129 1.715 0 .171-.043 1.586-.043.729-.043-1.244.043-2.487.086-3.73-.429.043-.858.129-1.244.172.215 1.328.343 2.657.343 4.03h1.286v-.515c0-.815-1.286-.815-1.286 0v.514c0 .815 1.286.815 1.286 0 0-1.457-.128-2.915-.385-4.372-.129-.73-1.244-.515-1.244.171-.042 1.372-.214 2.872-.042 4.244.085.643.385 1.243 1.114 1.372 2.144.428 1.5-3.773 1.33-4.801-.13-.815-.258-2.058-1.03-2.53-.643-.386-1.329 0-1.714.6-1.072 1.8-.472 4.459.514 6.088.3.729 1.415.085.986-.6zM53.671 33.009c-.643-1.03-.943-2.144-.857-3.344 0-.257.171-1.372.386-1.415.128 0 .342 1.5.385 1.672.086.557.129 1.158.129 1.715 0 .171-.043 1.586-.043.729-.043-1.244.043-2.487.086-3.73-.429.043-.858.129-1.243.171.214 1.33.343 2.658.343 4.03h1.286v-.514c0-.815-1.286-.815-1.286 0v.514c0 .815 1.286.815 1.286 0 0-1.457-.129-2.915-.386-4.372-.129-.73-1.243-.515-1.243.171-.043 1.372-.215 2.872-.043 4.244.086.643.386 1.243 1.114 1.372 2.144.428 1.5-3.773 1.33-4.801-.13-.815-.258-2.058-1.03-2.53-.643-.386-1.328 0-1.714.6-1.072 1.8-.472 4.459.514 6.088.3.771 1.415.128.986-.6zM27.521 39.224c.815 0 .815-1.286 0-1.286-.814 0-.814 1.286 0 1.286zM32.58 40.168h.171c.343 0 .643-.3.643-.643s-.3-.643-.643-.643h-.171c-.343 0-.643.3-.643.643 0 .342.257.643.643.643zM29.58 44.111c.814 0 .814-1.286 0-1.286-.815 0-.858 1.286 0 1.286zM53.928 38.581h.172c.343 0 .643-.3.643-.643s-.3-.643-.643-.643h-.172c-.343 0-.643.3-.643.643s.257.643.643.643zM58.644 35.41c.814 0 .814-1.287 0-1.287-.815 0-.815 1.286 0 1.286zM58 38.882h.172c.343 0 .643-.3.643-.643s-.3-.644-.643-.644h-.171c-.343 0-.643.3-.643.644.043.342.3.643.643.643zM37.595 56.5c-.685-.986-1.8-2.4-1.328-3.686.557-1.458 2.314-1.243 3.472-1.072 1.415.214 2.572.472 3.944.043 1.114-.343 2.1-1.072 3.13-1.63 2.443-1.37 5.315-1.5 6.086 1.716 2.187 8.788-13.332 11.274-15.732 3.558-.257-.772-1.5-.472-1.243.343 2.958 9.474 21.305 5.958 18.09-4.544-.557-1.758-1.886-3.258-3.772-3.473-3.087-.3-5.102 2.787-8.06 3.001-2.186.172-4.844-1.5-6.601.557-1.586 1.844-.3 4.201.857 5.83.514.686 1.629.043 1.157-.643z" transform="translate(-525 -166) translate(525 166) translate(177.475 58.73) translate(0 80.164)"/>
                        <path fill="#161616" d="M35.11 54.057c.942 2.615 5.658 1.8 7.715 1.5 3.944-.6 7.545-2.315 10.589-4.844.643-.514-.257-1.457-.9-.9-2.23 1.886-4.802 3.258-7.63 4.03-1.244.343-7.803 1.8-8.489-.086-.343-.815-1.586-.472-1.286.3zM42.74 72.876c5.015 1.286 11.703-1.886 14.532-6.044.472-.686-.643-1.33-1.115-.643-2.486 3.643-8.702 6.558-13.074 5.444-.815-.214-1.158 1.029-.343 1.243z" transform="translate(-525 -166) translate(525 166) translate(177.475 58.73) translate(0 80.164)"/>
                        <path fill="#161616" d="M43.211 73.262C47.67 76.048 55 72.104 57.143 67.86c.386-.728-.728-1.371-1.114-.643-1.8 3.601-8.36 7.33-12.175 4.973-.729-.471-1.372.643-.643 1.072z" transform="translate(-525 -166) translate(525 166) translate(177.475 58.73) translate(0 80.164)"/>
                        <path fill="#3F3F3F" d="M61.002 27.822c.3 1.543.685 3.986.943 6.944.6 7.888 1.629 21.091-6.345 29.88-1.715 1.886-5.358 5.23-12.089 7.115 2.144-.085 4.759-.342 7.588-1.071 1.415-.343 2.7-.772 3.858-1.243.172 3.815.3 7.63.472 11.445 1.457-.943 2.872-1.843 4.33-2.786-1.973-4.373-1.973-7.76-1.715-9.903.385-3 1.5-5.444 2.615-7.887.986-2.144 2.014-3.858 2.829-5.059.086.9.3 1.844.9 2.744 2.615 3.9 10.803 4.287 15.947.943 4.759-3.087 7.073-9.345 5.873-15.776.815.686 1.672 1.5 2.486 2.487.643.771 2.315 3 4.63 10.845.729 2.444 1.072 3.687 1.286 4.93.257 1.715.729 4.973-.171 8.66-1.543 6.344-6.13 9.988-7.502 11.017-.986.729-3.987 2.915-8.488 3.944-2.143.471-8.574 2.014-14.618-1.5-2.272-1.33-3.515-2.316-4.201-3.516-.729-1.329-.815-2.572-.9-3.515-.386-5.873-.558-8.831-.172-10.846 1.158-5.83 3.772-6.43 5.23-13.075.514-2.4.643-4.415.686-5.701.557.086 1.415.171 2.443-.086 2.144-.557 3.216-2.315 3.601-2.958 1.544-2.443 2.23-6.816-.171-8.83-.343-.3-1.543-1.2-3.858-1.03-1.758-2.057-3.601-4.115-5.487-6.172z" opacity=".2" transform="translate(-525 -166) translate(525 166) translate(177.475 58.73) translate(0 80.164)"/>
                        <path fill="#3F3F3F" d="M40.682 41.71c2.186.644 4.415 1.33 6.602 1.973-.558.514-1.115.986-1.715 1.5-.557.472-1.072.858-1.629 1.286-.686-.514-1.672-1.414-2.444-2.786-.428-.729-.685-1.415-.814-1.972z" opacity=".13" transform="translate(-525 -166) translate(525 166) translate(177.475 58.73) translate(0 80.164)"/>
                        <path fill="#3F3F3F" d="M6.302 47.07c-4.673 16.504-1.2 29.836 5.787 32.75 5.487 2.273 15.39-.942 17.233-6.558.257-.729.514-2.015-.472-5.959-.857-3.472-2.615-8.702-6.558-14.66-.686-.43-1.587-1.115-2.444-2.144-1.5-1.844-1.93-3.815-2.058-4.759 1.244 1.287 3.044 2.915 4.201 2.401 1.115-.514 1.8-2.058 1.415-3.6.386 1.971.986 4.672 2.1 7.801 1.458 4.158 2.916 8.188 6.302 12.003 1.544 1.758 4.587 4.63 9.731 6.688.858 1.071 2.444 3.386 2.958 6.773.086.514.386 2.872-.386 5.83-.171.686-1.2 4.415-4.586 7.63-3.944 3.773-8.66 4.459-10.203 4.673-11.617 1.543-20.62-8.616-22.206-10.374-1.586-1.8-4.201-4.801-5.701-9.43-2.401-7.374-.558-14.019.771-18.863 1.243-4.544 2.915-7.973 4.116-10.203z" opacity=".16" transform="translate(-525 -166) translate(525 166) translate(177.475 58.73) translate(0 80.164)"/>
                    </g>
                </g>
            </g>
        </g>
    </g>
</svg>
