<svg width="1438" height="812" viewBox="0 0 1438 812" fill="none" xmlns="http://www.w3.org/2000/svg">
<path d="M1438 806.308C1438 809.451 1435.44 812 1432.29 812C1429.14 812 1426.58 809.451 1426.58 806.308C1426.58 803.164 1429.14 800.615 1432.29 800.615C1435.44 800.615 1438 803.164 1438 806.308Z" fill="#3BB3C1" fill-opacity="0.2"/>
<path d="M1417.06 806.308C1417.06 809.451 1414.5 812 1411.35 812C1408.2 812 1405.64 809.451 1405.64 806.308C1405.64 803.164 1408.2 800.615 1411.35 800.615C1414.5 800.615 1417.06 803.164 1417.06 806.308Z" fill="#3BB3C1" fill-opacity="0.2"/>
<path d="M1396.12 806.308C1396.12 809.451 1393.56 812 1390.41 812C1387.26 812 1384.7 809.451 1384.7 806.308C1384.7 803.164 1387.26 800.615 1390.41 800.615C1393.56 800.615 1396.12 803.164 1396.12 806.308Z" fill="#3BB3C1" fill-opacity="0.2"/>
<path d="M1375.18 806.308C1375.18 809.451 1372.62 812 1369.47 812C1366.32 812 1363.76 809.451 1363.76 806.308C1363.76 803.164 1366.32 800.615 1369.47 800.615C1372.62 800.615 1375.18 803.164 1375.18 806.308Z" fill="#3BB3C1" fill-opacity="0.2"/>
<path d="M1354.24 806.308C1354.24 809.451 1351.68 812 1348.53 812C1345.38 812 1342.82 809.451 1342.82 806.308C1342.82 803.164 1345.38 800.615 1348.53 800.615C1351.68 800.615 1354.24 803.164 1354.24 806.308Z" fill="#3BB3C1" fill-opacity="0.2"/>
<path d="M1333.3 806.308C1333.3 809.451 1330.74 812 1327.59 812C1324.44 812 1321.88 809.451 1321.88 806.308C1321.88 803.164 1324.44 800.615 1327.59 800.615C1330.74 800.615 1333.3 803.164 1333.3 806.308Z" fill="#3BB3C1" fill-opacity="0.2"/>
<path d="M1312.36 806.308C1312.36 809.451 1309.8 812 1306.65 812C1303.5 812 1300.94 809.451 1300.94 806.308C1300.94 803.164 1303.5 800.615 1306.65 800.615C1309.8 800.615 1312.36 803.164 1312.36 806.308Z" fill="#3BB3C1" fill-opacity="0.2"/>
<path d="M1291.42 806.308C1291.42 809.451 1288.86 812 1285.71 812C1282.56 812 1280 809.451 1280 806.308C1280 803.164 1282.56 800.615 1285.71 800.615C1288.86 800.615 1291.42 803.164 1291.42 806.308Z" fill="#3BB3C1" fill-opacity="0.2"/>
<path d="M1438 785.436C1438 788.58 1435.44 791.128 1432.29 791.128C1429.14 791.128 1426.58 788.58 1426.58 785.436C1426.58 782.292 1429.14 779.744 1432.29 779.744C1435.44 779.744 1438 782.292 1438 785.436Z" fill="#3BB3C1" fill-opacity="0.2"/>
<path d="M1417.06 785.436C1417.06 788.58 1414.5 791.128 1411.35 791.128C1408.2 791.128 1405.64 788.58 1405.64 785.436C1405.64 782.292 1408.2 779.744 1411.35 779.744C1414.5 779.744 1417.06 782.292 1417.06 785.436Z" fill="#3BB3C1" fill-opacity="0.2"/>
<path d="M1396.12 785.436C1396.12 788.58 1393.56 791.128 1390.41 791.128C1387.26 791.128 1384.7 788.58 1384.7 785.436C1384.7 782.292 1387.26 779.744 1390.41 779.744C1393.56 779.744 1396.12 782.292 1396.12 785.436Z" fill="#3BB3C1" fill-opacity="0.2"/>
<path d="M1375.18 785.436C1375.18 788.58 1372.62 791.128 1369.47 791.128C1366.32 791.128 1363.76 788.58 1363.76 785.436C1363.76 782.292 1366.32 779.744 1369.47 779.744C1372.62 779.744 1375.18 782.292 1375.18 785.436Z" fill="#3BB3C1" fill-opacity="0.2"/>
<path d="M1354.24 785.436C1354.24 788.58 1351.68 791.128 1348.53 791.128C1345.38 791.128 1342.82 788.58 1342.82 785.436C1342.82 782.292 1345.38 779.744 1348.53 779.744C1351.68 779.744 1354.24 782.292 1354.24 785.436Z" fill="#3BB3C1" fill-opacity="0.2"/>
<path d="M1333.3 785.436C1333.3 788.58 1330.74 791.128 1327.59 791.128C1324.44 791.128 1321.88 788.58 1321.88 785.436C1321.88 782.292 1324.44 779.744 1327.59 779.744C1330.74 779.744 1333.3 782.292 1333.3 785.436Z" fill="#3BB3C1" fill-opacity="0.2"/>
<path d="M1312.36 785.436C1312.36 788.58 1309.8 791.128 1306.65 791.128C1303.5 791.128 1300.94 788.58 1300.94 785.436C1300.94 782.292 1303.5 779.744 1306.65 779.744C1309.8 779.744 1312.36 782.292 1312.36 785.436Z" fill="#3BB3C1" fill-opacity="0.2"/>
<path d="M1291.42 785.436C1291.42 788.58 1288.86 791.128 1285.71 791.128C1282.56 791.128 1280 788.58 1280 785.436C1280 782.292 1282.56 779.744 1285.71 779.744C1288.86 779.744 1291.42 782.292 1291.42 785.436Z" fill="#3BB3C1" fill-opacity="0.2"/>
<path d="M1438 764.564C1438 767.708 1435.44 770.256 1432.29 770.256C1429.14 770.256 1426.58 767.708 1426.58 764.564C1426.58 761.42 1429.14 758.872 1432.29 758.872C1435.44 758.872 1438 761.42 1438 764.564Z" fill="#3BB3C1" fill-opacity="0.2"/>
<path d="M1417.06 764.564C1417.06 767.708 1414.5 770.256 1411.35 770.256C1408.2 770.256 1405.64 767.708 1405.64 764.564C1405.64 761.42 1408.2 758.872 1411.35 758.872C1414.5 758.872 1417.06 761.42 1417.06 764.564Z" fill="#3BB3C1" fill-opacity="0.2"/>
<path d="M1396.12 764.564C1396.12 767.708 1393.56 770.256 1390.41 770.256C1387.26 770.256 1384.7 767.708 1384.7 764.564C1384.7 761.42 1387.26 758.872 1390.41 758.872C1393.56 758.872 1396.12 761.42 1396.12 764.564Z" fill="#3BB3C1" fill-opacity="0.2"/>
<path d="M1375.18 764.564C1375.18 767.708 1372.62 770.256 1369.47 770.256C1366.32 770.256 1363.76 767.708 1363.76 764.564C1363.76 761.42 1366.32 758.872 1369.47 758.872C1372.62 758.872 1375.18 761.42 1375.18 764.564Z" fill="#3BB3C1" fill-opacity="0.2"/>
<path d="M1354.24 764.564C1354.24 767.708 1351.68 770.256 1348.53 770.256C1345.38 770.256 1342.82 767.708 1342.82 764.564C1342.82 761.42 1345.38 758.872 1348.53 758.872C1351.68 758.872 1354.24 761.42 1354.24 764.564Z" fill="#3BB3C1" fill-opacity="0.2"/>
<path d="M1333.3 764.564C1333.3 767.708 1330.74 770.256 1327.59 770.256C1324.44 770.256 1321.88 767.708 1321.88 764.564C1321.88 761.42 1324.44 758.872 1327.59 758.872C1330.74 758.872 1333.3 761.42 1333.3 764.564Z" fill="#3BB3C1" fill-opacity="0.2"/>
<path d="M1312.36 764.564C1312.36 767.708 1309.8 770.256 1306.65 770.256C1303.5 770.256 1300.94 767.708 1300.94 764.564C1300.94 761.42 1303.5 758.872 1306.65 758.872C1309.8 758.872 1312.36 761.42 1312.36 764.564Z" fill="#3BB3C1" fill-opacity="0.2"/>
<path d="M1291.42 764.564C1291.42 767.708 1288.86 770.256 1285.71 770.256C1282.56 770.256 1280 767.708 1280 764.564C1280 761.42 1282.56 758.872 1285.71 758.872C1288.86 758.872 1291.42 761.42 1291.42 764.564Z" fill="#3BB3C1" fill-opacity="0.2"/>
<path d="M1438 743.692C1438 746.836 1435.44 749.385 1432.29 749.385C1429.14 749.385 1426.58 746.836 1426.58 743.692C1426.58 740.549 1429.14 738 1432.29 738C1435.44 738 1438 740.549 1438 743.692Z" fill="#3BB3C1" fill-opacity="0.2"/>
<path d="M1417.06 743.692C1417.06 746.836 1414.5 749.385 1411.35 749.385C1408.2 749.385 1405.64 746.836 1405.64 743.692C1405.64 740.549 1408.2 738 1411.35 738C1414.5 738 1417.06 740.549 1417.06 743.692Z" fill="#3BB3C1" fill-opacity="0.2"/>
<path d="M1396.12 743.692C1396.12 746.836 1393.56 749.385 1390.41 749.385C1387.26 749.385 1384.7 746.836 1384.7 743.692C1384.7 740.549 1387.26 738 1390.41 738C1393.56 738 1396.12 740.549 1396.12 743.692Z" fill="#3BB3C1" fill-opacity="0.2"/>
<path d="M1375.18 743.692C1375.18 746.836 1372.62 749.385 1369.47 749.385C1366.32 749.385 1363.76 746.836 1363.76 743.692C1363.76 740.549 1366.32 738 1369.47 738C1372.62 738 1375.18 740.549 1375.18 743.692Z" fill="#3BB3C1" fill-opacity="0.2"/>
<path d="M1354.24 743.692C1354.24 746.836 1351.68 749.385 1348.53 749.385C1345.38 749.385 1342.82 746.836 1342.82 743.692C1342.82 740.549 1345.38 738 1348.53 738C1351.68 738 1354.24 740.549 1354.24 743.692Z" fill="#3BB3C1" fill-opacity="0.2"/>
<path d="M1333.3 743.692C1333.3 746.836 1330.74 749.385 1327.59 749.385C1324.44 749.385 1321.88 746.836 1321.88 743.692C1321.88 740.549 1324.44 738 1327.59 738C1330.74 738 1333.3 740.549 1333.3 743.692Z" fill="#3BB3C1" fill-opacity="0.2"/>
<path d="M1312.36 743.692C1312.36 746.836 1309.8 749.385 1306.65 749.385C1303.5 749.385 1300.94 746.836 1300.94 743.692C1300.94 740.549 1303.5 738 1306.65 738C1309.8 738 1312.36 740.549 1312.36 743.692Z" fill="#3BB3C1" fill-opacity="0.2"/>
<path d="M1291.42 743.692C1291.42 746.836 1288.86 749.385 1285.71 749.385C1282.56 749.385 1280 746.836 1280 743.692C1280 740.549 1282.56 738 1285.71 738C1288.86 738 1291.42 740.549 1291.42 743.692Z" fill="#3BB3C1" fill-opacity="0.2"/>
<path d="M68.3077 0C71.4515 0 74 2.55684 74 5.71085C74 8.86485 71.4515 11.4217 68.3077 11.4217C65.1639 11.4217 62.6154 8.86485 62.6154 5.71085C62.6154 2.55684 65.1639 0 68.3077 0Z" fill="black" fill-opacity="0.1"/>
<path d="M68.3077 20.9398C71.4515 20.9398 74 23.4966 74 26.6506C74 29.8046 71.4515 32.3615 68.3077 32.3615C65.1639 32.3615 62.6154 29.8046 62.6154 26.6506C62.6154 23.4966 65.1639 20.9398 68.3077 20.9398Z" fill="black" fill-opacity="0.1"/>
<path d="M68.3077 41.8795C71.4515 41.8795 74 44.4364 74 47.5904C74 50.7444 71.4515 53.3012 68.3077 53.3012C65.1639 53.3012 62.6154 50.7444 62.6154 47.5904C62.6154 44.4364 65.1639 41.8795 68.3077 41.8795Z" fill="black" fill-opacity="0.1"/>
<path d="M68.3077 62.8193C71.4515 62.8193 74 65.3761 74 68.5301C74 71.6841 71.4515 74.241 68.3077 74.241C65.1639 74.241 62.6154 71.6841 62.6154 68.5301C62.6154 65.3761 65.1639 62.8193 68.3077 62.8193Z" fill="black" fill-opacity="0.1"/>
<path d="M68.3077 83.759C71.4515 83.759 74 86.3159 74 89.4699C74 92.6239 71.4515 95.1807 68.3077 95.1807C65.1639 95.1807 62.6154 92.6239 62.6154 89.4699C62.6154 86.3159 65.1639 83.759 68.3077 83.759Z" fill="black" fill-opacity="0.1"/>
<path d="M68.3077 104.699C71.4515 104.699 74 107.256 74 110.41C74 113.564 71.4515 116.12 68.3077 116.12C65.1639 116.12 62.6154 113.564 62.6154 110.41C62.6154 107.256 65.1639 104.699 68.3077 104.699Z" fill="black" fill-opacity="0.1"/>
<path d="M68.3077 125.639C71.4515 125.639 74 128.195 74 131.349C74 134.503 71.4515 137.06 68.3077 137.06C65.1639 137.06 62.6154 134.503 62.6154 131.349C62.6154 128.195 65.1639 125.639 68.3077 125.639Z" fill="black" fill-opacity="0.1"/>
<path d="M68.3077 146.578C71.4515 146.578 74 149.135 74 152.289C74 155.443 71.4515 158 68.3077 158C65.1639 158 62.6154 155.443 62.6154 152.289C62.6154 149.135 65.1639 146.578 68.3077 146.578Z" fill="black" fill-opacity="0.1"/>
<path d="M47.4359 0C50.5797 0 53.1282 2.55684 53.1282 5.71085C53.1282 8.86485 50.5797 11.4217 47.4359 11.4217C44.2921 11.4217 41.7436 8.86485 41.7436 5.71085C41.7436 2.55684 44.2921 0 47.4359 0Z" fill="black" fill-opacity="0.1"/>
<path d="M47.4359 20.9398C50.5797 20.9398 53.1282 23.4966 53.1282 26.6506C53.1282 29.8046 50.5797 32.3615 47.4359 32.3615C44.2921 32.3615 41.7436 29.8046 41.7436 26.6506C41.7436 23.4966 44.2921 20.9398 47.4359 20.9398Z" fill="black" fill-opacity="0.1"/>
<path d="M47.4359 41.8795C50.5797 41.8795 53.1282 44.4364 53.1282 47.5904C53.1282 50.7444 50.5797 53.3012 47.4359 53.3012C44.2921 53.3012 41.7436 50.7444 41.7436 47.5904C41.7436 44.4364 44.2921 41.8795 47.4359 41.8795Z" fill="black" fill-opacity="0.1"/>
<path d="M47.4359 62.8193C50.5797 62.8193 53.1282 65.3761 53.1282 68.5301C53.1282 71.6841 50.5797 74.241 47.4359 74.241C44.2921 74.241 41.7436 71.6841 41.7436 68.5301C41.7436 65.3761 44.2921 62.8193 47.4359 62.8193Z" fill="black" fill-opacity="0.1"/>
<path d="M47.4359 83.759C50.5797 83.759 53.1282 86.3159 53.1282 89.4699C53.1282 92.6239 50.5797 95.1807 47.4359 95.1807C44.2921 95.1807 41.7436 92.6239 41.7436 89.4699C41.7436 86.3159 44.2921 83.759 47.4359 83.759Z" fill="black" fill-opacity="0.1"/>
<path d="M47.4359 104.699C50.5797 104.699 53.1282 107.256 53.1282 110.41C53.1282 113.564 50.5797 116.12 47.4359 116.12C44.2921 116.12 41.7436 113.564 41.7436 110.41C41.7436 107.256 44.2921 104.699 47.4359 104.699Z" fill="black" fill-opacity="0.1"/>
<path d="M47.4359 125.639C50.5797 125.639 53.1282 128.195 53.1282 131.349C53.1282 134.503 50.5797 137.06 47.4359 137.06C44.2921 137.06 41.7436 134.503 41.7436 131.349C41.7436 128.195 44.2921 125.639 47.4359 125.639Z" fill="black" fill-opacity="0.1"/>
<path d="M47.4359 146.578C50.5797 146.578 53.1282 149.135 53.1282 152.289C53.1282 155.443 50.5797 158 47.4359 158C44.2921 158 41.7436 155.443 41.7436 152.289C41.7436 149.135 44.2921 146.578 47.4359 146.578Z" fill="black" fill-opacity="0.1"/>
<path d="M26.5641 0C29.7079 0 32.2564 2.55684 32.2564 5.71085C32.2564 8.86485 29.7079 11.4217 26.5641 11.4217C23.4203 11.4217 20.8718 8.86485 20.8718 5.71085C20.8718 2.55684 23.4203 0 26.5641 0Z" fill="black" fill-opacity="0.1"/>
<path d="M26.5641 20.9398C29.7079 20.9398 32.2564 23.4966 32.2564 26.6506C32.2564 29.8046 29.7079 32.3615 26.5641 32.3615C23.4203 32.3615 20.8718 29.8046 20.8718 26.6506C20.8718 23.4966 23.4203 20.9398 26.5641 20.9398Z" fill="black" fill-opacity="0.1"/>
<path d="M26.5641 41.8795C29.7079 41.8795 32.2564 44.4364 32.2564 47.5904C32.2564 50.7444 29.7079 53.3012 26.5641 53.3012C23.4203 53.3012 20.8718 50.7444 20.8718 47.5904C20.8718 44.4364 23.4203 41.8795 26.5641 41.8795Z" fill="black" fill-opacity="0.1"/>
<path d="M26.5641 62.8193C29.7079 62.8193 32.2564 65.3761 32.2564 68.5301C32.2564 71.6841 29.7079 74.241 26.5641 74.241C23.4203 74.241 20.8718 71.6841 20.8718 68.5301C20.8718 65.3761 23.4203 62.8193 26.5641 62.8193Z" fill="black" fill-opacity="0.1"/>
<path d="M26.5641 83.759C29.7079 83.759 32.2564 86.3159 32.2564 89.4699C32.2564 92.6239 29.7079 95.1807 26.5641 95.1807C23.4203 95.1807 20.8718 92.6239 20.8718 89.4699C20.8718 86.3159 23.4203 83.759 26.5641 83.759Z" fill="black" fill-opacity="0.1"/>
<path d="M26.5641 104.699C29.7079 104.699 32.2564 107.256 32.2564 110.41C32.2564 113.564 29.7079 116.12 26.5641 116.12C23.4203 116.12 20.8718 113.564 20.8718 110.41C20.8718 107.256 23.4203 104.699 26.5641 104.699Z" fill="black" fill-opacity="0.1"/>
<path d="M26.5641 125.639C29.7079 125.639 32.2564 128.195 32.2564 131.349C32.2564 134.503 29.7079 137.06 26.5641 137.06C23.4203 137.06 20.8718 134.503 20.8718 131.349C20.8718 128.195 23.4203 125.639 26.5641 125.639Z" fill="black" fill-opacity="0.1"/>
<path d="M26.5641 146.578C29.7079 146.578 32.2564 149.135 32.2564 152.289C32.2564 155.443 29.7079 158 26.5641 158C23.4203 158 20.8718 155.443 20.8718 152.289C20.8718 149.135 23.4203 146.578 26.5641 146.578Z" fill="black" fill-opacity="0.1"/>
<path d="M5.69231 0C8.83608 0 11.3846 2.55684 11.3846 5.71085C11.3846 8.86485 8.83608 11.4217 5.69231 11.4217C2.54853 11.4217 0 8.86485 0 5.71085C0 2.55684 2.54853 0 5.69231 0Z" fill="black" fill-opacity="0.1"/>
<path d="M5.69231 20.9398C8.83608 20.9398 11.3846 23.4966 11.3846 26.6506C11.3846 29.8046 8.83608 32.3615 5.69231 32.3615C2.54853 32.3615 0 29.8046 0 26.6506C0 23.4966 2.54853 20.9398 5.69231 20.9398Z" fill="black" fill-opacity="0.1"/>
<path d="M5.69231 41.8795C8.83608 41.8795 11.3846 44.4364 11.3846 47.5904C11.3846 50.7444 8.83608 53.3012 5.69231 53.3012C2.54853 53.3012 0 50.7444 0 47.5904C0 44.4364 2.54853 41.8795 5.69231 41.8795Z" fill="black" fill-opacity="0.1"/>
<path d="M5.69231 62.8193C8.83608 62.8193 11.3846 65.3761 11.3846 68.5301C11.3846 71.6841 8.83608 74.241 5.69231 74.241C2.54853 74.241 0 71.6841 0 68.5301C0 65.3761 2.54853 62.8193 5.69231 62.8193Z" fill="black" fill-opacity="0.1"/>
<path d="M5.69231 83.759C8.83608 83.759 11.3846 86.3159 11.3846 89.4699C11.3846 92.6239 8.83608 95.1807 5.69231 95.1807C2.54853 95.1807 0 92.6239 0 89.4699C0 86.3159 2.54853 83.759 5.69231 83.759Z" fill="black" fill-opacity="0.1"/>
<path d="M5.69231 104.699C8.83608 104.699 11.3846 107.256 11.3846 110.41C11.3846 113.564 8.83608 116.12 5.69231 116.12C2.54853 116.12 0 113.564 0 110.41C0 107.256 2.54853 104.699 5.69231 104.699Z" fill="black" fill-opacity="0.1"/>
<path d="M5.69231 125.639C8.83608 125.639 11.3846 128.195 11.3846 131.349C11.3846 134.503 8.83608 137.06 5.69231 137.06C2.54853 137.06 0 134.503 0 131.349C0 128.195 2.54853 125.639 5.69231 125.639Z" fill="black" fill-opacity="0.1"/>
<path d="M5.69231 146.578C8.83608 146.578 11.3846 149.135 11.3846 152.289C11.3846 155.443 8.83608 158 5.69231 158C2.54853 158 0 155.443 0 152.289C0 149.135 2.54853 146.578 5.69231 146.578Z" fill="black" fill-opacity="0.1"/>
</svg>
