<svg xmlns="http://www.w3.org/2000/svg" width="30.149" height="24.423" viewBox="0 0 30.149 24.423">
  <g id="agile" transform="translate(-153.421 -146.373)">
    <path id="Path_739" data-name="Path 739" d="M154.247,249l1.142.267a.155.155,0,0,1,.107.112,7.142,7.142,0,0,0,.52,1.249.141.141,0,0,1,0,.151l-.617,1a1.06,1.06,0,0,0,.156,1.317l1.074,1.074a1.06,1.06,0,0,0,1.317.156l1.006-.622a.143.143,0,0,1,.146,0,7.661,7.661,0,0,0,1.254.52.151.151,0,0,1,.107.1l.272,1.147a1.07,1.07,0,0,0,1.04.826h1.522a1.062,1.062,0,0,0,1.04-.826l.272-1.147a.143.143,0,0,1,.107-.1,7.639,7.639,0,0,0,1.254-.52.155.155,0,0,1,.146,0l1.006.622a1.06,1.06,0,0,0,1.317-.156l1.074-1.074a1.073,1.073,0,0,0,.156-1.317l-.617-1a.164.164,0,0,1,0-.151,7.313,7.313,0,0,0,.52-1.249.164.164,0,0,1,.107-.112l1.142-.267a1.07,1.07,0,0,0,.826-1.04v-1.522a1.062,1.062,0,0,0-.826-1.04l-1.142-.267a.155.155,0,0,1-.107-.112,7.292,7.292,0,0,0-.52-1.249.141.141,0,0,1,0-.151l.617-1a1.06,1.06,0,0,0-.156-1.317l-1.074-1.074a1.067,1.067,0,0,0-1.317-.156l-1.006.622a.154.154,0,0,1-.146,0,7.662,7.662,0,0,0-1.254-.52.151.151,0,0,1-.107-.1l-.272-1.147a1.066,1.066,0,0,0-1.04-.826h-1.522a1.062,1.062,0,0,0-1.04.826l-.272,1.147a.143.143,0,0,1-.107.1,7.64,7.64,0,0,0-1.254.52.155.155,0,0,1-.146,0l-1.006-.622a1.06,1.06,0,0,0-1.317.156l-1.074,1.074a1.073,1.073,0,0,0-.156,1.317l.617,1a.164.164,0,0,1,0,.151,7.149,7.149,0,0,0-.52,1.249.164.164,0,0,1-.107.112l-1.142.267a1.066,1.066,0,0,0-.826,1.04v1.522a1.066,1.066,0,0,0,.826,1.035Zm4.618-1.8a3.665,3.665,0,1,1,3.665,3.665A3.668,3.668,0,0,1,158.865,247.193Z" transform="translate(0 -85.507)" fill="#3bb3c1"/>
    <path id="Path_740" data-name="Path 740" d="M399.265,152.265l-.89-.248a6.416,6.416,0,0,0-.389-1.021l.505-.768a.931.931,0,0,0-.1-1.157l-.816-.86a.937.937,0,0,0-1.152-.165l-.807.457a6.42,6.42,0,0,0-1-.447l-.185-.9a.934.934,0,0,0-.89-.749l-1.191-.034a.929.929,0,0,0-.933.7l-.248.894a6.352,6.352,0,0,0-1.021.389l-.768-.505a.932.932,0,0,0-1.157.1l-.86.812a.937.937,0,0,0-.165,1.152l.457.812a5.919,5.919,0,0,0-.447,1l-.894.185a.938.938,0,0,0-.749.89l-.034,1.186a.93.93,0,0,0,.7.933l.894.253a6.426,6.426,0,0,0,.389,1.021l-.505.768a.932.932,0,0,0,.1,1.157l.812.86a.937.937,0,0,0,1.152.165l.807-.457a6.421,6.421,0,0,0,1,.447l.185.9a.938.938,0,0,0,.89.749l1.186.034h.029a.931.931,0,0,0,.9-.7l.248-.894a6.353,6.353,0,0,0,1.021-.389l.768.505a.932.932,0,0,0,1.157-.1l.86-.812a.937.937,0,0,0,.165-1.152l-.457-.812a5.927,5.927,0,0,0,.447-1l.894-.185a.938.938,0,0,0,.749-.89l.034-1.186a.924.924,0,0,0-.691-.938Zm-3.762,1.4a2.755,2.755,0,1,1-2.678-2.824,2.769,2.769,0,0,1,2.678,2.824Z" transform="translate(-216.386 0)" fill="#3bb3c1"/>
    <path id="Path_742" data-name="Path 742" d="M285.757,166.52a.467.467,0,0,0,.467-.467,2.224,2.224,0,0,1,2.222-2.222H290l-.068.068a.466.466,0,0,0,0,.656.459.459,0,0,0,.331.136.467.467,0,0,0,.33-.136l.86-.86a.466.466,0,0,0,0-.656l-.86-.86a.464.464,0,1,0-.656.656l.068.068H288.45a3.155,3.155,0,0,0-3.15,3.15.453.453,0,0,0,.457.467Z" transform="translate(-122.944 -14.61)" fill="#3bb3c1"/>
    <path id="Path_743" data-name="Path 743" d="M405.068,376.161a.466.466,0,0,0-.656,0l-.86.86a.469.469,0,0,0,0,.661l.86.86a.459.459,0,0,0,.331.136.464.464,0,0,0,.331-.792l-.068-.068h1.551a3.155,3.155,0,0,0,3.15-3.15.467.467,0,0,0-.933,0,2.224,2.224,0,0,1-2.222,2.222H405l.068-.068A.472.472,0,0,0,405.068,376.161Z" transform="translate(-233.059 -212.395)" fill="#3bb3c1"/>
  </g>
</svg>
