<svg xmlns="http://www.w3.org/2000/svg" width="78.61" height="78.61" viewBox="0 0 78.61 78.61">
  <g id="Group_2366" data-name="Group 2366" transform="translate(-3623 -8406)">
    <rect id="Rectangle_166" data-name="Rectangle 166" width="55.377" height="55.795" rx="8" transform="translate(3623 8445.157) rotate(-45)" fill="#3bb3c1"/>
    <path id="Path_1007" data-name="Path 1007" d="M147.831,63.438a14.391,14.391,0,1,0,14.391,14.391A14.407,14.407,0,0,0,147.831,63.438Zm3.637,18.153a.727.727,0,0,1-1.028,0l-3.248-3.248a.727.727,0,0,1-.213-.514V71.177a.727.727,0,1,1,1.454,0v6.351l3.036,3.036a.727.727,0,0,1,0,1.028Z" transform="translate(3514.474 8367.477)" fill="#fff"/>
  </g>
</svg>
