<svg xmlns="http://www.w3.org/2000/svg" viewBox="0 0 299.15 378.91"><defs><style>.cls-1{fill:#56bcc1;}.cls-2{fill:#494949;}</style></defs><g id="Layer_2" data-name="Layer 2"><g id="Layer_1-2" data-name="Layer 1"><path class="cls-1" d="M208.37,113.69c-12.62,0-23.68-11-23.68-23.68V0H7.89C4,0,0,4,0,7.93V371c0,3.95,4,7.9,7.89,7.9H291.25c3.95,0,7.9-4,7.9-7.9V113.69ZM54.46,52.92H161a7.46,7.46,0,0,1,7.9,7.89,7.46,7.46,0,0,1-7.9,7.9H54.46a7.46,7.46,0,0,1-7.89-7.9,7.46,7.46,0,0,1,7.89-7.89Zm0,51.31H161c4.74,0,7.9,3.15,7.9,7.89A7.46,7.46,0,0,1,161,120H54.46a7.89,7.89,0,1,1,0-15.78ZM243.89,326H54.46a7.9,7.9,0,0,1,0-15.79H243.89c4.74,0,7.9,3.15,7.9,7.89A7.46,7.46,0,0,1,243.89,326Zm0-51.31H54.46a7.9,7.9,0,0,1,0-15.79H243.89a7.9,7.9,0,1,1,0,15.79Zm0-51.3H54.46a7.9,7.9,0,0,1,0-15.79H243.89c4.74,0,7.9,3.15,7.9,7.89A7.46,7.46,0,0,1,243.89,223.41Zm0-52.1H54.46a7.9,7.9,0,0,1,0-15.79H243.89a7.9,7.9,0,1,1,0,15.79Z"/><path class="cls-2" d="M208.37,97.9h82.09c3.16,0,6.31-1.57,7.11-4.73A7.21,7.21,0,0,0,296,84.49L214.69,2.4C212.32,0,208.37-.76,206,.82q-4.74,2.37-4.74,7.11V90c-.79,3.95,3.16,7.89,7.1,7.89Z"/></g></g></svg>