<svg xmlns="http://www.w3.org/2000/svg" width="43.36" height="56.674" viewBox="0 0 43.36 56.674">
  <path id="Book" d="M215.7,158.15a5.448,5.448,0,0,0-5.446,5.447v44.781a5.447,5.447,0,0,0,5.446,5.446H252a.605.605,0,0,0,.6-.605V168.438a.605.605,0,0,0-.6-.605,4.236,4.236,0,1,1,0-8.472v-1.21Zm0,1.21h33.019a5.239,5.239,0,0,0,0,8.472H215.7a4.229,4.229,0,0,1-4.217-3.688.575.575,0,0,0-.019-.056V163.6A4.214,4.214,0,0,1,215.7,159.36Zm-4.236,7.546a5.4,5.4,0,0,0,4.236,2.137h3.026v15.128a.6.6,0,0,0,.908.511l5.749-3.442,5.749,3.442a.605.605,0,0,0,.908-.511V169.043H251.4v43.571h-35.7a4.214,4.214,0,0,1-4.236-4.236Zm8.472,2.137h10.893v14.051l-5.144-3.083a.606.606,0,0,0-.6,0l-5.144,3.083Z" transform="translate(-209.749 -157.65)" fill="#3bb3c1" stroke="#3bb3c1" stroke-width="1"/>
</svg>
