<svg id="AI_fill" data-name="AI fill" xmlns="http://www.w3.org/2000/svg" width="19.035" height="21.758" viewBox="0 0 19.035 21.758">
  <path id="Path_730" data-name="Path 730" d="M295.635,473.243a.374.374,0,1,0,.374-.374.374.374,0,0,0-.374.374" transform="translate(-283.076 -457.405)" fill="#3bb3c1"/>
  <path id="Path_731" data-name="Path 731" d="M389.635,347.674a.374.374,0,1,0,.374-.374.374.374,0,0,0-.374.374" transform="translate(-381.531 -337.787)" fill="#3bb3c1"/>
  <path id="Path_732" data-name="Path 732" d="M433.4,398.623a.374.374,0,1,0,.374-.374.374.374,0,0,0-.374.374" transform="translate(-427.376 -386.322)" fill="#3bb3c1"/>
  <path id="Path_733" data-name="Path 733" d="M176.03,159.709a8.593,8.593,0,0,1,1.326-10.544l1.394,1.633a.42.42,0,0,0,.272.136h1.6a1.054,1.054,0,1,0,0-.68h-1.429l-1.292-1.531a8.649,8.649,0,0,1,7.142-1.973,8.792,8.792,0,0,1,5.578,3.572h-2.483a.26.26,0,0,0-.17.068l-3.435,2.177a1.012,1.012,0,0,0-.68-.272,1.054,1.054,0,1,0,1.054,1.054.254.254,0,0,0-.034-.17l3.367-2.143h2.823a9.05,9.05,0,0,1,.782,1.769h-3.163a.357.357,0,0,0-.306.17l-1.292,2.347a1.466,1.466,0,0,1-.17-.034,1.054,1.054,0,1,0,1.054,1.054.95.95,0,0,0-.272-.68l1.19-2.177h3.129a8.619,8.619,0,0,1,.068,3.367l1.7,3.129a.384.384,0,0,1,.034.272.307.307,0,0,1-.2.2l-2.245.884v.816h-2.653a1.032,1.032,0,0,0-.986-.714,1.054,1.054,0,1,0,.986,1.394H191.3v1.02a1.684,1.684,0,0,1-1.7,1.7h-1.9v2.483a.341.341,0,0,1-.34.34h-1.667V162.4a.485.485,0,0,0-.068-.2l-2.007-2.687v-2.041a1.054,1.054,0,1,0-.68,0v2.143a.485.485,0,0,0,.068.2l2.007,2.687v5.885H183V164.2a.309.309,0,0,0-.1-.238l-1.361-1.327v-2.687a1.054,1.054,0,1,0-.68,0v2.823a.309.309,0,0,0,.1.238l1.361,1.327v4.048h-2.993a.366.366,0,0,1-.34-.34v-5.374a8.736,8.736,0,0,1-2.551-2.415l3.4-2.789a.42.42,0,0,0,.136-.272v-3.435a1.054,1.054,0,1,0-.68,0v3.265l-.884.714-1.02-.748v-1.361a1.054,1.054,0,1,0-.68,0v1.531a.42.42,0,0,0,.136.272l1.02.748Z" transform="translate(-174.797 -146.626)" fill="#3bb3c1"/>
  <path id="Path_734" data-name="Path 734" d="M313.575,343.37a.377.377,0,0,1,.374-.374.307.307,0,0,1,.17.034h.034a.357.357,0,0,1,.17.306.378.378,0,0,1-.374.374A.35.35,0,0,1,313.575,343.37Z" transform="translate(-301.866 -333.687)" fill="#3bb3c1"/>
  <path id="Path_735" data-name="Path 735" d="M467.125,268.743a.374.374,0,1,0,.374-.374.374.374,0,0,0-.374.374" transform="translate(-462.695 -262.598)" fill="#3bb3c1"/>
  <path id="Path_736" data-name="Path 736" d="M521.32,309.3a.374.374,0,1,1,.374-.374A.378.378,0,0,1,521.32,309.3Z" transform="translate(-519.067 -300.875)" fill="#3bb3c1"/>
  <path id="Path_737" data-name="Path 737" d="M424.791,222.82a.374.374,0,1,0,.374-.374.374.374,0,0,0-.374.374" transform="translate(-418.354 -218.851)" fill="#3bb3c1"/>
  <path id="Path_738" data-name="Path 738" d="M378.871,280.22a.374.374,0,1,1,.374.374A.377.377,0,0,1,378.871,280.22Z" transform="translate(-370.258 -273.531)" fill="#3bb3c1"/>
</svg>
