<svg xmlns="http://www.w3.org/2000/svg" width="18" height="18" viewBox="0 0 18 18">
    <g fill="none" fill-rule="evenodd">
        <g>
            <g>
                <g>
                    <g>
                        <g>
                            <g>
                                <path d="M0 0L18 0 18 18 0 18z" transform="translate(-418 -1999) translate(0 1315) translate(210 343) translate(6 6) translate(10 275) translate(192 60)"/>
                                <path fill="#949494" fill-rule="nonzero" d="M12.75 2.25h3c.414 0 .75.336.75.75v12c0 .414-.336.75-.75.75H2.25c-.414 0-.75-.336-.75-.75V3c0-.414.336-.75.75-.75h3V.75h1.5v1.5h4.5V.75h1.5v1.5zM3 6.75v7.5h12v-7.5H3zm1.5 3h3.75v3H4.5v-3z" transform="translate(-418 -1999) translate(0 1315) translate(210 343) translate(6 6) translate(10 275) translate(192 60)"/>
                            </g>
                        </g>
                    </g>
                </g>
            </g>
        </g>
    </g>
</svg>
