<svg xmlns="http://www.w3.org/2000/svg" width="28" height="28" viewBox="0 0 28 28">
    <g fill="none" fill-rule="evenodd">
        <g>
            <g>
                <g>
                    <g>
                        <g>
                            <g>
                                <g>
                                    <path d="M0 0L28 0 28 28 0 28z" transform="translate(-308 -800) translate(210 659) translate(0 82) translate(22 22) translate(0 9) translate(8 28) translate(68)"/>
                                    <path fill="#3BB3C1" fill-rule="nonzero" d="M19.833 3.5H24.5c.644 0 1.167.522 1.167 1.167v18.666c0 .645-.523 1.167-1.167 1.167h-21c-.644 0-1.167-.522-1.167-1.167V4.667c0-.645.523-1.167 1.167-1.167h4.667V1.167H10.5V3.5h7V1.167h2.333V3.5zm-15.166 7v11.667h18.666V10.5H4.667zM7 15.167h5.833v4.666H7v-4.666z" transform="translate(-308 -800) translate(210 659) translate(0 82) translate(22 22) translate(0 9) translate(8 28) translate(68)"/>
                                </g>
                            </g>
                        </g>
                    </g>
                </g>
            </g>
        </g>
    </g>
</svg>
