<svg id="_001-certificate" data-name="001-certificate" xmlns="http://www.w3.org/2000/svg" viewBox="0 0 24 24">
  <ellipse id="Oval" cx="2.344" cy="2.344" rx="2.344" ry="2.344" transform="translate(9.68 13.899)" fill=""/>
  <path id="Shape" d="M15.17,18.28a3.749,3.749,0,1,0-6.292,0H.7a.7.7,0,0,1-.7-.7V.7A.7.7,0,0,1,.7,0H23.3a.7.7,0,0,1,.7.7V17.577a.7.7,0,0,1-.7.7Z" fill=""/>
  <path id="Path" d="M0,.054V4.617A.7.7,0,0,0,1.092,5.2L2.824,4.055,4.557,5.2a.7.7,0,0,0,1.092-.586V0A3.743,3.743,0,0,1,0,.054Z" transform="translate(9.223 18.679)" fill=""/>
</svg>
