<svg xmlns="http://www.w3.org/2000/svg" width="24" height="24" viewBox="0 0 24 24">
    <g fill="none" fill-rule="evenodd">
        <g>
            <g>
                <g>
                    <g>
                        <g>
                            <path d="M0 0L24 0 24 24 0 24z" transform="translate(-810 -140) translate(380 112) translate(420 17) translate(0 1) translate(10 10)"/>
                            <path fill="#3BB3C1" fill-rule="nonzero" d="M12 22C6.477 22 2 17.523 2 12S6.477 2 12 2s10 4.477 10 10-4.477 10-10 10zm-.997-6l7.07-7.071-1.414-1.414-5.656 5.657-2.829-2.829-1.414 1.414L11.003 16z" transform="translate(-810 -140) translate(380 112) translate(420 17) translate(0 1) translate(10 10)"/>
                        </g>
                    </g>
                </g>
            </g>
        </g>
    </g>
</svg>
