<svg xmlns="http://www.w3.org/2000/svg" width="250.426" height="206.26" viewBox="0 0 250.426 206.26">
  <g id="cheer" transform="translate(-25.579 -62.52)">
    <g id="freepik--background-complete--inject-154" transform="translate(25.579 62.52)">
      <rect id="Rectangle_2" data-name="Rectangle 2" width="27.603" height="40.009" transform="translate(159.08 43.537)" fill="#e0e0e0"/>
      <rect id="Rectangle_3" data-name="Rectangle 3" width="27.603" height="40.009" transform="translate(157.698 43.537)" fill="#f5f5f5"/>
      <rect id="Rectangle_4" data-name="Rectangle 4" width="20.745" height="31.346" transform="translate(161.127 47.869)" fill="#fff"/>
      <path id="Path_5" data-name="Path 5" d="M338.992,180.664V171.89c0-5.5,0-13.353-.033-22.567l.066.066H318.286l.077-.077v31.34l-.061-.055h-.132V149.12h20.888v.072c0,9.236-.028,17.063-.033,22.616v8.581a1.316,1.316,0,0,1-.033.275Z" transform="translate(-157.126 -101.455)" fill="#e0e0e0"/>
      <path id="Path_6" data-name="Path 6" d="M359.309,141.62a4.841,4.841,0,0,1-.49.716c-.319.424-.776,1.007-1.293,1.651s-1.007,1.189-1.365,1.585a5.273,5.273,0,0,1-.611.622,5.926,5.926,0,0,1,.55-.688l1.332-1.613,1.327-1.613A4.881,4.881,0,0,1,359.309,141.62Z" transform="translate(-173.931 -98.083)" fill="#e0e0e0"/>
      <path id="Path_7" data-name="Path 7" d="M356.2,206.25a25.871,25.871,0,0,0,3.622,4.524" transform="translate(-174.223 -127.14)" fill="#fff"/>
      <path id="Path_8" data-name="Path 8" d="M359.822,210.806a3.853,3.853,0,0,1-.633-.55,20.29,20.29,0,0,1-1.365-1.541,19.183,19.183,0,0,1-1.2-1.651,4.045,4.045,0,0,1-.424-.743,4.849,4.849,0,0,1,.512.682c.3.429.732,1.013,1.227,1.651s.98,1.172,1.326,1.563A5.507,5.507,0,0,1,359.822,210.806Z" transform="translate(-174.223 -127.171)" fill="#e0e0e0"/>
      <path id="Path_9" data-name="Path 9" d="M312.09,210.608l3.611-4.458" transform="translate(-154.392 -127.095)" fill="#fff"/>
      <path id="Path_10" data-name="Path 10" d="M315.7,206.15a27.527,27.527,0,0,1-1.745,2.273c-1,1.233-1.838,2.2-1.866,2.2a26.973,26.973,0,0,1,1.745-2.279A28.536,28.536,0,0,1,315.7,206.15Z" transform="translate(-154.392 -127.095)" fill="#e0e0e0"/>
      <path id="Path_11" data-name="Path 11" d="M312.09,141.62a24.274,24.274,0,0,1,1.756,2.1,26.508,26.508,0,0,1,1.651,2.2,24.277,24.277,0,0,1-1.756-2.1,24.7,24.7,0,0,1-1.651-2.2Z" transform="translate(-154.392 -98.083)" fill="#e0e0e0"/>
      <rect id="Rectangle_5" data-name="Rectangle 5" width="6.946" height="19.721" transform="translate(168.464 54.232)" fill="#e0e0e0"/>
      <path id="Path_12" data-name="Path 12" d="M258.929,345a9.83,9.83,0,0,0-5.779,5.08,17.338,17.338,0,0,0-1.651,7.662c-.066,5.1,2.141,10.54,4.706,14.949,4.706-3.159,6.5-9.478,7.21-12.742,1.1-5.163,0-15.164-4.48-14.949" transform="translate(-127.149 -189.518)" fill="#f5f5f5"/>
      <path id="Path_13" data-name="Path 13" d="M237.7,399.593a8.383,8.383,0,0,0-1.684-8.256,11.113,11.113,0,0,0-7.816-3.578,4.679,4.679,0,0,0-3.781,1.15,3.583,3.583,0,0,0-.512,3.594,7.249,7.249,0,0,0,2.334,2.967c3.374,2.752,7.155,4.827,11.46,4.112" transform="translate(-114.626 -208.739)" fill="#f5f5f5"/>
      <path id="Path_14" data-name="Path 14" d="M246.616,416.183a16.572,16.572,0,0,0-.154-3.368,15.412,15.412,0,0,0-.837-3.589,34.336,34.336,0,0,0-1.69-4.167,16.732,16.732,0,0,0-5.24-6.242,12.284,12.284,0,0,0-2.2-1.194,2.751,2.751,0,0,0-.875-.253c-.044.094,1.183.55,2.818,1.772a17.982,17.982,0,0,1,4.954,6.176,40.529,40.529,0,0,1,1.7,4.084,17.431,17.431,0,0,1,.936,3.468A27.082,27.082,0,0,0,246.616,416.183Z" transform="translate(-120.011 -213.066)" fill="#e0e0e0"/>
      <path id="Path_15" data-name="Path 15" d="M260.712,359a9.687,9.687,0,0,0-.385,1.651c-.209,1.1-.49,2.642-.82,4.574-.666,3.853-1.519,9.214-2.323,15.147s-1.371,11.322-1.7,15.235c-.165,1.954-.281,3.534-.341,4.629a8.96,8.96,0,0,0-.033,1.706,9.817,9.817,0,0,0,.253-1.684c.138-1.194.314-2.752.55-4.612.435-3.9,1.068-9.274,1.866-15.2s1.591-11.184,2.152-15.164c.264-1.86.479-3.413.644-4.6A9.867,9.867,0,0,0,260.712,359Z" transform="translate(-128.762 -195.815)" fill="#e0e0e0"/>
      <path id="Path_16" data-name="Path 16" d="M260.341,405.1a19.606,19.606,0,0,1,14.085-11.063c1.552-.286,3.468-.231,4.321,1.1s.1,3.1-.837,4.4a16.743,16.743,0,0,1-17.58,5.972" transform="translate(-131.121 -211.504)" fill="#f5f5f5"/>
      <path id="Path_17" data-name="Path 17" d="M270.163,401.6a2.752,2.752,0,0,0-.875.187c-.55.154-1.349.424-2.312.782a22.017,22.017,0,0,0-6.946,4.1,13.87,13.87,0,0,0-2.752,3.523,13.237,13.237,0,0,0-1.26,3.429,13.418,13.418,0,0,0-.308,2.433,2.665,2.665,0,0,0,0,.9c.116,0,.16-1.271.672-3.231a13.694,13.694,0,0,1,4.018-6.632,24.806,24.806,0,0,1,6.715-4.139A25.61,25.61,0,0,0,270.163,401.6Z" transform="translate(-129.026 -214.968)" fill="#e0e0e0"/>
      <path id="Path_18" data-name="Path 18" d="M422.772,169.7s-5.768-1.7-8.1,11.559a155.511,155.511,0,0,0-2.521,20.563s-.809,2.879-2.945,1.811-5.763-4.827-8.322-3.165c-2.658,1.723-2.62,5.267-.6,9.869s6.054,14.861,6.429,15.786.242,2.449-1.327,1.959-11.559-6.511-14.146-1.558,5.152,16.82,5.972,18.163.727,2.014.154,2.576-3.743-1.778-6.66-3.374-6.577-2.934-7.821.028,1.1,12.946,15.312,26l6.968,5.614,8.438-3.1c17.652-7.75,23.117-16.424,22.908-19.633s-4.117-3.148-7.392-2.6-7.034,1.756-7.4,1.035-.22-1.409.985-2.389,12.373-9.742,11.531-15.23-12.258-3.027-13.9-3.071-1.249-1.536-.622-2.279,7.8-9.148,11.2-12.852,4.585-7.04,2.631-9.533c-1.882-2.405-6.539,0-8.9.3s-2.2-2.664-2.2-2.664a152.731,152.731,0,0,0,4.277-20.277c2.075-13.309-4.073-13.54-4.073-13.54" transform="translate(-186.09 -110.676)" fill="#f5f5f5"/>
      <path id="Path_19" data-name="Path 19" d="M437.009,191.35a2.174,2.174,0,0,1-.028.281l-.116.82c-.11.732-.27,1.794-.468,3.148-.413,2.752-1.035,6.693-1.822,11.559-1.574,9.77-3.853,23.244-6.434,38.121s-4.9,28.346-6.522,38.1c-.809,4.871-1.464,8.807-1.915,11.559-.226,1.354-.4,2.411-.55,3.143-.061.347-.1.616-.143.815s-.061.275-.061.275a1.823,1.823,0,0,1,.033-.281c.033-.187.066-.468.11-.82.11-.732.27-1.794.468-3.148.413-2.752,1.035-6.693,1.822-11.559,1.574-9.77,3.853-23.249,6.44-38.127s4.915-28.341,6.566-38.121c.8-4.871,1.459-8.807,1.915-11.559l.523-3.143.143-.815A2.487,2.487,0,0,1,437.009,191.35Z" transform="translate(-202.435 -120.441)" fill="#e0e0e0"/>
      <path id="Path_20" data-name="Path 20" d="M424.66,235.62a2.892,2.892,0,0,1,.4.512c.242.341.55.842.98,1.464.809,1.249,1.882,3,3.027,4.954l2.912,5.025.886,1.514a2.291,2.291,0,0,1,.3.55,2.782,2.782,0,0,1-.4-.506c-.237-.341-.55-.842-.969-1.47-.8-1.26-1.849-3.027-2.994-4.981l-2.945-5c-.352-.594-.655-1.1-.9-1.514A2.361,2.361,0,0,1,424.66,235.62Z" transform="translate(-205.003 -140.344)" fill="#e0e0e0"/>
      <path id="Path_21" data-name="Path 21" d="M441.63,252.556c-.049-.072,3.468-2.438,7.854-5.295s7.97-5.108,8.019-5.042-3.473,2.444-7.854,5.295S441.674,252.616,441.63,252.556Z" transform="translate(-212.632 -143.31)" fill="#e0e0e0"/>
      <path id="Path_22" data-name="Path 22" d="M432.57,297.664a3.011,3.011,0,0,1,.622-.226l1.717-.523c1.448-.446,3.451-1.062,5.631-1.827s4.139-1.508,5.554-2.064l1.651-.655a2.493,2.493,0,0,1,.633-.209,3.078,3.078,0,0,1-.583.314c-.385.187-.941.446-1.651.749-1.387.605-3.335,1.393-5.5,2.152s-4.205,1.354-5.669,1.745c-.738.193-1.332.341-1.75.435a2.754,2.754,0,0,1-.649.11Z" transform="translate(-208.559 -165.764)" fill="#e0e0e0"/>
      <path id="Path_23" data-name="Path 23" d="M412.17,282.6a2.517,2.517,0,0,1,.484.374c.3.253.727.627,1.244,1.1,1.046.941,2.471,2.251,4.034,3.71s2.967,2.8,3.974,3.776c.5.484.9.886,1.178,1.167a2.824,2.824,0,0,1,.407.457,2.157,2.157,0,0,1-.484-.369c-.3-.253-.727-.633-1.249-1.1-1.04-.936-2.471-2.246-4.034-3.71s-2.967-2.8-3.968-3.77c-.506-.49-.908-.886-1.183-1.172a2.367,2.367,0,0,1-.4-.462Z" transform="translate(-199.387 -161.466)" fill="#e0e0e0"/>
      <path id="Path_24" data-name="Path 24" d="M399.55,317.94a3.628,3.628,0,0,1,.616.484l1.6,1.4c1.343,1.194,3.181,2.857,5.207,4.712s3.853,3.545,5.146,4.778l1.536,1.475a3.9,3.9,0,0,1,.55.55,4.4,4.4,0,0,1-.616-.484l-1.6-1.4c-1.343-1.194-3.181-2.862-5.207-4.711s-3.853-3.545-5.141-4.778l-1.552-1.442A3.788,3.788,0,0,1,399.55,317.94Z" transform="translate(-193.713 -177.355)" fill="#e0e0e0"/>
      <path id="Path_25" data-name="Path 25" d="M425.68,335.41a4.776,4.776,0,0,1,.776-.3l2.158-.743c1.816-.627,4.326-1.5,7.073-2.543s5.207-2.042,6.979-2.78l2.108-.875a4.567,4.567,0,0,1,.787-.286,3.967,3.967,0,0,1-.738.4c-.484.237-1.189.55-2.07.958-1.756.793-4.211,1.827-6.963,2.868s-5.273,1.9-7.111,2.449c-.919.286-1.651.506-2.2.649A4.2,4.2,0,0,1,425.68,335.41Z" transform="translate(-205.461 -181.824)" fill="#e0e0e0"/>
      <path id="Path_26" data-name="Path 26" d="M68.655,312.867c12.709-7.254,16.837-22.49,17.613-36.454.132-2.334.611-4.756-.308-6.9s-3.368-3.77-5.537-2.983c-1.8.655-2.752,2.592-3.853,4.167a13.672,13.672,0,0,1-5.928,4.706c-1.552.633-3.424.93-4.811,0-1.9-1.293-1.888-4.084-1.651-6.39q.655-6.473,1.26-12.924a21.635,21.635,0,0,0-.066-6.924,7.2,7.2,0,0,0-4.062-5.262c-2.141-.815-4.981.2-5.653,2.422a21.564,21.564,0,0,0-.325,2.868,2.443,2.443,0,0,1-1.651,2.163,2.786,2.786,0,0,1-2.438-1.293,30.141,30.141,0,0,1-4.756-8.84,42.734,42.734,0,0,0-4.359-9.065c-1.932-2.747-4.739-5.031-8.03-5.5s-7.007,1.233-8.141,4.4.457,6.66,2.284,9.489a52.024,52.024,0,0,0,9.841,11.2,4.51,4.51,0,0,1,1.651,2.1c.358,1.585-1.244,2.983-2.807,3.352-1.778.413-3.633.061-5.449.11s-3.853.66-4.684,2.306c-1.167,2.273.583,4.954,2.378,6.732a44.264,44.264,0,0,0,12.39,8.746A14.788,14.788,0,0,1,46.2,277.9c1.26,1.321,1.9,3.473.925,5.025s-3.154,1.882-4.9,1.387a31.462,31.462,0,0,1-4.893-2.4c-3.066-1.492-7.188-1.651-9.473.908a7.346,7.346,0,0,0-1.371,6.4,17.191,17.191,0,0,0,2.978,6.055,44.589,44.589,0,0,0,17.756,15.076c7.139,3.231,13.892,4.546,21.466,2.543" transform="translate(-25.579 -136.279)" fill="#f5f5f5"/>
      <path id="Path_27" data-name="Path 27" d="M71.186,324.508a102.376,102.376,0,0,0-2.031-19.4,208.7,208.7,0,0,0-6.181-23.057l-1.948-5.95c-.638-1.954-1.271-3.891-2.009-5.752a103.425,103.425,0,0,0-4.838-10.43c-1.7-3.242-3.429-6.258-5.069-9.065s-3.231-5.394-4.772-7.706a82.715,82.715,0,0,0-8.08-10.26c-1.046-1.134-1.882-1.987-2.46-2.559l-.66-.644a1.936,1.936,0,0,0-.237-.209,2.129,2.129,0,0,0,.2.237l.633.677c.55.589,1.376,1.464,2.4,2.614a86.966,86.966,0,0,1,7.953,10.337c1.525,2.3,3.088,4.888,4.717,7.706s3.346,5.834,5.031,9.071A105.822,105.822,0,0,1,58.654,270.5c.727,1.849,1.354,3.77,1.987,5.73s1.277,3.941,1.932,5.955a214.545,214.545,0,0,1,6.2,22.991,104.137,104.137,0,0,1,2.114,19.319" transform="translate(-28.87 -137.584)" fill="#e0e0e0"/>
      <path id="Path_28" data-name="Path 28" d="M80.17,283.175a4.074,4.074,0,0,0,.319-.963c.182-.627.407-1.541.677-2.681.55-2.273,1.172-5.432,1.86-8.922s1.365-6.632,1.937-8.889c.281-1.1.517-2.042.694-2.669a4.9,4.9,0,0,0,.22-.991,4.32,4.32,0,0,0-.38.941c-.22.616-.506,1.519-.826,2.642-.649,2.24-1.376,5.388-2.064,8.884l-1.739,8.966c-.215,1.073-.4,1.981-.55,2.708A5.223,5.223,0,0,0,80.17,283.175Z" transform="translate(-50.123 -150.433)" fill="#e0e0e0"/>
      <path id="Path_29" data-name="Path 29" d="M27.11,288.656a6.934,6.934,0,0,0,1.172.248c.76.138,1.855.33,3.2.616,2.7.55,6.39,1.42,10.425,2.57s7.64,2.361,10.227,3.3c1.293.462,2.334.864,3.049,1.139a6.142,6.142,0,0,0,1.134.391,6.086,6.086,0,0,0-1.068-.55c-.7-.325-1.723-.771-3.011-1.271-2.565-1.024-6.165-2.273-10.216-3.435a104.4,104.4,0,0,0-10.485-2.46c-1.354-.242-2.46-.391-3.225-.479A5.924,5.924,0,0,0,27.11,288.656Z" transform="translate(-26.267 -164.186)" fill="#e0e0e0"/>
      <path id="Path_30" data-name="Path 30" d="M98.19,335.956a1.414,1.414,0,0,0,.237-.347l.611-1.029c.55-.892,1.244-2.2,2.114-3.853,1.745-3.269,4.018-7.865,6.451-12.973s4.656-9.72,6.335-13.023l1.992-3.908.55-1.068a1.821,1.821,0,0,0,.16-.385,1.652,1.652,0,0,0-.237.341l-.605,1.029c-.523.9-1.244,2.2-2.119,3.853-1.745,3.275-4.012,7.871-6.451,12.979s-4.656,9.715-6.33,13.023l-2,3.908-.55,1.068a1.509,1.509,0,0,0-.16.385Z" transform="translate(-58.224 -169.006)" fill="#e0e0e0"/>
      <path id="Path_31" data-name="Path 31" d="M28.57,336.14a1.486,1.486,0,0,0,.38.2l1.1.49,4.1,1.761c3.468,1.481,8.256,3.589,13.485,5.922s10.039,4.4,13.54,5.812c1.745.71,3.165,1.266,4.156,1.651l1.139.418a1.851,1.851,0,0,0,.407.116,1.371,1.371,0,0,0-.374-.2l-1.1-.49-4.123-1.778c-3.468-1.486-8.256-3.594-13.485-5.928s-10.045-4.4-13.54-5.812c-1.745-.7-3.165-1.266-4.156-1.651l-1.139-.413a1.725,1.725,0,0,0-.391-.1Z" transform="translate(-26.924 -185.537)" fill="#e0e0e0"/>
      <path id="Path_32" data-name="Path 32" d="M119.621,81.7v45.431H54.376L52.02,82.019Z" transform="translate(-37.467 -71.143)" fill="#e0e0e0"/>
      <rect id="Rectangle_6" data-name="Rectangle 6" width="45.012" height="65.245" transform="translate(14.553 55.894) rotate(-90)" fill="#fff"/>
      <path id="Path_33" data-name="Path 33" d="M117.327,127.354H51.46V81.72h65.867Zm-65.245-.622h64.623v-44.4H52.082Z" transform="translate(-37.215 -71.152)" fill="#e0e0e0"/>
      <rect id="Rectangle_7" data-name="Rectangle 7" width="51.111" height="33.828" transform="translate(21.621 16.468)" fill="#fff"/>
      <path id="Path_34" data-name="Path 34" d="M115.81,92.287h-3.759l-10.535.039L64.721,92.4l.149-.149v33.828h0l-.165-.16,51.116.033-.132.127c.033-10.293.055-18.714.072-24.609,0-2.939,0-5.234.033-6.809v-.05c0,1.563,0,3.853.033,6.776,0,5.895.039,14.366.066,24.691v.132h-.127l-51.116.033h-.16v-.165h0V92.1h.143l36.877.077,10.5.039h3.462Z" transform="translate(-43.073 -75.819)" fill="#e0e0e0"/>
      <path id="Path_35" data-name="Path 35" d="M52,82.05a5.713,5.713,0,0,1,1.1.727c.671.484,1.58,1.167,2.559,1.954s1.844,1.525,2.455,2.081a5.223,5.223,0,0,1,.93.958,40.184,40.184,0,0,1-3.589-2.791A39.931,39.931,0,0,1,52,82.05Z" transform="translate(-37.457 -71.301)" fill="#e0e0e0"/>
      <path id="Path_36" data-name="Path 36" d="M164.8,82.28a31.448,31.448,0,0,1-3.435,2.923,31.312,31.312,0,0,1-3.633,2.669,32.26,32.26,0,0,1,3.451-2.923A31.561,31.561,0,0,1,164.8,82.28Z" transform="translate(-84.993 -71.404)" fill="#e0e0e0"/>
      <path id="Path_37" data-name="Path 37" d="M164.531,159.26l-7.271-5.9" transform="translate(-84.782 -103.361)" fill="#fff"/>
      <path id="Path_38" data-name="Path 38" d="M157.259,153.36A35.659,35.659,0,0,1,161,156.184a33.65,33.65,0,0,1,3.534,3.077,34.752,34.752,0,0,1-3.737-2.824A30.455,30.455,0,0,1,157.259,153.36Z" transform="translate(-84.78 -103.361)" fill="#e0e0e0"/>
      <path id="Path_39" data-name="Path 39" d="M52,159.547a31.2,31.2,0,0,1,3.4-2.9A31.57,31.57,0,0,1,59,154.01a30.785,30.785,0,0,1-3.4,2.9,31.576,31.576,0,0,1-3.6,2.642Z" transform="translate(-37.458 -103.653)" fill="#e0e0e0"/>
      <rect id="Rectangle_8" data-name="Rectangle 8" width="11.327" height="32.16" transform="translate(32.001 38.341) rotate(-90)" fill="#e0e0e0"/>
      <rect id="Rectangle_9" data-name="Rectangle 9" width="34.885" height="50.566" transform="translate(197.927 0)" fill="#e0e0e0"/>
      <rect id="Rectangle_10" data-name="Rectangle 10" width="34.885" height="50.566" transform="translate(196.183 0)" fill="#f5f5f5"/>
      <rect id="Rectangle_11" data-name="Rectangle 11" width="26.216" height="39.613" transform="translate(200.514 5.477)" fill="#fff"/>
      <path id="Path_40" data-name="Path 40" d="M416.061,112.006V100.932c0-6.985-.028-16.881-.044-28.528l.088.088H389.84l.1-.094v39.629l-.077-.077,19.083.044h.05l-19.132.039h-.072V72.3h26.42v.088c0,11.674-.027,21.582-.039,28.583,0,3.484,0,6.247-.027,8.141v2.7A.436.436,0,0,0,416.061,112.006Z" transform="translate(-189.325 -66.917)" fill="#e0e0e0"/>
      <path id="Path_41" data-name="Path 41" d="M441.69,62.52a5.562,5.562,0,0,1-.622.9c-.407.55-.98,1.282-1.651,2.081s-1.271,1.5-1.728,2a6.142,6.142,0,0,1-.749.782,6.242,6.242,0,0,1,.666-.87l1.679-2.037c.633-.776,1.211-1.475,1.679-2.042a6.443,6.443,0,0,1,.727-.82Z" transform="translate(-210.523 -62.52)" fill="#e0e0e0"/>
      <path id="Path_42" data-name="Path 42" d="M437.76,144.21a32.7,32.7,0,0,0,4.574,5.719" transform="translate(-210.892 -99.247)" fill="#fff"/>
      <path id="Path_43" data-name="Path 43" d="M442.32,149.929a5.249,5.249,0,0,1-.8-.727,24.043,24.043,0,0,1-1.728-1.943,25.97,25.97,0,0,1-1.514-2.114,5.335,5.335,0,0,1-.55-.936,6.882,6.882,0,0,1,.644.864c.385.55.925,1.277,1.552,2.064s1.233,1.481,1.679,1.97a7.552,7.552,0,0,1,.716.82Z" transform="translate(-210.879 -99.247)" fill="#e0e0e0"/>
      <path id="Path_44" data-name="Path 44" d="M382,149.716l4.568-5.636" transform="translate(-185.823 -99.189)" fill="#fff"/>
      <path id="Path_45" data-name="Path 45" d="M386.573,144.08a33.817,33.817,0,0,1-2.2,2.879,34.812,34.812,0,0,1-2.361,2.752,64.536,64.536,0,0,1,4.563-5.631Z" transform="translate(-185.827 -99.189)" fill="#e0e0e0"/>
      <path id="Path_46" data-name="Path 46" d="M382,62.52a32.05,32.05,0,0,1,2.2,2.653,32.377,32.377,0,0,1,2.07,2.752,30.826,30.826,0,0,1-2.2-2.653A32.377,32.377,0,0,1,382,62.52Z" transform="translate(-185.823 -62.52)" fill="#e0e0e0"/>
      <rect id="Rectangle_12" data-name="Rectangle 12" width="8.779" height="24.922" transform="translate(209.789 13.518)" fill="#e0e0e0"/>
    </g>
    <g id="freepik--Floor--inject-154" transform="translate(26.257 268.494)">
      <path id="Path_47" data-name="Path 47" d="M266.3,436.883c0,.083-53.621.143-119.741.143s-119.752-.039-119.752-.143,53.6-.143,119.752-.143S266.3,436.828,266.3,436.883Z" transform="translate(-26.81 -436.74)" fill="#263238"/>
    </g>
    <g id="freepik--character-2--inject-154" transform="translate(153.775 102.554)">
      <path id="Path_48" data-name="Path 48" d="M331.28,264a9.505,9.505,0,0,1-2.835,9.3c-1.679,1.486-3.853,2.345-5.394,3.979a8.372,8.372,0,0,0-1.679,8.08A10.684,10.684,0,0,0,327,291.6a12.5,12.5,0,0,0,11.338-.385c4.255-2.405,6.732-7.232,7.359-12.081s-.358-9.759-1.651-14.476" transform="translate(-286.581 -193.138)" fill="#263238"/>
      <path id="Path_49" data-name="Path 49" d="M437.19,411.676c4.4-.721,8.531.622,12.891,1.585a7.706,7.706,0,0,0,3.572.193,5.127,5.127,0,0,0,3.523-4.249,6.957,6.957,0,0,0-1.1-4.822,4.629,4.629,0,0,0-1.508-1.5,5.245,5.245,0,0,0-2.108-.55,14.977,14.977,0,0,0-7.761,1.464,22.886,22.886,0,0,0-6.44,4.668c-.925.925-.649,1.987-1.057,3.231" transform="translate(-338.832 -255.309)" fill="#263238"/>
      <path id="Path_50" data-name="Path 50" d="M274.614,273.838a34.126,34.126,0,0,1,.253-12.659,16.622,16.622,0,0,1,2.2-5.752,3.688,3.688,0,0,1,1.613-1.514,2.807,2.807,0,0,1,2.868.677,4.794,4.794,0,0,1,1.321,3.71,11.761,11.761,0,0,1-.98,3.919c-1.7,4.348-4.4,7.959-7.293,11.614" transform="translate(-265.527 -188.539)" fill="#263238"/>
      <path id="Path_51" data-name="Path 51" d="M418.472,319.14c1,.71,23.117,48.359,23.117,48.359h0a9.4,9.4,0,0,0-5.642-.55l-1.2.319a20.079,20.079,0,0,0-6.027,2.752l-6.313,4.271h0a1.805,1.805,0,0,1-.9-1.393v-.182L404.36,343.281Z" transform="translate(-324.072 -217.929)" fill="#3bb3c1"/>
      <path id="Path_52" data-name="Path 52" d="M270.465,181.32l5.9,33.536c1.9,4.513,24.042,31.858,24.042,31.858l-7.32,23.524L264,230.471a15.2,15.2,0,0,1-4.1-10.667l1.134-35.832Z" transform="translate(-259.126 -155.966)" fill="#ffbe9d"/>
      <path id="Path_53" data-name="Path 53" d="M329,290.58l15.186,1.15,13.243,2.053s23.233,6.1,23.233,8.647c0,.848-6.341,21.042-9.907,33.14a84.106,84.106,0,0,0-2.136,8.939l12.043,26.662H323.511V346.727s-3.853-32.105-3.176-36.492S329,290.58,329,290.58Z" transform="translate(-286.259 -205.088)" fill="#3bb3c1"/>
      <path id="Path_54" data-name="Path 54" d="M266,147.479a67.228,67.228,0,0,1,1.046-10.183c.083-.479.281-1.057.76-1.1.594-.077.9.688.974,1.282a35.881,35.881,0,0,1-.5,12.17" transform="translate(-261.866 -135.676)" fill="#eb996e"/>
      <path id="Path_55" data-name="Path 55" d="M276.807,264.331c6.517-5.823,6.737-15.912,6.181-23.943a2.691,2.691,0,0,1,.253-1.723c.622-.886,2.136-.55,2.752.341a5.162,5.162,0,0,1,.517,3.143c.336-.914,1.767-.908,2.438-.2a4.379,4.379,0,0,1,.864,2.752l.215,2.686,19.039,18.163s.523-1.651,1.921-.7a8.2,8.2,0,0,1,2.3,2.961l-13.413,29.276L274.98,266.813A10.112,10.112,0,0,1,276.807,264.331Z" transform="translate(-265.904 -181.514)" fill="#3bb3c1"/>
      <path id="Path_56" data-name="Path 56" d="M321.174,322.53a25.242,25.242,0,0,0-4.37,8.515,15.522,15.522,0,0,0,.281,9.478,13.144,13.144,0,0,0,10.089,8.135" transform="translate(-284.434 -219.453)" fill="#3bb3c1"/>
      <path id="Path_57" data-name="Path 57" d="M436.6,413.213l-.721,9.715h14.107l3.3-17.2h0a17.767,17.767,0,0,0-11.927,3.737Z" transform="translate(-338.243 -256.845)" fill="#ffbe9d"/>
      <path id="Path_58" data-name="Path 58" d="M290.35,265.013a4.73,4.73,0,0,1,.308-.776c.22-.484.517-1.2.853-2.092s.694-1.97,1.029-3.181a38.045,38.045,0,0,0,.831-4.012,37.326,37.326,0,0,0,.347-4.079c0-1.26,0-2.394-.077-3.346s-.149-1.717-.22-2.246a5.311,5.311,0,0,1-.077-.831,4.174,4.174,0,0,1,.187.815,22.2,22.2,0,0,1,.314,2.246,30.734,30.734,0,0,1,.138,3.368,31.858,31.858,0,0,1-1.189,8.152,30.222,30.222,0,0,1-1.1,3.187c-.363.892-.688,1.6-.941,2.07A5.5,5.5,0,0,1,290.35,265.013Z" transform="translate(-272.814 -184.349)" fill="#263238"/>
      <path id="Path_59" data-name="Path 59" d="M297.88,264.391A13.611,13.611,0,0,1,298.5,263a20.541,20.541,0,0,0,1.651-7.051,13.514,13.514,0,0,1,.083-1.514,5.7,5.7,0,0,1,.121,1.519,16.766,16.766,0,0,1-1.651,7.128A5.448,5.448,0,0,1,297.88,264.391Z" transform="translate(-276.199 -188.84)" fill="#263238"/>
      <path id="Path_60" data-name="Path 60" d="M337.551,294.421c-.044-.028.187-.385.319-1.035a5.46,5.46,0,0,0-.143-2.548,19.1,19.1,0,0,0-.952-2.433,4.162,4.162,0,0,1-.385-1.035,4.954,4.954,0,0,1,.55.947,12.61,12.61,0,0,1,1.051,2.444,4.992,4.992,0,0,1,.061,2.675A1.965,1.965,0,0,1,337.551,294.421Z" transform="translate(-293.513 -203.645)" fill="#263238"/>
      <path id="Path_61" data-name="Path 61" d="M325.041,351.926a1.133,1.133,0,0,1-.242-.138l-.649-.429c-.55-.38-1.371-.936-2.328-1.69a19.958,19.958,0,0,1-3.088-2.956,11.845,11.845,0,0,1-2.389-4.651,14.624,14.624,0,0,1-.319-5.229,20.647,20.647,0,0,1,.941-4.167,27.225,27.225,0,0,1,1.051-2.68c.143-.308.253-.55.336-.7a1.217,1.217,0,0,1,.138-.242,9.361,9.361,0,0,1-.369.991c-.248.627-.605,1.541-.963,2.7a21.858,21.858,0,0,0-.87,4.134,14.719,14.719,0,0,0,.33,5.13,11.746,11.746,0,0,0,2.317,4.557,20.917,20.917,0,0,0,3.011,2.961c.936.771,1.723,1.349,2.268,1.761l.616.473C324.975,351.854,325.047,351.915,325.041,351.926Z" transform="translate(-284.311 -222.38)" fill="#263238"/>
      <path id="Path_62" data-name="Path 62" d="M373.593,370.677a.94.94,0,0,1-.242.088c-.165.044-.4.127-.716.187a14.529,14.529,0,0,1-2.7.325,15.153,15.153,0,0,1-14.349-9.076,14.252,14.252,0,0,1-.864-2.576c-.077-.314-.1-.55-.138-.727a1.152,1.152,0,0,1-.028-.259,7.511,7.511,0,0,1,.275.952,15.412,15.412,0,0,0,15.1,11.482,16.607,16.607,0,0,0,2.68-.231A9.433,9.433,0,0,1,373.593,370.677Z" transform="translate(-301.682 -235.687)" fill="#263238"/>
      <path id="Path_63" data-name="Path 63" d="M405.045,388.958c-.077,0,.649-3.066,1.651-6.8s1.827-6.742,1.9-6.72-.65,3.06-1.624,6.792S405.122,388.958,405.045,388.958Z" transform="translate(-324.378 -243.241)" fill="#263238"/>
      <path id="Path_64" data-name="Path 64" d="M411.117,374.893c-.066.039-2.279-3.578-4.954-8.08s-4.767-8.185-4.695-8.223,2.279,3.572,4.954,8.074S411.211,374.849,411.117,374.893Z" transform="translate(-322.771 -235.665)" fill="#263238"/>
      <path id="Path_65" data-name="Path 65" d="M447.809,404.385c0,.055-.8.121-2.059.44a16.236,16.236,0,0,0-2.152.71,17.924,17.924,0,0,0-2.466,1.277,17.415,17.415,0,0,0-2.2,1.679,16.159,16.159,0,0,0-1.569,1.651c-.826,1-1.233,1.7-1.282,1.651a2.45,2.45,0,0,1,.259-.506A10.23,10.23,0,0,1,437.2,410a14.734,14.734,0,0,1,1.547-1.706,15.925,15.925,0,0,1,2.235-1.728,16.218,16.218,0,0,1,2.521-1.277,13.994,13.994,0,0,1,2.2-.666,9.967,9.967,0,0,1,1.53-.231A2,2,0,0,1,447.809,404.385Z" transform="translate(-338.333 -256.246)" fill="#263238"/>
      <path id="Path_66" data-name="Path 66" d="M451.365,398.262c0,.061-.886-.05-2.3.072a14.709,14.709,0,0,0-9.643,4.833c-.941,1.057-1.382,1.827-1.431,1.8a2.519,2.519,0,0,1,.292-.55,5.317,5.317,0,0,1,.4-.611,9.653,9.653,0,0,1,.589-.771,13.378,13.378,0,0,1,1.794-1.772,15.417,15.417,0,0,1,2.6-1.684,15.171,15.171,0,0,1,2.9-1.068,13.29,13.29,0,0,1,2.5-.38,9.584,9.584,0,0,1,.963,0,6.535,6.535,0,0,1,.732.044,2.46,2.46,0,0,1,.616.088Z" transform="translate(-339.192 -253.436)" fill="#263238"/>
      <g id="Group_17" data-name="Group 17" transform="translate(52.879 124.125)" opacity="0.3">
        <path id="Path_67" data-name="Path 67" d="M355.15,360.77c-1.293,2.455-.215,5.449.969,7.964a14.489,14.489,0,0,0,3.616,5.284,7.706,7.706,0,0,0,11.2-1.563,17.387,17.387,0,0,1-16.05-11.355" transform="translate(-354.563 -360.77)"/>
      </g>
      <g id="Group_18" data-name="Group 18" transform="translate(78.271 122.925)" opacity="0.3">
        <path id="Path_68" data-name="Path 68" d="M401.16,358.59c-.991,2.361-.242,5.592.793,7.931s2.136,4.954,1.3,7.381a3.1,3.1,0,0,0-.325,1.387c.055.473.55.93,1,.71a1.1,1.1,0,0,0,.446-.683q1.172-3.534,2.35-7.062" transform="translate(-400.696 -358.59)"/>
      </g>
      <path id="Path_69" data-name="Path 69" d="M306.94,294.96a65.7,65.7,0,0,1,1.393-8.741,32.571,32.571,0,0,1-.55,4.4,33.61,33.61,0,0,1-.842,4.337Z" transform="translate(-280.273 -203.128)" fill="#fafafa"/>
      <path id="Path_70" data-name="Path 70" d="M292.537,295.385c-.072.044-1.018-1.277-2.328-2.8s-2.466-2.658-2.411-2.719a13.584,13.584,0,0,1,2.631,2.532A14.1,14.1,0,0,1,292.537,295.385Z" transform="translate(-271.666 -204.769)" fill="#fafafa"/>
      <path id="Path_71" data-name="Path 71" d="M301.249,274.128a4.743,4.743,0,0,1-.622.991c-.418.589-1.029,1.376-1.739,2.2s-1.393,1.569-1.9,2.075a4.452,4.452,0,0,1-.875.771c-.061-.055,1.145-1.36,2.559-3.033A37.951,37.951,0,0,1,301.249,274.128Z" transform="translate(-275.402 -197.69)" fill="#fafafa"/>
      <path id="Path_72" data-name="Path 72" d="M300.111,259.458c-.083.033-.4-.666-1-1.365s-1.255-1.1-1.211-1.183a2.686,2.686,0,0,1,1.426,1A2.752,2.752,0,0,1,300.111,259.458Z" transform="translate(-276.207 -189.951)" fill="#fafafa"/>
      <path id="Path_73" data-name="Path 73" d="M290.426,269.3a3.951,3.951,0,0,1-1.431.369,3.8,3.8,0,0,1-1.475.088,7.706,7.706,0,0,1,2.906-.457Z" transform="translate(-271.542 -195.517)" fill="#fafafa"/>
      <path id="Path_74" data-name="Path 74" d="M314.929,276.355a15.03,15.03,0,0,0-.182-2.559,14.611,14.611,0,0,0-.9-2.405,4.321,4.321,0,0,1,1.172,2.345A4.4,4.4,0,0,1,314.929,276.355Z" transform="translate(-283.379 -196.461)" fill="#fafafa"/>
      <path id="Path_75" data-name="Path 75" d="M324.84,290.344a12.891,12.891,0,0,0-3.99-4.023A6.957,6.957,0,0,1,324.84,290.344Z" transform="translate(-286.527 -203.173)" fill="#fafafa"/>
      <path id="Path_76" data-name="Path 76" d="M304.247,316.42a6.605,6.605,0,0,1-5.047-.171c.027-.083,1.1.264,2.515.3S304.225,316.338,304.247,316.42Z" transform="translate(-276.793 -216.623)" fill="#fafafa"/>
      <path id="Path_77" data-name="Path 77" d="M317.623,316.554c-.077-.033.352-1.3.71-2.906s.517-2.939.6-2.928a9.285,9.285,0,0,1-.319,2.989A9.391,9.391,0,0,1,317.623,316.554Z" transform="translate(-285.071 -214.143)" fill="#fafafa"/>
      <path id="Path_78" data-name="Path 78" d="M334.1,317.972a19.6,19.6,0,0,1-2.405-2.422,20.563,20.563,0,0,1-2.2-2.62,20.088,20.088,0,0,1,2.4,2.427A21.259,21.259,0,0,1,334.1,317.972Z" transform="translate(-290.411 -215.137)" fill="#fafafa"/>
      <path id="Path_79" data-name="Path 79" d="M344.519,342.6a10.515,10.515,0,0,1-1.794-1.651,10.754,10.754,0,0,1-1.585-1.849,10.518,10.518,0,0,1,1.794,1.651A9.974,9.974,0,0,1,344.519,342.6Z" transform="translate(-295.649 -226.902)" fill="#fafafa"/>
      <path id="Path_80" data-name="Path 80" d="M325.895,347.687a7.992,7.992,0,0,1-2.2,1.651,7.789,7.789,0,0,1-2.543,1.1c0-.077,1.1-.55,2.4-1.327S325.839,347.62,325.895,347.687Z" transform="translate(-286.661 -230.761)" fill="#fafafa"/>
      <path id="Path_81" data-name="Path 81" d="M337.819,364.547c-.083,0,.248-1.464.413-3.275s.116-3.3.2-3.3a10.573,10.573,0,0,1,.088,3.3,10.418,10.418,0,0,1-.7,3.275Z" transform="translate(-294.15 -235.386)" fill="#fafafa"/>
      <path id="Path_82" data-name="Path 82" d="M364.759,347.982a9.253,9.253,0,0,1-2.383-2.1,9.021,9.021,0,0,1-1.756-2.636c.072-.05.826,1.145,1.97,2.449S364.814,347.911,364.759,347.982Z" transform="translate(-304.407 -228.767)" fill="#fafafa"/>
      <path id="Path_83" data-name="Path 83" d="M379.207,356.927c-.066-.05.771-1.194,1.706-2.664s1.624-2.7,1.7-2.664a11.806,11.806,0,0,1-1.459,2.818,11.482,11.482,0,0,1-1.943,2.51Z" transform="translate(-312.762 -232.522)" fill="#fafafa"/>
      <path id="Path_84" data-name="Path 84" d="M373.094,336.986a28.81,28.81,0,0,1-5.5-1.486,15.146,15.146,0,0,1,2.8.605,14.1,14.1,0,0,1,2.708.881Z" transform="translate(-307.54 -225.284)" fill="#fafafa"/>
      <path id="Path_85" data-name="Path 85" d="M369.46,374.571a11.667,11.667,0,0,1,0-2.609,12.329,12.329,0,0,1,.3-2.592,11.5,11.5,0,0,1,0,2.609A12.109,12.109,0,0,1,369.46,374.571Z" transform="translate(-308.348 -240.512)" fill="#fafafa"/>
      <path id="Path_86" data-name="Path 86" d="M376.5,388.225a22.121,22.121,0,0,0,.694-2.714,21.293,21.293,0,0,0,.044-2.8,6.6,6.6,0,0,1-.738,5.5Z" transform="translate(-311.546 -246.509)" fill="#fafafa"/>
      <path id="Path_87" data-name="Path 87" d="M358.336,385.164a8.493,8.493,0,0,1,1.057-5.5c.077.033-.429,1.194-.716,2.719S358.418,385.159,358.336,385.164Z" transform="translate(-303.339 -245.138)" fill="#fafafa"/>
      <path id="Path_88" data-name="Path 88" d="M337.715,393.392a30.813,30.813,0,0,1-2.587-2.009,31.979,31.979,0,0,1-2.548-2.053,13.362,13.362,0,0,1,2.752,1.827,13.985,13.985,0,0,1,2.383,2.235Z" transform="translate(-291.8 -249.485)" fill="#fafafa"/>
      <path id="Path_89" data-name="Path 89" d="M347.685,377.09a47.533,47.533,0,0,1-6.6,3.5,24.711,24.711,0,0,1,3.258-1.893,24.036,24.036,0,0,1,3.346-1.6Z" transform="translate(-295.622 -243.982)" fill="#fafafa"/>
      <path id="Path_90" data-name="Path 90" d="M365.081,406.926a2.491,2.491,0,0,1-.358.088c-.237.044-.583.132-1.035.193a22.082,22.082,0,0,1-3.853.248,23.78,23.78,0,0,1-20.723-12.946,21.775,21.775,0,0,1-1.475-3.583c-.149-.435-.22-.782-.286-1.013a1.738,1.738,0,0,1-.072-.363,2.015,2.015,0,0,1,.127.347c.083.226.171.55.336,1a24.933,24.933,0,0,0,4.789,8.207,24.174,24.174,0,0,0,17.31,8.152,25.037,25.037,0,0,0,3.853-.154c.457-.044.8-.116,1.04-.138a1.551,1.551,0,0,1,.347-.033Z" transform="translate(-293.913 -249.584)" fill="#263238"/>
      <path id="Path_91" data-name="Path 91" d="M357.832,412.073a4.277,4.277,0,0,1,.259-2.6,4.233,4.233,0,0,1,1.519-2.13,13.547,13.547,0,0,0-1.249,2.235A13.961,13.961,0,0,0,357.832,412.073Z" transform="translate(-303.11 -257.583)" fill="#fafafa"/>
      <path id="Path_92" data-name="Path 92" d="M347.774,412.5a9.613,9.613,0,0,0-1.431,1.365,10.062,10.062,0,0,0-.9,1.756,3.374,3.374,0,0,1,2.334-3.121Z" transform="translate(-297.582 -259.902)" fill="#fafafa"/>
      <path id="Path_93" data-name="Path 93" d="M377.733,429.092a5.636,5.636,0,0,1-4.4-2.752A9.908,9.908,0,0,0,377.733,429.092Z" transform="translate(-310.121 -266.125)" fill="#fafafa"/>
      <path id="Path_94" data-name="Path 94" d="M383.809,403.64a4.337,4.337,0,0,1-2.989,3.523,11.756,11.756,0,0,0,1.783-1.514A11.379,11.379,0,0,0,383.809,403.64Z" transform="translate(-313.489 -255.919)" fill="#fafafa"/>
      <path id="Path_95" data-name="Path 95" d="M400.231,420.536c-.066-.055.66-.974,1.332-2.24s1.029-2.383,1.1-2.356a8.465,8.465,0,0,1-2.444,4.6Z" transform="translate(-322.211 -261.449)" fill="#fafafa"/>
      <path id="Path_96" data-name="Path 96" d="M415.74,427c.033.083-.969.479-1.976,1.31s-1.613,1.723-1.684,1.651a4.464,4.464,0,0,1,1.5-1.9A4.4,4.4,0,0,1,415.74,427Z" transform="translate(-327.543 -266.422)" fill="#fafafa"/>
      <path id="Path_97" data-name="Path 97" d="M401.656,398.056c-.088.028-.55-1.58-1.58-3.363s-2.13-3.038-2.059-3.093a3.434,3.434,0,0,1,.787.771,13.667,13.667,0,0,1,2.6,4.612,3.643,3.643,0,0,1,.253,1.073Z" transform="translate(-321.219 -250.506)" fill="#fafafa"/>
      <path id="Path_98" data-name="Path 98" d="M403.074,373.56a25.558,25.558,0,0,1-5.284,1.216A25.784,25.784,0,0,1,403.074,373.56Z" transform="translate(-321.118 -242.395)" fill="#fafafa"/>
      <path id="Path_99" data-name="Path 99" d="M396.313,361.356a12.108,12.108,0,0,1-1.684-1.937,11.946,11.946,0,0,1-1.459-2.108,11.057,11.057,0,0,1,1.684,1.932,11.2,11.2,0,0,1,1.459,2.114Z" transform="translate(-319.041 -235.09)" fill="#fafafa"/>
      <path id="Path_100" data-name="Path 100" d="M415.792,358.322a12.82,12.82,0,0,1-5.152-1.222,22.432,22.432,0,0,1,2.581.6A21.773,21.773,0,0,1,415.792,358.322Z" transform="translate(-326.895 -234.995)" fill="#fafafa"/>
      <path id="Path_101" data-name="Path 101" d="M435,355.3a21.329,21.329,0,0,1,.842-2.29,19.474,19.474,0,0,1,.842-2.3,7.2,7.2,0,0,1-.55,2.394A7.011,7.011,0,0,1,435,355.3Z" transform="translate(-337.847 -232.127)" fill="#fafafa"/>
      <path id="Path_102" data-name="Path 102" d="M427.983,377.236a8.256,8.256,0,0,1-4.4-2.609c.055-.066.925.693,2.13,1.4S428.011,377.153,427.983,377.236Z" transform="translate(-332.713 -242.873)" fill="#fafafa"/>
      <path id="Path_103" data-name="Path 103" d="M441.307,373.467a19.95,19.95,0,0,1,.605-3.269,19.613,19.613,0,0,1,.87-3.2,38.322,38.322,0,0,1-1.492,6.473Z" transform="translate(-340.675 -239.446)" fill="#fafafa"/>
      <path id="Path_104" data-name="Path 104" d="M430.2,397.374a33.64,33.64,0,0,1-3.666-5.014,17.188,17.188,0,0,1,1.948,2.422,16.871,16.871,0,0,1,1.717,2.592Z" transform="translate(-334.039 -250.848)" fill="#fafafa"/>
      <path id="Path_105" data-name="Path 105" d="M444.725,389.471c-.077.039-.578-.958-1.371-2.07s-1.558-1.921-1.5-1.981a6.4,6.4,0,0,1,1.734,1.816A6.208,6.208,0,0,1,444.725,389.471Z" transform="translate(-340.929 -247.728)" fill="#fafafa"/>
      <path id="Path_106" data-name="Path 106" d="M457.213,387.067a27.338,27.338,0,0,1-1.761-2.306,28.667,28.667,0,0,1-1.761-2.3,14.916,14.916,0,0,1,3.523,4.607Z" transform="translate(-346.25 -246.397)" fill="#fafafa"/>
      <path id="Path_107" data-name="Path 107" d="M455.265,396.821a5.305,5.305,0,0,0-.655-1.877,5.42,5.42,0,0,0-1.47-1.343c0-.033.253,0,.6.171a2.972,2.972,0,0,1,1.1,1.013,3.022,3.022,0,0,1,.49,1.42C455.386,396.567,455.314,396.821,455.265,396.821Z" transform="translate(-346.003 -251.4)" fill="#fafafa"/>
      <path id="Path_108" data-name="Path 108" d="M445.65,410.116c-.044,0-.027-.149-.072-.341a1.128,1.128,0,0,0-.38-.633,1.1,1.1,0,0,0-.7-.215c-.2,0-.325.049-.347,0s.083-.149.319-.215a1.046,1.046,0,0,1,1.31,1.024C445.771,410,445.683,410.127,445.65,410.116Z" transform="translate(-341.959 -258.184)" fill="#fafafa"/>
      <path id="Path_109" data-name="Path 109" d="M339.135,426.513A7.932,7.932,0,0,1,334.6,422a13.408,13.408,0,0,0,4.535,4.535Z" transform="translate(-292.708 -264.174)" fill="#fafafa"/>
      <path id="Path_110" data-name="Path 110" d="M270.762,160.984c-.886-8.372-2.488-16.248-2.923-24.455a1.486,1.486,0,0,0-.391-1.134,1.024,1.024,0,0,0-1.426.413,3.127,3.127,0,0,0-.275,1.651,37.879,37.879,0,0,1-2.2,12.808c-.941,2.669-2.2,5.229-2.906,7.964s.622,3.666,1.855,6.214" transform="translate(-259.368 -135.256)" fill="#ffbe9d"/>
      <path id="Path_111" data-name="Path 111" d="M261.749,171.882a7.667,7.667,0,0,1-2.912-7.249,21.823,21.823,0,0,1,1.75-4.689,7.954,7.954,0,0,0,.754-4.877,8.211,8.211,0,0,1-.44-1.866c0-.638.413-1.354,1.051-1.382a1.563,1.563,0,0,1,1.194.721c1.073,1.326,1.932,5.2,1.393,8.1" transform="translate(-258.606 -142.703)" fill="#ffbe9d"/>
      <path id="Path_112" data-name="Path 112" d="M264.423,160.532s.055-.446.088-1.249a15,15,0,0,0-.281-3.38,12.236,12.236,0,0,0-.66-2.24,4.536,4.536,0,0,0-.616-1.1,1.569,1.569,0,0,0-1.029-.7.991.991,0,0,0-.919.771,2.334,2.334,0,0,0,.088,1.415,7.331,7.331,0,0,1,.385,1.558,6.236,6.236,0,0,1-.061,1.651c-.385,2.235-1.574,4.04-2.2,5.829a7.9,7.9,0,0,0-.49,2.609,7.634,7.634,0,0,0,.341,2.29,7.854,7.854,0,0,0,1.651,2.923c.55.589.908.848.892.875a1.454,1.454,0,0,1-.275-.182,6.127,6.127,0,0,1-.7-.622,7.53,7.53,0,0,1-1.761-2.934,7.618,7.618,0,0,1-.385-2.35,8.069,8.069,0,0,1,.479-2.7c.605-1.827,1.778-3.633,2.141-5.785a5.7,5.7,0,0,0,.061-1.585,6.987,6.987,0,0,0-.369-1.514,2.581,2.581,0,0,1-.077-1.58,1.53,1.53,0,0,1,.435-.677,1.013,1.013,0,0,1,.76-.27,1.8,1.8,0,0,1,1.255.776,4.811,4.811,0,0,1,.638,1.189,11.558,11.558,0,0,1,.638,2.29,13.594,13.594,0,0,1,.193,3.424,6.848,6.848,0,0,1-.121.925,1.249,1.249,0,0,1-.1.341Z" transform="translate(-258.49 -142.598)" fill="#eb996e"/>
      <path id="Path_113" data-name="Path 113" d="M396.956,241.6a3.8,3.8,0,0,0,3.4,2.939A4.767,4.767,0,0,0,404.5,242.5a6.423,6.423,0,0,0,1.029-4.6,6.315,6.315,0,0,0-4.09-5.234c-2.235-.688-5.014.55-5.631,2.8l-2.576,3.594Z" transform="translate(-319.068 -178.965)" fill="#263238"/>
      <path id="Path_114" data-name="Path 114" d="M368.6,222.454a14.988,14.988,0,0,0-13.468-16.787c-7.986-.76-15.092,5.19-16.287,13.127-1.051,6.957-1.954,13.98-1.921,16.512.1,7.706,4.6,10.689,6.423,11.559a10.1,10.1,0,0,0,2.025.5h0a.05.05,0,0,1,.039.061l-1.706,8.807c-.776,5.785,2.455,10.948,8.229,11.79s10.326-3.6,11.212-9.39Z" transform="translate(-293.751 -166.883)" fill="#ffbe9d"/>
      <path id="Path_115" data-name="Path 115" d="M342.809,236.953c.127.182,1.139-.363,2.444-.171s2.158.985,2.323.842c.083-.061-.033-.363-.4-.727a3.369,3.369,0,0,0-1.833-.875,3.258,3.258,0,0,0-1.976.336C342.908,236.606,342.743,236.87,342.809,236.953Z" transform="translate(-296.393 -180.544)" fill="#263238"/>
      <path id="Path_116" data-name="Path 116" d="M363.851,241.512c.127.182,1.145-.363,2.444-.171s2.163.985,2.328.842c.077-.061-.033-.363-.407-.732a3.363,3.363,0,0,0-1.827-.87,3.253,3.253,0,0,0-1.976.336C363.966,241.166,363.79,241.43,363.851,241.512Z" transform="translate(-305.854 -182.594)" fill="#263238"/>
      <path id="Path_117" data-name="Path 117" d="M353.083,244.689a8.767,8.767,0,0,0-2.059-.688c-.33-.083-.633-.2-.655-.429a1.712,1.712,0,0,1,.363-.952l1.354-2.389a44.762,44.762,0,0,0,3.17-6.3,43.83,43.83,0,0,0-3.671,6.054l-1.315,2.405a2.009,2.009,0,0,0-.363,1.282.864.864,0,0,0,.479.55,2.376,2.376,0,0,0,.55.16,8.569,8.569,0,0,0,2.147.308Z" transform="translate(-299.588 -179.618)" fill="#263238"/>
      <path id="Path_118" data-name="Path 118" d="M351.987,280.177s4.954,1.145,11.806-1.717c0,0-2.95,6.357-12.263,4.1Z" transform="translate(-300.32 -199.639)" fill="#eb996e"/>
      <path id="Path_119" data-name="Path 119" d="M355.68,258.818a2.372,2.372,0,0,1,2.2-.55,2.2,2.2,0,0,1,1.365,1.013,1.36,1.36,0,0,1-.127,1.563,1.574,1.574,0,0,1-1.767.182,4.888,4.888,0,0,1-1.519-1.233,1.392,1.392,0,0,1-.319-.44.429.429,0,0,1,.077-.484" transform="translate(-302.092 -190.527)" fill="#eb996e"/>
      <path id="Path_120" data-name="Path 120" d="M358.6,256.129c-.209-.044-.418,1.371-1.772,2.2s-2.84.451-2.879.649c-.033.088.3.325.93.435a3.567,3.567,0,0,0,2.389-.462,3.1,3.1,0,0,0,1.4-1.855C358.8,256.509,358.7,256.135,358.6,256.129Z" transform="translate(-301.406 -189.599)" fill="#263238"/>
      <path id="Path_121" data-name="Path 121" d="M365.489,234.062c.077.374,1.4.4,2.9.8s2.681,1,2.928.716c.11-.138-.055-.5-.5-.919a5.24,5.24,0,0,0-4.442-1.156C365.769,233.649,365.461,233.885,365.489,234.062Z" transform="translate(-306.595 -179.382)" fill="#263238"/>
      <path id="Path_122" data-name="Path 122" d="M345.193,229.588c.182.33,1.128.154,2.2.3s1.965.484,2.2.209c.116-.138,0-.457-.347-.793a3.214,3.214,0,0,0-3.567-.407C345.281,229.142,345.111,229.429,345.193,229.588Z" transform="translate(-297.462 -177.193)" fill="#263238"/>
      <path id="Path_123" data-name="Path 123" d="M337.37,213.378c1.591,2.427,6.643.925,9.693-.743a7.254,7.254,0,0,0,9.907-2.048c1.745,2.2,5.295,1.486,6.6-1.018s.55-5.955-1.211-8.146a11.3,11.3,0,0,0-6.935-3.77,16.122,16.122,0,0,0-16.342,6.731c-1.679,2.537-2.686,5.955-1.69,8.994" transform="translate(-293.788 -163.19)" fill="#263238"/>
      <path id="Path_124" data-name="Path 124" d="M355.6,199.22a26.449,26.449,0,0,0-3.693.209,13.43,13.43,0,0,0-7.64,4.112,16.644,16.644,0,0,0-3.644,7.959,22.023,22.023,0,0,0-.193,3.688,3.375,3.375,0,0,1-.2-.991,11.43,11.43,0,0,1,.044-2.752,16.033,16.033,0,0,1,3.644-8.256,13.21,13.21,0,0,1,7.97-4.134,11.717,11.717,0,0,1,2.752-.044,3.231,3.231,0,0,1,.963.209Z" transform="translate(-295.211 -163.892)" fill="#455a64"/>
      <path id="Path_125" data-name="Path 125" d="M353.167,211.139a2.5,2.5,0,0,1-.121-.864,8.537,8.537,0,0,1,.248-2.372,9.77,9.77,0,0,1,12.263-7.221,8.933,8.933,0,0,1,2.2.936,2.389,2.389,0,0,1,.7.55,17.988,17.988,0,0,0-2.983-1.1,9.748,9.748,0,0,0-11.834,6.968A17.21,17.21,0,0,0,353.167,211.139Z" transform="translate(-300.999 -164.495)" fill="#455a64"/>
      <path id="Path_126" data-name="Path 126" d="M378.938,210.877a28.77,28.77,0,0,0-1.024,6.6,9.726,9.726,0,0,0,1.976,6.242c2.125,2.559,5.669,3.341,8.939,3.963a25.869,25.869,0,0,0,1.525-13.76,11.451,11.451,0,0,0-2.686-6.187,7.48,7.48,0,0,0-9.082-1.1" transform="translate(-312.179 -166.875)" fill="#263238"/>
      <path id="Path_127" data-name="Path 127" d="M380,234.56a10.761,10.761,0,0,0-.5,6.054,39.648,39.648,0,0,1,.793,6.088,7.06,7.06,0,0,1-2.279,5.5,9.683,9.683,0,0,0-1.365,1.1,1.426,1.426,0,0,0-.286,1.613c.308.5,1.238.484,1.371-.083l-.083.143a.908.908,0,0,0,.771,1.371,4.123,4.123,0,0,0,2.939-1.442,9.006,9.006,0,0,0,1.745-4.4c.848-4.86.683-9.907,2.026-14.646" transform="translate(-311.424 -179.902)" fill="#263238"/>
      <path id="Path_128" data-name="Path 128" d="M345.18,292.357a11.839,11.839,0,0,0,15.813,8.4c2.851-1.1,5.152-3.247,7.37-5.344a17.266,17.266,0,0,1-16,20.068c-3.649.22-7.568-.892-9.863-3.737a11.065,11.065,0,0,1-2.2-7.155,26.067,26.067,0,0,1,1.442-7.486c.649-2.081,1.679-4.4,3.781-4.981" transform="translate(-295.269 -205.781)" fill="#3bb3c1"/>
      <path id="Path_129" data-name="Path 129" d="M389.061,243.55c2.2,1.183,3.38,3.66,3.8,6.1a57.574,57.574,0,0,1,.314,7.425,11.709,11.709,0,0,0,2.147,6.99c1.651,2.048,4.266,3.016,6.6,4.266a21.868,21.868,0,0,1,10.9,13.072c1.541,5.625.143,12.109-4.068,16.154-3.853,3.666-9.412,4.954-14.718,4.954-3.781,0-7.937-.815-10.3-3.77s-2.2-7.1-1.376-10.744,2.339-7.183,2.4-10.92a19.457,19.457,0,0,1-2.906,6.462c-.391.55-1.057,1.156-1.651.837s-.413-1.349-.1-2.037c4.557-10.144,2.972-30.592,5.675-41.793" transform="translate(-313.038 -182.595)" fill="#263238"/>
      <path id="Path_130" data-name="Path 130" d="M388.94,243.824c.138-.044,5.46-1.051,4.772,4.211s-5.823,3.49-5.812,3.341S388.94,243.824,388.94,243.824Z" transform="translate(-316.672 -184.02)" fill="#ffbe9d"/>
      <path id="Path_131" data-name="Path 131" d="M391.286,251.081a2.067,2.067,0,0,0,.231.165.93.93,0,0,0,.682.1,2.293,2.293,0,0,0,1.315-1.9,3.121,3.121,0,0,0-.088-1.349,1.062,1.062,0,0,0-.6-.793.473.473,0,0,0-.55.182c-.088.138-.072.248-.1.253s-.1-.1-.033-.314a.589.589,0,0,1,.253-.3.693.693,0,0,1,.55-.072,1.3,1.3,0,0,1,.853.941,3.181,3.181,0,0,1,.127,1.508,2.384,2.384,0,0,1-1.651,2.1.98.98,0,0,1-.82-.248C391.28,251.208,391.269,251.087,391.286,251.081Z" transform="translate(-318.191 -185.509)" fill="#eb996e"/>
      <path id="Path_132" data-name="Path 132" d="M339.29,303.524a12.993,12.993,0,0,1,.892-1.624,21.911,21.911,0,0,0,1.9-4.012,9.908,9.908,0,0,0,.473-4.359,17.014,17.014,0,0,0-.418-1.789,1.486,1.486,0,0,1,.237.446,5.843,5.843,0,0,1,.385,1.315,9.357,9.357,0,0,1-.4,4.475,18.483,18.483,0,0,1-2,4.029c-.308.484-.55.87-.754,1.128A2.783,2.783,0,0,1,339.29,303.524Z" transform="translate(-294.817 -205.61)" fill="#263238"/>
      <path id="Path_133" data-name="Path 133" d="M342.806,301.09c-.077,0-.226-.451-.7-.765s-.947-.314-.958-.4.116-.094.33-.1a1.382,1.382,0,0,1,.793.259,1.448,1.448,0,0,1,.517.655C342.861,300.947,342.845,301.079,342.806,301.09Z" transform="translate(-295.653 -209.247)" fill="#fafafa"/>
      <path id="Path_134" data-name="Path 134" d="M347.84,300.44a10.359,10.359,0,0,0-1.354-1.271,9.1,9.1,0,0,0-1.706-.738,2.471,2.471,0,0,1,1.86.5,2.554,2.554,0,0,1,1.2,1.508Z" transform="translate(-297.285 -208.608)" fill="#fafafa"/>
      <path id="Path_135" data-name="Path 135" d="M354.22,318.757a9.143,9.143,0,0,1,.319-2.246,9.043,9.043,0,0,1,.6-2.2,9.169,9.169,0,0,1-.319,2.251A9.044,9.044,0,0,1,354.22,318.757Z" transform="translate(-301.529 -215.757)" fill="#fafafa"/>
      <path id="Path_136" data-name="Path 136" d="M369.758,321.579a20.09,20.09,0,0,1,.149-4.739A19.337,19.337,0,0,1,369.758,321.579Z" transform="translate(-308.481 -216.895)" fill="#fafafa"/>
    </g>
    <g id="freepik--character-1--inject-154" transform="translate(31.254 94.735)">
      <path id="Path_137" data-name="Path 137" d="M44.377,369.89,35.89,406.85l17.949.055,8.289-32.5Z" transform="translate(-35.89 -232.926)" fill="#b78876"/>
      <path id="Path_138" data-name="Path 138" d="M197.166,275.6c-1.706-2.284-3.666-4.48-4.563-7.188-.435-1.31-.605-2.7-1.068-4a4.856,4.856,0,0,0-2.592-3.055,2.634,2.634,0,0,0-3.1.925L179.68,280.3l3.55,13.837c3.545-.8,7.981-1.745,11.294-3.236s5.5-3.88,5.735-7.508C200.419,280.549,198.873,277.891,197.166,275.6Z" transform="translate(-100.537 -184.046)" fill="#263238"/>
      <path id="Path_139" data-name="Path 139" d="M80.567,280.485S59.157,289.8,56.482,294.009,45,328.195,45,328.195l22.567,6.6-.385,31.214H122.5l-.457-55.041-6.935-30.416s-12.214-.787-13.347-1.343S80.567,280.485,80.567,280.485Z" transform="translate(-39.986 -192.111)" fill="#3bb3c1"/>
      <path id="Path_140" data-name="Path 140" d="M247.61,138.783c.176-1.26-.71-2.647-.072-3.754a3.126,3.126,0,0,1,1.712-1.161,2.752,2.752,0,0,1,1.057-.248.93.93,0,0,1,.864.55,1.178,1.178,0,0,1-.424,1.139,3.357,3.357,0,0,0-.831.958,5.747,5.747,0,0,0,.2,2.708,47.847,47.847,0,0,1,1.822,5.889" transform="translate(-130.94 -126.701)" fill="#b78876"/>
      <path id="Path_141" data-name="Path 141" d="M239.65,134.514c.077-1.91,1.651-9.434,1.706-11.344a3.794,3.794,0,0,1,2.284,3.1c.242,1.332.116,2.7.347,4.035a14.693,14.693,0,0,0,2.174,4.954,17.865,17.865,0,0,1,2.339,4.893c.424,1.761,2.02,6.341.776,7.662" transform="translate(-127.499 -122.002)" fill="#b78876"/>
      <path id="Path_142" data-name="Path 142" d="M209.044,167.18l-7.656,36.371c-.27,1.651-29.018,26.722-29.018,26.722l5.675,22.671,37.428-36.619a15.213,15.213,0,0,0,4.1-10.672l-.638-34.125Z" transform="translate(-97.25 -141.789)" fill="#b78876"/>
      <path id="Path_143" data-name="Path 143" d="M236.337,133.791l1.31,12.659,9.907,4.359s.121-.9.55-5.284c.468-4.833-4.728-6.908-7.045-10.458-.991-1.525-.732-4.332-1.5-7.81-.088-.4-.638-2.835-.936-4.139a2.939,2.939,0,0,0-1.189-1.789c-.451-.3-.958-.446-1.326,0S236.337,133.791,236.337,133.791Z" transform="translate(-125.854 -121.049)" fill="#b78876"/>
      <path id="Path_144" data-name="Path 144" d="M241.809,157.836a3.988,3.988,0,0,0,.952-4.073,10.386,10.386,0,0,0-2.339-3.721,14.763,14.763,0,0,1-2.581-3.578c-.418-.947-.616-1.992-1.1-2.923a3.006,3.006,0,0,0-2.339-1.822c.831,5.234.809,8.256,2.51,13.991" transform="translate(-125.138 -130.342)" fill="#b78876"/>
      <path id="Path_145" data-name="Path 145" d="M235.231,147.768s-.039-.143-.1-.418-.165-.732-.264-1.2c-.237-1.1-.55-2.5-.875-4.117l-.033-.154h.16a2.565,2.565,0,0,1,1.849.693,5.554,5.554,0,0,1,1.552,2.647,13.727,13.727,0,0,0,.864,2.284,7.045,7.045,0,0,0,.969,1.337,2,2,0,0,1,.33.523,4.055,4.055,0,0,1-.418-.451,6.253,6.253,0,0,1-1.057-1.31,12.979,12.979,0,0,1-.947-2.306,5.444,5.444,0,0,0-1.486-2.521,2.339,2.339,0,0,0-1.651-.633l.132-.165A41.394,41.394,0,0,1,235.231,147.768Z" transform="translate(-124.941 -130.413)" fill="#7c5142"/>
      <path id="Path_146" data-name="Path 146" d="M243.1,138.26a47.434,47.434,0,0,1-.914-5.163,47.975,47.975,0,0,1-.633-5.207,46.152,46.152,0,0,1,.914,5.168,47.968,47.968,0,0,1,.633,5.2Z" transform="translate(-128.353 -124.125)" fill="#7c5142"/>
      <path id="Path_147" data-name="Path 147" d="M248.759,141.539a.618.618,0,0,1,.072.193h-.083a29.635,29.635,0,0,1-1-3.6c-.237-1.062-.407-2.031-.512-2.752a4.265,4.265,0,0,1-.1-1.15c.083,0,.418,1.712.892,3.853.38,1.712.732,3.154.8,3.638h-.083C248.743,141.605,248.743,141.539,248.759,141.539Z" transform="translate(-130.862 -126.975)" fill="#7c5142"/>
      <path id="Path_148" data-name="Path 148" d="M249.081,157.855c-.044,0-.242-.286-.638-.71a6.192,6.192,0,0,0-3.99-1.926,6.6,6.6,0,0,1-.952-.061,2.2,2.2,0,0,1,.958-.143,5.416,5.416,0,0,1,4.134,2,2.158,2.158,0,0,1,.49.842Z" transform="translate(-129.23 -136.317)" fill="#7c5142"/>
      <path id="Path_149" data-name="Path 149" d="M238.515,160.2a7.492,7.492,0,0,1-.655-1.5,33.19,33.19,0,0,1-1.134-3.776,32.685,32.685,0,0,1-.694-3.853,7.992,7.992,0,0,1-.1-1.651,11.122,11.122,0,0,1,.3,1.6c.165.985.418,2.35.771,3.853s.749,2.818,1.051,3.776a11.6,11.6,0,0,1,.462,1.547Z" transform="translate(-125.825 -133.804)" fill="#7c5142"/>
      <path id="Path_150" data-name="Path 150" d="M160.16,274.1a3.49,3.49,0,0,1,4.689-1.1c4.04-3.3,8.174-6.506,12.214-9.792-1.321,6.6-2.2,15.813.754,21.857,0,0,3.726,6.924,9.66,5.867l-5.295,5.185-8.35,7.744" transform="translate(-91.761 -184.963)" fill="#3bb3c1"/>
      <path id="Path_151" data-name="Path 151" d="M157.78,285.071a4.458,4.458,0,0,1,.776-2.482,4.508,4.508,0,0,1,1.849-1.838A9.649,9.649,0,0,0,157.78,285.071Z" transform="translate(-90.691 -192.849)" fill="#263238"/>
      <path id="Path_152" data-name="Path 152" d="M165.167,289.319a3.4,3.4,0,0,1-.462-1.2,7.761,7.761,0,0,1,1.062-6,3.445,3.445,0,0,1,.848-.974c.039.033-.281.407-.672,1.1a8.751,8.751,0,0,0-1.04,2.835,8.894,8.894,0,0,0,0,3.022A12.092,12.092,0,0,1,165.167,289.319Z" transform="translate(-93.713 -193.024)" fill="#263238"/>
      <path id="Path_153" data-name="Path 153" d="M191.53,299.394a4.469,4.469,0,0,1-1.315.55,7.315,7.315,0,0,1-3.853-.116,9.28,9.28,0,0,1-4.634-3.3,15.6,15.6,0,0,1-2.752-6.445,48.629,48.629,0,0,1-.66-12.725c.127-1.651.308-2.939.462-3.853.072-.451.138-.8.187-1.035a1.812,1.812,0,0,1,.088-.358,1.542,1.542,0,0,1-.033.369l-.132,1.04c-.116.9-.27,2.2-.369,3.853a51.017,51.017,0,0,0,.738,12.659,15.544,15.544,0,0,0,2.669,6.291,9.093,9.093,0,0,0,4.486,3.3,7.409,7.409,0,0,0,3.77.2A10.563,10.563,0,0,0,191.53,299.394Z" transform="translate(-99.854 -188.965)" fill="#fafafa"/>
      <path id="Path_154" data-name="Path 154" d="M86.073,368.621c-.077,0-.143-7.827-.143-17.475s.066-17.475.143-17.475.143,7.821.143,17.475S86.156,368.621,86.073,368.621Z" transform="translate(-58.388 -216.641)" fill="#263238"/>
      <path id="Path_155" data-name="Path 155" d="M78.956,314.279c-.061,0-.044-.782-.314-2a11.074,11.074,0,0,0-.688-2.07,12.433,12.433,0,0,0-1.36-2.29,12.578,12.578,0,0,0-1.855-1.915,11.382,11.382,0,0,0-1.811-1.211c-1.1-.578-1.866-.771-1.849-.826a1.927,1.927,0,0,1,.55.11,4.158,4.158,0,0,1,.611.2,6.008,6.008,0,0,1,.787.336,10.1,10.1,0,0,1,1.86,1.178,12.362,12.362,0,0,1,1.91,1.948,11.7,11.7,0,0,1,1.376,2.361,10.183,10.183,0,0,1,.666,2.136,6.725,6.725,0,0,1,.116.848,4.7,4.7,0,0,1,.033.644A2.373,2.373,0,0,1,78.956,314.279Z" transform="translate(-51.711 -203.289)" fill="#263238"/>
      <path id="Path_156" data-name="Path 156" d="M131.212,281.17a2.561,2.561,0,0,1,.094.468,11.486,11.486,0,0,1,.143,1.349,14.036,14.036,0,0,1-.688,4.926,14.454,14.454,0,0,1-3.99,6.176,14.206,14.206,0,0,1-16.958,1.3,14.443,14.443,0,0,1-4.866-5.5,14.085,14.085,0,0,1-1.415-4.767,12.466,12.466,0,0,1-.061-1.354,2.818,2.818,0,0,1,0-.473,2.817,2.817,0,0,1,.039.468,13.381,13.381,0,0,0,.11,1.343,14.542,14.542,0,0,0,1.486,4.689,14.366,14.366,0,0,0,4.827,5.388,14.035,14.035,0,0,0,16.633-1.249,14.36,14.36,0,0,0,3.974-6.055,14.734,14.734,0,0,0,.771-4.86,9.374,9.374,0,0,0-.094-1.343A1.449,1.449,0,0,1,131.212,281.17Z" transform="translate(-66.27 -193.038)" fill="#263238"/>
      <path id="Path_157" data-name="Path 157" d="M68.816,362.47c0,.077-4.574-1.36-10.155-3.2s-10.089-3.4-10.061-3.479,4.568,1.36,10.155,3.2S68.838,362.392,68.816,362.47Z" transform="translate(-41.604 -226.584)" fill="#fafafa"/>
      <path id="Path_158" data-name="Path 158" d="M139.711,354.008c0,.083-12.137.2-27.108.259s-27.113.05-27.113,0,12.137-.2,27.113-.259S139.711,353.931,139.711,354.008Z" transform="translate(-58.19 -225.762)" fill="#fafafa"/>
      <path id="Path_159" data-name="Path 159" d="M139.986,362.643c0,.077-12.2.143-27.245.143s-27.251-.066-27.251-.143,12.2-.143,27.251-.143S139.986,362.561,139.986,362.643Z" transform="translate(-58.19 -229.603)" fill="#fafafa"/>
      <path id="Path_160" data-name="Path 160" d="M144.727,373.34a2.5,2.5,0,0,1-.154.446c-.121.308-.286.727-.49,1.255l-.363.9c-.143.33-.314.677-.49,1.057-.363.749-.738,1.618-1.26,2.532l-.793,1.442c-.275.5-.605,1-.925,1.525-.627,1.062-1.4,2.13-2.2,3.269a54.252,54.252,0,0,1-12.83,12.582c-1.156.771-2.24,1.525-3.3,2.13-.55.308-1.035.627-1.541.9l-1.475.76c-.919.5-1.8.864-2.554,1.211-.38.165-.732.33-1.062.468l-.914.347-1.26.468a2.415,2.415,0,0,1-.451.143,2.856,2.856,0,0,1,.429-.2l1.244-.517.9-.369c.33-.143.677-.314,1.051-.49.749-.358,1.618-.732,2.526-1.244l1.448-.771c.5-.275,1-.6,1.53-.908,1.062-.611,2.136-1.37,3.3-2.141a55.739,55.739,0,0,0,12.769-12.522c.8-1.128,1.574-2.2,2.2-3.242.325-.523.66-1.013.941-1.508l.8-1.431c.55-.9.919-1.761,1.293-2.5.182-.374.363-.716.512-1.04s.27-.622.385-.892c.226-.517.407-.925.55-1.233A4.528,4.528,0,0,1,144.727,373.34Z" transform="translate(-70.405 -234.477)" fill="#263238"/>
      <g id="Group_19" data-name="Group 19" transform="translate(44.749 143.63)" opacity="0.3">
        <path id="Path_161" data-name="Path 161" d="M144.529,382c-3.7,4.5-7.574,7.766-13.006,9.869-2.6,1-5.328,1.69-7.849,2.884a12.054,12.054,0,0,0-6.054,5.543c-.875,1.97-.451,4.954,1.651,5.383a4.464,4.464,0,0,0,2.394-.369c10.76-3.9,17.833-13.76,22.831-23.31" transform="translate(-117.191 -382)"/>
      </g>
      <path id="Path_162" data-name="Path 162" d="M88.938,204.08c-2.323,1.822-2.477,5.229-2.361,8.179s.149,6.308-2,8.344c-1.761,1.679-4.844,2.3-5.35,4.684a2.752,2.752,0,0,0,4.447,2.725,4.824,4.824,0,0,0,1.183,5.5c1.591,1.249,4.37.655,4.954-1.26a2.433,2.433,0,1,0,4.734,1.1" transform="translate(-55.341 -158.379)" fill="#263238"/>
      <path id="Path_163" data-name="Path 163" d="M144.1,220.811a2.934,2.934,0,1,0,5.5-1.992c-.457-1.145-1.651-2.009-1.679-3.236-.072-1.486,1.492-2.471,2.862-3.049s2.978-1.349,3.192-2.818-1.013-2.6-2.037-3.605-2.009-2.537-1.288-3.781c.369-.633,1.1-.974,1.574-1.53a3.224,3.224,0,0,0-.594-4.354,6.017,6.017,0,0,0-4.612-1.1,39.688,39.688,0,0,0-4.734,1.189,19.479,19.479,0,0,1-15.411-2.752" transform="translate(-76.798 -153.748)" fill="#263238"/>
      <path id="Path_164" data-name="Path 164" d="M99.591,209.761l5.664,32.826a10.562,10.562,0,0,0,12.269,8.619h0a10.568,10.568,0,0,0,8.663-11.338c-.259-2.912-.479-5.322-.479-5.322s8.223-2.114,7.513-10.458c-.347-4.04-1.728-12.3-3.071-19.765a15.621,15.621,0,0,0-16.9-12.775l-.8.077a15.516,15.516,0,0,0-12.858,18.136Z" transform="translate(-64.414 -152.711)" fill="#b78876"/>
      <path id="Path_165" data-name="Path 165" d="M150.195,223.817a1.189,1.189,0,0,1-1.029,1.315,1.139,1.139,0,0,1-1.332-.952,1.189,1.189,0,0,1,1.029-1.315,1.139,1.139,0,0,1,1.332.952Z" transform="translate(-86.215 -166.816)" fill="#263238"/>
      <path id="Path_166" data-name="Path 166" d="M148.935,221.686c-.132.165-1.1-.413-2.383-.286s-2.163.864-2.317.721c-.072-.066.05-.358.429-.7a3.269,3.269,0,0,1,1.838-.765,3.171,3.171,0,0,1,1.915.418C148.841,221.34,149,221.609,148.935,221.686Z" transform="translate(-84.592 -165.825)" fill="#263238"/>
      <path id="Path_167" data-name="Path 167" d="M127.391,226.483a1.2,1.2,0,0,1-1.035,1.31,1.145,1.145,0,0,1-1.332-.952,1.2,1.2,0,0,1,1.029-1.315,1.15,1.15,0,0,1,1.337.958Z" transform="translate(-75.961 -168.013)" fill="#263238"/>
      <path id="Path_168" data-name="Path 168" d="M126.065,224.35c-.132.171-1.1-.407-2.383-.281s-2.158.864-2.317.721c-.072-.066.05-.358.429-.7a3.3,3.3,0,0,1,1.838-.765,3.132,3.132,0,0,1,1.915.418C125.971,224.009,126.109,224.279,126.065,224.35Z" transform="translate(-74.31 -167.024)" fill="#263238"/>
      <path id="Path_169" data-name="Path 169" d="M138.731,232.983a8.407,8.407,0,0,1,2.042-.583c.325-.066.633-.16.666-.391a1.728,1.728,0,0,0-.314-.947l-1.216-2.4a43.235,43.235,0,0,1-2.807-6.313,43.589,43.589,0,0,1,3.3,6.055l1.172,2.422a1.888,1.888,0,0,1,.292,1.266.82.82,0,0,1-.49.55,2.467,2.467,0,0,1-.55.132,8.679,8.679,0,0,1-2.1.209Z" transform="translate(-81.389 -166.592)" fill="#263238"/>
      <path id="Path_170" data-name="Path 170" d="M124.895,215.381c-.094.363-1.387.319-2.873.649s-2.669.859-2.9.55c-.1-.138.072-.49.55-.875a4.953,4.953,0,0,1,2.092-.969,4.888,4.888,0,0,1,2.306.05C124.63,214.968,124.933,215.215,124.895,215.381Z" transform="translate(-73.299 -163.119)" fill="#263238"/>
      <path id="Path_171" data-name="Path 171" d="M147.652,214.949c-.2.314-1.1.1-2.2.187s-1.943.391-2.2.1c-.1-.138,0-.446.374-.76a3.033,3.033,0,0,1,1.723-.649,3,3,0,0,1,1.789.418C147.58,214.514,147.735,214.8,147.652,214.949Z" transform="translate(-84.14 -162.759)" fill="#263238"/>
      <path id="Path_172" data-name="Path 172" d="M105.712,202.768l-.044.044a6.605,6.605,0,0,0-2.025,4.48v.171c-.094,2.416.2,4.833.083,7.243a10.814,10.814,0,0,1-2.306,6.72c-.655.743-1.888,1.332-2.559.6a2.042,2.042,0,0,1-.407-1.062c-1-5.7-3.071-10.65-3.644-16.666a5.069,5.069,0,0,1,1.7-4.326c1.167-1.029,2.614-2.114,4.079-1.585s3.528,2.967,4.723,3.968" transform="translate(-62.367 -155.757)" fill="#263238"/>
      <path id="Path_173" data-name="Path 173" d="M101.31,230.969c-.149-.044-5.9-1.134-5.163,4.552s6.3,3.776,6.286,3.611S101.31,230.969,101.31,230.969Z" transform="translate(-62.952 -170.418)" fill="#b78876"/>
      <path id="Path_174" data-name="Path 174" d="M101.69,238.82a1.509,1.509,0,0,1-.248.176.974.974,0,0,1-.738.116,2.481,2.481,0,0,1-1.42-2.053,3.3,3.3,0,0,1,.094-1.459,1.167,1.167,0,0,1,.649-.859.512.512,0,0,1,.616.2c.1.149.077.27.11.275s.11-.11.033-.341a.644.644,0,0,0-.27-.33.76.76,0,0,0-.55-.072,1.415,1.415,0,0,0-.925,1.018,3.462,3.462,0,0,0-.138,1.651,2.6,2.6,0,0,0,1.767,2.268,1.051,1.051,0,0,0,.886-.27A.587.587,0,0,0,101.69,238.82Z" transform="translate(-64.201 -172.033)" fill="#7c5142"/>
      <path id="Path_175" data-name="Path 175" d="M104.776,193.572c-1.651-2.147,1.9-5.8,4.634-6.963s6.577-.154,9.473.5c1.822.418,3.666,1.062,5.5.8a12.659,12.659,0,0,0,3.528-1.271,9.263,9.263,0,0,1,3.578-1.1,3.457,3.457,0,0,1,3.192,1.613,2.175,2.175,0,0,1-1.161,3.055,2.818,2.818,0,1,1,1.255,5.119c.754-.694,2.1.2,2.1,1.222a2.986,2.986,0,0,1-1.745,2.356,10.732,10.732,0,0,1-7.629.622c-2.543-.589-4.954-1.651-7.486-2.312s-6.776-1.849-9.142-.743c-1.739.809-2.785,3.1-3.853,2.752a3.5,3.5,0,0,1-2.053-2.389,10.1,10.1,0,0,1-.209-3.258" transform="translate(-66.671 -150.04)" fill="#263238"/>
      <path id="Path_176" data-name="Path 176" d="M105.71,230.213a49.762,49.762,0,0,0,1.035,8.994,16.815,16.815,0,0,0,4.079,7.953c2.752,2.824,6.363,5.5,10.271,6.17,4.266.7,9.484-.187,12.957-2.752a6.18,6.18,0,0,0,2.334-5.845,4.337,4.337,0,0,0,2.477-3.633c.088-1.541-.853-3.468-2.07-3.671.914-.154,1.178-1.607.831-2.427a2.235,2.235,0,0,0-2.466-.892,6.363,6.363,0,0,0-2.46,1.266,8.68,8.68,0,0,1-2.383,1.42c-2.95.958-5.939-1.651-9.038-1.525-2.8.11-5.295,2.438-8.074,2.048a5.6,5.6,0,0,1-3.743-2.6c-.859-1.315-.484-6.176-.82-7.706" transform="translate(-67.28 -168.688)" fill="#263238"/>
      <g id="Group_20" data-name="Group 20" transform="translate(56.499 74.054)" opacity="0.6">
        <path id="Path_177" data-name="Path 177" d="M142.954,256.169a5.259,5.259,0,0,1-.683-.209,3.655,3.655,0,0,0-3.181.578c-.352.253-.55.457-.55.429a1.367,1.367,0,0,1,.446-.55,3.3,3.3,0,0,1,3.363-.605C142.756,255.949,142.971,256.142,142.954,256.169Z" transform="translate(-138.54 -255.593)" fill="#455a64"/>
      </g>
      <path id="Path_178" data-name="Path 178" d="M135.494,245.15c.209-.033.347,1.36,1.651,2.2s2.752.578,2.785.771c.028.083-.3.3-.93.38a3.473,3.473,0,0,1-2.317-.55,3.022,3.022,0,0,1-1.277-1.882C135.279,245.507,135.4,245.15,135.494,245.15Z" transform="translate(-80.607 -176.843)" fill="#fff"/>
      <path id="Path_179" data-name="Path 179" d="M128.09,258.134a1.474,1.474,0,0,1,.358.132c.237.088.583.209,1.04.336a18.556,18.556,0,0,0,3.963.622,17.483,17.483,0,0,0,2.752-.055,15.41,15.41,0,0,0,3.11-.605,12.66,12.66,0,0,0,3.17-1.448,9.622,9.622,0,0,0,2.752-2.5,5.719,5.719,0,0,0,1.1-4.128v-.116l.1-.044a4.464,4.464,0,0,0,1.723-1.415,5.024,5.024,0,0,0,.55-.925,3.341,3.341,0,0,0,.242-1,3.924,3.924,0,0,0-1.321-3.33l-.083-.066.066-.083a2.312,2.312,0,0,0,.341-2.262,2.2,2.2,0,0,0-1.266-1.244,2.422,2.422,0,0,0-1.15-.16c-.27.033-.4.083-.407.066a1.393,1.393,0,0,1,.4-.121,2.4,2.4,0,0,1,2.576,1.393,2.51,2.51,0,0,1-.33,2.46V243.5a4.156,4.156,0,0,1,1.442,3.517,3.627,3.627,0,0,1-.259,1.1,5.719,5.719,0,0,1-.578.98,4.667,4.667,0,0,1-1.827,1.514l.083-.165a5.917,5.917,0,0,1-1.1,4.359,9.874,9.874,0,0,1-2.835,2.57,12.388,12.388,0,0,1-3.242,1.459,15.18,15.18,0,0,1-3.165.594,17.741,17.741,0,0,1-2.8,0,17.354,17.354,0,0,1-3.979-.721,8.959,8.959,0,0,1-1.029-.391,2.037,2.037,0,0,1-.4-.182Z" transform="translate(-77.342 -174.422)" fill="#455a64"/>
      <path id="Path_180" data-name="Path 180" d="M81.928,227.009a.87.87,0,0,1-.292-.143,1.651,1.651,0,0,1-.55-.727,2.471,2.471,0,0,1-.116-1.464,2.956,2.956,0,0,1,1.1-1.613,7.353,7.353,0,0,1,2.092-1.1,13.556,13.556,0,0,0,2.433-1.035,4.756,4.756,0,0,0,1.833-2.158,7.887,7.887,0,0,0,.649-3.027c.044-2.152-.451-4.194-.506-6.093a8.018,8.018,0,0,1,1.139-4.86,4.579,4.579,0,0,1,2.752-1.888,3.115,3.115,0,0,1,.925-.044,2.257,2.257,0,0,1,.319.061,4.914,4.914,0,0,0-1.216.094,4.552,4.552,0,0,0-2.636,1.893,7.732,7.732,0,0,0-1.04,4.734c.1,1.86.55,3.9.55,6.115a8.168,8.168,0,0,1-.7,3.137,5,5,0,0,1-1.954,2.268,13.012,13.012,0,0,1-2.5,1.035,7.237,7.237,0,0,0-2.042,1.024A2.785,2.785,0,0,0,81.1,224.7a2.35,2.35,0,0,0,.061,1.387,1.833,1.833,0,0,0,.765.919Z" transform="translate(-56.13 -157.822)" fill="#455a64"/>
      <path id="Path_181" data-name="Path 181" d="M134.288,193.583a1.255,1.255,0,0,1,.248-.116,1.846,1.846,0,0,1,.325-.11,2.753,2.753,0,0,1,.457-.094,3.407,3.407,0,0,1,2.807,1.007h0a4.563,4.563,0,0,1,.853,3.413,5.6,5.6,0,0,1-2.257,3.726,8.647,8.647,0,0,1-4.789,1.651,19.2,19.2,0,0,1-5.554-.594,25.186,25.186,0,0,1-8.069-3.572,25.353,25.353,0,0,0-3.3-1.921,9.027,9.027,0,0,0-3.192-.815,9.533,9.533,0,0,0-4.684.87c-1.029.484-1.519.9-1.541.87a6.758,6.758,0,0,1,1.492-.974,9.495,9.495,0,0,1,4.745-.969,9.192,9.192,0,0,1,3.3.8,25.61,25.61,0,0,1,3.352,1.921,25.368,25.368,0,0,0,7.992,3.512,19.122,19.122,0,0,0,5.471.616,8.493,8.493,0,0,0,4.651-1.585,5.427,5.427,0,0,0,2.2-3.556,4.4,4.4,0,0,0-.765-3.3h0a3.352,3.352,0,0,0-2.669-1.029,7.155,7.155,0,0,0-1.073.253Z" transform="translate(-67.227 -153.507)" fill="#455a64"/>
      <path id="Path_182" data-name="Path 182" d="M130.814,185.05a3.22,3.22,0,0,1-.259,1.26,5.367,5.367,0,0,1-2.356,2.57,6.748,6.748,0,0,1-2.3.826,9.692,9.692,0,0,1-2.8,0,37.657,37.657,0,0,1-6.132-1.684,12.535,12.535,0,0,0-6.181-.655,8.168,8.168,0,0,0-4.343,2.532,8.482,8.482,0,0,0-1.756,2.95c-.253.782-.3,1.238-.336,1.233a1.354,1.354,0,0,1,0-.33,6.3,6.3,0,0,1,.2-.936,8.129,8.129,0,0,1,1.712-3.055,8.256,8.256,0,0,1,4.436-2.653,12.614,12.614,0,0,1,6.319.638,38.816,38.816,0,0,0,6.082,1.7,9.428,9.428,0,0,0,2.725,0,6.6,6.6,0,0,0,2.235-.765,5.372,5.372,0,0,0,2.35-2.438A7.841,7.841,0,0,0,130.814,185.05Z" transform="translate(-66.67 -149.823)" fill="#455a64"/>
    </g>
    <g id="freepik--Lines--inject-154" transform="translate(117.371 69.488)">
      <path id="Path_183" data-name="Path 183" d="M216.979,112.395c-.05.061-3.143-2.455-6.913-5.62s-6.781-5.807-6.726-5.845,3.143,2.455,6.913,5.625S217.034,112.334,216.979,112.395Z" transform="translate(-197.29 -86.757)" fill="#263238"/>
      <path id="Path_184" data-name="Path 184" d="M255.722,97.048c-.077,0-.391-4.888-.694-10.926s-.49-10.937-.413-10.942.391,4.888.7,10.931S255.8,97.048,255.722,97.048Z" transform="translate(-220.336 -75.18)" fill="#263238"/>
      <path id="Path_185" data-name="Path 185" d="M235.176,98.3c-.077,0-1.04-2.752-2.158-6.236s-1.959-6.3-1.882-6.319,1.04,2.752,2.158,6.231S235.248,98.283,235.176,98.3Z" transform="translate(-209.785 -79.932)" fill="#263238"/>
      <path id="Path_186" data-name="Path 186" d="M215.452,128a37.972,37.972,0,0,1-4.244-1.789,36.874,36.874,0,0,1-4.128-2.053,37.976,37.976,0,0,1,4.244,1.789A37.43,37.43,0,0,1,215.452,128Z" transform="translate(-198.972 -97.201)" fill="#263238"/>
      <path id="Path_187" data-name="Path 187" d="M194.359,119.384c0,.077-.468.088-1.024,0s-1-.187-.985-.264.468-.088,1.018,0S194.359,119.307,194.359,119.384Z" transform="translate(-192.35 -94.907)" fill="#263238"/>
      <path id="Path_188" data-name="Path 188" d="M231.673,77.649c-.083,0-.143-.446-.143-1s.061-1.007.143-1.007.143.451.143,1.007S231.75,77.649,231.673,77.649Z" transform="translate(-209.965 -75.387)" fill="#263238"/>
      <path id="Path_189" data-name="Path 189" d="M282.557,93.409c.061.055-2.482,2.967-5.669,6.506s-5.818,6.368-5.889,6.313,2.482-2.961,5.669-6.506S282.5,93.36,282.557,93.409Z" transform="translate(-227.709 -83.376)" fill="#263238"/>
      <path id="Path_190" data-name="Path 190" d="M298.113,86.131c.055.055-.237.44-.655.859s-.8.7-.853.649.237-.44.655-.853S298.058,86.054,298.113,86.131Z" transform="translate(-239.219 -80.098)" fill="#263238"/>
      <path id="Path_191" data-name="Path 191" d="M300.522,111.74a5.019,5.019,0,0,1-.749.446c-.49.27-1.205.649-2.1,1.1-1.789.9-4.293,2.081-7.111,3.253s-5.422,2.108-7.326,2.752c-.947.314-1.717.55-2.257.71a4.4,4.4,0,0,1-.842.215,5.207,5.207,0,0,1,.809-.319l2.2-.8c1.882-.677,4.464-1.651,7.282-2.807s5.322-2.317,7.155-3.17l2.136-1.013a5.944,5.944,0,0,1,.8-.369Z" transform="translate(-231.819 -91.617)" fill="#263238"/>
      <path id="Path_192" data-name="Path 192" d="M294.134,136.36a7.5,7.5,0,0,1-1.464.479c-.914.253-2.2.55-3.622.8s-2.752.385-3.682.451a7.078,7.078,0,0,1-1.536.028,10.187,10.187,0,0,1,1.519-.231c.936-.116,2.229-.292,3.649-.55s2.7-.506,3.627-.7A8.311,8.311,0,0,1,294.134,136.36Z" transform="translate(-233.478 -102.686)" fill="#263238"/>
      <path id="Path_193" data-name="Path 193" d="M313.25,133.783a8.85,8.85,0,0,1-3.17,0A8.851,8.851,0,0,1,313.25,133.783Z" transform="translate(-245.28 -101.463)" fill="#263238"/>
    </g>
    <g id="freepik--Plant--inject-154" transform="translate(137.364 238.364)">
      <path id="Path_194" data-name="Path 194" d="M238.96,382a5.862,5.862,0,0,1,3.853,2.466,10.309,10.309,0,0,1,1.651,4.365,18.238,18.238,0,0,1-1.42,9.225c-3.055-1.437-4.684-4.992-5.394-6.853-1.1-2.934-1.382-8.928,1.282-9.2" transform="translate(-232.351 -382)" fill="#3bb3c1"/>
      <path id="Path_195" data-name="Path 195" d="M255.73,412.074a4.981,4.981,0,0,1-.116-5.009,6.6,6.6,0,0,1,4.062-3.115,2.8,2.8,0,0,1,2.35.165,2.136,2.136,0,0,1,.771,2.02,4.359,4.359,0,0,1-.958,2.031c-1.6,2.059-3.512,3.754-6.11,3.908" transform="translate(-240.508 -391.786)" fill="#3bb3c1"/>
      <path id="Path_196" data-name="Path 196" d="M254.69,424.195a2.312,2.312,0,0,1-.1-.627c-.039-.407-.094-1-.132-1.734a21.627,21.627,0,0,1,.347-5.724,10.848,10.848,0,0,1,2.6-5.1,7.023,7.023,0,0,1,1.354-1.1,1.8,1.8,0,0,1,.55-.286,14.073,14.073,0,0,0-1.75,1.558,11.272,11.272,0,0,0-2.444,5.009,24.532,24.532,0,0,0-.44,5.647A19.612,19.612,0,0,1,254.69,424.195Z" transform="translate(-240.239 -394.418)" fill="#263238"/>
      <path id="Path_197" data-name="Path 197" d="M242,390.29a6.6,6.6,0,0,1,.385.98c.226.638.55,1.563.914,2.714.754,2.3,1.739,5.5,2.752,9.054s1.827,6.8,2.389,9.153c.281,1.178.5,2.13.633,2.8a6.187,6.187,0,0,1,.187,1.035,5.823,5.823,0,0,1-.314-1c-.193-.716-.44-1.651-.738-2.752-.622-2.339-1.486-5.57-2.488-9.12s-1.948-6.759-2.642-9.076l-.809-2.752a6.408,6.408,0,0,1-.27-1.029Z" transform="translate(-234.665 -385.727)" fill="#263238"/>
      <path id="Path_198" data-name="Path 198" d="M239.829,418.532a11.68,11.68,0,0,0-8.344-6.6c-.925-.176-2.064-.154-2.581.638s-.072,1.849.484,2.609a9.968,9.968,0,0,0,10.458,3.655" transform="translate(-228.674 -395.415)" fill="#3bb3c1"/>
      <path id="Path_199" data-name="Path 199" d="M235.62,416.789a2.113,2.113,0,0,1,.611.066,4.874,4.874,0,0,1,.7.149,8.457,8.457,0,0,1,.914.27,12.318,12.318,0,0,1,2.246,1.051,12.968,12.968,0,0,1,4.337,4.2,12.239,12.239,0,0,1,1.1,2.2,7.9,7.9,0,0,1,.3.9,4.8,4.8,0,0,1,.176.7,1.915,1.915,0,0,1,.077.605c-.061,0-.231-.842-.776-2.114a13.756,13.756,0,0,0-1.161-2.13,14.932,14.932,0,0,0-1.9-2.279,15.179,15.179,0,0,0-2.334-1.827,14,14,0,0,0-2.169-1.1C236.468,417,235.609,416.855,235.62,416.789Z" transform="translate(-231.797 -397.64)" fill="#263238"/>
    </g>
  </g>
</svg>
