<svg xmlns="http://www.w3.org/2000/svg" width="18" height="18" viewBox="0 0 18 18">
    <g fill="none" fill-rule="evenodd">
        <g>
            <g>
                <g>
                    <g>
                        <g>
                            <g>
                                <path d="M0 0L18 0 18 18 0 18z" transform="translate(-226 -1999) translate(0 1315) translate(210 343) translate(6 6) translate(10 275) translate(0 60)"/>
                                <path fill="#949494" fill-rule="nonzero" d="M9.75 13.5V15h3v1.5h-7.5V15h3v-1.5h-6c-.414 0-.75-.336-.75-.75V3c0-.414.336-.75.75-.75h13.5c.414 0 .75.336.75.75v9.75c0 .414-.336.75-.75.75h-6zM7.5 5.625v4.5l3.75-2.25-3.75-2.25z" transform="translate(-226 -1999) translate(0 1315) translate(210 343) translate(6 6) translate(10 275) translate(0 60)"/>
                            </g>
                        </g>
                    </g>
                </g>
            </g>
        </g>
    </g>
</svg>
