<svg xmlns="http://www.w3.org/2000/svg" xmlns:xlink="http://www.w3.org/1999/xlink" width="10.352" height="13.77" viewBox="0 0 10.352 13.77">
  <defs>
    <clipPath id="clip-path">
      <path id="Path_362" data-name="Path 362" d="M198,523h10.351v2.611H198Z" transform="translate(-198 -523)" fill="#949494"/>
    </clipPath>
    <clipPath id="clip-path-2">
      <path id="Path_364" data-name="Path 364" d="M198,139.21h10.351v10.782H198Z" transform="translate(-198 -139.21)" fill="#949494"/>
    </clipPath>
  </defs>
  <g id="CLASSES" transform="translate(-198 -139.211)">
    <g id="Group_560" data-name="Group 560" transform="translate(198 150.37)" clip-path="url(#clip-path)">
      <path id="Path_361" data-name="Path 361" d="M198.41,524v1.291a1.292,1.292,0,0,0,1.291,1.291h7.746a1.292,1.292,0,0,0,1.291-1.291V524ZM204,525.721h-.861a.43.43,0,1,1,0-.861H204a.43.43,0,1,1,0,.861Z" transform="translate(-198.398 -523.971)" fill="#949494"/>
    </g>
    <g id="Group_561" data-name="Group 561" transform="translate(198 139.21)" clip-path="url(#clip-path-2)">
      <path id="Path_363" data-name="Path 363" d="M207.449,139.21H199.7a1.292,1.292,0,0,0-1.291,1.291v9.467H208.74V140.5a1.292,1.292,0,0,0-1.291-1.291Zm-4.178,1.418a.443.443,0,0,1,.609,0,.423.423,0,0,1,.127.3.43.43,0,0,1-.43.43.426.426,0,0,1-.43-.43.43.43,0,0,1,.125-.3Zm-2.4,7.492a.43.43,0,0,1-.736-.3.439.439,0,0,1,.125-.306.448.448,0,0,1,.609,0,.431.431,0,0,1,0,.609Zm.125-1.594a.43.43,0,1,1-.861,0v-.977a.8.8,0,0,0,.091.047l.77.33Zm4.734.861c0,.736-.925,1.291-2.152,1.291s-2.152-.555-2.152-1.291v-1.277l1.813.777a.86.86,0,0,0,.678,0l1.813-.777Zm1.03-2.186-3.012,1.291a.43.43,0,0,1-.339,0l-3.012-1.291a.43.43,0,0,1,0-.791l3.012-1.291a.43.43,0,0,1,.339,0l3.012,1.291a.43.43,0,0,1,0,.791Z" transform="translate(-198.4 -139.21)" fill="#949494"/>
    </g>
  </g>
</svg>
