<svg xmlns="http://www.w3.org/2000/svg" width="20.447" height="15.223" viewBox="0 0 20.447 15.223">
  <path id="Path_630" data-name="Path 630" d="M214.145,243.4H197.788a1.747,1.747,0,0,0-1.744,1.744v8.784a1.747,1.747,0,0,0,1.744,1.744h7.657v1.306h-2.481a.522.522,0,1,0,0,1.045h6.006a.522.522,0,0,0,0-1.045H206.49v-1.306h7.657a1.746,1.746,0,0,0,1.744-1.744v-8.784a1.747,1.747,0,0,0-1.744-1.744Zm.7,10.529a.7.7,0,0,1-.7.7H197.788a.7.7,0,0,1-.7-.7v-8.784a.7.7,0,0,1,.7-.7h16.357a.7.7,0,0,1,.7.7Z" transform="translate(-195.744 -243.1)" fill="#92929d" stroke="#92929d" stroke-width="0.6"/>
</svg>
