<svg xmlns="http://www.w3.org/2000/svg" width="26.533" height="26.77" viewBox="0 0 26.533 26.77">
  <path id="competition" d="M157.285,180.238h25.463a.536.536,0,0,1,.535.535v.258a.536.536,0,0,1-.535.535H157.285a.536.536,0,0,1-.535-.535v-.258A.536.536,0,0,1,157.285,180.238Zm22.27-6.918H174.23v6.062h5.859v-5.527a.536.536,0,0,0-.535-.535Zm-9.389-15.177.765,2.015a.156.156,0,0,0,.141.1l2.153.105a.159.159,0,0,1,.092.283L171.638,162a.157.157,0,0,0-.054.166l.566,2.08a.159.159,0,0,1-.241.175l-1.8-1.181a.157.157,0,0,0-.175,0l-1.8,1.181a.159.159,0,0,1-.241-.175l.566-2.08A.156.156,0,0,0,168.4,162l-1.68-1.351a.159.159,0,0,1,.092-.283l2.153-.105a.156.156,0,0,0,.141-.1l.765-2.015a.157.157,0,0,1,.149-.1.155.155,0,0,1,.149.1Zm.279-1.527a.428.428,0,0,1-.856,0v-1.394a.428.428,0,1,1,.856,0Zm-4.331.915,1.326,1.194a.427.427,0,0,0,.572-.635l-1.326-1.194a.427.427,0,1,0-.572.635Zm7.214-.635-1.374,1.219a.427.427,0,0,0,.572.635l1.373-1.219a.427.427,0,1,0-.572-.635ZM165.8,170.267h-5.325a.536.536,0,0,0-.535.535v8.58H165.8v-9.114Zm1.391-3.551h5.646a.536.536,0,0,1,.535.535v12.131H166.66V167.251a.536.536,0,0,1,.535-.535Z" transform="translate(-156.75 -154.795)" fill="#3bb3c1" fill-rule="evenodd"/>
</svg>
