<svg xmlns="http://www.w3.org/2000/svg" width="78.61" height="78.61" viewBox="0 0 78.61 78.61">
  <g id="Group_2364" data-name="Group 2364" transform="translate(-3923 -8406)">
    <rect id="Rectangle_167" data-name="Rectangle 167" width="55.377" height="55.795" rx="8" transform="translate(3923 8445.157) rotate(-45)" fill="#3bb3c1"/>
    <g id="Group_2361" data-name="Group 2361" transform="translate(-105.938 -300.218)">
      <path id="Path_1052" data-name="Path 1052" d="M303.3,216.89h8.4v18.4h-8.4Z" transform="translate(3760.639 8523.338)" fill="#fff"/>
      <path id="Path_1053" data-name="Path 1053" d="M414.4,263.7h8.4v14.175h-8.4Z" transform="translate(3659.565 8480.752)" fill="#fff"/>
      <path id="Path_1054" data-name="Path 1054" d="M192.47,295.73h8.4v11.29h-8.4Z" transform="translate(3861.469 8451.612)" fill="#fff"/>
      <path id="Path_1055" data-name="Path 1055" d="M431.593,191.13l.9,1.824,2.016.293-1.455,1.42.344,2.006-1.8-.945-1.8.945.344-2.006-1.455-1.42,2.011-.293Z" transform="translate(3646.572 8546.773)" fill="#fff" fill-rule="evenodd"/>
      <path id="Path_1056" data-name="Path 1056" d="M209.666,221.87l.9,1.825,2.011.293-1.455,1.42.344,2.006-1.8-.95-1.8.95.344-2.006-1.455-1.42,2.011-.293Z" transform="translate(3848.476 8518.807)" fill="#fff" fill-rule="evenodd"/>
      <path id="Path_1057" data-name="Path 1057" d="M320.482,139.21l.9,1.825,2.011.293-1.455,1.42.344,2.006-1.8-.95-1.8.95.344-2.006-1.455-1.42,2.011-.293Z" transform="translate(3747.656 8594.008)" fill="#fff" fill-rule="evenodd"/>
    </g>
  </g>
</svg>
