<svg xmlns="http://www.w3.org/2000/svg" xmlns:xlink="http://www.w3.org/1999/xlink" width="16" height="16" viewBox="0 0 16 16">
    <defs>
        <path id="ir7tfb55aa" d="M7.273 6.545c-.402 0-.728.326-.728.728v6.545c0 .402.326.727.728.727h6.545c.402 0 .727-.325.727-.727V7.273c0-.402-.325-.728-.727-.728H7.273zm6.545-1.454c1.205 0 2.182.977 2.182 2.182v6.545C16 15.023 15.023 16 13.818 16H7.273c-1.205 0-2.182-.977-2.182-2.182V7.273c0-1.205.977-2.182 2.182-2.182h6.545zM8.728 0c1.204 0 2.181.977 2.181 2.182v.727c0 .402-.326.727-.727.727-.402 0-.727-.325-.727-.727v-.727c0-.402-.326-.727-.728-.727H2.182c-.402 0-.727.325-.727.727v6.545c0 .402.325.728.727.728h.727c.402 0 .727.325.727.727 0 .401-.325.727-.727.727h-.727C.977 10.91 0 9.932 0 8.727V2.182C0 .977.977 0 2.182 0z"/>
    </defs>
    <g fill="none" fill-rule="evenodd">
        <g>
            <g>
                <g>
                    <g>
                        <g transform="translate(-538 -1447) translate(210 1336) translate(20 72) translate(0 25) translate(308 14)">
                            <use fill="#3BB3C1" fill-rule="nonzero" xlink:href="#ir7tfb55aa"/>
                        </g>
                    </g>
                </g>
            </g>
        </g>
    </g>
</svg>
