<svg xmlns="http://www.w3.org/2000/svg" width="24" height="24" viewBox="0 0 24 24">
    <g fill="none" fill-rule="evenodd">
        <g fill="#3BB3C1">
            <g>
                <g>
                    <g transform="translate(-211 -1489) translate(0 1168) translate(211 321)">
                        <circle cx="12" cy="12" r="12" opacity=".15"/>
                        <path fill-rule="nonzero" d="M10.398 15.824l-3.261-3.242C7.046 12.491 7 12.374 7 12.23c0-.143.046-.26.137-.351l.722-.703c.092-.104.205-.156.342-.156.137 0 .257.052.361.156l2.188 2.187 4.687-4.687c.105-.104.225-.156.362-.156.137 0 .25.052.342.156l.722.703c.091.091.137.208.137.351 0 .144-.046.26-.137.352l-5.761 5.742c-.092.104-.209.156-.352.156s-.26-.052-.352-.156z"/>
                    </g>
                </g>
            </g>
        </g>
    </g>
</svg>
