<svg xmlns="http://www.w3.org/2000/svg" width="71.343" height="68.014" viewBox="0 0 71.343 68.014">
  <path id="Vector" d="M40.888,19.4A47.468,47.468,0,0,0,22.508,5.626,48.033,48.033,0,0,0,10.334,2.591a64.072,64.072,0,0,0-6.448-.543C3.243,2.015.644,2.455.335,1.883-.705-.043,8.779.28,9.8.388A52.186,52.186,0,0,1,22.523,3.027c6.841,2.525,13.9,6.681,18.844,12.1a58.292,58.292,0,0,1,7.945,10.037,29.071,29.071,0,0,1,2.256,4.965,31.593,31.593,0,0,1,1.083,3.736c.193.934-.037,2.234.3,3.085,1.183-1.111,1.4-3.325,2.532-4.563,1.355-1.474,1.791.138,1.495,1.428a53.541,53.541,0,0,1-2.038,6.008c-.615,1.688-1,4-3.19,3.705-1.918-.266-3.79-1.292-5.565-1.941-1.2-.438-4.041-.768-4.46-2.236-1.306-4.584,7.611.83,8.379.936a14.515,14.515,0,0,0-.562-2.306c-.21-1.086-.266-2.192-.483-3.278a32.176,32.176,0,0,0-1.866-6.044A29,29,0,0,0,40.9,19.411C39.237,17.283,41.262,19.765,40.888,19.4Z" transform="matrix(0.819, 0.574, -0.574, 0.819, 24.771, -0.391)" fill="#fff"/>
</svg>
