<svg id="degree_2_" data-name="degree (2)" xmlns="http://www.w3.org/2000/svg" width="30.492" height="20.292" viewBox="0 0 30.492 20.292">
  <path id="Path_757" data-name="Path 757" d="M173.207,234.5l15.045-4.894a.159.159,0,0,1,.1,0l15.123,4.819a.162.162,0,0,1,0,.308L199.783,236v4.387a1.78,1.78,0,0,1,0,3.249l.971,6.255h-3.238l.809-6.255a1.78,1.78,0,0,1,0-3.249V236.5l-9.919,3.4a.162.162,0,0,1-.1,0l-15.1-5.089a.163.163,0,0,1,0-.308Z" transform="translate(-173.095 -229.599)" fill="#3bb3c1"/>
  <path id="Path_758" data-name="Path 758" d="M276.554,345.058a.974.974,0,0,0,.314-.053l7.9-2.707v5.783c0,1.625-3.733,2.941-8.338,2.941s-8.338-1.317-8.338-2.941V342.26l8.148,2.747a.962.962,0,0,0,.312.051Z" transform="translate(-261.293 -333.941)" fill="#3bb3c1"/>
</svg>
