<svg xmlns="http://www.w3.org/2000/svg" width="10.606" height="11.98" viewBox="0 0 10.606 11.98">
  <g id="delete" transform="translate(-75.85 -51.85)">
    <path id="Path_280" data-name="Path 280" d="M121.936,166h-7.552a.291.291,0,0,0-.286.3.079.079,0,0,0,0,.026l.776,6.779a1.483,1.483,0,0,0,1.471,1.314h3.759a1.476,1.476,0,0,0,1.474-1.34l.644-6.756a.292.292,0,0,0-.074-.223A.3.3,0,0,0,121.936,166Zm-.927,7.019a.908.908,0,0,1-.9.824h-3.761a.908.908,0,0,1-.9-.807l-.739-6.464h6.916Z" transform="translate(-37.008 -110.737)" fill="#ff385c" stroke="#ff385c" stroke-width="0.3"/>
    <path id="Path_281" data-name="Path 281" d="M86.019,53.431H82.985v-.547A.894.894,0,0,0,82.092,52H80.211a.894.894,0,0,0-.893.885v.547H76.286a.286.286,0,1,0,0,.573h9.733a.286.286,0,1,0,0-.573Zm-3.607,0H79.893v-.547a.318.318,0,0,1,.321-.312h1.881a.32.32,0,0,1,.321.312v.547Z" fill="#ff385c" stroke="#ff385c" stroke-width="0.3"/>
  </g>
</svg>
