<svg xmlns="http://www.w3.org/2000/svg" width="19.2" height="22.4" viewBox="0 0 19.2 22.4">
  <g id="Group_1950" data-name="Group 1950" transform="translate(-917.801 -229)">
    <path id="Vector" d="M18.912,5.84,12.192.24A.961.961,0,0,0,11.52,0H1.92A1.787,1.787,0,0,0,0,1.6V20.8a1.787,1.787,0,0,0,1.92,1.6H17.28a1.787,1.787,0,0,0,1.92-1.6V6.4A.676.676,0,0,0,18.912,5.84ZM11.52,1.92,16.9,6.4H11.52ZM17.28,20.8H1.92V1.6H9.6V6.4A1.787,1.787,0,0,0,11.52,8h5.76Z" transform="translate(917.801 229)" fill="#3bb3c1"/>
    <path id="Vector-2" data-name="Vector" d="M4.8,20H19.2v2H4.8Zm0-6H19.2v2H4.8Z" transform="translate(913.001 225)" fill="#3bb3c1"/>
  </g>
</svg>
