<svg xmlns="http://www.w3.org/2000/svg" width="64" height="64" viewBox="0 0 64 64">
    <g fill="none" fill-rule="evenodd">
        <g>
            <g>
                <g>
                    <g transform="translate(-209 -3531) translate(1 3239) translate(208 289) translate(0 3)">
                        <rect width="64" height="64" fill="#FAFAFA" rx="16"/>
                        <g fill="#FF554B" fill-rule="nonzero">
                            <path d="M28.367 28.236H3.633C1.63 28.236 0 26.606 0 24.603V3.633C0 1.63 1.63 0 3.633 0h24.734C30.37 0 32 1.63 32 3.633v20.97c0 2.003-1.63 3.633-3.633 3.633zM3.633 1.082c-1.407 0-2.55 1.144-2.55 2.55v20.971c0 1.407 1.143 2.551 2.55 2.551h24.734c1.407 0 2.55-1.144 2.55-2.55V3.632c0-1.407-1.143-2.55-2.55-2.55H3.633z" transform="translate(16 18)"/>
                            <path d="M27.117 19.976h-8.503c-.298 0-.54-.243-.54-.542 0-.298.242-.54.54-.54h8.503c.298 0 .54.242.54.54 0 .3-.242.542-.54.542zM27.117 23.887h-8.503c-.298 0-.54-.242-.54-.54 0-.3.242-.542.54-.542h8.503c.298 0 .54.243.54.541 0 .3-.242.541-.54.541zM27.117 12.152h-8.503c-.298 0-.54-.242-.54-.541 0-.299.242-.541.54-.541h8.503c.298 0 .54.242.54.54 0 .3-.242.542-.54.542zM27.117 16.064h-8.503c-.298 0-.54-.242-.54-.541 0-.299.242-.541.54-.541h8.503c.298 0 .54.242.54.54 0 .3-.242.542-.54.542zM31.459 7.245H.54C.242 7.245 0 7.003 0 6.704c0-.3.242-.541.541-.541H31.46c.299 0 .541.242.541.54 0 .3-.242.542-.541.542zM7.8 5.316c-.928 0-1.684-.755-1.684-1.683 0-.929.756-1.684 1.684-1.684.929 0 1.684.755 1.684 1.684 0 .928-.755 1.683-1.684 1.683zm0-2.285c-.332 0-.602.27-.602.602 0 .331.27.601.602.601.332 0 .602-.27.602-.601 0-.332-.27-.602-.602-.602zM3.902 5.316c-.929 0-1.684-.755-1.684-1.683 0-.929.755-1.684 1.684-1.684.928 0 1.683.755 1.683 1.684 0 .928-.755 1.683-1.683 1.683zm0-2.285c-.332 0-.602.27-.602.602 0 .331.27.601.602.601.331 0 .601-.27.601-.601 0-.332-.27-.602-.601-.602zM11.698 5.316c-.928 0-1.683-.755-1.683-1.683 0-.929.755-1.684 1.683-1.684.929 0 1.684.755 1.684 1.684 0 .928-.755 1.683-1.684 1.683zm0-2.285c-.331 0-.601.27-.601.602 0 .331.27.601.601.601.332 0 .602-.27.602-.601 0-.332-.27-.602-.602-.602zM14.531 23.887H4.715c-.299 0-.541-.242-.541-.54V11.61c0-.299.242-.541.541-.541h9.816c.3 0 .541.242.541.54v11.736c0 .3-.242.541-.54.541zm-9.275-1.082h8.734V12.152H5.256v10.653z" transform="translate(16 18)"/>
                        </g>
                    </g>
                </g>
            </g>
        </g>
    </g>
</svg>
