<svg xmlns="http://www.w3.org/2000/svg" width="76.352" height="76.351" viewBox="0 0 76.352 76.351">
  <g id="exchange-change-svgrepo-com" transform="translate(2 26)">
    <g id="Group_2" data-name="Group 2" transform="translate(-2 -26)">
      <g id="Group_1" data-name="Group 1">
        <path id="Path_1" data-name="Path 1" d="M124.219,266.069h-22.55l7.126-7.125a1.66,1.66,0,0,0-2.347-2.347l-9.959,9.959a1.66,1.66,0,0,0,0,2.347l9.959,9.959a1.66,1.66,0,0,0,2.347-2.347l-7.126-7.126h22.55a1.66,1.66,0,1,0,0-3.32Z" transform="translate(-81.064 -216.275)" fill="#3bb3c1"/>
        <path id="Path_2" data-name="Path 2" d="M222.1,85.93a1.66,1.66,0,0,0-2.347,2.347l7.125,7.126h-22.55a1.66,1.66,0,1,0,0,3.32h22.55l-7.125,7.126a1.66,1.66,0,1,0,2.306,2.388l.041-.041,9.959-9.959a1.66,1.66,0,0,0,0-2.347Z" transform="translate(-171.13 -72.166)" fill="#3bb3c1"/>
        <path id="Path_3" data-name="Path 3" d="M38.175,0A38.175,38.175,0,1,0,76.351,38.175,38.218,38.218,0,0,0,38.175,0Zm0,73.031A34.856,34.856,0,1,1,73.031,38.175,34.9,34.9,0,0,1,38.175,73.031Z" fill="#3bb3c1"/>
      </g>
    </g>
  </g>
</svg>
