<svg xmlns="http://www.w3.org/2000/svg" width="20" height="20" viewBox="0 0 20 20">
    <g fill="none" fill-rule="evenodd" opacity=".504">
        <g>
            <g>
                <g>
                    <g>
                        <g>
                            <g>
                                <g>
                                    <path d="M0 0L20 0 20 20 0 20z" transform="translate(-1429 -472) translate(380 321) translate(0 38) translate(0 46) translate(1 52) translate(1038 9) translate(10 6)"/>
                                    <path fill="#3BB3C1" fill-rule="nonzero" d="M.984 10C1.768 5.733 5.507 2.5 10 2.5s8.232 3.233 9.016 7.5c-.783 4.267-4.523 7.5-9.016 7.5S1.768 14.267.984 10zM10 14.167c2.301 0 4.167-1.866 4.167-4.167 0-2.301-1.866-4.167-4.167-4.167C7.699 5.833 5.833 7.7 5.833 10c0 2.301 1.866 4.167 4.167 4.167zm0-1.667c-1.38 0-2.5-1.12-2.5-2.5S8.62 7.5 10 7.5s2.5 1.12 2.5 2.5-1.12 2.5-2.5 2.5z" transform="translate(-1429 -472) translate(380 321) translate(0 38) translate(0 46) translate(1 52) translate(1038 9) translate(10 6)"/>
                                </g>
                            </g>
                        </g>
                    </g>
                </g>
            </g>
        </g>
    </g>
</svg>
