<svg xmlns="http://www.w3.org/2000/svg" width="439.482" height="289.809" viewBox="0 0 439.482 289.809">
  <g id="Asset_2" data-name="Asset 2" transform="translate(0.002 0.003)">
    <g id="Layer_2" data-name="Layer 2" transform="translate(-0.002 -0.003)">
      <g id="Layer_1" data-name="Layer 1" transform="translate(0)">
        <path id="Path_635" data-name="Path 635" d="M105.324,289.807,32.34,289S-16.5,254.24,5.857,143.8C19.422,76.812,89.9,48.646,147.725,44.9,218.242,40.364,222.034-6.67,299.551.8,335.795,4.294,381.665,22.9,410.7,80.653c21.626,43.008,57.671,102.317-12.128,207.864Z" transform="translate(0.002 0.003)" fill="#e1fcff"/>
        <path id="Path_636" data-name="Path 636" d="M680.046,720.1,651.99,780.837l1.828,19.276,17.545,6.025,30.688-68.172Z" transform="translate(-535.806 -591.778)" fill="#fe9f73"/>
        <path id="Path_637" data-name="Path 637" d="M794.136,824.563,786.5,839.857l-15.967-14.53s16.763-21.51,17.314-21.332,9.575,15.543,9.575,15.543Z" transform="translate(-633.222 -660.722)" fill="#e82538"/>
        <path id="Path_638" data-name="Path 638" d="M820.207,1481.481l-22.2-1.8-.228-4.667-.219-16.46,22.927,2.327Z" transform="translate(-655.435 -1198.637)" fill="#fe9f73"/>
        <path id="Path_639" data-name="Path 639" d="M491.2,937.9s47.887,6.007,54.581,14.589c3.3,4.23,10.27,66.208,7.484,89.821,0,0-20.336.394-26.73-.725l-.8-62.872-36.771-11.12L470.08,938.586Z" transform="translate(-386.312 -770.767)" fill="#3aa1c9"/>
        <path id="Path_640" data-name="Path 640" d="M805.586,1554.192H835.9a4.945,4.945,0,0,0,.659-.143c1.946-.62,2.108-1.757,2.015-2.415a1.011,1.011,0,0,0-.46-.713l-16.751-10.842-5.524,2.448a17.941,17.941,0,0,1-5.563,1.458c-3.92.376-10.225.581-11.476-1.859l.2,9.359S798.082,1554.265,805.586,1554.192Z" transform="translate(-656.454 -1265.639)" fill="#ef3a4c"/>
        <path id="Path_641" data-name="Path 641" d="M1058.506,1459.494l-21,7.436-2.115-4.164-6.934-14.931,21.874-7.255Z" transform="translate(-845.189 -1183.87)" fill="#fe9f73"/>
        <path id="Path_642" data-name="Path 642" d="M1078.75,1522.664l27.658-12.408a4.644,4.644,0,0,0,.535-.4c1.522-1.36,1.2-2.464.854-3.029a1.022,1.022,0,0,0-.713-.462l-19.716-3.044-4.047,4.5a17.885,17.885,0,0,1-4.475,3.612c-3.429,1.96-9.088,4.713-11.227,3l4.008,8.459S1071.948,1525.349,1078.75,1522.664Z" transform="translate(-877.371 -1235.429)" fill="#ef3a4c"/>
        <path id="Path_643" data-name="Path 643" d="M801.841,1269.721c-9.266,0-18.994-1.012-19.121-1.025l-.178-.02-.7-54.677h.426l.688,54.3c1.839.178,16.637,1.6,26.495.713l.041.41C807.137,1269.637,804.509,1269.721,801.841,1269.721Z" transform="translate(-642.517 -997.666)"/>
        <path id="Path_644" data-name="Path 644" d="M454.463,1288.54H437.078V1222h-3.862v66.54h-16.94a4.277,4.277,0,0,0-4.277,4.277h46.742A4.277,4.277,0,0,0,454.463,1288.54Z" transform="translate(-338.582 -1004.24)" fill="#727272"/>
        <path id="Path_645" data-name="Path 645" d="M259.78,697.59h32.828a8.939,8.939,0,0,1,8.714,6.941l19.55,85.083-45.785-4.776Z" transform="translate(-213.487 -573.28)" fill="#ffcb86"/>
        <path id="Path_646" data-name="Path 646" d="M337.583,779.948H269.4a5.243,5.243,0,0,1-5.155-4.292l-13.933-75.43a3.649,3.649,0,0,0-4.384-2.9,3.709,3.709,0,0,0-2.782,4.313l15.781,85.452a3.633,3.633,0,0,0,.829,1.723,6.016,6.016,0,0,0,5.3,3.169h72.527a6.016,6.016,0,0,0,6.018-6.016h0A6.018,6.018,0,0,0,337.583,779.948Z" transform="translate(-199.769 -572.991)" fill="#ffcb86"/>
        <path id="Path_647" data-name="Path 647" d="M281.146,778.867a5.535,5.535,0,0,1-5.444-4.532l-13.939-75.424a3.355,3.355,0,0,0-4.031-2.673.293.293,0,1,1-.128-.572,3.945,3.945,0,0,1,4.737,3.135l13.939,75.433a4.949,4.949,0,0,0,4.867,4.052.294.294,0,1,1,0,.586Z" transform="translate(-211.51 -571.621)" fill="#21111d"/>
        <path id="Path_648" data-name="Path 648" d="M358.512,1158.152h0l-28.444-.051c-7.663.691-8.573-5.866-8.618-6.226l-1.691-9.154a.294.294,0,0,1,.577-.107l1.7,9.188c.027.26.732,6.376,8,5.713h.027l28.457.05a.294.294,0,0,1,0,.588Z" transform="translate(-262.776 -938.816)" fill="#21111d"/>
        <path id="Path_649" data-name="Path 649" d="M280.22,696.432h0l-13.982-.02a.294.294,0,1,1,0-.586h0l13.982.02a.294.294,0,1,1,0,.586Z" transform="translate(-218.534 -571.829)" fill="#21111d"/>
        <path id="Path_650" data-name="Path 650" d="M1128.525,685.377s-2.65-5.592-13.835-3.22l1,2.115,5.916-.5Z" transform="translate(-916.053 -560.115)" fill="#21111d"/>
        <path id="Path_651" data-name="Path 651" d="M982.954,708.161l-16.255-.549s-5.5.041-6.029-4.76l-7.361.643a5.729,5.729,0,0,1-6.032-4.1,14.844,14.844,0,0,1-.547-4.535,9.13,9.13,0,0,1,6.481-8.666c2.076-.387,11.875,1.313,11.875,1.313h4.85l18.723,1.247Z" transform="translate(-778.016 -563.869)" fill="#fe9f73"/>
        <ellipse id="Ellipse_21" data-name="Ellipse 21" cx="4.099" cy="4.124" rx="4.099" ry="4.124" transform="translate(192.093 127.299) rotate(-88.06)" fill="#fe9f73"/>
        <path id="Path_652" data-name="Path 652" d="M1087.72,682.456a1.708,1.708,0,0,1,1.34-1.561,1.616,1.616,0,0,1,1.862.713,1.916,1.916,0,0,1-.15,2.147,1.856,1.856,0,0,0,1.043-.791,2.562,2.562,0,0,0,.178-1.814.116.116,0,0,1,.078-.143.114.114,0,0,1,.141.078,2.731,2.731,0,0,1-.2,1.992,2.227,2.227,0,0,1-1.536.994l-.4.086.3-.28a1.786,1.786,0,0,0,.356-2.156,1.4,1.4,0,0,0-1.6-.6,1.487,1.487,0,0,0-1.169,1.349v.023a.115.115,0,0,1-.23-.005A.11.11,0,0,0,1087.72,682.456Z" transform="translate(-893.889 -559.508)" fill="#f07162"/>
        <path id="Path_653" data-name="Path 653" d="M1021.491,729.332s-11.059,1.116-11.205-6.162c-.207-10.414,5.8-11.227,10.7-11.67l10.084.237,2.915.433h0a5.265,5.265,0,0,1-3.042,1.181c-2.424.132-8.955.444-9.266,1.034C1021.247,715.219,1022.607,727.752,1021.491,729.332Z" transform="translate(-830.249 -584.711)" fill="#21111d"/>
        <path id="Path_654" data-name="Path 654" d="M1074.419,771.964a.114.114,0,0,1,.082-.105.116.116,0,0,1,.143.077l.681,2.317,5.426-.535a.114.114,0,0,1,.023.226l-5.615.556-.734-2.495A.114.114,0,0,1,1074.419,771.964Z" transform="translate(-882.958 -634.31)" fill="#f07162"/>
        <path id="Path_655" data-name="Path 655" d="M1044.862,695.295l1.943-1.992-5.042-2.3a3.254,3.254,0,0,1-3.261,2.568c-2.737-.048-6.95-1.668-13.255,2.862s9.172-.071,9.707-.1S1044.862,695.295,1044.862,695.295Z" transform="translate(-841.311 -567.864)" fill="#21111d"/>
        <path id="Path_656" data-name="Path 656" d="M1106.627,692.172c2.1,2.269,3.088,9.919-.369,15.236h0a7.411,7.411,0,0,1-9.5,3.717l.062-.079c-.143.027-.285.05-.43.066a6.825,6.825,0,0,0,1.018-.78l1.944-2.368a12.881,12.881,0,0,0,1.769-5.5,17.058,17.058,0,0,0-.288-6.1c-1.381-.492-4.136-.946-9.6-.609-8.34.517,1.868-2.773,5.774-3.963a9.531,9.531,0,0,0-2.443-.675S1102.414,687.63,1106.627,692.172Z" transform="translate(-894.154 -566.91)" fill="#21111d"/>
        <path id="Path_657" data-name="Path 657" d="M1124.43,750.57a33.806,33.806,0,0,0,4.067.139c.736-.135,3.087-7.484,2.673-11.583s-5.168,3.648-5.168,3.742S1124.43,750.57,1124.43,750.57Z" transform="translate(-924.057 -606.432)" fill="#fe9f73"/>
        <path id="Path_658" data-name="Path 658" d="M1150.122,713.226l3.79-3.806-5.472,3.521Z" transform="translate(-943.789 -583.002)" fill="#fe9f73"/>
        <path id="Path_659" data-name="Path 659" d="M1187.825,698.534s7.857,1.069,6.29-3.386-5.168-5.323-7.707-1.426S1187.825,698.534,1187.825,698.534Z" transform="translate(-974.292 -568.065)" fill="#21111d"/>
        <path id="Path_660" data-name="Path 660" d="M1112.639,749.568a.2.2,0,0,1,0,.132,3.458,3.458,0,0,0,.713,3.053.193.193,0,1,1-.292.251,3.836,3.836,0,0,1-.777-3.427.194.194,0,0,1,.244-.121A.2.2,0,0,1,1112.639,749.568Z" transform="translate(-913.947 -615.895)" fill="#21111d"/>
        <path id="Path_661" data-name="Path 661" d="M1096.078,750.568a.2.2,0,0,1,0-.032,1.454,1.454,0,0,1,.9-1.511.107.107,0,0,1,.134.064.105.105,0,0,1-.064.132,1.226,1.226,0,0,0-.765,1.3v.03a.947.947,0,0,0,.934.948.1.1,0,1,1,0,.207A1.171,1.171,0,0,1,1096.078,750.568Z" transform="translate(-900.75 -615.545)"/>
        <path id="Path_662" data-name="Path 662" d="M1100.048,789.851v-.034a1.452,1.452,0,0,1,.9-1.511.105.105,0,0,1,.132.064.1.1,0,0,1-.064.134,1.221,1.221,0,0,0-.763,1.3v.029a.947.947,0,0,0,.934.948.107.107,0,0,1,.1.1.1.1,0,0,1-.1.105A1.174,1.174,0,0,1,1100.048,789.851Z" transform="translate(-904.012 -647.825)"/>
        <path id="Path_663" data-name="Path 663" d="M1059.906,762.7a.112.112,0,0,1,.034-.094.114.114,0,0,1,.164,0,2.407,2.407,0,0,1,.426,3.065.118.118,0,1,1-.194-.13,2.14,2.14,0,0,0-.394-2.767.119.119,0,0,1-.036-.073Z" transform="translate(-871.031 -626.684)" fill="#f07162"/>
        <path id="Path_664" data-name="Path 664" d="M1116.767,786.322a.179.179,0,0,0-.02-.13,3.5,3.5,0,0,1,.153-3.131.191.191,0,0,0-.069-.262.194.194,0,0,0-.264.068,3.822,3.822,0,0,0-.159,3.509.192.192,0,0,0,.356-.054Z" transform="translate(-917.156 -643.283)" fill="#21111d"/>
        <path id="Path_665" data-name="Path 665" d="M410.435,957.613s-7.32,25.983,9.322,31.677,73.571,1.272,73.571,1.272l25.333,64.508s17.4-2.351,25.506-13.119c0,0-23.937-72.349-33.792-76.955s-51.9-11.825-51.9-11.825Z" transform="translate(-335.978 -783.315)" fill="#4cb7d8"/>
        <path id="Path_666" data-name="Path 666" d="M954.529,1347.729l-.062-.159-15.087-38.406.4-.155,15.024,38.245c1.83-.317,18.039-3.359,25.2-13.008l.342.255c-7.663,10.336-25.467,13.176-25.645,13.2Z" transform="translate(-771.983 -1075.745)"/>
        <path id="Path_667" data-name="Path 667" d="M851.936,699.39l-2.58,66.853-.036,35.613,18.515-1.174,11.28-93.248Z" transform="translate(-697.972 -574.759)" fill="#fe9f73"/>
        <path id="Path_668" data-name="Path 668" d="M847.489,1205.881c.032-.428,1.41-17.5,1.328-18.16-6.221-2.651-11.093,6.371-17.939,3.443,1.463,3.828-1.121,11-.643,12.043l-4.532,7.017-1.426,1.481a2.318,2.318,0,0,0,.057,2.917,1.629,1.629,0,0,0,2.495.381l-.593.62a2.32,2.32,0,0,0,.055,2.919h0a1.629,1.629,0,0,0,2.495.381,2.321,2.321,0,0,0,.057,2.917,1.629,1.629,0,0,0,2.495.381l.593-.618a2.32,2.32,0,0,0,.057,2.917h0c.041.053.084.1.128.152h0a2.219,2.219,0,0,0,.157.158c.809.773,1.467.891,1.96.713,1.032-.392,5.168-5.02,7.141-7.157C844.5,1215.1,847.11,1211.022,847.489,1205.881Z" transform="translate(-676.99 -975.664)" fill="#fe9f73"/>
        <path id="Path_669" data-name="Path 669" d="M865.667,1333.855a.331.331,0,0,0,.077.082.321.321,0,0,0,.447-.064l7.737-10.38a.319.319,0,1,0-.511-.383l-7.734,10.373A.317.317,0,0,0,865.667,1333.855Z" transform="translate(-711.362 -1087.227)" fill="#f07162"/>
        <path id="Path_670" data-name="Path 670" d="M848.524,1321.829a.317.317,0,0,0,.076.084.319.319,0,0,0,.447-.066l7.019-9.414a.323.323,0,0,0-.064-.447.319.319,0,0,0-.447.064l-7.019,9.416A.317.317,0,0,0,848.524,1321.829Z" transform="translate(-697.275 -1078.138)" fill="#f07162"/>
        <path id="Path_671" data-name="Path 671" d="M869.329,1084.264c-.85,7.744-2.509,28.963-2.987,31.935-.666,4.165-18.843-1.524-18.843-1.524s.032-28.8.356-40.095Z" transform="translate(-696.476 -883.091)" fill="#fe9f73"/>
        <path id="Path_672" data-name="Path 672" d="M836.576,1309.49a.312.312,0,0,0,.078.082.321.321,0,0,0,.447-.064l5.64-7.568a.319.319,0,0,0-.511-.382l-5.642,7.566a.323.323,0,0,0-.012.365Z" transform="translate(-687.457 -1069.516)" fill="#f07162"/>
        <path id="Path_673" data-name="Path 673" d="M447.816,668.219c25.7-14.058,57.145-10.457,66.564-4.968a8.292,8.292,0,0,1,1.739,1.591,16.018,16.018,0,0,1,2,4.1c2.138,5.414-5.255,44.505-5.255,44.505s-19-.633-28.46-4.2l2.179-20.525s-5.489,11.827-10.558,23.385c-3.856,8.787-10.279,10.715-10.279,10.715s-20.473,9.115-57.966-5.333C407.78,717.487,422.113,682.279,447.816,668.219Z" transform="translate(-335.114 -541.07)" fill="#ff424d"/>
        <path id="Path_674" data-name="Path 674" d="M1092.981,978.129h-3.361l6.064-138.869h6.723Z" transform="translate(-895.451 -689.704)" fill="#21111d"/>
        <path id="Path_675" data-name="Path 675" d="M1725.785,978.25h3.362l-6.064-138.99h-6.723Z" transform="translate(-1410.506 -689.704)" fill="#21111d"/>
        <rect id="Rectangle_89" data-name="Rectangle 89" width="110.175" height="2.19" transform="translate(201.957 187.951)" fill="#21111d"/>
        <rect id="Rectangle_90" data-name="Rectangle 90" width="113.124" height="2.19" transform="translate(200.483 223.997)" fill="#21111d"/>
        <path id="Path_676" data-name="Path 676" d="M786.217,713.013h-.235c-17.107-.037-28.448-4.175-28.56-4.218l-.21-.078,2.653-22.022-1.155-4.672.551-.135,1.182,4.769-2.612,21.68c1.6.556,12.326,4.038,27.917,4.108.522-2.741,5.455-28.868,5.6-39.054v-.055c.05-3.564.13-9.546-7.026-12.107-7.306-2.618-25.739-5.137-44.063-.755l-.132-.552c18.444-4.41,37.014-1.868,44.386.771,7.541,2.7,7.456,8.93,7.4,12.652v.055c-.148,10.761-5.6,39.1-5.649,39.382Z" transform="translate(-608.231 -540.353)"/>
        <path id="Path_677" data-name="Path 677" d="M667.869,858.873l-.028-.567c.11,0,11.209-.624,16.872-5.959,5.7-5.362,15.669-31.541,15.769-31.8l.535.2c-.41,1.082-10.122,26.552-15.91,32.012C679.293,858.241,668.339,858.85,667.869,858.873Z" transform="translate(-548.831 -674.328)"/>
        <rect id="Rectangle_91" data-name="Rectangle 91" width="8.464" height="0.426" transform="translate(78.602 169.735) rotate(-53.76)"/>
        <rect id="Rectangle_92" data-name="Rectangle 92" width="6.581" height="0.426" transform="translate(78.593 173.779) rotate(-59.23)"/>
        <path id="Path_678" data-name="Path 678" d="M455.989,1024.23c-13.425,0-29.123-.5-36.834-2.575-6.274-1.688-10.013-7.329-10.808-16.318a51.806,51.806,0,0,1,.686-13.117l.558.112a51.173,51.173,0,0,0-.677,12.966c.786,8.848,4.277,14.167,10.389,15.808,14.824,3.985,59.518,2.128,59.966,2.108l.023.568C479.078,1023.792,468.522,1024.23,455.989,1024.23Z" transform="translate(-335.45 -815.407)"/>
        <path id="Path_679" data-name="Path 679" d="M1017.329,723.478l-.419-.082a12.545,12.545,0,0,0-.21-4.9l.411-.111A12.747,12.747,0,0,1,1017.329,723.478Z" transform="translate(-835.525 -590.373)"/>
        <path id="Path_680" data-name="Path 680" d="M1008.689,728.758l-.419-.084a12.543,12.543,0,0,0-.21-4.9l.412-.109A12.747,12.747,0,0,1,1008.689,728.758Z" transform="translate(-828.424 -594.712)"/>
        <rect id="Rectangle_93" data-name="Rectangle 93" width="141.861" height="3.614" rx="1.807" transform="translate(185.992 146.783)" fill="#f7ab48"/>
        <path id="Path_681" data-name="Path 681" d="M1111.84,452.935l-4.38-21.245,6.414,3.423.036-16.683,5.321,23.531-6.337-2.589Z" transform="translate(-910.111 -343.866)" fill="#ffcb86"/>
        <path id="Path_682" data-name="Path 682" d="M1196.5,565.82l5.67-14.512,2.523,4.571,6.547-10.038-6,16.259-2.8-4.04Z" transform="translate(-983.285 -448.571)" fill="#ffcb86"/>
        <path id="Path_683" data-name="Path 683" d="M979.036,554.633l-8.716-12.914,5.194.522-4.535-11.091,9.965,14.176-4.915.011Z" transform="translate(-797.41 -436.499)" fill="#ffcb86"/>
        <rect id="Rectangle_94" data-name="Rectangle 94" width="39.553" height="21.004" transform="translate(278.809 125.577)" fill="#febac7"/>
        <g id="Group_1820" data-name="Group 1820" transform="translate(305.706 125.577)">
          <rect id="Rectangle_95" data-name="Rectangle 95" width="12.656" height="21.004" fill="#febac7"/>
        </g>
        <rect id="Rectangle_96" data-name="Rectangle 96" width="43.579" height="3.671" transform="translate(276.795 125.577)" fill="#febac7"/>
        <path id="Path_684" data-name="Path 684" d="M1597.083,708.585H1553.29v-.426h43.367V704.7h.426Z" transform="translate(-1276.495 -579.123)"/>
        <g id="Group_1821" data-name="Group 1821" transform="translate(305.706 125.577)">
          <rect id="Rectangle_97" data-name="Rectangle 97" width="14.669" height="3.671" fill="#febac7"/>
        </g>
        <g id="Group_1822" data-name="Group 1822" transform="translate(283.296 130.881)" opacity="0.5">
          <rect id="Rectangle_98" data-name="Rectangle 98" width="17.146" height="4.002" fill="#f3fffe"/>
        </g>
        <g id="Group_1823" data-name="Group 1823" transform="translate(283.296 141.236)" opacity="0.5">
          <rect id="Rectangle_99" data-name="Rectangle 99" width="17.146" height="0.405" fill="#f3fffe"/>
        </g>
        <g id="Group_1824" data-name="Group 1824" transform="translate(283.296 139.031)" opacity="0.5">
          <rect id="Rectangle_100" data-name="Rectangle 100" width="17.146" height="0.405" fill="#f3fffe"/>
        </g>
        <path id="Path_685" data-name="Path 685" d="M1604.357,742.847H1564.59v-.426h39.339V725.3h.427Z" transform="translate(-1285.781 -596.052)"/>
        <path id="Path_686" data-name="Path 686" d="M1610.477,661.768s-1.566,3.935-.258,6.912l-30.071.223-2.774-.255-2.443-1.508v-2.317l.681-1.916,2.222-1.158Z" transform="translate(-1294.279 -543.826)" fill="#fff"/>
        <path id="Path_687" data-name="Path 687" d="M1576.4,666.493l32.488.03a.383.383,0,0,0,0-.766l-32.49-.03a3.31,3.31,0,1,1,.011-6.6l32.488.03a.383.383,0,0,0,0-.766l-32.488-.03a4.074,4.074,0,1,0-.009,8.133Z" transform="translate(-1291.937 -541.041)" fill="#258d8c"/>
        <path id="Path_688" data-name="Path 688" d="M1682.039,680.95l15.943.014a.089.089,0,1,0,0-.178l-15.943-.016a.089.089,0,1,0,0,.178Z" transform="translate(-1382.228 -559.457)" fill="#aac9f8"/>
        <path id="Path_689" data-name="Path 689" d="M1582.479,680.9l15.489.016a.087.087,0,0,0,.086-.085.086.086,0,0,0-.086-.086l-15.489-.014a.086.086,0,1,0,0,.169Z" transform="translate(-1300.402 -559.42)" fill="#aac9f8"/>
        <path id="Path_690" data-name="Path 690" d="M1584.863,689.428h7.948a.089.089,0,0,0,0-.178h-7.946a.084.084,0,0,0-.086.086.085.085,0,0,0,.084.093Z" transform="translate(-1302.372 -566.426)" fill="#aac9f8"/>
        <path id="Path_691" data-name="Path 691" d="M1635.947,689.505l24.15.023a.086.086,0,1,0,0-.169l-24.148-.023a.086.086,0,1,0,0,.169Z" transform="translate(-1344.344 -566.496)" fill="#aac9f8"/>
        <path id="Path_692" data-name="Path 692" d="M1576.76,616.44s1.561,3.937.246,6.912l30.071.282,2.775-.249,2.447-1.513v-2.317l-.679-1.917-2.206-1.165Z" transform="translate(-1295.782 -506.591)" fill="#fff"/>
        <path id="Path_693" data-name="Path 693" d="M1603.2,621.353l-32.488-.032a.383.383,0,0,1,0-.766l32.488.032a3.31,3.31,0,1,0,.01-6.6l-32.487-.03a.383.383,0,1,1,0-.766l32.487.03a4.074,4.074,0,1,1-.01,8.133Z" transform="translate(-1290.499 -503.92)" fill="#fc4963"/>
        <path id="Path_694" data-name="Path 694" d="M1578.809,635.671l15.943.014a.086.086,0,1,0,0-.169l-15.944-.016a.089.089,0,1,0,0,.178Z" transform="translate(-1297.393 -522.254)" fill="#aac9f8"/>
        <path id="Path_695" data-name="Path 695" d="M1680.9,635.771l15.489.014a.084.084,0,0,0,.085-.085.085.085,0,0,0-.085-.086L1680.9,635.6a.085.085,0,0,0-.085.085A.087.087,0,0,0,1680.9,635.771Z" transform="translate(-1381.291 -522.336)" fill="#aac9f8"/>
        <path id="Path_696" data-name="Path 696" d="M1720.819,644.365l7.948.009a.089.089,0,1,0,0-.178h-7.948a.086.086,0,1,0,0,.169Z" transform="translate(-1414.09 -529.4)" fill="#aac9f8"/>
        <path id="Path_697" data-name="Path 697" d="M1578.8,644.178l24.149.023a.089.089,0,1,0,0-.178L1578.8,644a.089.089,0,1,0,0,.178Z" transform="translate(-1297.385 -529.24)" fill="#aac9f8"/>
        <path id="Path_698" data-name="Path 698" d="M1570.218,620.978l32.487.032a4.159,4.159,0,1,0,.007-8.3l-32.488-.03a.469.469,0,1,0,0,.936.086.086,0,1,0,0-.169.3.3,0,0,1,0-.6l32.488.032a3.989,3.989,0,1,1-.007,7.962l-32.487-.032a.3.3,0,1,1,0-.6.086.086,0,0,0,.086-.086.087.087,0,0,0-.086-.086.469.469,0,0,0,0,.937Z" transform="translate(-1290.003 -503.496)" fill="#21111d"/>
        <path id="Path_699" data-name="Path 699" d="M1576,666.3l32.487.032a.469.469,0,1,0,0-.937.089.089,0,0,0,0,.178.3.3,0,1,1,0,.6l-32.487-.03a3.989,3.989,0,1,1,.007-7.962l32.487.03a.3.3,0,0,1,0,.6.089.089,0,1,0,0,.178.469.469,0,1,0,0-.936L1576,658.01A4.151,4.151,0,1,0,1576,666.3Z" transform="translate(-1291.534 -540.753)" fill="#21111d"/>
        <path id="Path_700" data-name="Path 700" d="M1709.069,672.762a7.938,7.938,0,0,1,.43,4.426l-.831-1.285a11.023,11.023,0,0,0-.916,1.283s-.631-4.191-1.862-4.426Z" transform="translate(-1401.902 -552.874)" fill="#f75553"/>
        <path id="Path_701" data-name="Path 701" d="M1598.547,627.44a7.937,7.937,0,0,0-.437,4.425l.832-1.285a11.125,11.125,0,0,1,.914,1.286s.638-4.191,1.869-4.425Z" transform="translate(-1313.179 -515.63)" fill="#7fc6a6"/>
        <path id="Path_702" data-name="Path 702" d="M1584.876,672.331l33.263.032a.083.083,0,0,0,.083-.086.085.085,0,0,0-.083-.085l-33.263-.032a.088.088,0,0,0-.086.086A.086.086,0,0,0,1584.876,672.331Z" transform="translate(-1302.382 -552.381)" fill="#aac9f8"/>
        <path id="Path_703" data-name="Path 703" d="M1578.779,627.064l33.263.032a.089.089,0,0,0,0-.178l-33.263-.032a.086.086,0,1,0,0,.169Z" transform="translate(-1297.361 -515.174)" fill="#aac9f8"/>
        <path id="Path_704" data-name="Path 704" d="M1423.036,707.57v2.495a7.9,7.9,0,0,0,0,15.792v.989a1.426,1.426,0,0,0,1.426,1.426h10.993a1.426,1.426,0,0,0,1.426-1.426V707.57Zm-5.948,10.384a5.956,5.956,0,0,1,5.948-5.948v11.9A5.954,5.954,0,0,1,1417.088,717.954Z" transform="translate(-1162.963 -581.481)" fill="#258d8c"/>
        <rect id="Rectangle_101" data-name="Rectangle 101" width="0.383" height="3.97" transform="translate(265.788 136.541) rotate(-30.96)" fill="#49263e"/>
        <rect id="Rectangle_102" data-name="Rectangle 102" width="0.383" height="3.863" transform="translate(268.111 137.186) rotate(-29.95)" fill="#49263e"/>
        <g id="Group_1825" data-name="Group 1825" transform="translate(263.165 102.509)" opacity="0.5">
          <path id="Path_705" data-name="Path 705" d="M1481.739,596.723s-6.483-2.083-4.588-7.229,7.155-9.063,4.588-14.243c0,0,6.558,3.664,4.585,8.971S1479.253,589.9,1481.739,596.723Z" transform="translate(-1476.804 -575.25)" fill="#fff"/>
        </g>
        <g id="Group_1826" data-name="Group 1826" transform="translate(242.134 4.185)">
          <path id="Path_706" data-name="Path 706" d="M1418.642,76.214h56.748l-6.843-15.354h0V35.624q-.891-.486-1.782-.955v26.2h-98.209V23.48c-.6.178-1.19.356-1.782.545V60.861l-7.994,15.354h59.857Z" transform="translate(-1358.78 -23.48)" fill="#ffcb86"/>
        </g>
        <path id="Path_707" data-name="Path 707" d="M1100.995,680.314h-36.486a1.565,1.565,0,0,1,0-3.127h34.765l17.107-27.02a1.563,1.563,0,0,1,2.641,1.671Z" transform="translate(-873.571 -533.709)" fill="#f75553"/>
        <g id="Group_1827" data-name="Group 1827" transform="translate(193.904 144.883)" opacity="0.5">
          <rect id="Rectangle_104" data-name="Rectangle 104" width="16.891" height="0.527" transform="translate(16.891 0.527) rotate(180)" fill="#f3fffe"/>
        </g>
        <g id="Group_1828" data-name="Group 1828" transform="translate(213.713 144.883)" opacity="0.5">
          <rect id="Rectangle_105" data-name="Rectangle 105" width="0.773" height="0.527" transform="translate(0.773 0.527) rotate(180)" fill="#f3fffe"/>
        </g>
        <g id="Group_1829" data-name="Group 1829" transform="translate(215.796 144.883)" opacity="0.5">
          <rect id="Rectangle_106" data-name="Rectangle 106" width="0.773" height="0.527" transform="translate(0.773 0.527) rotate(180)" fill="#f3fffe"/>
        </g>
        <g id="Group_1830" data-name="Group 1830" transform="translate(217.881 144.883)" opacity="0.5">
          <rect id="Rectangle_107" data-name="Rectangle 107" width="0.773" height="0.527" transform="translate(0.773 0.527) rotate(180)" fill="#f3fffe"/>
        </g>
        <g id="Group_1831" data-name="Group 1831" transform="translate(219.964 144.883)" opacity="0.5">
          <rect id="Rectangle_108" data-name="Rectangle 108" width="0.773" height="0.527" transform="translate(0.773 0.527) rotate(180)" fill="#f3fffe"/>
        </g>
        <path id="Path_708" data-name="Path 708" d="M1107.983,701.983h-36.215a.267.267,0,0,1-.267-.267h0a.267.267,0,0,1,.267-.267h35.925a.263.263,0,0,0,.224-.125l16.275-25.718a.266.266,0,0,1,.369-.082h0a.268.268,0,0,1,.084.369l-16.436,25.965a.269.269,0,0,1-.226.125Z" transform="translate(-880.559 -555.111)"/>
      </g>
    </g>
  </g>
</svg>
