<svg width="27" height="36" viewBox="0 0 27 36" fill="none" xmlns="http://www.w3.org/2000/svg">
<path d="M9.87987 15.3623C10.3122 15.3623 10.7403 15.2771 11.1397 15.1117C11.5391 14.9463 11.902 14.7038 12.2076 14.3981C12.5133 14.0924 12.7558 13.7295 12.9213 13.3301C13.0867 12.9307 13.1718 12.5026 13.1718 12.0703C13.1718 11.638 13.0867 11.2099 12.9213 10.8105C12.7558 10.4111 12.5133 10.0482 12.2076 9.74252C11.902 9.43683 11.5391 9.19434 11.1397 9.02891C10.7403 8.86347 10.3122 8.77832 9.87987 8.77832C9.00678 8.77832 8.16945 9.12515 7.55209 9.74252C6.93472 10.3599 6.58789 11.1972 6.58789 12.0703C6.58789 12.9434 6.93472 13.7807 7.55209 14.3981C8.16945 15.0154 9.00678 15.3623 9.87987 15.3623V15.3623Z" fill="#8D8F8F"/>
<path d="M26.3358 30.7251C26.3358 31.8892 25.8734 33.0057 25.0502 33.8288C24.2271 34.652 23.1106 35.1144 21.9465 35.1144H4.3893C3.22519 35.1144 2.10875 34.652 1.2856 33.8288C0.462443 33.0057 0 31.8892 0 30.7251V4.3893C0 3.22519 0.462443 2.10875 1.2856 1.2856C2.10875 0.462443 3.22519 0 4.3893 0L16.4599 0L26.3358 9.87593V30.7251ZM4.3893 2.19465C3.80725 2.19465 3.24903 2.42587 2.83745 2.83745C2.42587 3.24903 2.19465 3.80725 2.19465 4.3893V26.3358L7.07556 21.4549C7.24853 21.2824 7.47415 21.1725 7.71665 21.1426C7.95915 21.1128 8.20467 21.1648 8.4143 21.2903L13.1679 24.1412L17.9018 17.5133C17.9944 17.3838 18.1141 17.276 18.2526 17.1973C18.3911 17.1187 18.545 17.0712 18.7037 17.058C18.8624 17.0449 19.0221 17.0664 19.1716 17.1211C19.3212 17.1759 19.457 17.2625 19.5697 17.3751L24.1412 21.9465V9.87593H19.7519C18.8788 9.87593 18.0415 9.5291 17.4241 8.91173C16.8067 8.29437 16.4599 7.45704 16.4599 6.58395V2.19465H4.3893Z" fill="#8D8F8F"/>
</svg>
