<svg xmlns="http://www.w3.org/2000/svg" width="18" height="18" viewBox="0 0 18 18">
    <g fill="none" fill-rule="evenodd">
        <g>
            <g>
                <g>
                    <path d="M0 0L18 0 18 18 0 18z" transform="translate(-1169 -560) translate(1153 547) translate(16 13)"/>
                    <path fill="#000" fill-rule="nonzero" d="M4.628 13.5c.317-.9 1.168-1.502 2.122-1.502s1.805.602 2.123 1.502H16.5V15H8.873c-.318.9-1.169 1.502-2.123 1.502-.954 0-1.805-.602-2.122-1.502H1.5v-1.5h3.128zm4.5-5.25c.317-.9 1.168-1.502 2.122-1.502s1.805.602 2.123 1.502H16.5v1.5h-3.127c-.318.9-1.169 1.502-2.123 1.502-.954 0-1.805-.602-2.123-1.502H1.5v-1.5h7.627zM4.627 3c.317-.9 1.168-1.502 2.122-1.502S8.555 2.1 8.873 3H16.5v1.5H8.873c-.318.9-1.169 1.502-2.123 1.502-.954 0-1.805-.602-2.122-1.502H1.5V3h3.128zM6.75 4.5c.414 0 .75-.336.75-.75S7.164 3 6.75 3 6 3.336 6 3.75s.336.75.75.75zm4.5 5.25c.414 0 .75-.336.75-.75s-.336-.75-.75-.75-.75.336-.75.75.336.75.75.75zM6.75 15c.414 0 .75-.336.75-.75s-.336-.75-.75-.75-.75.336-.75.75.336.75.75.75z" transform="translate(-1169 -560) translate(1153 547) translate(16 13)"/>
                </g>
            </g>
        </g>
    </g>
</svg>
