<svg xmlns="http://www.w3.org/2000/svg" width="18.557" height="18.385" viewBox="0 0 18.557 18.385">
  <path id="download_4_" data-name="download (4)" d="M190.3,204.728a5,5,0,0,0,5.164,0l.833-.5a12.134,12.134,0,0,0,5.863-10.388v-3.391a2.141,2.141,0,0,0-2.145-2.141l-3.944.007a.713.713,0,0,1-.319-.074l-1.919-.953a2.141,2.141,0,0,0-1.9,0l-1.919.953a.714.714,0,0,1-.319.074l-3.944-.007a2.141,2.141,0,0,0-2.145,2.141v3.391a12.133,12.133,0,0,0,5.863,10.388Zm2.582-13.55a.714.714,0,0,1,.714.714v5.71a.714.714,0,0,1-1.427,0v-5.71A.714.714,0,0,1,192.885,191.178Zm.714,9.278a.714.714,0,1,1-.714-.714A.714.714,0,0,1,193.6,200.457Z" transform="translate(-183.607 -187.062)" fill="#3bb3c1" fill-rule="evenodd"/>
</svg>
