<svg id="Group_2368" data-name="Group 2368" xmlns="http://www.w3.org/2000/svg" width="78.61" height="78.61" viewBox="0 0 78.61 78.61">
  <rect id="Rectangle_165" data-name="Rectangle 165" width="55.377" height="55.795" rx="8" transform="translate(0 39.157) rotate(-45)" fill="#3bb3c1"/>
  <g id="Group_2360" data-name="Group 2360" transform="translate(22 22)">
    <path id="Path_1002" data-name="Path 1002" d="M92.806,228.071H88.744v-1.2a.742.742,0,0,0-1.2-.58l-3.554,2.72a.755.755,0,0,0,0,1.161l3.554,2.756a.746.746,0,0,0,1.2-.58v-1.2h4.062a.45.45,0,0,0,.435-.472v-2.176a.441.441,0,0,0-.435-.435Z" transform="translate(-83.721 -212.385)" fill="#fff"/>
    <path id="Path_1003" data-name="Path 1003" d="M478.494,229.573l-3.554-2.72a.746.746,0,0,0-1.2.58v1.2h-4.026a.441.441,0,0,0-.435.435v2.176a.475.475,0,0,0,.435.472h4.062v1.2a.742.742,0,0,0,1.2.58l3.554-2.756a.733.733,0,0,0-.036-1.161Z" transform="translate(-444.311 -212.907)" fill="#fff"/>
    <path id="Path_1004" data-name="Path 1004" d="M268.872,192.206a.588.588,0,0,0-.508-.254H267.2a.65.65,0,0,1-.653-.653v-1.161a.634.634,0,0,0-.254-.508l-1.669-1.2a.6.6,0,0,0-.762,0l-1.669,1.2a.588.588,0,0,0-.254.508V191.3a.65.65,0,0,1-.653.653h-1.161a.634.634,0,0,0-.508.254l-1.2,1.668a.6.6,0,0,0,0,.762l1.2,1.668a.588.588,0,0,0,.508.254h1.161a.65.65,0,0,1,.653.653v1.161a.634.634,0,0,0,.254.508l1.669,1.2a.6.6,0,0,0,.762,0l1.669-1.2a.588.588,0,0,0,.254-.508v-1.161a.65.65,0,0,1,.653-.653h1.161a.634.634,0,0,0,.508-.254l1.2-1.668a.6.6,0,0,0,0-.762Z" transform="translate(-246.984 -176.992)" fill="#fff"/>
    <path id="Path_1005" data-name="Path 1005" d="M296.537,18.744h1.2v4.062a.441.441,0,0,0,.435.435h2.176a.441.441,0,0,0,.435-.435V18.744h1.2a.742.742,0,0,0,.58-1.2L299.8,13.993a.755.755,0,0,0-1.161,0l-2.756,3.554a.8.8,0,0,0,.653,1.2Z" transform="translate(-282.047 -13.721)" fill="#fff"/>
    <path id="Path_1006" data-name="Path 1006" d="M303.435,403.779h-1.2v-4.062a.441.441,0,0,0-.435-.435h-2.176a.441.441,0,0,0-.435.435v4.062h-1.2a.742.742,0,0,0-.58,1.2l2.756,3.554a.755.755,0,0,0,1.161,0l2.756-3.554a.8.8,0,0,0-.653-1.2Z" transform="translate(-283.432 -374.311)" fill="#fff"/>
  </g>
</svg>
