<svg xmlns="http://www.w3.org/2000/svg" width="24.361" height="22.598" viewBox="0 0 24.361 22.598">
  <g id="flexible_2_" data-name="flexible (2)" transform="translate(-151.051 -167.505)">
    <path id="Path_772" data-name="Path 772" d="M308.129,172.717H310v4.616c.359.256.692.539,1.026.821a11.069,11.069,0,0,1,1.026-.821v-4.616h1.872a.856.856,0,0,0,.744-.462.782.782,0,0,0-.1-.846l-2.9-3.616a.828.828,0,0,0-1.257,0l-2.923,3.616a.793.793,0,0,0-.1.846.856.856,0,0,0,.744.462Z" transform="translate(-147.795 0)" fill="#3bb3c1"/>
    <path id="Path_773" data-name="Path 773" d="M156.769,308.1h-.487v-1.872a.856.856,0,0,0-.462-.744.782.782,0,0,0-.846.1l-3.616,2.872a.856.856,0,0,0-.308.641.778.778,0,0,0,.308.641l3.616,2.9a.784.784,0,0,0,.513.18.9.9,0,0,0,.359-.077.8.8,0,0,0,.462-.744v-1.872h.487a5.434,5.434,0,0,1,5.411,5.436v3.949a1.026,1.026,0,1,0,2.051,0v-3.949a7.475,7.475,0,0,0-7.488-7.462Z" transform="translate(0 -130.436)" fill="#3bb3c1"/>
    <path id="Path_774" data-name="Path 774" d="M411.173,308.462l-3.616-2.872a.8.8,0,0,0-1.308.641V308.1h-.487a7.432,7.432,0,0,0-5.129,2.026A10.185,10.185,0,0,1,401.659,312a5.379,5.379,0,0,1,4.1-1.9h.487v1.872a.856.856,0,0,0,.461.744.821.821,0,0,0,.359.077.783.783,0,0,0,.513-.18l3.59-2.872a.855.855,0,0,0,.308-.641.813.813,0,0,0-.308-.641Z" transform="translate(-236.068 -130.437)" fill="#3bb3c1"/>
  </g>
</svg>
