<svg xmlns="http://www.w3.org/2000/svg" width="18.337" height="24.643" viewBox="0 0 18.337 24.643">
  <path id="Gender" d="M226.8,179.541a5.216,5.216,0,0,0,.565,10.284v3.186h-1.31a.541.541,0,1,0,0,1.081h1.31V195.6a.541.541,0,1,0,1.081,0v-1.509h1.31a.541.541,0,0,0,0-1.081h-1.31v-3.188A5.247,5.247,0,0,0,233,185.745a5.215,5.215,0,0,0,2.946-8.381l3.162-3.162v2.142a.541.541,0,0,0,1.081,0V172.9a.565.565,0,0,0-.011-.106.48.48,0,0,0-.014-.046h0a.507.507,0,0,0-.017-.055.492.492,0,0,0-.027-.052c-.008-.014-.014-.028-.022-.041h0a.543.543,0,0,0-.15-.15c-.013-.008-.026-.014-.039-.021h0a.313.313,0,0,0-.107-.045c-.016,0-.031-.011-.048-.014a.557.557,0,0,0-.1-.01H236.2a.541.541,0,0,0,0,1.081h2.142l-3.162,3.162a5.176,5.176,0,0,0-3.285-1.168h0a5.213,5.213,0,0,0-5.1,4.109Zm5.1-3.028h0a4.136,4.136,0,0,1,0,8.271h0a4.139,4.139,0,0,1-3.88-2.709.541.541,0,0,0-1.015.372,5.217,5.217,0,0,0,4.857,3.417,4.16,4.16,0,0,1-3.947,2.909h0a4.136,4.136,0,0,1,0-8.272h0a4.147,4.147,0,0,1,3.892,2.739.541.541,0,0,0,1.018-.365,5.231,5.231,0,0,0-4.874-3.454,4.137,4.137,0,0,1,3.95-2.908Z" transform="translate(-222.254 -171.899)" fill="#92929d" stroke="#92929d" stroke-width="0.8" opacity="0.8"/>
</svg>
