<svg width="70" height="89" viewBox="0 0 70 89" fill="none" xmlns="http://www.w3.org/2000/svg">
<path d="M17.9084 78.9292L30.2705 49.0853L20.3432 44.9731L6.10025 79.3575C5.50022 80.8062 6.85777 82.2991 8.35671 81.8392L16.4329 79.3608C16.6725 79.2874 16.9031 79.265 17.1405 79.288L17.9084 78.9292Z" fill="#FFE07D"/>
<path d="M29.7419 48.8662L17.1405 79.288C17.7504 79.3424 18.3132 79.6964 18.6145 80.2645L22.5726 87.7278C23.3073 89.1131 25.3229 89.0173 25.9231 87.5688L40.166 53.1842L29.7419 48.8662Z" fill="#FFD064"/>
<path d="M40.5356 48.7515L29.8342 53.1843L44.0771 87.5689C44.6772 89.0176 46.6928 89.1132 47.4276 87.728L51.3857 80.2646C51.5075 80.0349 51.6723 79.8398 51.8655 79.6854L52.8346 78.4606L40.5356 48.7515Z" fill="#FFE07D"/>
<path d="M63.8998 79.3577L49.6568 44.9731L39.2693 49.2759L51.8662 79.6864C52.3331 79.3133 52.9661 79.1765 53.5671 79.3608L61.6433 81.8392C63.1424 82.2994 64.5 80.8064 63.8998 79.3577Z" fill="#FFD064"/>
<path d="M38.5764 1.24649C40.066 2.42834 42.0434 2.79792 43.8594 2.23411C46.413 1.44106 49.1762 2.51168 50.5291 4.81804C51.4913 6.45819 53.2014 7.5172 55.0985 7.64733C57.7661 7.8303 59.9561 9.82686 60.3846 12.4662C60.6892 14.3432 61.9015 15.9484 63.6234 16.7551C66.0449 17.8895 67.3657 20.5422 66.8117 23.158C66.4177 25.0182 66.9682 26.9531 68.2824 28.3273C70.1305 30.2598 70.4039 33.2105 68.9424 35.4496C67.903 37.042 67.7174 39.0449 68.4465 40.8012C69.4717 43.2707 68.6607 46.121 66.4891 47.6809C64.9448 48.7902 64.0481 50.5909 64.0935 52.4919C64.1575 55.165 62.3716 57.5298 59.783 58.2C57.9422 58.6765 56.4556 60.0318 55.8112 61.8207C54.9052 64.3364 52.3855 65.8965 49.7297 65.5862C47.841 65.3656 45.9653 66.0921 44.7181 67.5276C42.9644 69.5462 40.0515 70.0906 37.6871 68.8421C36.0057 67.9541 33.994 67.9541 32.3127 68.8421C29.9482 70.0908 27.0353 69.5462 25.2816 67.5276C24.0345 66.0921 22.1588 65.3656 20.2701 65.5862C17.6142 65.8965 15.0947 64.3364 14.1885 61.8207C13.5442 60.0318 12.0577 58.6765 10.2167 58.2C7.62813 57.5299 5.84226 55.165 5.9062 52.4919C5.95159 50.5909 5.05493 48.7902 3.5106 47.6809C1.33887 46.121 0.527978 43.2707 1.5532 40.8012C2.28231 39.0449 2.09674 37.042 1.05731 35.4496C-0.4042 33.2105 -0.130784 30.2598 1.71728 28.3273C3.03152 26.9531 3.58199 25.0182 3.18815 23.158C2.63422 20.5422 3.95503 17.8893 6.37644 16.7551C8.09837 15.9484 9.31055 14.3432 9.61533 12.4662C10.0436 9.82686 12.2337 7.83047 14.9014 7.64733C16.7985 7.5172 18.5086 6.45819 19.4708 4.81804C20.8236 2.51168 23.5871 1.44124 26.1405 2.23411C27.9565 2.79809 29.9339 2.42834 31.4234 1.24649C33.5182 -0.415495 36.4818 -0.415495 38.5764 1.24649Z" fill="#E8AE4D"/>
<path d="M50.699 34.754C50.699 23.0229 43.131 13.0601 32.6113 9.47949C19.7114 10.6834 9.61438 21.5394 9.61438 34.754C9.61438 47.9686 19.7114 58.8246 32.6113 60.0285C43.1312 56.4479 50.699 46.4852 50.699 34.754Z" fill="#FFE07D"/>
<path d="M34.9999 9.36865C33.0565 9.36865 31.1645 9.58784 29.3462 10.0014C40.6446 12.5713 49.0779 22.6775 49.0779 34.754C49.0779 46.8306 40.6446 56.9368 29.3462 59.5067C31.1645 59.9203 33.0565 60.1394 34.9999 60.1394C49.0198 60.1394 60.3853 48.774 60.3853 34.754C60.3853 20.7341 49.0198 9.36865 34.9999 9.36865Z" fill="#FFD064"/>
<path d="M35.6992 44.4973L44.4609 50.395C44.8053 50.6269 45.186 50.661 45.5192 50.5584C45.8288 50.1375 46.1265 49.7073 46.4117 49.2683C46.4049 49.1846 46.3895 49.099 46.3647 49.012L43.4632 38.8568C43.3232 38.3666 43.494 37.8406 43.8955 37.5265L50.5867 32.2884C50.4757 31.0755 50.2833 29.8861 50.0155 28.7255L40.93 28.3996C40.4206 28.3814 39.9731 28.0562 39.7984 27.5774L36.1764 17.656C35.7758 16.5587 34.2239 16.5587 33.8233 17.656L30.2015 27.5771C30.0266 28.0558 29.5793 28.3811 29.0699 28.3993L18.5151 28.7778C17.3476 28.8198 16.8682 30.2957 17.7879 31.0158L26.1044 37.5261C26.5057 37.8402 26.6767 38.3663 26.5367 38.8565L23.6352 49.0117C23.3143 50.1349 24.5698 51.047 25.5388 50.3948L34.3005 44.4972C34.7234 44.2128 35.2765 44.2128 35.6992 44.4973Z" fill="#E8AE4D"/>
<path d="M44.4608 50.3954C45.4299 51.0478 46.6854 50.1355 46.3645 49.0122L45.8385 47.1709C45.2738 48.1757 44.6421 49.1377 43.9506 50.052L44.4608 50.3954Z" fill="#E5A32E"/>
<path d="M51.4848 28.7783L48.3424 28.6655C48.726 30.2235 48.9651 31.8381 49.0462 33.4945L52.212 31.0162C53.1317 30.2963 52.6521 28.8203 51.4848 28.7783Z" fill="#E5A32E"/>
</svg>
