<svg xmlns="http://www.w3.org/2000/svg" width="42" height="42" viewBox="0 0 42 42">
  <g id="Group_12" data-name="Group 12" transform="translate(-606 -1679.069)">
    <g id="Group_5" data-name="Group 5" transform="translate(2.5 252.069)">
      <g id="Rectangle_1" data-name="Rectangle 1" transform="translate(603.5 1427)" fill="#fff" stroke="#3bb3c1" stroke-width="1">
        <rect width="42" height="42" rx="14" stroke="none"/>
        <rect x="0.5" y="0.5" width="41" height="41" rx="13.5" fill="none"/>
      </g>
    </g>
    <path id="support_fill" data-name="support fill" d="M176.222,161.714v-.684a8.15,8.15,0,0,0,5.511-2.466,1.118,1.118,0,0,0,.293-.831,1.136,1.136,0,0,0-.417-.8,8.649,8.649,0,0,1-2.794-5.122c-.033-.221-.072-.466-.13-.7-1.052-4.5-4.061-5.478-6.389-5.506-2.328.028-5.336,1.006-6.4,5.506-.058.247-.1.482-.128.7a8.673,8.673,0,0,1-2.794,5.122h0a1.134,1.134,0,0,0-.41.794,1.117,1.117,0,0,0,.293.836,8.15,8.15,0,0,0,5.511,2.468v.682c-2.049.482-6.608,1.972-6.608,5.681a.868.868,0,0,0,.866.866h19.325a.868.868,0,0,0,.866-.866c.009-3.709-4.549-5.2-6.6-5.681Zm-2.021-.787c.1.014.193.026.286.037v.824a1.63,1.63,0,0,0,.466,1.15,3.294,3.294,0,0,1-5.332,0,1.629,1.629,0,0,0,.466-1.15v-.827a1.785,1.785,0,0,0,.286-.037.645.645,0,0,0,.54-.635.654.654,0,0,0-.384-.589,4.173,4.173,0,0,1-2.04-2.042,8.584,8.584,0,0,0,2.959.964.78.78,0,0,0,.636.331h.3a.784.784,0,0,0,0-1.567H172.1a.778.778,0,0,0-.612.3,7.936,7.936,0,0,1-3.344-1.341.521.521,0,0,0-.014-.147l-.126-2.524a6.755,6.755,0,0,0,4.968-2.561h0a5.692,5.692,0,0,0,3.586,3.057l-.1,2.037h0a4.165,4.165,0,0,1-2.414,3.492.654.654,0,0,0-.384.589.645.645,0,0,0,.54.638Z" transform="translate(454.707 1543.135)" fill="#3bb3c1"/>
  </g>
</svg>
