<svg xmlns="http://www.w3.org/2000/svg" width="82" height="82" viewBox="0 0 82 82">
    <g fill="none" fill-rule="evenodd">
        <g fill-rule="nonzero">
            <g>
                <g>
                    <g>
                        <g>
                            <path fill="#FAFAFA" d="M66.625 82h-51.25C6.883 82 0 75.117 0 66.625v-51.25C0 6.883 6.883 0 15.375 0h51.25C75.117 0 82 6.883 82 15.375v51.25C82 75.117 75.117 82 66.625 82z" transform="translate(-1159 -904) translate(210 729) translate(0 135) translate(800) translate(149 40)"/>
                            <g>
                                <path fill="#000" d="M21 9.926c-.68 0-1.231.552-1.231 1.23 0 .68.552 1.231 1.23 1.231.68 0 1.231-.552 1.231-1.23 0-.68-.552-1.23-1.23-1.23z" transform="translate(-1159 -904) translate(210 729) translate(0 135) translate(800) translate(149 40) translate(20 20)"/>
                                <path fill="#BE63F9" d="M22.65 24.302c-.509.255-1.08.39-1.65.39-.571 0-1.142-.135-1.652-.39L7.383 18.36v7.562c0 .35.149.684.41.918.24.214 6.025 5.234 13.207 5.234 7.181 0 12.966-5.02 13.205-5.234.262-.234.411-.567.411-.918V18.36L22.65 24.302z" transform="translate(-1159 -904) translate(210 729) translate(0 135) translate(800) translate(149 40) translate(20 20)"/>
                                <path fill="#BE63F9" d="M41.935 40.38l-2.044-6.216c1.242-.595 2.108-1.854 2.108-3.32 0-1.602-1.032-2.955-2.46-3.465V13.148l1.78-.89c.417-.21.68-.635.68-1.102 0-.466-.263-.891-.68-1.1L21.549.13c-.345-.173-.754-.173-1.1 0L.68 10.056c-.417.209-.68.634-.68 1.1 0 .467.263.892.68 1.101l19.77 9.844c.172.086.36.13.55.13.188 0 .377-.044.55-.13l15.527-7.723v13c-1.429.51-2.46 1.864-2.46 3.466 0 1.466.866 2.725 2.108 3.32L34.68 40.38c-.267.794.325 1.62 1.167 1.62h4.922c.841 0 1.434-.826 1.166-1.62zM21 14.848c-2.036 0-3.692-1.656-3.692-3.691 0-2.036 1.656-3.692 3.692-3.692 2.035 0 3.69 1.656 3.69 3.692 0 2.035-1.655 3.69-3.69 3.69z" transform="translate(-1159 -904) translate(210 729) translate(0 135) translate(800) translate(149 40) translate(20 20)"/>
                            </g>
                        </g>
                    </g>
                </g>
            </g>
        </g>
    </g>
</svg>
