<svg xmlns="http://www.w3.org/2000/svg" width="145.987" height="124.437" viewBox="0 0 145.987 124.437">
  <g id="Group_664" data-name="Group 664" transform="translate(13535.877 11255.115)">
    <path id="Path_569" data-name="Path 569" d="M222.494,212.425c-.969-3.461-5.474-3.134-5.474-3.134l.126,2.416c2.605-.453,4.216,2.592,4.216,2.592Z" transform="translate(-13720.429 -11419.755)" fill="#e0e0e0"/>
    <g id="Group_663" data-name="Group 663" transform="translate(-13535.479 -11185.456)">
      <path id="Path_576" data-name="Path 576" d="M303.887,181.611a5.65,5.65,0,0,1-2.014.189,5.587,5.587,0,0,1-2.014-.189A10.169,10.169,0,0,1,303.887,181.611Z" transform="translate(-299.86 -176.137)" fill="#e0e0e0"/>
      <path id="Path_577" data-name="Path 577" d="M304.8,177.22a11.1,11.1,0,0,1,0,4.077,10.421,10.421,0,0,1,0-4.077Z" transform="translate(-298.635 -177.22)" fill="#e0e0e0"/>
      <path id="Path_578" data-name="Path 578" d="M306.56,181.5a5.65,5.65,0,0,1,2.014-.189,5.588,5.588,0,0,1,2.014.189A10.168,10.168,0,0,1,306.56,181.5Z" transform="translate(-298.129 -176.167)" fill="#e0e0e0"/>
      <path id="Path_579" data-name="Path 579" d="M304.911,186.66a10.482,10.482,0,0,1,0-4.09A11.176,11.176,0,0,1,304.911,186.66Z" transform="translate(-298.607 -175.837)" fill="#e0e0e0"/>
      <path id="Path_580" data-name="Path 580" d="M307.747,184.353c-.076.063-.466-.264-.868-.73s-.642-.919-.566-.982.478.252.868.73S307.836,184.215,307.747,184.353Z" transform="translate(-298.196 -175.82)" fill="#e0e0e0"/>
      <path id="Path_581" data-name="Path 581" d="M307.608,179c.076.088-.189.478-.6.894s-.805.692-.881.617.189-.478.6-.894A2.343,2.343,0,0,1,307.608,179Z" transform="translate(-298.245 -176.76)" fill="#e0e0e0"/>
      <path id="Path_582" data-name="Path 582" d="M303.934,180.514c-.076.088-.453-.113-.843-.44s-.642-.654-.579-.73.44.113.831.428S304,180.438,303.934,180.514Z" transform="translate(-299.177 -176.675)" fill="#e0e0e0"/>
      <path id="Path_583" data-name="Path 583" d="M303.77,182.453c.088.063-.151.453-.529.868s-.742.68-.818.6.151-.466.529-.868S303.694,182.377,303.77,182.453Z" transform="translate(-299.202 -175.87)" fill="#e0e0e0"/>
    </g>
    <circle id="Ellipse_17" data-name="Ellipse 17" cx="32.947" cy="32.947" r="32.947" transform="translate(-13497.934 -11196.571)" fill="#3bb3c1"/>
    <path id="Path_609" data-name="Path 609" d="M279.116,205.512c.415.34-5.739,8.62-13.742,18.487l-4.858,5.89-.667.805-.7-.73c-6.292-6.456-10.533-11.238-10.231-11.54s5.1,3.964,11.54,10.219l-1.359.138,4.757-5.953C271.855,212.9,278.688,205.172,279.116,205.512Z" transform="translate(-13727.882 -11383.043)" fill="#fff"/>
    <path id="Path_610" data-name="Path 610" d="M298.334,206.643c-.982-3.461-5.474-3.121-5.474-3.121l.113,2.4c2.605-.453,4.216,2.592,4.216,2.592Z" transform="translate(-13716.52 -11383.557)" fill="#3bb3c1"/>
    <path id="Path_611" data-name="Path 611" d="M263.442,175.012c5.223,1.586,8.469-4.43,8.469-4.43l-3.171-1.812c-1.56,3.687-6.771,3.259-6.771,3.259Z" transform="translate(-13763.398 -11413.928)" fill="#e0e0e0"/>
    <path id="Path_612" data-name="Path 612" d="M240.688,178.88c-2.429.264-2.718,3.31-2.718,3.31l1.623.189c0-1.787,2.227-2.517,2.227-2.517Z" transform="translate(-13718.879 -11403.767)" fill="#3bb3c1"/>
    <path id="Path_625" data-name="Path 625" d="M240.688,178.88c-2.429.264-2.718,3.31-2.718,3.31l1.623.189c0-1.787,2.227-2.517,2.227-2.517Z" transform="translate(-13691.883 -11390.343)" fill="#3bb3c1"/>
    <path id="Path_613" data-name="Path 613" d="M320.308,197.311c.352-2.416-2.517-3.461-2.517-3.461l-.591,1.523c1.737.44,1.9,2.781,1.9,2.781Z" transform="translate(-13710.229 -11386.055)" fill="#e0e0e0"/>
    <path id="Path_614" data-name="Path 614" d="M252.028,154.321c.352-2.416-2.517-3.461-2.517-3.461l-.591,1.535c1.737.44,1.9,2.769,1.9,2.769Z" transform="translate(-13721.001 -11405.975)" fill="#3bb3c1"/>
    <path id="Path_615" data-name="Path 615" d="M203.715,184.906c-.428,3.775,4.581,4.707,4.581,4.707l.906-2.517c-3.008-.277-3.436-3.775-3.436-3.775Z" transform="translate(-13739.566 -11388.775)" fill="#3bb3c1"/>
    <path id="Path_616" data-name="Path 616" d="M292.666,174.342c2.441.138,3.222-2.819,3.222-2.819l-1.573-.453c-.289,1.762-2.605,2.127-2.605,2.127Z" transform="translate(-13719.547 -11412.995)" fill="#3bb3c1"/>
    <g id="Group_662" data-name="Group 662" transform="translate(-13462.533 -11240.126)">
      <g id="Group_661" data-name="Group 661">
        <path id="Path_617" data-name="Path 617" d="M216.767,172.693a10.168,10.168,0,0,1-4.027,0,5.651,5.651,0,0,1,2.014-.189A5.588,5.588,0,0,1,216.767,172.693Z" transform="translate(-212.74 -167.219)" fill="#3bb3c1"/>
        <path id="Path_618" data-name="Path 618" d="M217.681,168.3a10.483,10.483,0,0,1,0,4.09,10.483,10.483,0,0,1,0-4.09Z" transform="translate(-211.515 -168.3)" fill="#3bb3c1"/>
        <path id="Path_619" data-name="Path 619" d="M219.45,172.591a10.168,10.168,0,0,1,4.027,0A10.169,10.169,0,0,1,219.45,172.591Z" transform="translate(-211.006 -167.243)" fill="#3bb3c1"/>
        <path id="Path_620" data-name="Path 620" d="M217.791,177.737a10.419,10.419,0,0,1,0-4.077A10.421,10.421,0,0,1,217.791,177.737Z" transform="translate(-211.487 -166.914)" fill="#3bb3c1"/>
        <path id="Path_621" data-name="Path 621" d="M220.638,175.354c-.088.076-.478-.252-.868-.73s-.654-.906-.566-.982.466.264.868.73S220.714,175.354,220.638,175.354Z" transform="translate(-211.074 -166.922)" fill="#3bb3c1"/>
        <path id="Path_622" data-name="Path 622" d="M220.5,170.106c.076.076-.2.478-.6.894s-.805.68-.881.6.189-.466.6-.881S220.422,169.98,220.5,170.106Z" transform="translate(-211.122 -167.84)" fill="#3bb3c1"/>
        <path id="Path_623" data-name="Path 623" d="M216.812,171.607c-.063.076-.44-.113-.831-.44s-.654-.654-.579-.742.44.113.831.44S216.888,171.519,216.812,171.607Z" transform="translate(-212.055 -167.756)" fill="#3bb3c1"/>
        <path id="Path_624" data-name="Path 624" d="M216.663,173.532c.076.076-.164.466-.529.881s-.742.68-.831.6.164-.466.529-.868S216.575,173.457,216.663,173.532Z" transform="translate(-212.082 -166.95)" fill="#3bb3c1"/>
      </g>
    </g>
    <g id="Group_665" data-name="Group 665" transform="translate(-13486.307 -11207.396)">
      <g id="Group_661-2" data-name="Group 661" transform="translate(0 0)">
        <path id="Path_617-2" data-name="Path 617" d="M215.1,172.606a5.971,5.971,0,0,1-2.365,0,3.318,3.318,0,0,1,1.182-.111A3.282,3.282,0,0,1,215.1,172.606Z" transform="translate(-212.74 -169.392)" fill="#3bb3c1"/>
        <path id="Path_618-2" data-name="Path 618" d="M217.6,168.3a6.156,6.156,0,0,1,0,2.4A6.156,6.156,0,0,1,217.6,168.3Z" transform="translate(-213.977 -168.3)" fill="#3bb3c1"/>
        <path id="Path_619-2" data-name="Path 619" d="M219.45,172.508a5.971,5.971,0,0,1,2.365,0A5.971,5.971,0,0,1,219.45,172.508Z" transform="translate(-214.491 -169.368)" fill="#3bb3c1"/>
        <path id="Path_620-2" data-name="Path 620" d="M217.708,176.054a6.118,6.118,0,0,1,0-2.394A6.118,6.118,0,0,1,217.708,176.054Z" transform="translate(-214.006 -169.699)" fill="#3bb3c1"/>
        <path id="Path_621-2" data-name="Path 621" d="M220.039,174.643c-.052.044-.281-.148-.51-.429s-.384-.532-.333-.576.273.155.51.429S220.083,174.643,220.039,174.643Z" transform="translate(-214.423 -169.692)" fill="#3bb3c1"/>
        <path id="Path_622-2" data-name="Path 622" d="M219.879,170.094c.044.044-.118.281-.355.525s-.473.4-.517.355.111-.273.355-.517S219.835,170.02,219.879,170.094Z" transform="translate(-214.374 -168.764)" fill="#3bb3c1"/>
        <path id="Path_623-2" data-name="Path 623" d="M216.225,171.11c-.037.044-.259-.067-.488-.259s-.384-.384-.34-.436.259.066.488.259S216.269,171.059,216.225,171.11Z" transform="translate(-213.432 -168.849)" fill="#3bb3c1"/>
        <path id="Path_624-2" data-name="Path 624" d="M216.094,173.528c.044.044-.1.273-.31.517s-.436.4-.488.355.1-.273.31-.51S216.043,173.483,216.094,173.528Z" transform="translate(-213.405 -169.663)" fill="#3bb3c1"/>
      </g>
    </g>
  </g>
</svg>
