<svg xmlns="http://www.w3.org/2000/svg" width="42" height="42" viewBox="0 0 42 42">
  <g id="Group_9" data-name="Group 9" transform="translate(-603.5 -1427)">
    <g id="Rectangle_1" data-name="Rectangle 1" transform="translate(603.5 1427)" fill="#fff" stroke="#3bb3c1" stroke-width="1">
      <rect width="42" height="42" rx="14" stroke="none"/>
      <rect x="0.5" y="0.5" width="41" height="41" rx="13.5" fill="none"/>
    </g>
    <g id="price" transform="translate(614.979 1438.479)">
      <path id="Path_1" data-name="Path 1" d="M174.288,411.811a22.681,22.681,0,0,1-2.361,0,2.61,2.61,0,0,1-2.119.626,5.454,5.454,0,0,1-.727-.121c-.625-.161-1.372-.424-2.179-.706-.061-.02-.1-.04-.161-.061a.428.428,0,1,1,.283-.807l.182.061a11.37,11.37,0,0,0,2.684.787c1.231.1,1.756-.525,1.836-1.15a1.017,1.017,0,0,0-.747-1.191,20.434,20.434,0,0,1-2.724-.807,18.736,18.736,0,0,0-2.966-.827,11.526,11.526,0,0,0-4.722.666c-.908.363-1.937.747-2.563.989a.6.6,0,0,0-.343.787l1.493,3.572a.61.61,0,0,0,.787.323l1.009-.424a.775.775,0,0,1,.727.061,19.092,19.092,0,0,0,4.016,2.018c2.3.747,7.547-.807,9.08-1.352a1.246,1.246,0,0,0-.484-2.442Z" transform="translate(-157.618 -396.637)" fill="#3bb3c1"/>
      <path id="Path_2" data-name="Path 2" d="M351.447,161.624a5.287,5.287,0,1,0-5.287-5.287A5.292,5.292,0,0,0,351.447,161.624Zm-.464-7.93v-.646a.13.13,0,0,1,.121-.121h.646a.116.116,0,0,1,.121.121v.646a1.341,1.341,0,0,1,1.251,1.211.135.135,0,0,1-.121.141h-.646a.128.128,0,0,1-.121-.1.455.455,0,0,0-.444-.363h-.565a.678.678,0,0,0-.686.585.641.641,0,0,0,.646.706h.484a1.538,1.538,0,0,1,1.534,1.7,1.584,1.584,0,0,1-1.332,1.372v.686a.116.116,0,0,1-.121.121H351.1a.116.116,0,0,1-.121-.121v-.646a1.341,1.341,0,0,1-1.251-1.211.135.135,0,0,1,.121-.141h.646a.128.128,0,0,1,.121.1.455.455,0,0,0,.444.363h.565a.678.678,0,0,0,.686-.585.641.641,0,0,0-.646-.706h-.4a1.6,1.6,0,0,1-1.614-1.392,1.573,1.573,0,0,1,1.332-1.715Z" transform="translate(-338.126 -151.05)" fill="#3bb3c1"/>
    </g>
  </g>
</svg>
