<svg xmlns="http://www.w3.org/2000/svg" width="76.601" height="61.532" viewBox="0 0 76.601 61.532">
  <path id="homework" d="M207.377,259.124a.871.871,0,0,1,.126,1.235.9.9,0,0,1-1.235.113c-1.783-1.4-10.007-3.032-21.711-3.032a.884.884,0,0,1,0-1.754c11.158,0,20.323,1.376,22.821,3.438Zm-22.821-8.7a.884.884,0,0,0,0,1.754c11.705,0,19.928,1.558,21.711,3.032a.9.9,0,0,0,1.235-.112.871.871,0,0,0-.126-1.235c-2.5-2.063-11.663-3.439-22.821-3.439Zm0,15.789h0a.884.884,0,0,0,0,1.754c11.705,0,19.928,1.558,21.711,3.032a.9.9,0,0,0,1.235-.112.871.871,0,0,0-.126-1.235c-2.5-2.063-11.663-3.439-22.821-3.439Zm0-5.263h0a.884.884,0,0,0,0,1.754c11.705,0,19.928,1.558,21.711,3.032a.9.9,0,0,0,1.235-.113.871.871,0,0,0-.126-1.235c-2.5-2.063-11.663-3.438-22.821-3.438Zm0-15.789h0a.884.884,0,0,0,0,1.754c11.705,0,19.928,1.558,21.711,3.032h0a.9.9,0,0,0,1.235-.112.871.871,0,0,0-.126-1.235c-2.5-2.063-11.663-3.439-22.821-3.439Zm33.431,26.036a.854.854,0,0,0,.561-.2c1.783-1.4,10.007-3.032,21.711-3.032h0a.884.884,0,0,0,0-1.754c-11.228,0-20.336,1.4-22.834,3.438a.884.884,0,0,0-.113,1.235.857.857,0,0,0,.674.308Zm0-5.263h0a.854.854,0,0,0,.561-.2c1.783-1.4,10.007-3.032,21.711-3.032h0a.884.884,0,0,0,0-1.754c-11.228,0-20.336,1.4-22.834,3.439a.884.884,0,0,0-.113,1.235.858.858,0,0,0,.674.309ZM184.556,239.9a.884.884,0,0,0,0,1.754c11.705,0,19.928,1.558,21.711,3.032a.9.9,0,0,0,1.235-.113.871.871,0,0,0-.126-1.235c-2.5-2.063-11.663-3.438-22.821-3.438Zm33.431,20.772a.854.854,0,0,0,.561-.2c1.783-1.4,10.007-3.032,21.711-3.032h0a.884.884,0,0,0,0-1.754c-11.228,0-20.336,1.4-22.834,3.439a.884.884,0,0,0-.113,1.235.858.858,0,0,0,.674.309Zm0-5.263a.854.854,0,0,0,.561-.2c1.783-1.4,10.007-3.032,21.711-3.032h0a.884.884,0,0,0,0-1.754c-11.228,0-20.336,1.4-22.834,3.438h0a.884.884,0,0,0-.113,1.235.857.857,0,0,0,.674.308Zm32.687-22.132v45.683a.884.884,0,0,1-.884.884h-8.828a282.912,282.912,0,0,0-28.589-1.248,282.923,282.923,0,0,0-28.6,1.235h-8.828a.885.885,0,0,1-.871-.885v-45.67a.885.885,0,0,1,.871-.885h3.747v-3.817a.884.884,0,0,1,.884-.871,201.6,201.6,0,0,1,22.863,1.151,51.278,51.278,0,0,1,7.227,1.277,8.985,8.985,0,0,1,2.737,1.108c1.4-.912,5.067-2.133,15.761-2.947l3.018-5.221,1.839-3.172a.853.853,0,0,1,.519-.421.866.866,0,0,1,.673.1l.758.435v-.154a2.889,2.889,0,0,1,1.754-1.4,2.807,2.807,0,0,1,3.228,4.21l-.084.14.758.435a.913.913,0,0,1,.407.533.94.94,0,0,1-.084.674l-1.839,3.172v.07c1.993,0,4.042-.07,6.119-.07a.87.87,0,0,1,.828.954v3.8h3.677a.883.883,0,0,1,.94.9Zm-40.547,43.578a41.66,41.66,0,0,0-8.42-1.572,203.007,203.007,0,0,0-22.176-1.1.884.884,0,0,1-.842-.87V234.187h-2.807v43.9h7.8c6.639-.744,16.2-1.179,26.442-1.235Zm1.4-44.069c-.309-.281-1.937-1.32-9.726-2.232h0a198.682,198.682,0,0,0-21.431-1.081v42.96a200.211,200.211,0,0,1,22.02,1.151,53.511,53.511,0,0,1,7.172,1.305,14.059,14.059,0,0,1,1.866.645Zm24.955-11.874,1.923,1.1.1-.126h0a1.082,1.082,0,0,0,.112-.856,1.123,1.123,0,0,0-.519-.688,1.206,1.206,0,0,0-.856-.112,1.107,1.107,0,0,0-.673.533Zm-3.354,2.3,2.555,1.474,2.414,1.4.941-1.726-4.954-2.807ZM225,237.12l-3.073,5.488,1.081.631,3.873,2.176,5.866-10.161,4.042-7.018.379-.674-2.555-1.474-2.4-1.4-2.807,4.856Zm-3.354,7.326-.126-.085V246.9l1.712.982,2.189-1.263ZM213.23,275.5h0a14.022,14.022,0,0,1,1.951-.617,53.765,53.765,0,0,1,7.242-1.277,200.133,200.133,0,0,1,22.007-1.151V229.47c-2.133,0-4.21,0-6.3.1l-2.976,5.165c1.67,0,3.382-.1,5.109-.1h0a.884.884,0,0,1,0,1.754c-2.091,0-4.21,0-6.161.154l-2.091,3.635c2.61-.182,5.389-.281,8.253-.281h0a.884.884,0,0,1,0,1.754c-3.27,0-6.4.126-9.319.365l-2.133,3.691c3.466-.351,7.382-.547,11.453-.547h0a.884.884,0,0,1,0,1.754,103.949,103.949,0,0,0-13,.744l-6.049,3.495h0a.876.876,0,0,1-.45.127.855.855,0,0,1-.435-.127.884.884,0,0,1-.435-.757v-1.151a4.544,4.544,0,0,0-1.4.7.9.9,0,0,1-1.235-.112.884.884,0,0,1,.112-1.235,7.6,7.6,0,0,1,2.47-1.221V244.01a4.76,4.76,0,0,0-1.4.7.9.9,0,0,1-1.235-.113.884.884,0,0,1,.112-1.235,8.425,8.425,0,0,1,2.807-1.4l2.358-4.07a10.579,10.579,0,0,0-4.1,1.5.9.9,0,0,1-1.235-.112.884.884,0,0,1,.113-1.235,15.341,15.341,0,0,1,6.386-2.19l3.313-5.726c-9.951.828-13.249,2.091-13.81,2.61Zm35.635-41.317h-2.807v39.128a.87.87,0,0,1-.87.87,203.075,203.075,0,0,0-22.231,1.1,42.2,42.2,0,0,0-8.421,1.572,255.9,255.9,0,0,1,26.512,1.235h7.817Zm-64.392.491a.884.884,0,0,0,0,1.754c11.705,0,19.928,1.558,21.711,3.032a.9.9,0,0,0,1.235-.113.869.869,0,0,0-.126-1.235c-2.5-2.063-11.663-3.439-22.821-3.439Z" transform="translate(-174.074 -218.309)" fill="#3bb3c1"/>
</svg>
