<svg xmlns="http://www.w3.org/2000/svg" width="64" height="64" viewBox="0 0 64 64">
    <g fill="none" fill-rule="evenodd">
        <g>
            <g>
                <g>
                    <g transform="translate(-209 -3743) translate(1 3239) translate(208 501) translate(0 3)">
                        <rect width="64" height="64" fill="#FAFAFA" rx="16"/>
                        <g fill="#FF554B" fill-rule="nonzero">
                            <path d="M18 33C9.75 33 3 26.25 3 18S9.75 3 18 3s15 6.75 15 15-6.75 15-15 15zm0-28.5c-7.5 0-13.5 6-13.5 13.5s6 13.5 13.5 13.5 13.5-6 13.5-13.5S25.5 4.5 18 4.5z" transform="translate(14 14)"/>
                            <path d="M18 7.5c-.45 0-.75-.3-.75-.75v-6c0-.45.3-.75.75-.75s.75.3.75.75v6c0 .45-.3.75-.75.75z" transform="translate(14 14)"/>
                            <path d="M18 7.5c-.45 0-.75-.3-.75-.75v-6c0-.45.3-.75.75-.75s.75.3.75.75v6c0 .45-.3.75-.75.75zM35.25 18.75h-6c-.45 0-.75-.3-.75-.75s.3-.75.75-.75h6c.45 0 .75.3.75.75s-.3.75-.75.75zM18 36c-.45 0-.75-.3-.75-.75v-6c0-.45.3-.75.75-.75s.75.3.75.75v6c0 .45-.3.75-.75.75zM6.75 18.75h-6c-.45 0-.75-.3-.75-.75s.3-.75.75-.75h6c.45 0 .75.3.75.75s-.3.75-.75.75zM18 16.5c-1.65 0-3-1.35-3-3s1.35-3 3-3 3 1.35 3 3-1.35 3-3 3zm0-4.5c-.9 0-1.5.6-1.5 1.5S17.1 15 18 15s1.5-.6 1.5-1.5S18.9 12 18 12zM23.25 24c-.45 0-.75-.3-.75-.75v-1.5c0-1.2-1.05-2.25-2.25-2.25h-4.5c-1.2 0-2.25 1.05-2.25 2.25v1.5c0 .45-.3.75-.75.75s-.75-.3-.75-.75v-1.5c0-2.1 1.65-3.75 3.75-3.75h4.5c2.1 0 3.75 1.65 3.75 3.75v1.5c0 .45-.3.75-.75.75z" transform="translate(14 14)"/>
                        </g>
                    </g>
                </g>
            </g>
        </g>
    </g>
</svg>
