<svg xmlns="http://www.w3.org/2000/svg" width="30" height="30" viewBox="0 0 30 30">
    <g fill="none" fill-rule="evenodd">
        <g fill="#9A968F" fill-rule="nonzero">
            <g>
                <g>
                    <g>
                        <g>
                            <path d="M10 15c0-2.761 2.239-5 5-5s5 2.239 5 5-2.239 5-5 5-5-2.239-5-5m-2.702 0c0 4.254 3.448 7.702 7.702 7.702s7.702-3.448 7.702-7.702S19.254 7.298 15 7.298 7.298 10.746 7.298 15m13.91-8.008c-.001.994.804 1.8 1.799 1.801.994 0 1.8-.805 1.8-1.8 0-.993-.805-1.8-1.799-1.8-.994 0-1.8.806-1.8 1.8M8.94 27.21c-1.462-.067-2.257-.31-2.786-.516-.7-.273-1.2-.598-1.725-1.122-.525-.525-.85-1.024-1.122-1.725-.206-.528-.45-1.323-.516-2.785-.073-1.581-.087-2.056-.087-6.062s.016-4.48.087-6.062c.067-1.462.312-2.256.516-2.785.273-.7.597-1.2 1.122-1.726.525-.525 1.024-.85 1.725-1.122.528-.206 1.324-.45 2.786-.516 1.581-.072 2.056-.087 6.06-.087s4.48.016 6.062.087c1.462.067 2.256.312 2.785.516.7.272 1.2.598 1.726 1.122.525.525.85 1.025 1.122 1.726.206.528.45 1.323.516 2.785.072 1.583.087 2.056.087 6.062s-.015 4.48-.087 6.062c-.067 1.462-.312 2.257-.516 2.785-.273.7-.598 1.2-1.122 1.725-.525.524-1.025.849-1.726 1.122-.528.206-1.323.45-2.785.516-1.581.072-2.056.087-6.062.087s-4.48-.015-6.06-.087M8.816.09C7.219.165 6.128.418 5.175.789c-.987.382-1.822.896-2.657 1.73-.835.833-1.348 1.67-1.73 2.657-.371.953-.624 2.044-.697 3.64C.017 10.416 0 10.927 0 15s.017 4.585.09 6.184c.074 1.597.327 2.688.698 3.641.382.986.895 1.824 1.73 2.657.834.833 1.67 1.346 2.657 1.73.955.371 2.044.624 3.64.697 1.601.073 2.111.091 6.185.091s4.585-.017 6.184-.09c1.597-.074 2.688-.327 3.641-.698.986-.384 1.822-.896 2.657-1.73.835-.833 1.346-1.67 1.73-2.657.371-.953.626-2.044.697-3.64.073-1.601.09-2.111.09-6.185s-.017-4.585-.09-6.184c-.073-1.597-.326-2.688-.697-3.641-.384-.986-.896-1.822-1.73-2.657-.833-.835-1.67-1.348-2.656-1.73-.954-.371-2.045-.626-3.64-.697C19.585.018 19.074 0 15 0c-4.073 0-4.585.017-6.185.09" transform="translate(-1224 -5879) translate(0 5409) translate(210 76) translate(906 394) translate(108)"/>
                        </g>
                    </g>
                </g>
            </g>
        </g>
    </g>
</svg>
