<svg xmlns="http://www.w3.org/2000/svg" width="16" height="16" viewBox="0 0 16 16">
    <g fill="none" fill-rule="evenodd">
        <g>
            <g>
                <g>
                    <path d="M0 0L16 0 16 16 0 16z" transform="translate(-1123 -38) translate(1114 23) translate(9 15)"/>
                    <path fill="#000" fill-rule="nonzero" d="M1.367 8.667h3.651c.114 2.11.787 4.154 1.95 5.92-2.996-.47-5.297-2.903-5.601-5.92zm0-1.334c.304-3.017 2.605-5.45 5.601-5.92-1.163 1.766-1.836 3.81-1.95 5.92H1.367zm13.266 0h-3.651c-.114-2.11-.787-4.154-1.95-5.92 2.996.47 5.297 2.903 5.601 5.92zm0 1.334c-.304 3.017-2.605 5.45-5.601 5.92 1.163-1.766 1.836-3.81 1.95-5.92h3.652zm-8.28 0h3.294c-.11 1.8-.677 3.541-1.647 5.061-.97-1.52-1.537-3.262-1.647-5.061zm0-1.334c.11-1.8.677-3.541 1.647-5.061.97 1.52 1.537 3.262 1.647 5.061H6.353z" transform="translate(-1123 -38) translate(1114 23) translate(9 15)"/>
                </g>
            </g>
        </g>
    </g>
</svg>
