<svg xmlns="http://www.w3.org/2000/svg" width="42" height="42" viewBox="0 0 42 42">
  <g id="Group_11" data-name="Group 11" transform="translate(-1017.5 -1679.069)">
    <g id="Group_6" data-name="Group 6" transform="translate(414 252.069)">
      <g id="Rectangle_1" data-name="Rectangle 1" transform="translate(603.5 1427)" fill="#fff" stroke="#3bb3c1" stroke-width="1">
        <rect width="42" height="42" rx="14" stroke="none"/>
        <rect x="0.5" y="0.5" width="41" height="41" rx="13.5" fill="none"/>
      </g>
    </g>
    <g id="like" transform="translate(1023.014 1687.393)">
      <path id="Path_3" data-name="Path 3" d="M10,37.837l-.033-10.3a.481.481,0,0,0-.5-.433H7.7a.484.484,0,0,0-.5.467l.033,10.3a.481.481,0,0,0,.5.433H9.5A.535.535,0,0,0,10,37.837Z" transform="translate(0 -16.072)" fill="#3bb3c1"/>
      <path id="Path_4" data-name="Path 4" d="M28.9,22.331a1.266,1.266,0,0,0,1.267-1.267v-.133a1.605,1.605,0,0,0-.233-.8.7.7,0,0,1-.133-.367V19.23a.588.588,0,0,1,.267-.5,1.359,1.359,0,0,0,.533-1.1,1.407,1.407,0,0,0-.533-1.1.633.633,0,0,1-.267-.5h0a.648.648,0,0,1,.267-.533,1.376,1.376,0,0,0,.634-1.134h0a1.3,1.3,0,0,0-.634-1.134A.7.7,0,0,1,29.8,12.7v-.2a.7.7,0,0,1,.167-.433,1.356,1.356,0,0,0,.4-.967v-.1A1.266,1.266,0,0,0,29.1,9.728H26.3l-.967-.033h-.267c-.067,0-.1-.067-.067-.1a3.4,3.4,0,0,0,.5-.834,10.84,10.84,0,0,0,.367-1.4,7.541,7.541,0,0,0,0-2.868,2.138,2.138,0,0,0-1.934-1.5,1.157,1.157,0,0,0-.767.4,1.586,1.586,0,0,0-.233.767,8.988,8.988,0,0,1-.133.934,9.27,9.27,0,0,1-.567,1.867c-.834,2-2.634,2.767-4.2,4.2a1.446,1.446,0,0,0-.433,1l.033,7.869a2.326,2.326,0,0,0,1.934,2.3h0c.067,0,.133.033.2.033H19.8C22.335,22.365,28.9,22.331,28.9,22.331Z" transform="translate(-6.932)" fill="#3bb3c1"/>
    </g>
  </g>
</svg>
