<svg xmlns="http://www.w3.org/2000/svg" width="30" height="30" viewBox="0 0 30 30">
    <g fill="none" fill-rule="evenodd">
        <g fill="#9A968F" fill-rule="nonzero">
            <g>
                <g>
                    <g>
                        <g>
                            <path d="M15 .002C6.717.002.002 6.717.002 15S6.717 29.998 15 29.998 29.999 23.283 29.999 15 23.283.002 15 .002zm-4.002 22.25H7.705v-10.64h3.293v10.64zM9.336 10.218c-1.075 0-1.947-.88-1.947-1.963 0-1.084.872-1.963 1.947-1.963 1.076 0 1.947.879 1.947 1.963s-.871 1.963-1.947 1.963zM23.34 22.25h-3.277v-5.584c0-1.532-.582-2.387-1.793-2.387-1.318 0-2.007.89-2.007 2.387v5.584h-3.158V11.612h3.158v1.433s.95-1.757 3.206-1.757c2.256 0 3.871 1.377 3.871 4.227v6.736z" transform="translate(-1281 -5879) translate(0 5409) translate(210 76) translate(906 394) translate(165)"/>
                        </g>
                    </g>
                </g>
            </g>
        </g>
    </g>
</svg>
