<svg xmlns="http://www.w3.org/2000/svg" xmlns:xlink="http://www.w3.org/1999/xlink" width="24" height="24" viewBox="0 0 24 24">
    <defs>
        <path id="bpepz2v18a" d="M0 0L24 0 24 24 0 24z"/>
    </defs>
    <g fill="none" fill-rule="evenodd">
        <g>
            <g>
                <g>
                    <g transform="translate(-410 -1533) translate(210 1336) translate(20 72) translate(180 125)">
                        <mask id="r1xcupkdbb" fill="#fff">
                            <use xlink:href="#bpepz2v18a"/>
                        </mask>
                        <path fill="#2996D3" d="M12 0C5.374 0 0 5.374 0 12s5.374 12 12 12 12-5.374 12-12S18.626 0 12 0zM5.59 18.14h2.923V9.349H5.59v8.793zm1.462-9.993h-.02c-.98 0-1.614-.675-1.614-1.518 0-.863.653-1.52 1.653-1.52s1.615.657 1.634 1.52c0 .843-.634 1.518-1.653 1.518zm11.999 9.994h-2.922v-4.704c0-1.182-.423-1.989-1.48-1.989-.808 0-1.289.544-1.5 1.07-.077.187-.096.45-.096.712v4.91H10.13s.039-7.967 0-8.792h2.923v1.245c.388-.6 1.083-1.451 2.633-1.451 1.923 0 3.365 1.256 3.365 3.957v5.042z" mask="url(#r1xcupkdbb)"/>
                    </g>
                </g>
            </g>
        </g>
    </g>
</svg>
