<svg xmlns="http://www.w3.org/2000/svg" width="281.255" height="292" viewBox="0 0 281.255 292">
  <g id="loading" transform="translate(-160.98 -152.753)">
    <path id="Path_709" data-name="Path 709" d="M460.5,207.116A10.5,10.5,0,1,0,471.026,196.5,10.564,10.564,0,0,0,460.5,207.116Z" transform="translate(-103.633 -15.137)" fill="#3bb3c1"/>
    <path id="Path_710" data-name="Path 710" d="M531.12,277.683a10.509,10.509,0,1,0,10.5-10.617,10.573,10.573,0,0,0-10.5,10.617Z" transform="translate(-128.067 -39.552)" fill="#3bb3c1"/>
    <path id="Path_711" data-name="Path 711" d="M579.009,374a11.361,11.361,0,1,1-11.361-11.484A11.424,11.424,0,0,1,579.009,374" transform="translate(-136.775 -72.579)" fill="#3bb3c1"/>
    <path id="Path_712" data-name="Path 712" d="M553.562,469.837a13.542,13.542,0,1,1-13.54-13.691,13.616,13.616,0,0,1,13.54,13.691" transform="translate(-126.461 -104.973)" fill="#3bb3c1"/>
    <path id="Path_713" data-name="Path 713" d="M455.88,541.287A13.542,13.542,0,1,0,469.433,527.6,13.642,13.642,0,0,0,455.88,541.287Z" transform="translate(-102.034 -129.694)" fill="#3bb3c1"/>
    <path id="Path_714" data-name="Path 714" d="M357.82,567.978a15.035,15.035,0,1,0,15.047-15.183A15.124,15.124,0,0,0,357.82,567.978Z" transform="translate(-68.106 -138.413)" fill="#3bb3c1"/>
    <path id="Path_715" data-name="Path 715" d="M291.859,540.484a15.029,15.029,0,1,1-15.027-15.208,15.119,15.119,0,0,1,15.027,15.208" transform="translate(-34.884 -128.891)" fill="#3bb3c1"/>
    <path id="Path_716" data-name="Path 716" d="M187.16,467.934a17.138,17.138,0,1,0,17.127-17.288A17.239,17.239,0,0,0,187.16,467.934Z" transform="translate(-9.058 -103.07)" fill="#3bb3c1"/>
    <path id="Path_717" data-name="Path 717" d="M160.98,370.923a17.128,17.128,0,1,0,17.127-17.308A17.227,17.227,0,0,0,160.98,370.923Z" transform="translate(0 -69.497)" fill="#3bb3c1"/>
    <path id="Path_718" data-name="Path 718" d="M183.17,272.728a19.759,19.759,0,1,0,19.743-19.983A19.845,19.845,0,0,0,183.17,272.728Z" transform="translate(-7.678 -34.597)" fill="#3bb3c1"/>
    <path id="Path_719" data-name="Path 719" d="M254.57,202.168A19.761,19.761,0,1,0,274.323,182.2a19.858,19.858,0,0,0-19.753,19.965Z" transform="translate(-32.382 -10.19)" fill="#3bb3c1"/>
    <path id="Path_720" data-name="Path 720" d="M347.92,174.484a21.5,21.5,0,1,0,21.521-21.731A21.624,21.624,0,0,0,347.92,174.484Z" transform="translate(-64.68)" fill="#3bb3c1"/>
  </g>
</svg>
