<svg xmlns="http://www.w3.org/2000/svg" width="24" height="24" viewBox="0 0 24 24">
    <g fill="none" fill-rule="evenodd">
        <g>
            <g>
                <g>
                    <g>
                        <path d="M0 0L24 0 24 24 0 24z" transform="translate(-1408 -28) translate(340) translate(1068 20) translate(0 8)"/>
                        <path fill="#000" fill-rule="nonzero" d="M3 3h18c.552 0 1 .448 1 1v16c0 .552-.448 1-1 1H3c-.552 0-1-.448-1-1V4c0-.552.448-1 1-1zm17 4.238l-7.928 7.1L4 7.216V19h16V7.238zM4.511 5l7.55 6.662L19.502 5H4.511z" transform="translate(-1408 -28) translate(340) translate(1068 20) translate(0 8)"/>
                    </g>
                </g>
            </g>
        </g>
    </g>
</svg>
