<svg xmlns="http://www.w3.org/2000/svg" width="24" height="24" viewBox="0 0 24 24">
    <g fill="none" fill-rule="evenodd" opacity=".8">
        <g>
            <g>
                <g>
                    <g>
                        <path d="M0 0L24 0 24 24 0 24z" transform="translate(-40 -359) translate(0 232) translate(40 125) translate(0 2)"/>
                        <path fill="#FFF" fill-rule="nonzero" d="M2.243 6.854L11.49 1.31c.317-.19.712-.19 1.029 0l9.238 5.545c.15.09.243.253.243.429V20c0 .552-.448 1-1 1H3c-.552 0-1-.448-1-1V7.283c0-.176.092-.339.243-.429zm16.103 1.39l-6.285 5.439-6.414-5.445-1.294 1.524 7.72 6.555 7.581-6.56-1.308-1.513z" transform="translate(-40 -359) translate(0 232) translate(40 125) translate(0 2)"/>
                    </g>
                </g>
            </g>
        </g>
    </g>
</svg>
