<svg xmlns="http://www.w3.org/2000/svg" width="49.088" height="38.031" viewBox="0 0 49.088 38.031">
  <g id="mastercard-svgrepo-com" transform="translate(0.23 -0.018)">
    <path id="Path_786" data-name="Path 786" d="M163.967,371.813v-2.527a1.471,1.471,0,0,0-1.558-1.6,1.664,1.664,0,0,0-1.432.712,1.465,1.465,0,0,0-1.347-.712,1.431,1.431,0,0,0-1.22.59v-.508h-.8v4.043h.8V369.5a.944.944,0,0,1,1.011-1.052c.59,0,.926.379.926,1.052v2.316h.8V369.5a.944.944,0,0,1,1.011-1.052c.59,0,.926.379.926,1.052v2.316Zm13.14-4h-1.474v-1.22h-.8v1.22h-.842v.712h.842v1.9c0,.926.337,1.474,1.347,1.474a2.356,2.356,0,0,0,1.093-.295l-.253-.712a1.385,1.385,0,0,1-.759.21.589.589,0,0,1-.631-.674v-1.936h1.474v-.674Zm7.5-.126a1.26,1.26,0,0,0-1.1.59v-.508h-.8v4.043h.8V369.54c0-.674.337-1.1.885-1.1a2.465,2.465,0,0,1,.547.084l.253-.759A2.844,2.844,0,0,0,184.6,367.686Zm-11.329.421a2.89,2.89,0,0,0-1.642-.421c-1.011,0-1.642.464-1.642,1.264,0,.674.464,1.052,1.347,1.18l.421.042c.464.084.759.253.759.464,0,.295-.337.508-.969.508a2.221,2.221,0,0,1-1.347-.421l-.421.631a3.061,3.061,0,0,0,1.729.508c1.18,0,1.811-.547,1.811-1.306,0-.712-.508-1.052-1.39-1.18l-.421-.042c-.379-.042-.712-.169-.712-.421,0-.295.337-.508.8-.508a3.031,3.031,0,0,1,1.264.337Zm12.213,1.685a1.99,1.99,0,0,0,2.106,2.106,2.091,2.091,0,0,0,1.432-.464l-.421-.631a1.7,1.7,0,0,1-1.052.379,1.348,1.348,0,0,1,0-2.691,1.7,1.7,0,0,1,1.052.379l.421-.631a2.1,2.1,0,0,0-1.432-.464,1.9,1.9,0,0,0-2.106,2.022h0Zm-5.643-2.106a1.937,1.937,0,0,0-1.98,2.106,1.978,1.978,0,0,0,2.063,2.106,2.576,2.576,0,0,0,1.642-.547l-.421-.59a2.012,2.012,0,0,1-1.18.421,1.181,1.181,0,0,1-1.22-1.052h2.991v-.337a1.9,1.9,0,0,0-1.9-2.106h0Zm-.042.759a1.006,1.006,0,0,1,1.052,1.011h-2.189A1.141,1.141,0,0,1,179.8,368.445Zm-10.908,1.347V367.77h-.8v.508a1.543,1.543,0,0,0-1.306-.59,2.11,2.11,0,0,0,0,4.212,1.548,1.548,0,0,0,1.306-.59v.508h.8Zm-3.243,0a1.246,1.246,0,1,1,1.264,1.347A1.218,1.218,0,0,1,165.652,369.792Zm31.123-2.106a1.26,1.26,0,0,0-1.1.59v-.508h-.8v4.043h.8V369.54c0-.674.337-1.1.885-1.1a2.465,2.465,0,0,1,.547.084l.253-.759a2.844,2.844,0,0,0-.59-.084Zm-3.117,2.106V367.77h-.8v.508a1.543,1.543,0,0,0-1.306-.59,2.11,2.11,0,0,0,0,4.212,1.548,1.548,0,0,0,1.306-.59v.508h.8Zm-3.243,0a1.246,1.246,0,1,1,1.264,1.347A1.218,1.218,0,0,1,190.416,369.792Zm11.371,0V366.17h-.8v2.106a1.543,1.543,0,0,0-1.306-.59,2.11,2.11,0,0,0,0,4.212,1.548,1.548,0,0,0,1.306-.59v.508h.8Zm-3.243,0a1.246,1.246,0,1,1,1.264,1.347,1.217,1.217,0,0,1-1.265-1.347Z" transform="translate(-155.289 -333.852)"/>
    <g id="Group_2229" data-name="Group 2229" transform="translate(-0.231 0.018)">
      <rect id="Rectangle_136" data-name="Rectangle 136" width="14.614" height="23.837" transform="translate(17.29 3.241)" fill="#ff5f00"/>
      <path id="Path_787" data-name="Path 787" d="M151.274,63.677a15.2,15.2,0,0,1,5.767-11.916,15.161,15.161,0,1,0,0,23.835,15.2,15.2,0,0,1-5.77-11.918Z" transform="translate(-132.509 -48.518)" fill="#eb001b"/>
      <path id="Path_788" data-name="Path 788" d="M398.766,63.7A15.146,15.146,0,0,1,374.26,75.616a15.195,15.195,0,0,0,0-23.837A15.146,15.146,0,0,1,398.766,63.7Z" transform="translate(-349.678 -48.538)" fill="#f79e1b"/>
    </g>
  </g>
</svg>
