<svg xmlns="http://www.w3.org/2000/svg" width="64" height="64" viewBox="0 0 64 64">
    <g fill="none" fill-rule="evenodd">
        <g>
            <g>
                <g>
                    <g transform="translate(-584 -3743) translate(1 3239) translate(583 501) translate(0 3)">
                        <rect width="64" height="64" fill="#FAFAFA" rx="16"/>
                        <g fill="#BE63F9" fill-rule="nonzero">
                            <path d="M35.25 17.25c.42 0 .75.33.75.75s-.33.75-.75.75h-.75v-1.5h.75zM18.75 17.25L34.5 17.25 34.5 18.75 18.75 18.75z" transform="translate(14 14)"/>
                            <path d="M32.25 36H18c.42 0 .75-.33.75-.75v-.75h13.5c1.245 0 2.25-1.005 2.25-2.25v-13.5h.75c.42 0 .75-.33.75-.75v14.25c0 2.07-1.68 3.75-3.75 3.75zM36 3.75V18c0-.42-.33-.75-.75-.75h-.75V3.75c0-1.245-1.005-2.25-2.25-2.25h-13.5V.75c0-.42-.33-.75-.75-.75h14.25C34.32 0 36 1.68 36 3.75z" transform="translate(14 14)"/>
                            <path d="M30 9c.42 0 .75.33.75.75s-.33.75-.75.75h-6c-.42 0-.75-.33-.75-.75S23.58 9 24 9h6zM30 24c.42 0 .75.33.75.75s-.33.75-.75.75h-6c-.42 0-.75-.33-.75-.75s.33-.75.75-.75h6zM30 28.5c.42 0 .75.33.75.75s-.33.75-.75.75h-6c-.42 0-.75-.33-.75-.75s.33-.75.75-.75h6zM18.75 34.5v.75c0 .42-.33.75-.75.75s-.75-.33-.75-.75v-.75h1.5zM17.25 18.75L18.75 18.75 18.75 34.5 17.25 34.5zM17.25 17.25L18.75 17.25 18.75 18.75 17.25 18.75zM17.25 1.5L18.75 1.5 18.75 17.25 17.25 17.25zM18.75.75v.75h-1.5V.75c0-.42.33-.75.75-.75s.75.33.75.75zM1.5 17.25L17.25 17.25 17.25 18.75 1.5 18.75zM12 9c.42 0 .75.33.75.75s-.33.75-.75.75H9.75V9H12zM11.775 28.725c.3.285.3.765 0 1.05-.135.15-.33.225-.525.225s-.39-.075-.525-.225L9 28.05 10.05 27l1.725 1.725zM10.725 24.225c.285-.3.765-.3 1.05 0 .3.285.3.765 0 1.05L10.05 27 9 25.95l1.725-1.725z" transform="translate(14 14)"/>
                            <path d="M8.253 26.256L9.738 26.256 9.738 27.741 8.253 27.741z" transform="translate(14 14) rotate(-45 8.995 26.998)"/>
                            <path d="M9.75 10.5v2.25c0 .42-.33.75-.75.75s-.75-.33-.75-.75V10.5h1.5zM8.25 9L9.75 9 9.75 10.5 8.25 10.5zM9.75 6.75V9h-1.5V6.75c0-.42.33-.75.75-.75s.75.33.75.75zM9 25.95L7.95 27l-1.725-1.725c-.3-.285-.3-.765 0-1.05.285-.3.765-.3 1.05 0L9 25.95zM8.25 9v1.5H6c-.42 0-.75-.33-.75-.75S5.58 9 6 9h2.25zM7.275 29.775c-.135.15-.33.225-.525.225s-.39-.075-.525-.225c-.3-.285-.3-.765 0-1.05L7.95 27 9 28.05l-1.725 1.725zM1.5 17.25v1.5H.75c-.42 0-.75-.33-.75-.75s.33-.75.75-.75h.75z" transform="translate(14 14)"/>
                            <path d="M0 3.75C0 1.68 1.68 0 3.75 0H18c-.42 0-.75.33-.75.75v.75H3.75C2.505 1.5 1.5 2.505 1.5 3.75v13.5H.75c-.42 0-.75.33-.75.75V3.75zM1.5 32.25c0 1.245 1.005 2.25 2.25 2.25h13.5v.75c0 .42.33.75.75.75H3.75C1.68 36 0 34.32 0 32.25V18c0 .42.33.75.75.75h.75v13.5z" transform="translate(14 14)"/>
                        </g>
                    </g>
                </g>
            </g>
        </g>
    </g>
</svg>
