<svg width="50" height="50" viewBox="0 0 50 50" fill="none" xmlns="http://www.w3.org/2000/svg">
<path d="M49.4746 39.0251L39.1574 28.8207L26.8462 37.1842L39.0251 49.4745C39.4472 49.8965 40.0797 50.0163 40.6185 49.7914C41.1653 49.5659 41.5209 49.0319 41.5209 48.4409V41.5208H48.4409C49.032 41.5208 49.566 41.1639 49.7915 40.6184C50.0185 40.0716 49.8929 39.4434 49.4746 39.0251Z" fill="#E62E2E"/>
<path d="M10.6329 28.9319L0.428638 39.025C0.0103143 39.4433 -0.115319 40.0715 0.111679 40.6184C0.337215 41.1652 0.871231 41.5207 1.46226 41.5207H8.38234V48.4408C8.38234 49.0318 8.7378 49.5659 9.28468 49.7914C9.82396 50.0164 10.4565 49.8958 10.8781 49.4744L23.8108 36.4304L10.6329 28.9319Z" fill="#FF6673"/>
<path d="M46.4531 20.9938L42.7239 17.2646L44.0888 12.1719C44.2973 11.3924 43.8347 10.59 43.0552 10.3816L37.9625 9.01665L36.5976 3.92396C36.3877 3.14161 35.5924 2.68469 34.8072 2.89034L29.7144 4.25525L25.9853 0.428546C25.6997 0.142971 25.3256 0.000183105 24.9517 0.000183105C24.5777 0.000183105 24.2035 0.142971 23.918 0.428546L20.1888 4.25525L15.0961 2.89034C14.3237 2.68615 13.5156 3.14443 13.3058 3.92396L11.9408 9.01665L6.84815 10.3816C6.06862 10.59 5.60605 11.3924 5.81453 12.1719L7.17944 17.2646L3.4502 20.9938C2.87915 21.5649 2.87915 22.4901 3.4502 23.0612L7.17944 26.7904L5.81443 31.883C5.60595 32.6626 6.06852 33.4649 6.84806 33.6734L11.9407 35.0383L13.3057 40.131C13.5155 40.9133 14.3208 41.3731 15.096 41.1646L20.1887 39.7997L23.9179 43.5289C24.2035 43.8145 24.5776 43.9573 24.9516 43.9573C25.3255 43.9573 25.6997 43.8145 25.9852 43.5289L29.7144 39.7997L34.8071 41.1646C35.5952 41.3759 36.389 40.9133 36.5975 40.131L37.9624 35.0383L43.0551 33.6734C43.8346 33.4649 44.2972 32.6626 44.0887 31.883L42.7238 26.7903L46.453 23.0611C47.0242 22.49 47.0242 21.5649 46.4531 20.9938Z" fill="#FFBE40"/>
<path d="M29.7144 39.7998L34.8071 41.1647C35.5952 41.376 36.389 40.9134 36.5975 40.1311L37.9624 35.0384L43.0551 33.6735C43.8346 33.465 44.2972 32.6627 44.0887 31.8831L42.7238 26.7904L46.453 23.0612C47.0241 22.4901 47.0241 21.5649 46.453 20.9938L42.7238 17.2646L44.0887 12.1719C44.2972 11.3924 43.8346 10.59 43.0551 10.3816L37.9624 9.01665L36.5976 3.92396C36.3877 3.14161 35.5924 2.68469 34.8072 2.89034L29.7144 4.25525L25.9853 0.428546C25.6997 0.142971 25.3256 0.000183105 24.9517 0.000183105V43.9573C25.3257 43.9573 25.6998 43.8145 25.9853 43.5289L29.7144 39.7998Z" fill="#FF9F40"/>
<circle cx="24.9515" cy="22.0275" r="13.1579" fill="#FFDF40"/>
<path d="M38.1094 22.0275C38.1094 14.7718 32.2072 8.86957 24.9515 8.86957V35.1854C32.2073 35.1854 38.1094 29.2832 38.1094 22.0275Z" fill="#FFBE40"/>
<path d="M32.4186 20.1429C32.2459 19.6132 31.789 19.2277 31.2379 19.1478L27.8 18.6481L26.2624 15.5328C26.0168 15.0331 25.4843 14.7833 24.9518 14.7833C24.4192 14.7833 23.8867 15.0331 23.6411 15.5328L22.1035 18.6481L18.6656 19.1478C18.1145 19.2277 17.6576 19.6132 17.4849 20.1429C17.3136 20.6712 17.4563 21.2523 17.8547 21.6406L20.3432 24.0663L19.7563 27.49C19.6621 28.0382 19.8877 28.5922 20.3374 28.9191C20.7886 29.2503 21.3882 29.2917 21.8765 29.0305L24.9519 27.4158L28.0272 29.0305C28.5125 29.2877 29.1132 29.25 29.5663 28.9191C30.016 28.5922 30.2416 28.0382 30.1474 27.49L29.5605 24.0663L32.049 21.6406C32.4472 21.2523 32.5899 20.6712 32.4186 20.1429Z" fill="#FFBE40"/>
<path d="M29.566 28.9191C30.0157 28.5922 30.2413 28.0382 30.1471 27.49L29.5602 24.0663L32.0487 21.6406C32.4471 21.2523 32.5899 20.6712 32.4185 20.1429C32.2458 19.6132 31.7889 19.2277 31.2378 19.1478L27.7999 18.6481L26.2623 15.5328C26.0167 15.0331 25.4842 14.7833 24.9517 14.7833V27.4157L28.027 29.0304C28.5122 29.2877 29.1129 29.25 29.566 28.9191Z" fill="#FF9F40"/>
</svg>
