<svg xmlns="http://www.w3.org/2000/svg" width="24" height="24" viewBox="0 0 24 24">
    <g fill="none" fill-rule="evenodd">
        <g>
            <g>
                <g>
                    <g>
                        <path d="M0 0L24 0 24 24 0 24z" transform="translate(-1464 -28) translate(340) translate(1068 20) translate(56 8)"/>
                        <path fill="#000" fill-rule="nonzero" d="M20 17h2v2H2v-2h2v-7c0-4.418 3.582-8 8-8s8 3.582 8 8v7zm-2 0v-7c0-3.314-2.686-6-6-6s-6 2.686-6 6v7h12zm-9 4h6v2H9v-2z" transform="translate(-1464 -28) translate(340) translate(1068 20) translate(56 8)"/>
                    </g>
                </g>
            </g>
        </g>
    </g>
</svg>
