<svg xmlns="http://www.w3.org/2000/svg" width="74" height="74" viewBox="0 0 74 74">
    <g fill="none" fill-rule="evenodd">
        <g>
            <g>
                <g>
                    <g transform="translate(-363 -909) translate(210 717) translate(0 147) translate(153 45)">
                        <rect width="74" height="74" fill="#F8F8F8" rx="12"/>
                        <g>
                            <path d="M0 0L33 0 33 33 0 33z" transform="translate(21 21)"/>
                            <path fill="#3BB3C1" d="M8.69 11.707c5.848.825 10.421-1.306 13.606-6.365.016-.025.03-.051.044-.078 1.226 1.38 1.97 3.196 1.97 5.186v2.86c0 2.89-1.585 5.49-4.042 6.843-.32-.223-.709-.353-1.128-.353-1.094 0-1.98.886-1.98 1.98 0 1.094.886 1.98 1.98 1.98.554 0 1.055-.227 1.414-.594-.536 1.682-2.148 2.904-4.054 2.904-2.341 0-4.24-1.844-4.243-4.12l.626-1.716c-2.543-1.33-4.193-3.975-4.193-6.924v-1.603zm.016-1.753C8.96 5.872 12.353 2.64 16.5 2.64c1.748 0 3.362.574 4.663 1.544-.04.041-.077.088-.11.14-2.866 4.553-6.917 6.422-12.27 5.637-.026-.004-.052-.006-.077-.007zm1.92 12.86c.432 2.777 2.897 4.906 5.874 4.906s5.443-2.13 5.873-4.908l3.165.639c1.258.245 2.26 1.196 2.57 2.438l.913 3.65c.104.417-.211.821-.64.821H4.62c-.43 0-.745-.404-.641-.82l.912-3.646c.311-1.246 1.317-2.198 2.571-2.439l3.164-.64z" transform="translate(21 21)"/>
                            <path fill="#1565D8" d="M19.14 22.44c.365 0 .66-.295.66-.66 0-.365-.295-.66-.66-.66-.365 0-.66.295-.66.66 0 .365.295.66.66.66z" opacity=".3" transform="translate(21 21)"/>
                            <path fill="#3BB3C1" d="M25.55 9.24h.19c1.094 0 1.98.886 1.98 1.98v2.64c0 1.094-.886 1.98-1.98 1.98h-.466c.233-.81.356-1.66.356-2.53v-2.86c0-.41-.027-.814-.08-1.21zM7.727 15.84H7.26c-1.094 0-1.98-.886-1.98-1.98v-2.64c0-1.094.886-1.98 1.98-1.98h.19c-.053.396-.08.8-.08 1.21v2.86c0 .87.124 1.72.357 2.53z" opacity=".352" transform="translate(21 21)"/>
                        </g>
                    </g>
                </g>
            </g>
        </g>
    </g>
</svg>
