<svg id="ic_Place" xmlns="http://www.w3.org/2000/svg" width="18" height="21.001" viewBox="0 0 18 21.001">
  <g id="Group_2" data-name="Group 2">
    <g id="Group_53" data-name="Group 53">
      <path id="Combined_Shape" data-name="Combined Shape" d="M8.3,20.713,2.7,15.2A8.744,8.744,0,0,1,0,8.87,8.946,8.946,0,0,1,9,0a8.946,8.946,0,0,1,9,8.87,8.727,8.727,0,0,1-2.705,6.339L9.7,20.713a1,1,0,0,1-1.4,0ZM2,8.87a6.768,6.768,0,0,0,2.094,4.9L9,18.6l4.9-4.821A6.76,6.76,0,0,0,16,8.87,6.944,6.944,0,0,0,9,2,6.944,6.944,0,0,0,2,8.87ZM5,9a4,4,0,1,1,4,4A4,4,0,0,1,5,9ZM7,9A2,2,0,1,0,9,7,2,2,0,0,0,7,9Z" fill="#92929d"/>
    </g>
  </g>
</svg>
