<svg xmlns="http://www.w3.org/2000/svg" width="74" height="74" viewBox="0 0 74 74">
    <g fill="none" fill-rule="evenodd">
        <g>
            <g>
                <g>
                    <g transform="translate(-1163 -904) translate(210 717) translate(800 147) translate(153 40)">
                        <rect width="74" height="74" fill="#F8F8F8" rx="12"/>
                        <g>
                            <path d="M0 0L34 0 34 34 0 34z" transform="translate(20 20)"/>
                            <path fill="#BE63F9" d="M17 1.214c2.391 0 4.492 1.742 5.998 4.57 3.645-.322 6.593.648 7.907 2.997 1.262 2.255.673 5.236-1.276 8.219 1.95 2.983 2.538 5.964 1.276 8.22-1.314 2.348-4.262 3.318-7.907 2.995-1.507 2.83-3.607 4.57-5.998 4.57s-4.491-1.74-5.998-4.568c-3.645.32-6.593-.65-7.907-2.998C1.833 22.964 2.422 19.983 4.37 17c-1.95-2.983-2.538-5.964-1.276-8.22 1.314-2.348 4.262-3.318 7.907-2.995 1.506-2.829 3.607-4.57 5.998-4.57zm0 25.511l-.168.065c-1.196.462-2.373.818-3.507 1.065 1.05 1.71 2.334 2.728 3.675 2.728 1.341 0 2.625-1.018 3.676-2.729-1.188-.258-2.422-.635-3.676-1.129zm11.194-7.813c-.905 1.062-1.97 2.103-3.174 3.092-.254 1.471-.618 2.844-1.076 4.085 2.393.084 4.229-.55 4.992-1.913.75-1.34.42-3.23-.742-5.264zm-22.387 0l-.041.072c-1.13 2.006-1.442 3.869-.702 5.192.763 1.364 2.599 1.997 4.992 1.913-.458-1.24-.822-2.614-1.076-4.085-1.204-.989-2.27-2.03-3.173-3.092zm16.503 5.067l-.307.196c-.226.143-.456.283-.688.422-.474.282-.949.548-1.424.798.613.177 1.211.32 1.79.43.232-.575.443-1.193.629-1.846zm-10.62 0l.016.056c.182.632.387 1.23.612 1.79.58-.11 1.178-.253 1.79-.429-.474-.25-.95-.517-1.423-.8-.338-.2-.67-.407-.995-.617zM17 9.65l-.192.084c-.978.434-1.969.944-2.953 1.53-1.009.602-1.955 1.25-2.827 1.926-.171 1.21-.263 2.49-.263 3.81 0 1.32.092 2.6.262 3.81.873.677 1.82 1.324 2.828 1.926 1.049.624 2.105 1.163 3.145 1.614 1.04-.452 2.096-.99 3.145-1.614 1.009-.602 1.955-1.25 2.827-1.926.171-1.21.263-2.49.263-3.81 0-1.32-.092-2.6-.262-3.81-.873-.677-1.82-1.324-2.828-1.926C19.096 10.64 18.04 10.102 17 9.65zm-8.391 5.674l-.12.121c-.502.515-.962 1.035-1.374 1.555.444.56.943 1.12 1.493 1.675-.029-.55-.044-1.109-.044-1.675 0-.566.015-1.125.045-1.676zm16.783.001l.007.15c.025.502.037 1.01.037 1.525 0 .566-.015 1.125-.045 1.676.55-.555 1.05-1.116 1.495-1.676-.445-.56-.945-1.12-1.494-1.675zm-20.328-5.5c-.75 1.338-.42 3.23.743 5.264.903-1.062 1.969-2.104 3.174-3.093.253-1.472.617-2.845 1.075-4.086-2.393-.084-4.229.55-4.992 1.914zM24.03 7.907l-.087.002c.458 1.241.822 2.615 1.076 4.086 1.204.989 2.27 2.03 3.172 3.091l.042-.071c1.13-2.006 1.442-3.869.702-5.192-.754-1.347-2.555-1.982-4.905-1.916zm-2.35.266l-.165.033c-.528.105-1.07.237-1.624.397.474.25.95.517 1.423.8.339.2.67.407.996.618-.187-.654-.398-1.271-.63-1.848zm-9.362 0l-.048.12c-.213.542-.408 1.12-.581 1.728.325-.211.657-.417.995-.619.474-.282.949-.548 1.424-.798-.613-.177-1.21-.32-1.79-.43zM17 3.417c-1.34 0-2.625 1.017-3.675 2.728 1.187.259 2.42.636 3.675 1.13 1.254-.494 2.488-.871 3.675-1.13-1.05-1.71-2.334-2.728-3.675-2.728z" transform="translate(20 20)"/>
                            <path fill="#BE63F9" d="M17.066 20.724c-2.048 0-3.709-1.65-3.709-3.684 0-2.034 1.66-3.683 3.71-3.683 2.048 0 3.708 1.65 3.708 3.683 0 2.035-1.66 3.684-3.709 3.684z" opacity=".3" transform="translate(20 20)"/>
                        </g>
                    </g>
                </g>
            </g>
        </g>
    </g>
</svg>
