<svg xmlns="http://www.w3.org/2000/svg" width="20" height="20" viewBox="0 0 20 20">
    <g fill="none" fill-rule="evenodd">
        <g>
            <g>
                <g>
                    <g>
                        <g>
                            <g>
                                <path d="M0 0L20 0 20 20 0 20z" transform="translate(-1427 -504) translate(380 403) translate(0 38) translate(0 46) translate(1039 11) translate(8 6)"/>
                                <path fill="#3BB3C1" fill-rule="nonzero" d="M16.147 10.347l-8.833 5.888c-.128.085-.292.093-.427.02-.136-.072-.22-.213-.22-.367V4.112c0-.154.084-.295.22-.367.135-.073.3-.065.427.02l8.833 5.888c.116.078.185.208.185.347 0 .14-.07.27-.185.347z" transform="translate(-1427 -504) translate(380 403) translate(0 38) translate(0 46) translate(1039 11) translate(8 6)"/>
                            </g>
                        </g>
                    </g>
                </g>
            </g>
        </g>
    </g>
</svg>
