<svg xmlns="http://www.w3.org/2000/svg" width="16" height="16" viewBox="0 0 16 16">
    <g fill="none" fill-rule="evenodd">
        <g>
            <g>
                <g>
                    <g>
                        <g>
                            <g>
                                <g>
                                    <path d="M0 0L16 0 16 16 0 16z" transform="translate(-1009 -369) translate(380 195) translate(0 77) translate(16 20) translate(196 46) translate(417 30) translate(0 1)"/>
                                    <path fill="#949494" fill-rule="nonzero" d="M8 14.667c-3.682 0-6.667-2.985-6.667-6.667S4.318 1.333 8 1.333 14.667 4.318 14.667 8 11.682 14.667 8 14.667zM7.081 5.61c-.081-.055-.187-.06-.273-.013-.087.046-.141.136-.141.234v4.338c0 .098.054.188.14.234.087.047.193.042.274-.013l3.253-2.168c.074-.05.119-.133.119-.222 0-.09-.045-.173-.119-.222L7.081 5.61z" transform="translate(-1009 -369) translate(380 195) translate(0 77) translate(16 20) translate(196 46) translate(417 30) translate(0 1)"/>
                                </g>
                            </g>
                        </g>
                    </g>
                </g>
            </g>
        </g>
    </g>
</svg>
