<svg xmlns="http://www.w3.org/2000/svg" width="28.127" height="29" viewBox="0 0 28.127 29">
  <path id="Path_633" data-name="Path 633" d="M262.813,239.9H253.3a2.595,2.595,0,0,0-2.592,2.591v1.592h-.932a2.107,2.107,0,0,0-2.105,2.105v1.855h-.427A3.257,3.257,0,0,0,244,251.3v9.219a3.257,3.257,0,0,0,3.253,3.253h3.464v2.539A2.6,2.6,0,0,0,253.3,268.9h9.508a2.6,2.6,0,0,0,2.592-2.591v-2.539h3.464a3.257,3.257,0,0,0,3.253-3.253V251.3a3.257,3.257,0,0,0-3.253-3.253h-.427v-1.855a2.108,2.108,0,0,0-2.105-2.105H265.4v-1.592a2.595,2.595,0,0,0-2.592-2.591Zm-10.582,2.591a1.074,1.074,0,0,1,1.073-1.073h9.508a1.074,1.074,0,0,1,1.073,1.073v5.553H252.231Zm-3.038,3.7h0a.587.587,0,0,1,.587-.587h.932v2.442h-1.519Zm14.692,20.119a1.073,1.073,0,0,1-1.073,1.072H253.3a1.074,1.074,0,0,1-1.073-1.072v-7.072h11.654ZM270.6,251.3v9.219a1.736,1.736,0,0,1-1.734,1.734H265.4v-3.773a.76.76,0,0,0-.76-.76H251.472a.759.759,0,0,0-.76.76v3.773h-3.464a1.736,1.736,0,0,1-1.734-1.734V251.3a1.736,1.736,0,0,1,1.734-1.735h21.62A1.736,1.736,0,0,1,270.6,251.3Zm-4.267-5.695a.588.588,0,0,1,.587.587v1.855H265.4V245.6Z" transform="translate(-243.995 -239.9)" fill="#3bb3c1"/>
</svg>
