<?xml version="1.0" encoding="UTF-8"?>
<svg width="752pt" height="752pt" version="1.1" viewBox="0 0 752 752" xmlns="http://www.w3.org/2000/svg">
 <g>
  <path d="m336.21 595.88h-164.93c-8.3633 0-15.164-6.8008-15.164-15.164v-121.73c0-8.3594 6.8008-15.168 15.164-15.168h164.93c8.3594 0 15.164 6.8047 15.164 15.168v121.73c-0.003906 8.3633-6.8047 15.164-15.164 15.164zm-164.93-145.29c-4.6328 0-8.3984 3.7695-8.3984 8.4023v121.73c0 4.6328 3.7656 8.3984 8.3984 8.3984h164.93c4.6289 0 8.3984-3.7656 8.3984-8.3984l-0.003906-121.73c0-4.6328-3.7656-8.4023-8.3984-8.4023z"/>
  <path d="m324.58 450.59h-141.69c-1.8672 0-3.3828-1.5117-3.3828-3.3828v-50.555c0-40.93 33.297-74.227 74.227-74.227s74.227 33.297 74.227 74.227v50.555c0.003906 1.8711-1.5117 3.3828-3.3789 3.3828zm-138.31-6.7656h134.93v-47.172c0-37.199-30.266-67.461-67.461-67.461-37.199 0-67.461 30.262-67.461 67.461z"/>
  <path d="m412.94 521.97c-22.816 0-45.078-4.1523-66.172-12.34-1.7422-0.67578-2.6055-2.6367-1.9297-4.3789 0.67578-1.7422 2.6445-2.5977 4.3789-1.9297 20.309 7.8867 41.75 11.883 63.723 11.883 97.141 0 176.17-79.016 176.17-176.14 0-97.141-79.031-176.17-176.17-176.17-93.297 0-170.53 72.906-175.84 165.98-0.10547 1.8672-1.6758 3.3086-3.5703 3.1836-1.8633-0.10547-3.2891-1.7031-3.1836-3.5664 5.5117-96.652 85.715-172.36 182.59-172.36 100.87 0 182.94 82.062 182.94 182.94 0 100.86-82.066 182.91-182.94 182.91z"/>
  <path d="m310.75 329.03c-7.3867 0-13.516-2.7852-16.742-7.7383-2.5352-3.9297-3.043-8.7969-3.4883-13.09-0.59375-5.7031-1.1094-9.2695-4.0469-10.613-1.1445-0.51562-2.7891-0.63281-5.0117-0.33203-8.9414 1.0859-17.66 5.6328-26.094 10.027-6.1523 3.207-12.516 6.5273-19.016 8.5508-1.7812 0.54297-3.6797-0.44141-4.2344-2.2227-0.55469-1.7852 0.4375-3.6797 2.2227-4.2383 5.9219-1.8438 11.738-4.8789 17.898-8.0898 8.9688-4.6758 18.242-9.5156 28.367-10.742 3.5195-0.46875 6.2891-0.1875 8.668 0.88672 6.6172 3.0273 7.3398 9.957 7.9766 16.066 0.38672 3.7148 0.78516 7.5508 2.4375 10.113 2.6641 4.0859 8.7461 5.0273 13.555 4.5234 7.6211-0.76953 15.215-4.5664 20.844-10.414 5.8398-6.0898 14.246-9.6211 23.668-9.9297 3.2812-0.14453 7.1602-1.0273 10.613-2.4297 2.6875-1.0781 5.0781-2.125 7.3164-3.1992 6.8203-3.2109 10.875-10.457 9.8867-17.629-0.085938-0.70703-0.15625-1.3438-0.19531-1.9805-0.45312-6.6484 1.9648-12.965 6.8086-17.766 5.1211-5.0859 12.223-7.6953 19.457-7.1211 0.89062 0.0625 1.7969 0.14063 2.6992 0.21875 1.8555 0.16016 3.707 0.32813 5.5742 0.34766 2.707 0.066406 4.957 0.12109 6.8398-0.50391 2.0938-0.70703 4.1406-2.4297 6.4375-5.4141 7.7656-10.176 10.469-26.535 1.543-36.281-0.8125-0.90234-1.6328-1.6172-2.4531-2.1523-2.2344-1.4727-4.875-1.4023-7.0898 0.18359-2.707 1.9258-1.9805 4.957-1.1289 6.4453 2.3203 4.0508 1.4648 9.3008-2.0312 12.48-2.0391 1.8594-4.6836 2.8047-7.4922 2.6523-9.4883-0.51562-16.516-3.0703-21.492-7.8086-2.7539-2.6172-4.6641-5.7461-6.5078-8.7734-2.4609-4.0391-4.7852-7.8516-8.8594-9.8555-2.332-1.1445-4.9961-0.875-6.4766 0.65625-1.5898 1.6484-1.3633 3.7148-0.82422 7.2266 0.30859 2.0234 0.62891 4.1133 0.43359 6.3242-0.54688 5.8984-4.9141 11.012-10.629 12.453-5.7148 1.4492-12-0.99609-15.281-5.9414-1.8164-2.7656-2.4648-5.7656-3.0938-8.6641-0.24609-1.1328-0.48828-2.2695-0.8125-3.3711-0.73828-2.5547-2.6523-5.3398-4.5117-5.1914-1.6562 0.015626-3.0273 1.6211-5.0977 4.2617-1.7734 2.2617-3.7852 4.8281-6.7266 6.2812-3.4414 1.6836-7.1992 1.6211-11.496-0.18359-7.3203-3.1133-12.895-9.8281-14.93-17.961-0.45312-1.8086 0.64844-3.6484 2.4609-4.0977 1.8164-0.45312 3.6484 0.64453 4.1016 2.4609 1.5234 6.0859 5.6328 11.082 11 13.367 2.4805 1.0391 4.25 1.1445 5.8828 0.34375 1.5508-0.76562 2.9258-2.5195 4.3867-4.3789 2.3711-3.0273 5.3281-6.7969 10.324-6.8555 5.668-0.16016 9.6367 4.9766 11.102 10.055 0.36719 1.2383 0.65234 2.5391 0.93359 3.8438 0.51953 2.4023 1.0117 4.6719 2.125 6.3672 1.6562 2.4922 5.0898 3.8438 7.9805 3.1094 2.8867-0.72656 5.2695-3.5195 5.543-6.5 0.12109-1.3906-0.125-2.9961-0.38281-4.6953-0.60156-3.9258-1.3477-8.8086 2.6484-12.949 3.5547-3.6797 9.3125-4.4961 14.328-2.0312 5.8398 2.8711 8.9258 7.9336 11.652 12.406 1.6914 2.7734 3.2852 5.3906 5.3945 7.3945 3.7578 3.582 9.3828 5.5273 17.191 5.9492 0.96484 0.097657 1.8828-0.26953 2.5703-0.89453 1.1719-1.0664 1.4727-2.793 0.71875-4.1133-2.6602-4.6328-2.4609-11.387 3.0703-15.316 4.4414-3.1758 10.219-3.3086 14.719-0.33984 1.2969 0.83984 2.5703 1.9414 3.7617 3.2656 11.727 12.805 8.1523 32.719-1.1758 44.941-1.9922 2.5898-5.1484 6.1953-9.6602 7.7148-3.0195 1.0078-6.1055 0.92188-8.832 0.86328-2.3164-0.03125-4.3477-0.20703-6.3164-0.375-0.86719-0.074218-1.7383-0.15234-2.6133-0.21484-5.293-0.41016-10.469 1.4844-14.195 5.1797-3.4258 3.3945-5.1367 7.8438-4.8203 12.531 0.03125 0.53516 0.09375 1.0469 0.15625 1.5547 1.4023 10.172-4.0977 20.082-13.691 24.602-2.3516 1.125-4.875 2.2305-7.6914 3.3594-4.1875 1.6992-8.7656 2.7344-12.883 2.9141-7.6836 0.25391-14.434 3.0469-19.051 7.8594-6.8281 7.0938-15.719 11.516-25.035 12.457-1.0898 0.10156-2.1523 0.16016-3.1875 0.16016z"/>
  <path d="m589.83 375.09c-1.2422 0-2.4375-0.68359-3.0273-1.8711-4.2734-7.3906-9.418-16.34-16.496-18.742-2.7305-0.92969-7.0547-1.582-11.633-2.2773-8.0234-1.2148-16.316-2.4727-21.09-5.75-0.29688-0.16406-1.9805-0.89453-3.3359-1.4805-8.0078-3.4727-9.5547-4.3867-10.328-6.1172-1.6289-3.4922-2.4062-7.2188-2.2891-11.027 0.10547-3.2227 0.85938-5.7812 2.3125-7.832 1.0508-1.4453 2.3125-2.4414 3.4336-3.3242 0.8125-0.64062 1.582-1.25 2.0664-1.875 0.76953-0.99609 0.96484-2.1875 0.60156-3.6445-0.69141-2.75-3.3008-5.6914-6.2109-6.9922-2.5469-1.1289-5.4062-1.7266-8.4336-2.3594-3.5391-0.73828-7.1992-1.5039-10.684-3.2031-4.6875-2.2891-8.4219-7.1289-9.2891-12.043-0.63672-3.6094 0.32031-6.9531 2.6914-9.4102 1.9805-2.0156 4.4414-2.9688 6.6133-3.8086 0.60547-0.23438 1.2109-0.46875 1.7969-0.72656 10.512-4.6914 14.031-18.621 16.086-31.629 0.21094-1.3359 0.44922-2.8477 0.046875-3.6055-0.41406-0.78125-2.0234-1.4883-3.1992-2l-25.273-10.777c-4.0977-1.7578-9.6992-4.1602-12.859-9.1094-2.7617-4.375-2.9297-9.5352-3.0664-13.684-0.34375-10.434-0.42969-19.801 2.0117-28.773 0.49219-1.8008 2.3516-2.8711 4.1523-2.375 1.8047 0.48828 2.8672 2.3477 2.375 4.1523-2.1953 8.0625-2.1016 16.898-1.7773 26.77 0.11328 3.5039 0.24609 7.4766 2.0156 10.281 1.875 2.9414 5.5508 4.6914 9.8047 6.5156l25.293 10.785c2.1211 0.92578 4.9805 2.1719 6.5039 5.0469 1.457 2.75 0.99219 5.6836 0.65625 7.8242-2.3359 14.801-6.543 30.746-20.027 36.762-0.69531 0.30859-1.3945 0.57813-2.0977 0.84766-1.6836 0.65234-3.2734 1.2695-4.207 2.2227-0.29688 0.30859-1.2656 1.3125-0.875 3.5156 0.49219 2.793 2.8477 5.7969 5.5938 7.1406 2.7227 1.332 5.8164 1.9766 9.0938 2.6602 3.2383 0.67578 6.5898 1.3789 9.8047 2.8008 4.8047 2.1523 8.8281 6.7812 10.02 11.527 0.86719 3.4531 0.22266 6.8008-1.8164 9.4336-0.99609 1.2812-2.1836 2.2148-3.2266 3.0391-0.84766 0.67188-1.6484 1.3008-2.125 1.9531-0.625 0.88672-0.98438 2.2812-1.0469 4.1055-0.078125 2.5195 0.39453 5.0039 1.4102 7.3945 1.3594 0.82422 5.1953 2.4883 7.1367 3.3281 2.8672 1.2422 3.8438 1.6797 4.4766 2.1133 3.4883 2.3984 11.344 3.5859 18.27 4.6367 4.8828 0.73828 9.4922 1.4375 12.793 2.5586 9.4414 3.2031 15.273 13.277 19.957 21.426 0.16406 0.23437 0.28906 0.44141 0.41797 0.69531 0.83594 1.6719 0.16016 3.7031-1.5117 4.5391-0.48438 0.24609-1.0039 0.36328-1.5078 0.36328zm-59.789-39.113c0.011719 0.023438 0.019532 0.046876 0.03125 0.066407-0.007812-0.023438-0.019531-0.042969-0.03125-0.066407z"/>
  <path d="m510.57 493.14c-0.91406 0-1.8281-0.37109-2.4922-1.0977-4.1211-4.4922-9.2578-8.1797-14.848-10.66l-0.64062-0.27344c-1.9766-0.84375-4.2188-1.793-6.0625-3.6406-1.9375-1.9336-2.9023-4.4336-3.4648-6.1445-3.8594-12.117 0.92188-26.176 11.363-33.457l0.60938-0.42188c0.68359-0.46484 1.3945-0.95312 1.6367-1.3398 0.28516-0.44531 0.41406-1.2305 0.53516-2.0664 1.375-11.52-3.7383-23.566-13.039-30.617-0.83594-0.64453-1.8789-1.3789-2.707-1.4648-1.1953-0.10156-2.8359 0.88672-4.2852 1.832-10.773 7.0078-22.156 12.703-32.496 7.0742-5.0547-2.7461-7.9531-7.3789-10.754-11.863-1.832-2.9219-3.5547-5.6875-5.7852-7.7891-3.875-3.6328-9.3945-5.3906-14.734-7.0859-5.8906-1.8477-12.035-3.457-16.625-1.1211-2.2812 1.1523-3.4922 4.2109-3.3516 6.5039 0.09375 1.4961 0.67187 2.4492 1.7188 2.8281 0.3125 0.10547 0.70703 0.19141 1.0977 0.28125 1.3867 0.32031 3.2852 0.76172 4.7812 2.3008 1.8008 1.9141 2.332 4.7109 1.5312 7.9141-1.7617 6.9023-7.5977 12.824-15.23 15.469-5.9102 2.0312-12.707 2.2578-20.793 0.69531l-0.39844-0.078125c-1.7383-0.34375-3.375-0.67578-4.5-0.26953-1.5508 0.56641-2.5469 2.8164-3.1055 4.5977-1.1758 3.6367-1.6562 7.4414-2.168 11.473-0.39844 3.1641-0.8125 6.4375-1.5898 9.6836-1.0781 4.4336-2.9023 8.4023-5.2773 11.492-1.1445 1.4805-3.2656 1.7539-4.7422 0.61328-1.4805-1.1406-1.7578-3.2656-0.61719-4.7422 1.8047-2.3438 3.2109-5.4375 4.0625-8.9492 0.6875-2.875 1.0586-5.8242 1.457-8.9453 0.52734-4.1641 1.0703-8.4648 2.4336-12.676 1.4688-4.6797 3.9062-7.6836 7.2344-8.9023 2.9023-1.0586 5.8125-0.48047 8.1445-0.011719l0.36328 0.082032c6.8711 1.3203 12.527 1.1758 17.285-0.45703 5.5039-1.9102 9.6758-6.0234 10.879-10.73 0.24609-0.99219 0.15625-1.5234 0.10547-1.6328-0.10547-0.039063-0.875-0.21875-1.3828-0.33594-0.60938-0.14063-1.2227-0.28906-1.8047-0.48438-3.6719-1.3242-5.9805-4.6055-6.2383-8.8008-0.32812-5.3594 2.5703-10.684 7.043-12.953 6.8477-3.4844 14.484-1.5625 21.723 0.70703 5.7891 1.8398 12.332 3.918 17.336 8.6094 2.8672 2.707 4.9102 5.9727 6.8828 9.1289 2.4453 3.9141 4.7578 7.6094 8.25 9.5078 7.2344 3.9492 16.559-0.9375 25.566-6.7969 2.4102-1.5742 5.2852-3.2148 8.6758-2.8984 2.5195 0.26953 4.5078 1.5742 6.1211 2.8203 11.156 8.457 17.305 22.938 15.637 36.871-0.23047 1.6055-0.52734 3.2266-1.5195 4.7891-0.98438 1.5742-2.4062 2.543-3.543 3.3203l-0.53906 0.375c-7.957 5.5508-11.738 16.652-8.8086 25.844 0.53906 1.6484 1.1172 2.75 1.8086 3.4375 0.91797 0.91797 2.3828 1.5391 3.9297 2.1992l0.70703 0.30078c6.4609 2.8672 12.371 7.1133 17.113 12.285 1.2617 1.3789 1.1719 3.5156-0.20703 4.7812-0.64844 0.59766-1.4688 0.89062-2.2812 0.89062z"/>
 </g>
</svg>
