<svg xmlns="http://www.w3.org/2000/svg" width="14.552" height="14.552" viewBox="0 0 14.552 14.552">
  <path id="public_nonfill" data-name="public nonfill" d="M212.536,205.51a7.026,7.026,0,1,0,7.026,7.026A7.029,7.029,0,0,0,212.536,205.51Zm0,.39a6.633,6.633,0,0,1,6.636,6.636c0,.029,0,.057,0,.085-.224.132-.5.263-.762.4a2.113,2.113,0,0,0-.762.567l-.037.055v1.232H216.7l-.055.122a2.754,2.754,0,0,1-.311.616.545.545,0,0,1-.482.238h-.7l-.531-.531-.061-.055h-.86a.3.3,0,0,1-.287-.134.747.747,0,0,1-.079-.311l2.611-1.531.159-.1-.079-.159a2.864,2.864,0,0,0-2.385-1.458l-1.128-2.635-.11-.262-.207.2-.525.525a2.6,2.6,0,0,1-1.384-.342.381.381,0,0,1-.183-.287.6.6,0,0,1,.226-.4l.055-.061V206.26a6.631,6.631,0,0,1,2.147-.36Zm-2.537.5v1.775a.927.927,0,0,0-.274.616.754.754,0,0,0,.323.579,2.877,2.877,0,0,0,1.708.433h.079l.061-.055.384-.384,1.055,2.47.049.116h.128a2.552,2.552,0,0,1,2.055,1.11l-2.543,1.5-.1.055v.11a1.077,1.077,0,0,0,.177.634.735.735,0,0,0,.6.3h.7l.531.531.061.055h.86a.984.984,0,0,0,.787-.384,2.427,2.427,0,0,0,.311-.591H218V213.8a2.009,2.009,0,0,1,.592-.433c.178-.094.369-.189.555-.287a6.632,6.632,0,0,1-6.612,6.093,6.7,6.7,0,0,1-.976-.073v-1.787l-.085-.061-1.1-.738a2.652,2.652,0,0,0-1.659-2.4l-.171-.079-.086.171-.25.494c-.3-.378-.486-.752-.738-1.086a1.879,1.879,0,0,0-1.555-.683c-.008-.131-.012-.263-.012-.4A6.635,6.635,0,0,1,210,206.4Zm-4.05,6.928a1.36,1.36,0,0,1,1.208.518,7.953,7.953,0,0,0,.945,1.366l.2.189.122-.244.3-.592A2.176,2.176,0,0,1,210,216.635v.1l.085.061,1.086.726v1.506a6.638,6.638,0,0,1-5.221-5.7Z" transform="translate(-205.26 -205.26)" fill="#3bb3c1" stroke="#3bb3c1" stroke-width="0.5"/>
</svg>
