<svg xmlns="http://www.w3.org/2000/svg" width="25.176" height="26.729" viewBox="0 0 25.176 26.729">
  <g id="qualified" transform="translate(-156.73 -143)">
    <path id="Path_723" data-name="Path 723" d="M309.547,474.03l-2.67,2.016-.49,2.316,3.515-2.7Z" transform="translate(-141.047 -311.985)" fill="#3bb3c1"/>
    <path id="Path_724" data-name="Path 724" d="M317.677,517.6l-3.242,2.479,1.608,1.553a.136.136,0,0,0,.164,0l1.853-2.016a.164.164,0,0,0,.027-.109Z" transform="translate(-148.632 -353.048)" fill="#3bb3c1"/>
    <path id="Path_725" data-name="Path 725" d="M316.121,390.144l-.681,3.024,2.18-1.662-.3-1.308.926-1.144a.2.2,0,0,0,.027-.136l-.6-1.471c-.027-.054-.054-.082-.109-.082h-1.771c-.054,0-.082.027-.109.082l-.49,1.444a.12.12,0,0,0,.027.136Z" transform="translate(-149.337 -230.306)" fill="#3bb3c1"/>
    <path id="Path_726" data-name="Path 726" d="M238.351,143a6.348,6.348,0,1,0,6.348,6.348A6.349,6.349,0,0,0,238.351,143Zm4.8,6.348a4.8,4.8,0,1,1-9.591,0,4.194,4.194,0,0,1,.163-1.172,6.516,6.516,0,0,0,2.752.681,4.531,4.531,0,0,0,2.616-.817c.082-.054,2.207-1.58,3.869-.054a4.567,4.567,0,0,1,.191,1.362Z" transform="translate(-70.968)" fill="#3bb3c1"/>
    <path id="Path_727" data-name="Path 727" d="M164.74,398.486l-2.725-11.116H161.8a5.058,5.058,0,0,0-5.068,5.068l.054,1.907a14.625,14.625,0,0,0,7.956,4.141Z" transform="translate(0 -230.311)" fill="#3bb3c1"/>
    <path id="Path_728" data-name="Path 728" d="M388.576,395.578a5.262,5.262,0,0,1,5.258-5.258h.054a5.025,5.025,0,0,0-4.359-2.479h-.163l-2.48,11.008a16.575,16.575,0,0,0,2.343-.681,5.613,5.613,0,0,1-.654-2.588Z" transform="translate(-216.915 -230.754)" fill="#3bb3c1"/>
    <path id="Path_729" data-name="Path 729" d="M436.1,444.67a4.686,4.686,0,1,0,4.686,4.686A4.686,4.686,0,0,0,436.1,444.67Zm2.18,4.087-.981.954.218,1.335a.194.194,0,0,1-.082.163c-.027.027-.054.027-.109.027a.1.1,0,0,1-.082-.027l-1.2-.627-1.2.627a.168.168,0,0,1-.191-.027.194.194,0,0,1-.082-.163l.218-1.335-.981-.953a.23.23,0,0,1-.054-.191.181.181,0,0,1,.136-.109l1.335-.191.6-1.226a.2.2,0,0,1,.327,0l.6,1.226,1.335.191c.054,0,.136.054.136.109C438.361,448.621,438.333,448.7,438.279,448.757Z" transform="translate(-258.88 -284.314)" fill="#3bb3c1"/>
  </g>
</svg>
