<svg xmlns="http://www.w3.org/2000/svg" width="22.243" height="13.952" viewBox="0 0 22.243 13.952">
  <path id="Qualification" d="M178.186,248.122a.5.5,0,0,0-.114.031l-10.229,3.9a.487.487,0,0,0,0,.913l3.585,1.362v4.27a1.656,1.656,0,0,0,.67,1.248,4.74,4.74,0,0,0,1.507.784,16.984,16.984,0,0,0,9.285,0,4.739,4.739,0,0,0,1.507-.784,1.656,1.656,0,0,0,.67-1.248v-4.27l3.585-1.362a.487.487,0,0,0,0-.913l-10.229-3.9a.488.488,0,0,0-.19-.031h-.046Zm.061,1.012,8.859,3.372-8.859,3.372-8.859-3.372ZM172.4,254.7l5.67,2.161a.487.487,0,0,0,.35,0l5.67-2.161v3.9c0,.137-.07.295-.32.5a3.909,3.909,0,0,1-1.195.609,16.092,16.092,0,0,1-8.661,0,3.908,3.908,0,0,1-1.195-.609c-.249-.208-.32-.366-.32-.5Z" transform="translate(-167.125 -247.721)" fill="#92929d" stroke="#92929d" stroke-width="0.8"/>
</svg>
