<svg xmlns="http://www.w3.org/2000/svg" width="34.098" height="15.348" viewBox="0 0 34.098 15.348">
  <g id="degree_2" data-name="degree 2" transform="translate(-211.291 -424.298)">
    <path id="Path_761" data-name="Path 761" d="M233.371,434.076l-2.382.336a6.43,6.43,0,0,0-1.682-4.92c.067-.01.509-.062,1.687-.27C232.672,429.323,233.487,432.213,233.371,434.076Zm-3.131,2.851a4.261,4.261,0,0,0,.705-1.874l2.362-.333c-.368,2.145-1.477,1.992-3.067,2.207Zm-2.786-10.281c1.184.562.829,1.557,1.353,1.557h0c.57,0,.26-1.57,1.309-2.93,2.122-2.747,5.105.971,1.886,3.124-1.873.362-4.633.716-4.7.725C224.2,428.283,225.7,425.829,227.455,426.646Zm.821,2.982c1.369.394,2.209,2.845,2.086,4.873l-14.747,2.079a2.671,2.671,0,0,0,.159-.316,5.511,5.511,0,0,0-.7-4.987,2.341,2.341,0,0,0-.434-.416c4.778-.008,13.578-1.226,13.64-1.233ZM211.7,432.068c.336-.826.871-1.277,1.472-1.263a3.427,3.427,0,0,1,1.407.858,4.891,4.891,0,0,1,.617,4.356,1.206,1.206,0,0,1-.621.711.148.148,0,0,1-.21.021,1.176,1.176,0,0,1-.758-.505,3.014,3.014,0,0,1-.375-2.681c.1-.256.258-.407.416-.407h0a.66.66,0,0,1,.438.291.314.314,0,1,0,.491-.392,1.249,1.249,0,0,0-.916-.528,1.113,1.113,0,0,0-1.016.8,3.605,3.605,0,0,0,.465,3.3,1.776,1.776,0,0,0,1.2.742h.028a.309.309,0,0,0,.2-.073.284.284,0,0,0,.183.034l15.576-2.2a2.284,2.284,0,0,1-1.3,1.952c-6.844.94-13.812,1.989-16.327,2.551a9.492,9.492,0,0,1-.971-7.578Zm32.077,3.2c-2.028.183-6.03.668-10.538,1.262a4.2,4.2,0,0,0,.721-1.9l9.538-1.345Zm.733-2.759-.786.111h-.005L234,433.986c.078-1.692-.48-4.013-1.866-4.976,2.081-.4,9.532-1.9,11.441-2.486,2.052,1.549,2.356,3.508.928,5.981Z" transform="translate(0 0)" fill="#3bb3c1"/>
  </g>
</svg>
