<svg width="104" height="104" viewBox="0 0 104 104" fill="none" xmlns="http://www.w3.org/2000/svg">
<g filter="url(#filter0_d)">
<circle cx="52" cy="46" r="28" fill="white"/>
</g>
<path fill-rule="evenodd" clip-rule="evenodd" d="M47.5205 33.84H56.4805V35.76C56.4805 36.8204 57.3402 37.68 58.4005 37.68C59.4609 37.68 60.3205 36.8204 60.3205 35.76V33.84H64.1605C64.8675 33.84 65.4405 34.4131 65.4405 35.12V38.96H38.5605V35.12C38.5605 34.4131 39.1336 33.84 39.8405 33.84H43.6805V35.76C43.6805 36.8204 44.5402 37.68 45.6005 37.68C46.6609 37.68 47.5205 36.8204 47.5205 35.76V33.84Z" fill="#44D5E9"/>
<path fill-rule="evenodd" clip-rule="evenodd" d="M57.7605 33.2V35.76C57.7605 36.1135 58.0471 36.4 58.4005 36.4C58.754 36.4 59.0405 36.1135 59.0405 35.76V33.2C59.0405 32.8465 58.754 32.56 58.4005 32.56C58.0471 32.56 57.7605 32.8465 57.7605 33.2ZM65.4405 40.24V53.68C65.4405 56.1542 63.4348 58.16 60.9605 58.16H43.0405C40.5663 58.16 38.5605 56.1542 38.5605 53.68V40.24H65.4405ZM44.7731 49.3874C44.5232 49.1375 44.1179 49.1375 43.868 49.3874C43.6181 49.6374 43.6181 50.0426 43.868 50.2925L45.148 51.5725C45.3979 51.8225 45.8032 51.8225 46.0531 51.5725L48.6131 49.0125C48.863 48.7626 48.863 48.3574 48.6131 48.1074C48.3632 47.8575 47.9579 47.8575 47.708 48.1074L45.6005 50.2149L44.7731 49.3874ZM43.868 44.2674C44.1179 44.0175 44.5232 44.0175 44.7731 44.2674L45.6005 45.0949L47.708 42.9874C47.9579 42.7375 48.3632 42.7375 48.6131 42.9874C48.863 43.2374 48.863 43.6426 48.6131 43.8925L46.0531 46.4525C45.8032 46.7025 45.3979 46.7025 45.148 46.4525L43.868 45.1725C43.6181 44.9226 43.6181 44.5174 43.868 44.2674ZM52.0019 45.36L58.3979 45.3663C58.7525 45.3667 59.0402 45.0804 59.0405 44.727C59.0409 44.3735 58.7538 44.0867 58.3992 44.0863L52.0032 44.08C51.6486 44.0796 51.3609 44.3659 51.3605 44.7194C51.3602 45.0728 51.6473 45.3596 52.0019 45.36ZM58.3979 50.4863L52.0019 50.48C51.6473 50.4796 51.3602 50.1928 51.3605 49.8394C51.3609 49.4859 51.6486 49.1996 52.0032 49.2L58.3992 49.2063C58.7538 49.2067 59.0409 49.4935 59.0405 49.847C59.0402 50.2004 58.7525 50.4867 58.3979 50.4863ZM44.9605 35.76V33.2C44.9605 32.8465 45.2471 32.56 45.6005 32.56C45.954 32.56 46.2405 32.8465 46.2405 33.2V35.76C46.2405 36.1135 45.954 36.4 45.6005 36.4C45.2471 36.4 44.9605 36.1135 44.9605 35.76Z" fill="#FF554B"/>
<defs>
<filter id="filter0_d" x="0" y="0" width="104" height="104" filterUnits="userSpaceOnUse" color-interpolation-filters="sRGB">
<feFlood flood-opacity="0" result="BackgroundImageFix"/>
<feColorMatrix in="SourceAlpha" type="matrix" values="0 0 0 0 0 0 0 0 0 0 0 0 0 0 0 0 0 0 127 0"/>
<feOffset dy="6"/>
<feGaussianBlur stdDeviation="12"/>
<feColorMatrix type="matrix" values="0 0 0 0 0 0 0 0 0 0 0 0 0 0 0 0 0 0 0.04 0"/>
<feBlend mode="normal" in2="BackgroundImageFix" result="effect1_dropShadow"/>
<feBlend mode="normal" in="SourceGraphic" in2="effect1_dropShadow" result="shape"/>
</filter>
</defs>
</svg>
