<svg xmlns="http://www.w3.org/2000/svg" width="59.357" height="43.859" viewBox="0 0 59.357 43.859">
  <g id="Group_1352" data-name="Group 1352" transform="translate(16907.06 6359)">
    <path id="refund" d="M159.926,231.269c4.484,3.785,6.07,5.351,6.886,6.089,1.593,1.449-.166,3.615-1.719,2.078-1.422-1.41-6.156-5.528-7.017-6.3-.908-.815.391-2.965,1.85-1.867ZM176.565,214h2.143v1.846c1.935.279,3.42,1.346,3.5,3.631l-2.457.084A1.829,1.829,0,0,0,178.708,218v2.7c2.1.542,3.858,1.344,3.858,3.89a3.548,3.548,0,0,1-2.218,3.3,5.754,5.754,0,0,1-1.64.394v1.817h-2.143v-1.844a4.183,4.183,0,0,1-3.857-4.071l2.389-.239a2.533,2.533,0,0,0,1.468,2.12V222.7c-1.768-.507-3.4-1.4-3.4-3.529,0-2.068,1.621-3.057,3.4-3.319v-1.841Zm2.143,9.227v2.913a1.628,1.628,0,0,0,1.4-1.541C180.11,223.879,179.456,223.482,178.708,223.232Zm-2.143-3.111V217.93c-.56.152-1.062.467-1.062,1.072,0,.537.487.884,1.062,1.12Zm1.072-9.65a11.584,11.584,0,1,0,11.584,11.583A11.583,11.583,0,0,0,177.637,210.472Zm0,2.007a9.577,9.577,0,1,1-9.577,9.576A9.58,9.58,0,0,1,177.637,212.479Zm-25,25.278c4.8,6.227,7.422,9.814,10.88,12.586a19.547,19.547,0,0,0,13.849,3.93,34.138,34.138,0,0,0,16.4-5.112c2.586-1.53,7.171-1.764,7.171-1.764V234.173c-17.855-3.69-13.018,2.807-20.455,2.88l-8.879.089c-5.275.052-4.388,7.259.118,7.259,3.35,0,13.894-.278,14.106,0,.464.607-1.043.836-1.846.949-1.981.274-7.962.457-12.53.5-2.3.024-3.458-1.225-4.9-3.726,0,0-6.107-5.286-9.029-8.142-2.9-2.828-7.2.769-4.885,3.776Zm49.759-5.214h8.938V249.12h-8.938Zm4.469,10.172a2.2,2.2,0,1,1-2.2,2.2A2.2,2.2,0,0,1,206.861,242.715ZM163.653,230.27c3.548,2.994,4.754,4.291,5.446,4.817,1.458,1.1-.13,2.858-1.357,1.64-1.127-1.113-4.87-4.371-5.553-4.983-.718-.644.311-2.344,1.463-1.475Z" transform="translate(-17059.031 -6569.472)" fill="#3bb3c1" fill-rule="evenodd"/>
  </g>
</svg>
