<svg width="24" height="24" viewBox="0 0 24 24" fill="none" xmlns="http://www.w3.org/2000/svg">
<path fill-rule="evenodd" clip-rule="evenodd" d="M13 11H15C15.5523 11 16 11.4477 16 12C16 12.5523 15.5523 13 15 13H13V15C13 15.5523 12.5523 16 12 16C11.4477 16 11 15.5523 11 15V13H9C8.44772 13 8 12.5523 8 12C8 11.4477 8.44772 11 9 11H11V9C11 8.44772 11.4477 8 12 8C12.5523 8 13 8.44772 13 9V11ZM9.69613 21.0598L3.03052 14.1928C0.32316 11.4037 0.32316 6.89353 3.03052 4.10437C5.46229 1.59914 9.26809 1.32334 12 3.31647C14.7319 1.32334 18.5377 1.59914 20.9695 4.10437C23.6768 6.89353 23.6768 11.4037 20.9695 14.1928L14.3039 21.0598C13.6897 21.6925 12.8562 22.025 12 21.9986C11.1438 22.025 10.3103 21.6925 9.69613 21.0598ZM11.9543 19.9989H12.0457C12.3494 20.0128 12.645 19.8973 12.8688 19.6668L19.5344 12.7998C21.4885 10.7866 21.4885 7.51058 19.5344 5.49739C17.6536 3.55981 14.6385 3.49693 12.6869 5.34159C12.3014 5.70594 11.6986 5.70594 11.3131 5.34159C9.36152 3.49693 6.34638 3.55981 4.46562 5.49739C2.51146 7.51058 2.51146 10.7866 4.46562 12.7998L11.1312 19.6668C11.355 19.8973 11.6506 20.0128 11.9543 19.9989Z" fill="#92929D"/>
</svg>
