<svg width="53" height="76" viewBox="0 0 53 76" fill="none" xmlns="http://www.w3.org/2000/svg">
<path d="M26.3935 33.0694C16.6121 33.1033 8.75787 41.1782 8.75787 50.9597V74.4888C8.75787 75.2058 9.56427 75.6269 10.1525 75.2169L24.7782 65.0265C25.7865 64.324 27.1257 64.324 28.134 65.0265L42.7596 75.2169C43.3478 75.6267 44.1542 75.2058 44.1542 74.4888V50.7676C44.1544 40.9723 36.1967 33.0356 26.3935 33.0694Z" fill="url(#paint0_linear)"/>
<path d="M44.1544 74.4888V50.7676C44.1544 40.9721 36.1967 33.0355 26.3936 33.0694C17.9868 33.0986 11.0035 39.0676 9.20688 46.9548L9.2561 47.1741L26.5868 64.5048C27.1296 64.5289 27.6675 64.7017 28.1342 65.0268L42.76 75.2172C43.348 75.6269 44.1544 75.2059 44.1544 74.4888Z" fill="url(#paint1_linear)"/>
<path d="M16.2871 36.3275V70.9423L12.5175 73.569V39.953C13.5897 38.5683 14.8589 37.3444 16.2841 36.3306L16.2871 36.3275Z" fill="url(#paint2_linear)"/>
<path d="M40.3948 39.8614V73.569L36.6252 70.9423V36.2824C38.0504 37.2842 39.321 38.4917 40.3948 39.8614Z" fill="url(#paint3_linear)"/>
<path d="M26.4561 33.07V64.4997C27.043 64.4997 27.6298 64.6753 28.1339 65.0266L42.7596 75.217C43.3478 75.6268 44.1542 75.2059 44.1542 74.4889V50.7675C44.1544 40.9931 36.2305 33.0702 26.4561 33.07L26.4561 33.07Z" fill="url(#paint4_linear)"/>
<path d="M42.7597 72.3482L28.1341 62.1578C27.1258 61.4554 25.7866 61.4554 24.7783 62.1578L10.1526 72.3482C9.56439 72.758 8.758 72.3371 8.758 71.6201V74.4889C8.758 75.206 9.56439 75.627 10.1526 75.217L24.7783 65.0266C25.7866 64.3241 27.1258 64.3241 28.1341 65.0266L42.7597 75.217C43.348 75.6268 44.1544 75.2059 44.1544 74.4889V71.6201C44.1544 72.3371 43.348 72.758 42.7597 72.3482Z" fill="url(#paint5_linear)"/>
<path d="M16.2871 36.3268V54.2064L12.5175 50.4368V39.9523C12.5925 39.8562 12.6691 39.76 12.7458 39.6639C12.8269 39.5633 12.911 39.4612 12.9951 39.3621C13.0642 39.281 13.1333 39.2 13.2024 39.1203C13.3435 38.9597 13.4863 38.8005 13.6333 38.6458C13.686 38.5887 13.7399 38.5331 13.794 38.4776C13.9351 38.3289 14.0809 38.1846 14.2281 38.042C14.3722 37.9023 14.5179 37.7641 14.6681 37.6305C14.6951 37.605 14.7222 37.581 14.7492 37.5569C14.8258 37.4879 14.9025 37.4202 14.9805 37.3541C15.1082 37.243 15.2374 37.1348 15.3681 37.0282C15.4297 36.9772 15.4912 36.9276 15.5543 36.8781C15.6128 36.8315 15.6715 36.7864 15.73 36.7414C15.8502 36.6482 15.9703 36.5581 16.092 36.4696C16.1551 36.4215 16.2197 36.3764 16.2843 36.3299L16.2871 36.3268Z" fill="url(#paint6_linear)"/>
<path d="M40.3948 39.8614V73.569L36.6252 70.9423V36.2824C38.0504 37.2842 39.321 38.4917 40.3948 39.8614Z" fill="url(#paint7_linear)"/>
<path d="M52.8887 23.6385C52.8887 10.5833 41.0544 0 26.4561 0C11.8578 0 0.0234985 10.5833 0.0234985 23.6385V29.2268C0.0234985 42.2819 11.8578 52.8652 26.4561 52.8652C41.0544 52.8652 52.8887 42.2819 52.8887 29.2268C52.8887 29.2084 52.8887 23.6568 52.8887 23.6385Z" fill="url(#paint8_linear)"/>
<path d="M52.8887 23.6385C52.8887 10.5833 41.0544 0 26.4561 0C11.8578 0 0.0234985 10.5833 0.0234985 23.6385V29.2268C0.0234985 42.2819 11.8578 52.8652 26.4561 52.8652C41.0544 52.8652 52.8887 42.2819 52.8887 29.2268C52.8887 29.2084 52.8887 23.6568 52.8887 23.6385Z" fill="url(#paint9_linear)"/>
<path d="M48.2258 10.2302C43.4578 4.05074 35.4865 0 26.4561 0C17.4257 0 9.45445 4.05074 4.68643 10.2302V42.6352C9.45445 48.8147 17.4257 52.8654 26.4561 52.8654C35.4865 52.8654 43.4578 48.8147 48.2258 42.6352V10.2302Z" fill="url(#paint10_linear)"/>
<path d="M10.9524 48.3723C15.3078 51.1979 20.6639 52.8652 26.4561 52.8652C32.2484 52.8652 37.6043 51.1978 41.9599 48.3723V4.49296C37.6043 1.66747 32.2484 0 26.4561 0C20.6639 0 15.3079 1.66747 10.9524 4.49296V48.3723Z" fill="url(#paint11_linear)"/>
<path d="M20.4507 52.2522C22.3801 52.653 24.3903 52.8652 26.4561 52.8652C28.5219 52.8652 30.5322 52.653 32.4615 52.2522V0.613073C30.5322 0.21224 28.5219 0 26.4561 0C24.3903 0 22.3801 0.21224 20.4507 0.613073V52.2522Z" fill="url(#paint12_linear)"/>
<ellipse cx="26.4561" cy="23.6385" rx="26.4326" ry="23.6385" fill="url(#paint13_linear)"/>
<ellipse cx="26.4561" cy="23.6385" rx="23.4848" ry="21.0022" fill="url(#paint14_linear)"/>
<ellipse cx="26.4561" cy="23.6385" rx="21.2605" ry="19.0131" fill="url(#paint15_linear)"/>
<path d="M52.445 27.9671L42.853 18.375C42.6915 18.0403 42.3766 17.7766 41.9488 17.7155L37.4842 17.0663L27.5336 7.14003V7.13989C27.3156 6.69102 26.8858 6.46429 26.4561 6.46429C26.0265 6.46429 25.5967 6.69087 25.3787 7.13989L20.9448 16.264L10.9635 17.7155C10.4697 17.786 10.1255 18.126 9.99509 18.5343C9.86251 18.9448 9.94587 19.4237 10.3072 19.7679L17.3808 26.8219C17.396 26.8422 17.4129 26.8617 17.4297 26.8815L15.795 36.4172C15.7117 36.8981 15.919 37.3257 16.2568 37.578L25.9503 47.2715C26.1187 47.2743 26.2872 47.2772 26.4563 47.2772C39.401 47.2769 50.1712 38.9548 52.445 27.9671Z" fill="url(#paint16_linear)"/>
<path fill-rule="evenodd" clip-rule="evenodd" d="M41.9488 17.7154C42.4426 17.7859 42.7868 18.1259 42.9171 18.5342C43.0497 18.9447 42.9664 19.4235 42.6051 19.7678L35.4349 26.6023L37.1173 36.4169C37.2007 36.8979 36.9933 37.3255 36.6556 37.5778C36.3157 37.8321 35.8433 37.9112 35.4029 37.691L26.4561 33.2316L17.5095 37.691C17.0692 37.9112 16.5967 37.8321 16.2568 37.5778C15.919 37.3255 15.7117 36.898 15.795 36.4169L17.4774 26.6023L10.3072 19.7678C9.94587 19.4235 9.86251 18.9447 9.99509 18.5342C10.1255 18.1259 10.4697 17.7859 10.9635 17.7154L20.9448 16.2639L25.3787 7.13976C25.5967 6.69075 26.0265 6.46417 26.4561 6.46417C26.8858 6.46417 27.3156 6.6909 27.5336 7.13976L31.9674 16.2639L41.9488 17.7154ZM26.4412 23.7591L26.4561 23.7548L26.471 23.7591L26.4647 23.7527L26.4561 23.7399L26.4475 23.7527L26.4412 23.7591Z" fill="url(#paint17_linear)"/>
<path d="M26.4476 23.7526L26.4412 23.7589L17.4774 26.6021L10.3072 19.7676C9.94603 19.4234 9.86252 18.9445 9.99509 18.5341L26.4476 23.7526Z" fill="url(#paint18_linear)"/>
<path d="M26.4412 23.7591L16.2566 37.5779C15.9189 37.3256 15.7115 36.898 15.7949 36.4171L17.4773 26.6025L26.4412 23.7591Z" fill="url(#paint19_linear)"/>
<path d="M36.6556 37.5777C36.3157 37.8321 35.8433 37.9112 35.4029 37.691L26.4561 33.2315V23.7546L26.471 23.7589L36.6556 37.5777Z" fill="url(#paint20_linear)"/>
<path d="M26.4561 23.7548V33.2317L17.5094 37.6911C17.0689 37.9113 16.5966 37.8322 16.2566 37.5779L26.4412 23.759L26.4561 23.7548Z" fill="url(#paint21_linear)"/>
<path d="M36.6556 37.5777L26.471 23.7589L35.4348 26.6021L37.1172 36.4168C37.2007 36.898 36.9933 37.3256 36.6556 37.5777Z" fill="url(#paint22_linear)"/>
<path d="M26.4561 23.7399L26.4475 23.7527L9.99509 18.5344C10.1254 18.126 10.4697 17.7861 10.9635 17.7156L20.9448 16.264L26.4561 23.7399Z" fill="url(#paint23_linear)"/>
<path d="M31.9674 16.2639L26.4561 23.7399V6.46417C26.8858 6.46417 27.3156 6.69075 27.5336 7.13976L31.9674 16.2639Z" fill="url(#paint24_linear)"/>
<path d="M26.4561 6.46417V23.7397L20.9448 16.2639L25.3787 7.13976C25.5967 6.69075 26.0265 6.46417 26.4561 6.46417Z" fill="url(#paint25_linear)"/>
<path d="M42.9171 18.5342L26.4647 23.7526L26.4561 23.7399L31.9674 16.264L41.9488 17.7156C42.4426 17.7861 42.7868 18.1259 42.9171 18.5342Z" fill="url(#paint26_linear)"/>
<path d="M42.6051 19.7678L35.4349 26.6023L26.4712 23.7591L26.4648 23.7527L42.9173 18.5344C43.0497 18.9447 42.9664 19.4235 42.6051 19.7678Z" fill="url(#paint27_linear)"/>
<path fill-rule="evenodd" clip-rule="evenodd" d="M39.3249 18.4651C39.7352 18.5237 40.021 18.806 40.1294 19.1452C40.2395 19.4862 40.1702 19.8839 39.8703 20.1698L33.9144 25.8468L35.3118 33.9993C35.3812 34.3988 35.2088 34.7539 34.9283 34.9635C34.6459 35.1748 34.2534 35.2406 33.8876 35.0576L26.4561 31.3535L19.0248 35.0576C18.659 35.2405 18.2664 35.1748 17.9841 34.9635C17.7036 34.7539 17.5313 34.3988 17.6006 33.9993L18.998 25.8468L13.0421 20.1698C12.7421 19.8839 12.6728 19.4862 12.7829 19.1452C12.8912 18.806 13.1771 18.5237 13.5874 18.4651L21.8783 17.2593L25.5612 9.68046C25.7423 9.30756 26.0992 9.11926 26.4561 9.11926C26.8131 9.11926 27.1699 9.30756 27.3511 9.68046L31.0339 17.2593L39.3249 18.4651ZM26.4437 23.4851L26.4561 23.4815L26.4685 23.4851L26.4632 23.4798L26.4561 23.4691L26.449 23.4798L26.4437 23.4851Z" fill="url(#paint28_linear)"/>
<ellipse cx="26.4561" cy="23.6385" rx="19.0067" ry="16.9975" fill="url(#paint29_linear)"/>
<defs>
<linearGradient id="paint0_linear" x1="1.53554" y1="63.3728" x2="34.4869" y2="93.3749" gradientUnits="userSpaceOnUse">
<stop stop-color="#4A98F7"/>
<stop offset="1" stop-color="#0469BC"/>
</linearGradient>
<linearGradient id="paint1_linear" x1="34.9426" y1="63.0612" x2="33.1419" y2="45.737" gradientUnits="userSpaceOnUse">
<stop stop-color="#0469BC" stop-opacity="0.01"/>
<stop offset="1" stop-color="#0469BC"/>
</linearGradient>
<linearGradient id="paint2_linear" x1="8.05295" y1="126.661" x2="24.2397" y2="126.876" gradientUnits="userSpaceOnUse">
<stop stop-color="#F9F7FC"/>
<stop offset="1" stop-color="#F0DDFC"/>
</linearGradient>
<linearGradient id="paint3_linear" x1="30.8417" y1="138.336" x2="49.6244" y2="138.586" gradientUnits="userSpaceOnUse">
<stop stop-color="#F9F7FC"/>
<stop offset="1" stop-color="#F0DDFC"/>
</linearGradient>
<linearGradient id="paint4_linear" x1="38.3187" y1="16.3676" x2="6.25259" y2="12.2899" gradientUnits="userSpaceOnUse">
<stop stop-color="#18CFFC" stop-opacity="0.01"/>
<stop offset="1" stop-color="#65E1DC"/>
</linearGradient>
<linearGradient id="paint5_linear" x1="58.972" y1="71.8686" x2="58.972" y2="46.6121" gradientUnits="userSpaceOnUse">
<stop stop-color="#0469BC" stop-opacity="0.01"/>
<stop offset="1" stop-color="#0469BC"/>
</linearGradient>
<linearGradient id="paint6_linear" x1="16.3658" y1="64.0571" x2="16.3658" y2="45.4298" gradientUnits="userSpaceOnUse">
<stop stop-color="#F0DDFC" stop-opacity="0.01"/>
<stop offset="0.2889" stop-color="#C8B7E0" stop-opacity="0.289"/>
<stop offset="0.5915" stop-color="#A595C8" stop-opacity="0.592"/>
<stop offset="0.8395" stop-color="#8F81B8" stop-opacity="0.84"/>
<stop offset="1" stop-color="#8779B3"/>
</linearGradient>
<linearGradient id="paint7_linear" x1="39.4517" y1="64.0571" x2="39.4517" y2="45.4297" gradientUnits="userSpaceOnUse">
<stop stop-color="#F0DDFC" stop-opacity="0.01"/>
<stop offset="0.2889" stop-color="#C8B7E0" stop-opacity="0.289"/>
<stop offset="0.5915" stop-color="#A595C8" stop-opacity="0.592"/>
<stop offset="0.8395" stop-color="#8F81B8" stop-opacity="0.84"/>
<stop offset="1" stop-color="#8779B3"/>
</linearGradient>
<linearGradient id="paint8_linear" x1="0.0234985" y1="52.8652" x2="52.8887" y2="52.8652" gradientUnits="userSpaceOnUse">
<stop stop-color="#FFDA45"/>
<stop offset="1" stop-color="#FFA425"/>
</linearGradient>
<linearGradient id="paint9_linear" x1="35.2531" y1="39.7086" x2="54.1188" y2="45.8244" gradientUnits="userSpaceOnUse">
<stop stop-color="#FFDA45" stop-opacity="0.01"/>
<stop offset="0.5194" stop-color="#D9874F" stop-opacity="0.519"/>
<stop offset="1" stop-color="#B53759"/>
</linearGradient>
<linearGradient id="paint10_linear" x1="6.73484" y1="34.7838" x2="34.9509" y2="71.5894" gradientUnits="userSpaceOnUse">
<stop stop-color="#FFDA45" stop-opacity="0.01"/>
<stop offset="0.5194" stop-color="#D9874F" stop-opacity="0.519"/>
<stop offset="1" stop-color="#B53759"/>
</linearGradient>
<linearGradient id="paint11_linear" x1="18.0098" y1="32.4938" x2="10.9222" y2="57.2257" gradientUnits="userSpaceOnUse">
<stop stop-color="#FFDA45" stop-opacity="0.01"/>
<stop offset="0.5194" stop-color="#D9874F" stop-opacity="0.519"/>
<stop offset="1" stop-color="#B53759"/>
</linearGradient>
<linearGradient id="paint12_linear" x1="19.5727" y1="18.5503" x2="10.3526" y2="19.4208" gradientUnits="userSpaceOnUse">
<stop stop-color="#FFDA45" stop-opacity="0.01"/>
<stop offset="0.5194" stop-color="#D9874F" stop-opacity="0.519"/>
<stop offset="1" stop-color="#B53759"/>
</linearGradient>
<linearGradient id="paint13_linear" x1="0.0234985" y1="47.2769" x2="52.8887" y2="47.2769" gradientUnits="userSpaceOnUse">
<stop stop-color="#FFDA45"/>
<stop offset="1" stop-color="#FFA425"/>
</linearGradient>
<linearGradient id="paint14_linear" x1="49.9409" y1="2.63636" x2="2.97152" y2="2.63636" gradientUnits="userSpaceOnUse">
<stop stop-color="#FFDA45"/>
<stop offset="1" stop-color="#FFA425"/>
</linearGradient>
<linearGradient id="paint15_linear" x1="5.19559" y1="42.6515" x2="47.7166" y2="42.6515" gradientUnits="userSpaceOnUse">
<stop stop-color="#FFDA45"/>
<stop offset="1" stop-color="#FFA425"/>
</linearGradient>
<linearGradient id="paint16_linear" x1="78.4723" y1="24.662" x2="27.2389" y2="-23.0685" gradientUnits="userSpaceOnUse">
<stop stop-color="#FFDA45" stop-opacity="0.01"/>
<stop offset="0.5194" stop-color="#D9874F" stop-opacity="0.519"/>
<stop offset="1" stop-color="#B53759"/>
</linearGradient>
<linearGradient id="paint17_linear" x1="6.37199" y1="29.9574" x2="29.9845" y2="57.1215" gradientUnits="userSpaceOnUse">
<stop stop-color="#FFDA45"/>
<stop offset="1" stop-color="#FCB37E"/>
</linearGradient>
<linearGradient id="paint18_linear" x1="-0.790343" y1="23.2447" x2="3.49198" y2="42.3765" gradientUnits="userSpaceOnUse">
<stop stop-color="#FCB37E" stop-opacity="0.01"/>
<stop offset="1" stop-color="#FF7044"/>
</linearGradient>
<linearGradient id="paint19_linear" x1="15.7764" y1="37.5779" x2="26.4412" y2="37.5779" gradientUnits="userSpaceOnUse">
<stop stop-color="#FFDA45"/>
<stop offset="1" stop-color="#FCB37E"/>
</linearGradient>
<linearGradient id="paint20_linear" x1="16.4691" y1="38.183" x2="38.957" y2="51.5058" gradientUnits="userSpaceOnUse">
<stop stop-color="#FCB37E" stop-opacity="0.01"/>
<stop offset="1" stop-color="#FF7044"/>
</linearGradient>
<linearGradient id="paint21_linear" x1="13.7695" y1="47.2121" x2="37.1858" y2="46.7874" gradientUnits="userSpaceOnUse">
<stop stop-color="#FCB37E" stop-opacity="0.01"/>
<stop offset="1" stop-color="#FF7044"/>
</linearGradient>
<linearGradient id="paint22_linear" x1="44.6808" y1="36.6163" x2="35.1216" y2="11.3247" gradientUnits="userSpaceOnUse">
<stop stop-color="#FFDA45"/>
<stop offset="1" stop-color="#FCB37E"/>
</linearGradient>
<linearGradient id="paint23_linear" x1="0.451599" y1="18.5321" x2="1.19795" y2="34.1202" gradientUnits="userSpaceOnUse">
<stop stop-color="#FFDA45"/>
<stop offset="1" stop-color="#FCB37E"/>
</linearGradient>
<linearGradient id="paint24_linear" x1="34.0544" y1="-17.1912" x2="11.5968" y2="-18.0959" gradientUnits="userSpaceOnUse">
<stop stop-color="#FCB37E" stop-opacity="0.01"/>
<stop offset="1" stop-color="#FF7044"/>
</linearGradient>
<linearGradient id="paint25_linear" x1="19.9351" y1="28.1355" x2="34.3036" y2="30.6318" gradientUnits="userSpaceOnUse">
<stop stop-color="#FCB37E" stop-opacity="0.01"/>
<stop offset="1" stop-color="#FF7044"/>
</linearGradient>
<linearGradient id="paint26_linear" x1="16.5474" y1="12.7816" x2="11.2852" y2="35.306" gradientUnits="userSpaceOnUse">
<stop stop-color="#FCB37E" stop-opacity="0.01"/>
<stop offset="1" stop-color="#FF7044"/>
</linearGradient>
<linearGradient id="paint27_linear" x1="55.1059" y1="27.0502" x2="56.9064" y2="5.36845" gradientUnits="userSpaceOnUse">
<stop stop-color="#FCB37E" stop-opacity="0.01"/>
<stop offset="1" stop-color="#FF7044"/>
</linearGradient>
<linearGradient id="paint28_linear" x1="32.3468" y1="20.5288" x2="25.6893" y2="9.85079" gradientUnits="userSpaceOnUse">
<stop stop-color="#FFDA45" stop-opacity="0.01"/>
<stop offset="1" stop-color="#FFEE83"/>
</linearGradient>
<linearGradient id="paint29_linear" x1="35.9848" y1="15.5851" x2="24.1165" y2="-4.99898" gradientUnits="userSpaceOnUse">
<stop stop-color="#FFDA45" stop-opacity="0.01"/>
<stop offset="1" stop-color="#FCEE21"/>
</linearGradient>
</defs>
</svg>
