<svg xmlns="http://www.w3.org/2000/svg" width="64" height="64" viewBox="0 0 64 64">
    <g fill="none" fill-rule="evenodd">
        <g>
            <g>
                <g>
                    <g transform="translate(-584 -3531) translate(1 3239) translate(583 289) translate(0 3)">
                        <rect width="64" height="64" fill="#FAFAFA" rx="16"/>
                        <g fill="#3BB3C1" fill-rule="nonzero">
                            <path d="M31.057 21.16c-.589-.68-1.251-1.367-1.977-2.05.726-.685 1.388-1.37 1.977-2.05 1.227-1.418 2.08-2.748 2.533-3.954.525-1.393.51-2.588-.046-3.551-.556-.963-1.583-1.575-3.053-1.817-1.27-.209-2.849-.136-4.69.218-.883.17-1.808.4-2.764.687-.209-.884-.445-1.722-.708-2.507.408-.39.664-.938.664-1.546 0-1.179-.959-2.138-2.137-2.138-.078 0-.154.005-.23.013-.172-.263-.35-.507-.532-.73C19.149.584 18.107 0 16.994 0c-1.112 0-2.154.584-3.099 1.735-.816.996-1.542 2.4-2.156 4.17-.295.85-.558 1.767-.787 2.738-.956-.287-1.88-.518-2.764-.687-1.841-.354-3.42-.427-4.69-.218C2.028 7.98 1 8.592.445 9.555S-.126 11.713.4 13.106c.454 1.206 1.306 2.536 2.533 3.953.588.68 1.251 1.366 1.977 2.05-.435.41-.848.821-1.236 1.231-.2-.061-.411-.095-.63-.095-1.18 0-2.138.959-2.138 2.138 0 .401.111.777.305 1.099-.344.564-.615 1.109-.811 1.63-.525 1.394-.51 2.589.046 3.552.556.963 1.583 1.574 3.053 1.816.471.078.985.117 1.54.117.938 0 1.992-.112 3.15-.334.883-.17 1.808-.4 2.764-.687.229.97.492 1.887.786 2.737.615 1.771 1.34 3.174 2.157 4.17.945 1.152 1.987 1.736 3.1 1.736 1.112 0 2.154-.584 3.099-1.736.816-.996 1.542-2.399 2.156-4.17.295-.85.558-1.767.787-2.737.842.252 1.66.461 2.446.623.219.948 1.07 1.657 2.083 1.657.872 0 1.623-.525 1.955-1.276.34-.017.665-.05.97-.1 1.47-.242 2.496-.853 3.053-1.816.556-.963.571-2.158.046-3.552-.454-1.205-1.306-2.535-2.533-3.953zM26.108 9.552c3.132-.601 5.385-.297 6.027.815.641 1.112-.221 3.215-2.308 5.627-.58.67-1.237 1.347-1.96 2.023-1.17-1.005-2.47-1.998-3.866-2.954-.13-1.688-.34-3.309-.626-4.825.947-.288 1.862-.518 2.733-.686zm-6.347 14.348c-.922.532-1.847 1.03-2.767 1.488-.92-.459-1.844-.956-2.766-1.488-.922-.532-1.815-1.085-2.672-1.652-.062-1.026-.094-2.075-.094-3.14 0-1.064.032-2.114.094-3.14.857-.567 1.75-1.12 2.672-1.651.922-.533 1.847-1.03 2.766-1.489.92.46 1.845.956 2.767 1.489.922.532 1.815 1.084 2.672 1.651.062 1.026.094 2.076.094 3.14 0 1.065-.032 2.114-.094 3.14-.857.567-1.75 1.12-2.672 1.652zm2.505.39c-.113 1.098-.264 2.16-.448 3.172-.97-.346-1.964-.747-2.972-1.197.576-.306 1.153-.624 1.728-.956.575-.332 1.14-.673 1.692-1.02zm-7.123 1.975c-1.008.45-2.002.851-2.972 1.197-.184-1.012-.335-2.074-.449-3.172.553.346 1.117.687 1.693 1.019.575.332 1.152.65 1.728.956zm-5.272-5.182c-.894-.648-1.738-1.309-2.523-1.975.785-.666 1.629-1.327 2.523-1.975-.024.652-.036 1.311-.036 1.975 0 .664.012 1.323.036 1.975zm1.851-7.156c.114-1.099.264-2.16.45-3.173.969.346 1.963.747 2.971 1.198-.576.305-1.153.624-1.728.956-.576.332-1.14.672-1.693 1.019zm7.124-1.975c1.008-.45 2.002-.852 2.972-1.198.184 1.013.335 2.074.448 3.173-.552-.347-1.117-.687-1.692-1.02-.575-.331-1.152-.65-1.728-.955zm5.272 5.181c.894.648 1.738 1.309 2.523 1.975-.785.667-1.629 1.327-2.523 1.975.024-.652.036-1.31.036-1.975 0-.664-.012-1.323-.036-1.975zM13.275 6.44c1.046-3.013 2.436-4.812 3.72-4.812.725 0 1.486.576 2.198 1.621-.297.367-.475.834-.475 1.342 0 1.163.935 2.112 2.093 2.136.25.757.476 1.567.675 2.422-1.456.51-2.965 1.139-4.492 1.87-1.526-.731-3.035-1.36-4.491-1.87.224-.964.482-1.872.772-2.71zm-9.113 9.556c-2.087-2.412-2.95-4.515-2.308-5.627.425-.736 1.555-1.118 3.18-1.118.83 0 1.788.1 2.847.303.87.168 1.785.398 2.733.686-.286 1.516-.497 3.137-.626 4.825-1.397.956-2.696 1.949-3.866 2.954-.723-.676-1.38-1.353-1.96-2.023zm3.719 12.67c-3.132.602-5.385.297-6.027-.815-.433-.75-.18-1.951.67-3.394.166.042.34.064.518.064 1.179 0 2.138-.959 2.138-2.138 0-.361-.091-.703-.25-1.002.373-.392.771-.786 1.192-1.18 1.17 1.006 2.469 1.999 3.866 2.954.13 1.688.34 3.31.626 4.825-.947.289-1.862.519-2.733.686zm12.832 3.115c-1.045 3.013-2.435 4.812-3.719 4.812-1.283 0-2.673-1.8-3.718-4.812-.291-.838-.55-1.745-.773-2.71 1.456-.51 2.965-1.138 4.491-1.87 1.527.732 3.036 1.36 4.492 1.87-.224.965-.482 1.872-.773 2.71zm11.422-3.93c-.37.641-1.276 1.013-2.576 1.099-.31-.8-1.086-1.368-1.993-1.368-.766 0-1.439.405-1.816 1.012-.763-.159-1.557-.364-2.375-.613.286-1.517.497-3.138.626-4.825 1.397-.956 2.696-1.95 3.866-2.955.723.676 1.38 1.353 1.96 2.024 2.087 2.412 2.95 4.515 2.308 5.626z" transform="translate(15 13)"/>
                            <path d="M16.994 15.734c-1.86 0-3.375 1.514-3.375 3.375 0 1.862 1.514 3.376 3.375 3.376 1.862 0 3.376-1.514 3.376-3.376 0-1.861-1.514-3.375-3.376-3.375zm0 5.124c-.964 0-1.748-.784-1.748-1.749 0-.964.784-1.749 1.748-1.749.965 0 1.75.785 1.75 1.75 0 .964-.785 1.748-1.75 1.748z" transform="translate(15 13)"/>
                        </g>
                    </g>
                </g>
            </g>
        </g>
    </g>
</svg>
