<svg xmlns="http://www.w3.org/2000/svg" width="24" height="24" viewBox="0 0 24 24">
    <g fill="none" fill-rule="evenodd" opacity=".8">
        <g fill="#CDCED1">
            <g>
                <g>
                    <path d="M13.651.889c.31 0 .576.216.64.519l.444 2.11c.458.148.901.332 1.328.55L17.87 2.89c.259-.168.6-.133.82.086l2.334 2.335c.219.218.254.56.086.819L19.93 7.937c.219.427.403.87.55 1.328l2.111.444c.303.064.52.33.52.64v3.302c0 .31-.217.576-.52.64l-2.11.444c-.148.458-.332.901-.55 1.328l1.178 1.807c.168.259.133.6-.086.82l-2.335 2.334c-.218.219-.56.254-.819.086l-1.807-1.179c-.427.219-.87.403-1.328.55l-.444 2.111c-.064.303-.33.52-.64.52H10.35c-.31 0-.576-.217-.64-.52l-.444-2.11c-.458-.148-.901-.332-1.328-.55L6.13 21.11c-.259.168-.6.133-.82-.086L2.977 18.69c-.219-.218-.254-.56-.086-.819l1.179-1.807c-.219-.427-.403-.87-.55-1.328l-2.111-.444c-.303-.064-.52-.33-.52-.64V10.35c0-.31.217-.576.52-.64l2.11-.444c.148-.458.332-.901.55-1.328L2.89 6.13c-.168-.259-.133-.6.086-.82L5.31 2.977c.218-.219.56-.254.819-.086L7.937 4.07c.427-.219.87-.403 1.328-.55l.444-2.111c.064-.303.33-.52.64-.52h3.302zM12 7.425c-2.527 0-4.575 2.048-4.575 4.575S9.473 16.575 12 16.575s4.575-2.048 4.575-4.575S14.527 7.425 12 7.425zm0 1.307c1.805 0 3.268 1.463 3.268 3.268 0 1.805-1.463 3.268-3.268 3.268-1.805 0-3.268-1.463-3.268-3.268 0-1.805 1.463-3.268 3.268-3.268z" transform="translate(-40 -575) translate(40 574) translate(0 1)"/>
                </g>
            </g>
        </g>
    </g>
</svg>
