<svg xmlns="http://www.w3.org/2000/svg" viewBox="0 0 22.222 22.222">
  <path id="Combined_Shape" data-name="Combined Shape" d="M9.46,22.222a.657.657,0,0,1-.64-.518l-.444-2.111a8.944,8.944,0,0,1-1.328-.551L5.241,20.22a.654.654,0,0,1-.819-.085L2.087,17.8A.655.655,0,0,1,2,16.981L3.18,15.174a8.825,8.825,0,0,1-.55-1.328L.519,13.4A.658.658,0,0,1,0,12.762V9.46a.658.658,0,0,1,.519-.64L2.63,8.376a8.813,8.813,0,0,1,.55-1.328L2,5.241a.655.655,0,0,1,.086-.819L4.422,2.087A.653.653,0,0,1,5.241,2L7.048,3.18a8.874,8.874,0,0,1,1.328-.55L8.82.519A.658.658,0,0,1,9.46,0h3.3a.658.658,0,0,1,.64.519l.445,2.111a8.764,8.764,0,0,1,1.328.55L16.981,2a.653.653,0,0,1,.819.086l2.336,2.335a.655.655,0,0,1,.085.819L19.042,7.048a8.911,8.911,0,0,1,.551,1.328L21.7,8.82a.657.657,0,0,1,.518.64v3.3a.657.657,0,0,1-.518.64l-2.111.445a8.934,8.934,0,0,1-.551,1.328l1.178,1.807a.656.656,0,0,1-.085.819L17.8,20.136a.654.654,0,0,1-.819.085l-1.807-1.178a8.9,8.9,0,0,1-1.328.551L13.4,21.7a.657.657,0,0,1-.64.518ZM6.536,11.111a4.575,4.575,0,1,0,4.576-4.576A4.58,4.58,0,0,0,6.536,11.111Zm1.308,0a3.268,3.268,0,1,1,3.268,3.268A3.267,3.267,0,0,1,7.844,11.111Z" fill=""/>
</svg>
