<svg xmlns="http://www.w3.org/2000/svg" xmlns:xlink="http://www.w3.org/1999/xlink" width="18" height="18" viewBox="0 0 18 18">
    <defs>
        <path id="4fji2x42oa" d="M0 0L15.997 0 15.997 16 0 16z"/>
    </defs>
    <g fill="none" fill-rule="evenodd">
        <g>
            <g>
                <g>
                    <g>
                        <path d="M0 0L18 0 18 18 0 18z" transform="translate(-1290 -560) translate(1153 547) translate(121) translate(16 13)"/>
                        <g>
                            <path fill="#000" d="M.498 13h6.004c.275 0 .498-.299.498-.667v-.666c0-.368-.223-.667-.498-.667H.498c-.275 0-.498.299-.498.667v.666c0 .368.223.667.498.667zM.493 9h5.014C5.78 9 6 8.702 6 8.333v-.666C6 7.298 5.78 7 5.507 7H.493C.22 7 0 7.298 0 7.667v.666C0 8.702.22 9 .493 9zM.485 5h4.03C4.782 5 5 4.702 5 4.333v-.666C5 3.299 4.782 3 4.515 3H.485C.217 3 0 3.299 0 3.667v.666C0 4.702.217 5 .485 5z" transform="translate(-1290 -560) translate(1153 547) translate(121) translate(16 13) translate(1 1)"/>
                            <g transform="translate(-1290 -560) translate(1153 547) translate(121) translate(16 13) translate(1 1)">
                                <mask id="fy7ftp9b4b" fill="#fff">
                                    <use xlink:href="#4fji2x42oa"/>
                                </mask>
                                <path fill="#000" d="M.531 1.634h3.412c.293 0 .531-.244.531-.545V.545c0-.301-.238-.545-.53-.545H.53C.238 0 0 .244 0 .545v.544c0 .301.238.545.531.545zM15.843 11.61l-.376-.386c-.1-.102-.234-.16-.375-.16s-.276.058-.376.16l-1.827 1.874V.818c0-.302-.237-.546-.53-.546h-.532c-.293 0-.53.244-.53.545v12.28l-1.828-1.873c-.1-.102-.234-.16-.375-.16s-.276.058-.376.16l-.375.385c-.208.213-.208.558 0 .77l3.374 3.462c.1.102.235.159.376.159.14 0 .276-.057.375-.16l3.375-3.46c.207-.213.207-.558 0-.77z" mask="url(#fy7ftp9b4b)"/>
                            </g>
                        </g>
                    </g>
                </g>
            </g>
        </g>
    </g>
</svg>
