<svg xmlns="http://www.w3.org/2000/svg" width="18" height="18" viewBox="0 0 18 18">
    <g fill="none" fill-rule="evenodd">
        <g>
            <g>
                <g>
                    <g>
                        <g>
                            <g>
                                <path d="M0 0L18 0 18 18 0 18z" transform="translate(-418 -1969) translate(0 1315) translate(210 343) translate(6 6) translate(10 275) translate(192 30)"/>
                                <path fill="#949494" fill-rule="nonzero" d="M5.25 8.25c-1.206 0-2.32-.643-2.923-1.687-.603-1.045-.603-2.331 0-3.376C2.93 2.143 4.044 1.5 5.25 1.5c1.864 0 3.375 1.511 3.375 3.375S7.114 8.25 5.25 8.25zm7.875 3c-1.657 0-3-1.343-3-3s1.343-3 3-3 3 1.343 3 3-1.343 3-3 3zm0 .75c1.864 0 3.375 1.511 3.375 3.375v.375H9.75v-.375c0-1.864 1.511-3.375 3.375-3.375zM5.25 9c.995 0 1.948.395 2.652 1.098C8.605 10.802 9 11.755 9 12.75v3H1.5v-3C1.5 10.679 3.179 9 5.25 9z" transform="translate(-418 -1969) translate(0 1315) translate(210 343) translate(6 6) translate(10 275) translate(192 30)"/>
                            </g>
                        </g>
                    </g>
                </g>
            </g>
        </g>
    </g>
</svg>
