<svg xmlns="http://www.w3.org/2000/svg" width="25.695" height="30.934" viewBox="0 0 25.695 30.934">
  <g id="technology_fill" data-name="technology fill" transform="translate(-197.191 -160.74)">
    <path id="Path_762" data-name="Path 762" d="M329.53,522.31h-5.764a.938.938,0,0,0,0,1.877h5.764a.938.938,0,1,0,0-1.877Z" transform="translate(-116.61 -335.591)" fill="#3bb3c1"/>
    <path id="Path_763" data-name="Path 763" d="M345.167,567.827h1.057a1.814,1.814,0,0,0,1.815-1.815h-4.687A1.818,1.818,0,0,0,345.167,567.827Z" transform="translate(-135.66 -376.153)" fill="#3bb3c1"/>
    <path id="Path_764" data-name="Path 764" d="M510.173,331.01H508a.619.619,0,1,0,0,1.237h2.17a.619.619,0,0,0,0-1.237Z" transform="translate(-287.906 -158.036)" fill="#3bb3c1"/>
    <path id="Path_765" data-name="Path 765" d="M197.809,332.248h2.17a.619.619,0,1,0,0-1.237h-2.17a.619.619,0,0,0,0,1.237Z" transform="translate(0 -158.037)" fill="#3bb3c1"/>
    <path id="Path_766" data-name="Path 766" d="M468.1,432.534a.621.621,0,0,0,.438.18.629.629,0,0,0,.438-.18.62.62,0,0,0,0-.877l-1.536-1.536a.62.62,0,0,0-.877.876Z" transform="translate(-249.853 -249.857)" fill="#3bb3c1"/>
    <path id="Path_767" data-name="Path 767" d="M248.683,213.184a.621.621,0,0,0,.438.18.629.629,0,0,0,.438-.18.62.62,0,0,0,0-.877l-1.536-1.536a.62.62,0,0,0-.877.876Z" transform="translate(-46.198 -46.268)" fill="#3bb3c1"/>
    <path id="Path_768" data-name="Path 768" d="M368.009,164.148a.621.621,0,0,0,.619-.619v-2.171a.619.619,0,0,0-1.238,0v2.17A.617.617,0,0,0,368.009,164.148Z" transform="translate(-157.971)" fill="#3bb3c1"/>
    <path id="Path_769" data-name="Path 769" d="M248.687,430.123l-1.536,1.536a.619.619,0,0,0,.438,1.057.628.628,0,0,0,.438-.18L249.563,431a.62.62,0,1,0-.876-.877Z" transform="translate(-46.202 -249.859)" fill="#3bb3c1"/>
    <path id="Path_770" data-name="Path 770" d="M466.565,213.184a.621.621,0,0,0,.438.18.629.629,0,0,0,.438-.18l1.532-1.536a.62.62,0,1,0-.877-.876l-1.536,1.536a.624.624,0,0,0,.005.877Z" transform="translate(-249.85 -46.268)" fill="#3bb3c1"/>
    <path id="Path_771" data-name="Path 771" d="M277.737,256.166h5.336v-.015a9.7,9.7,0,0,1,2.681-6.723,7.4,7.4,0,0,0-5.7-12.523A7.467,7.467,0,0,0,273,244.133a7.373,7.373,0,0,0,1.944,5.171,10.166,10.166,0,0,1,2.794,6.852v.01Zm-.015-11.688,4.857-3.65-1.516,3.449,2.026.892-4.857,3.65,1.516-3.449Z" transform="translate(-70.365 -70.685)" fill="#3bb3c1"/>
  </g>
</svg>
