<svg xmlns="http://www.w3.org/2000/svg" width="68" height="68" viewBox="0 0 68 68">
  <g id="Group_2094" data-name="Group 2094" transform="translate(6859 6500)">
    <path id="textbook" d="M175.439,209.133a.415.415,0,0,0-.338.415v22.283a.416.416,0,0,0,.415.416H185.9a2.878,2.878,0,0,1,2.766,2.636.416.416,0,0,0,.415.351h.065a.416.416,0,0,0,.4-.351,2.964,2.964,0,0,1,2.026-2.532v4.324a1.8,1.8,0,0,0,1.532,1.714h.013a2.057,2.057,0,0,0,.364.026h14.959a1.83,1.83,0,0,0,1.909-1.74V218.95a1.679,1.679,0,0,0-1.753-1.6h-5.48v-7.8a.416.416,0,0,0-.415-.416H192.32a3.6,3.6,0,0,0-3.207,2.078,3.6,3.6,0,0,0-3.207-2.078H175.516a.417.417,0,0,0-.078,0Zm.494.831h9.973a2.922,2.922,0,0,1,2.792,3.064v19.907a3.476,3.476,0,0,0-2.792-1.519h-9.973Zm16.388,0h9.973v21.451H192.32a3.488,3.488,0,0,0-2.792,1.506V213.028a2.922,2.922,0,0,1,2.792-3.064ZM178.1,214.158h0a.418.418,0,1,0,.091.831h7.713a.416.416,0,1,0,0-.831h-7.713a.4.4,0,0,0-.091,0Zm14.1,0h0a.42.42,0,0,0,.117.831h7.713a.416.416,0,1,0,0-.831h-7.713a.425.425,0,0,0-.078,0H192.2Zm-14.089,4.324h0a.417.417,0,1,0,.078.831h7.713a.416.416,0,1,0,0-.831h-7.791Zm14.128,0h0a.417.417,0,1,0,.078.831h7.713a.416.416,0,1,0,0-.831h-7.791Zm-14.128,4.324h0a.417.417,0,1,0,.078.831h7.713a.416.416,0,1,0,0-.831h-7.791Zm14.128,0h0a.417.417,0,1,0,.078.831h7.713a.416.416,0,1,0,0-.831h-7.791Zm-14.089,4.324h0a.416.416,0,1,0,.039.831h7.713a.416.416,0,1,0,0-.831h-7.752Zm14.128,0h0a.416.416,0,1,0,.039.831h7.713a.416.416,0,1,0,0-.831h-7.752Zm17.245,8.493v1.052a.994.994,0,0,1-1.078.909H194.178a.715.715,0,0,1-.584-.26,1,1,0,0,1-.234-.61.883.883,0,0,1,.182-.6.756.756,0,0,1,.636-.26h14.428a1.9,1.9,0,0,0,.922-.234Z" transform="translate(-7017.249 -6689.75)" fill="#707070"/>
    <g id="Group_2093" data-name="Group 2093" transform="translate(-6859 -6500)">
      <g id="Ellipse_29" data-name="Ellipse 29" fill="none" stroke="#ff392d" stroke-width="1">
        <circle cx="34" cy="34" r="34" stroke="none"/>
        <circle cx="34" cy="34" r="33.5" fill="none"/>
      </g>
      <line id="Line_38" data-name="Line 38" x1="48.112" y2="48.112" transform="translate(9.46 9.46)" fill="none" stroke="#ff392d" stroke-width="1"/>
    </g>
  </g>
</svg>
