<svg width="16" height="16" viewBox="0 0 16 16" fill="none" xmlns="http://www.w3.org/2000/svg">
<path fill-rule="evenodd" clip-rule="evenodd" d="M10.4712 2.94637C8.22943 2.04967 5.50884 2.56099 3.92802 4.30216L3.92789 4.3023C3.14961 5.15909 2.66149 6.23958 2.53301 7.38993C2.40454 8.54028 2.64227 9.70184 3.21236 10.7092C3.78245 11.7166 4.65582 12.5184 5.70814 13.0006C6.76045 13.4827 7.93804 13.6205 9.07325 13.3945L9.07345 13.3944C11.3575 12.9402 13.0599 10.875 13.5143 8.60293C13.5955 8.19676 13.9907 7.93334 14.3968 8.01458C14.803 8.09581 15.0664 8.49093 14.9852 8.8971C14.4396 11.625 12.3719 14.2678 9.36602 14.8656C7.92127 15.1533 6.42259 14.9778 5.08335 14.3642C3.74404 13.7506 2.63247 12.7301 1.9069 11.448C1.18134 10.1659 0.878771 8.68752 1.04228 7.22344C1.20578 5.75943 1.82699 4.38431 2.81746 3.29387M2.81758 3.29373C4.86478 1.03901 8.2701 0.450385 11.0283 1.55366C11.4129 1.70749 11.5999 2.14397 11.4461 2.52856C11.2923 2.91314 10.8558 3.10021 10.4712 2.94637" fill="#2CA322"/>
<path fill-rule="evenodd" clip-rule="evenodd" d="M14.7587 3.1989C15.0631 3.47985 15.0821 3.95435 14.8011 4.25871L8.8011 10.7587C8.66266 10.9087 8.46906 10.9958 8.26499 10.9999C8.06092 11.0039 7.864 10.9247 7.71967 10.7803L5.21967 8.28034C4.92678 7.98744 4.92678 7.51257 5.21967 7.21967C5.51256 6.92678 5.98744 6.92678 6.28033 7.21967L8.22836 9.16771L13.6989 3.24129C13.9799 2.93693 14.4543 2.91795 14.7587 3.1989Z" fill="#2CA322"/>
</svg>
