<svg xmlns="http://www.w3.org/2000/svg" width="18" height="18" viewBox="0 0 18 18">
    <g fill="none" fill-rule="evenodd">
        <g>
            <g>
                <g>
                    <g>
                        <g>
                            <g>
                                <path d="M0 0L18 0 18 18 0 18z" transform="translate(-226 -2029) translate(0 1315) translate(210 343) translate(6 6) translate(10 275) translate(0 90)"/>
                                <path fill="#949494" fill-rule="nonzero" d="M9 16.5c-4.142 0-7.5-3.358-7.5-7.5 0-4.142 3.358-7.5 7.5-7.5 4.142 0 7.5 3.358 7.5 7.5 0 4.142-3.358 7.5-7.5 7.5zM9.75 9V5.25h-1.5v5.25h4.5V9h-3z" transform="translate(-226 -2029) translate(0 1315) translate(210 343) translate(6 6) translate(10 275) translate(0 90)"/>
                            </g>
                        </g>
                    </g>
                </g>
            </g>
        </g>
    </g>
</svg>
