<svg xmlns="http://www.w3.org/2000/svg" width="18" height="18" viewBox="0 0 18 18">
    <g fill="none" fill-rule="evenodd">
        <g>
            <g>
                <g>
                    <g>
                        <g>
                            <path d="M0 0L18 0 18 17.963 0 17.963z" transform="translate(-626 -1939) translate(0 1315) translate(610 343) translate(6 6) translate(10 275)"/>
                            <path fill="#949494" fill-rule="nonzero" d="M9 1.497c4.14 0 7.5 3.353 7.5 7.485 0 4.131-3.36 7.484-7.5 7.484-4.14 0-7.5-3.353-7.5-7.484C1.5 4.85 4.86 1.497 9 1.497zm2.652 3.78L7.94 8.982 9 10.04l3.713-3.705-1.061-1.058z" transform="translate(-626 -1939) translate(0 1315) translate(610 343) translate(6 6) translate(10 275)"/>
                        </g>
                    </g>
                </g>
            </g>
        </g>
    </g>
</svg>
