<svg xmlns="http://www.w3.org/2000/svg" width="78.61" height="78.61" viewBox="0 0 78.61 78.61">
  <g id="Group_2362" data-name="Group 2362" transform="translate(-4223 -8406)">
    <rect id="Rectangle_168" data-name="Rectangle 168" width="55.377" height="55.795" rx="8" transform="translate(4223 8445.157) rotate(-45)" fill="#3bb3c1"/>
    <path id="transparent" d="M207.89,162.844l-.014.008c-2.277,1.5-9.471,6.952-9.471,14.929a10.736,10.736,0,1,0,21.472,0c0-7.977-7.193-13.43-9.457-14.92l-.013-.01a2.38,2.38,0,0,0-2.517-.007Zm1.251,18.516a3.58,3.58,0,0,1-3.579-3.579,1.193,1.193,0,0,0-2.386,0,5.966,5.966,0,0,0,5.964,5.965,1.193,1.193,0,1,0,0-2.386Z" transform="translate(4053.594 8269.513)" fill="#fff" fill-rule="evenodd"/>
  </g>
</svg>
