<svg xmlns="http://www.w3.org/2000/svg" width="82" height="82" viewBox="0 0 82 82">
    <g fill="none" fill-rule="evenodd">
        <g fill-rule="nonzero">
            <g>
                <g>
                    <g>
                        <g>
                            <path fill="#FAFAFA" d="M66.625 82h-51.25C6.883 82 0 75.117 0 66.625v-51.25C0 6.883 6.883 0 15.375 0h51.25C75.117 0 82 6.883 82 15.375v51.25C82 75.117 75.117 82 66.625 82z" transform="translate(-755 -904) translate(210 729) translate(0 135) translate(400) translate(145 40)"/>
                            <g>
                                <g>
                                    <path fill="#000" d="M13.647 13.611L14.736 16.175 12.461 16.175z" transform="translate(-755 -904) translate(210 729) translate(0 135) translate(400) translate(145 40) translate(20 20) translate(15.012 14.766)"/>
                                    <path fill="#FF554B" fill-opacity=".827" d="M23.267 6.622l-.714-5.504c-.104-.792-.926-1.28-1.672-.986l-7.234 2.853-.215.085c-2.166 5.013-7.098 8.56-12.86 8.707-1.232 4.001-.327 8.656 2.974 11.958 2.258 2.257 5.258 3.5 8.45 3.5h3.044c6.588 0 11.948-5.36 11.948-11.95 0-3.432-1.437-6.506-3.72-8.663zm-5.09 14.504c-.636.269-1.351-.033-1.613-.651l-.782-1.84h-4.46l-.865 1.875c-.286.617-1.017.886-1.634.6-.617-.285-.886-1.016-.6-1.633l1.196-2.587 3.159-6.829c.447-.968 1.833-.944 2.25.035l2.9 6.829 1.1 2.588c.266.625-.026 1.348-.65 1.613z" transform="translate(-755 -904) translate(210 729) translate(0 135) translate(400) translate(145 40) translate(20 20) translate(15.012 14.766)"/>
                                </g>
                                <path fill="#FF554B" d="M15.21 0h-3.264C5.36 0 0 5.36 0 11.947c0 2.858.858 5.332 2.408 7.387l.72 6.868c.087.83.954 1.331 1.718.999l7.107-3.114h3.257c6.587 0 11.946-5.36 11.946-11.947v-.193C27.156 5.36 21.797 0 15.21 0zm1.808 14.647c1.054 1.307 2.236 2.178 2.249 2.186.548.4.668 1.17.268 1.72-.403.551-1.175.667-1.72.267-.831-.6-2.03-1.729-3.006-3.003v2.01c0 .68-.551 1.23-1.23 1.23h-.001c-.68 0-1.23-.55-1.23-1.23v-2.01c-1.047 1.367-2.283 2.481-3.006 3.003-.545.4-1.317.284-1.72-.268-.4-.549-.28-1.318.269-1.72.01-.007 1.205-.89 2.249-2.185.959-1.191 1.859-2.698 2.208-3.302v-1.34H8.617c-.68 0-1.23-.55-1.23-1.23 0-.68.55-1.231 1.23-1.231h3.731V6.26c0-.68.55-1.23 1.23-1.23.68 0 1.231.55 1.231 1.23v1.284h3.732c.68 0 1.23.55 1.23 1.23 0 .68-.55 1.23-1.23 1.23h-3.732v1.34c.35.606 1.252 2.115 2.21 3.303zM28.658 28.377l-1.185 2.564h2.275l-1.09-2.564zm0 0l-1.185 2.564h2.275l-1.09-2.564z" transform="translate(-755 -904) translate(210 729) translate(0 135) translate(400) translate(145 40) translate(20 20)"/>
                            </g>
                        </g>
                    </g>
                </g>
            </g>
        </g>
    </g>
</svg>
