<svg xmlns="http://www.w3.org/2000/svg" width="19.389" height="23.505" viewBox="0 0 19.389 23.505">
  <path id="transparent" d="M206.97,162.809l-.013.008c-2.057,1.354-8.552,6.278-8.552,13.481a9.695,9.695,0,1,0,19.389,0c0-7.2-6.5-12.127-8.54-13.473l-.012-.009a2.149,2.149,0,0,0-2.273-.006Zm1.13,16.72a3.233,3.233,0,0,1-3.231-3.232,1.077,1.077,0,0,0-2.154,0,5.387,5.387,0,0,0,5.386,5.386,1.077,1.077,0,1,0,0-2.154Z" transform="translate(-198.406 -162.487)" fill="#3bb3c1" fill-rule="evenodd"/>
</svg>
