<svg xmlns="http://www.w3.org/2000/svg" width="91.313" height="82.236" viewBox="0 0 91.313 82.236">
  <g id="Group_2016" data-name="Group 2016" transform="translate(21346.656 -3814.882)">
    <path id="Path_372" data-name="Path 372" d="M325.2,121.018c-9.665-14.8-8.638-29.969-13.3-37.1s-18.544-19.43-51.349,2-24.462,44.723-19.336,52.565C265.21,175.209,342.319,147.228,325.2,121.018Z" transform="translate(-21583 3741)" fill="#f5f3f7"/>
    <path id="Path_373" data-name="Path 373" d="M260.917,105.416v33.223a5.126,5.126,0,0,0,5.111,5.111h31.944a5.126,5.126,0,0,0,5.111-5.111V105.416Z" transform="translate(-21583 3741)" fill="#f5f3f7"/>
    <path id="Path_374" data-name="Path 374" d="M308.194,105.416H255.806V99.028a5.11,5.11,0,0,1,5.111-5.111h42.166a5.11,5.11,0,0,1,5.111,5.111Z" transform="translate(-21583 3741)" fill="#d51a52"/>
    <path id="Path_375" data-name="Path 375" d="M266.667,93.916h-5.75a5.11,5.11,0,0,0-5.111,5.111v6.388h5.75V99.028A5.11,5.11,0,0,1,266.667,93.916Z" transform="translate(-21583 3741)" fill="#c61349"/>
    <path id="Path_376" data-name="Path 376" d="M246.315,81.213l1.807-1.807,3.614,3.614-1.807,1.807Z" transform="translate(-21583 3741)" fill="#aba7af"/>
    <path id="Path_377" data-name="Path 377" d="M245.864,93.405l3.614-3.614,1.807,1.807-3.614,3.614Z" transform="translate(-21583 3741)" fill="#aba7af"/>
    <path id="Path_378" data-name="Path 378" d="M256.253,83.018l3.614-3.614,1.807,1.807-3.614,3.614Z" transform="translate(-21583 3741)" fill="#aba7af"/>
    <path id="Path_379" data-name="Path 379" d="M306.917,84.7a3.833,3.833,0,1,1,3.833-3.833A3.838,3.838,0,0,1,306.917,84.7Zm0-5.111a1.278,1.278,0,1,0,1.277,1.278A1.278,1.278,0,0,0,306.917,79.593Z" transform="translate(-21583 3741)" fill="#aba7af"/>
    <path id="Path_380" data-name="Path 380" d="M297.972,145.666H266.028A7.034,7.034,0,0,1,259,138.639V105.416h3.833v33.223a3.2,3.2,0,0,0,3.2,3.194h31.944a3.2,3.2,0,0,0,3.2-3.194V105.416H305v33.223A7.034,7.034,0,0,1,297.972,145.666Z" transform="translate(-21583 3741)" fill="#1a141f"/>
    <path id="Path_381" data-name="Path 381" d="M308.194,107.333H296.056V103.5h10.222V99.028a3.2,3.2,0,0,0-3.2-3.195H260.917a3.2,3.2,0,0,0-3.2,3.195V103.5h38.334v3.833h-40.25a1.917,1.917,0,0,1-1.917-1.916V99.028A7.034,7.034,0,0,1,260.917,92h42.166a7.034,7.034,0,0,1,7.028,7.028v6.389A1.917,1.917,0,0,1,308.194,107.333Z" transform="translate(-21583 3741)" fill="#1a141f"/>
    <path id="Path_382" data-name="Path 382" d="M294.778,93.916h-3.834V88.805a.639.639,0,0,0-.638-.639H273.694a.639.639,0,0,0-.638.639v5.111h-3.834V88.805a4.477,4.477,0,0,1,4.472-4.472h16.612a4.477,4.477,0,0,1,4.472,4.472Z" transform="translate(-21583 3741)" fill="#1a141f"/>
    <path id="Path_383" data-name="Path 383" d="M280.083,116.916h3.834v16.612h-3.834Z" transform="translate(-21583 3741)" fill="#1a141f"/>
    <path id="Path_384" data-name="Path 384" d="M269.222,116.916h3.834v16.612h-3.834Z" transform="translate(-21583 3741)" fill="#1a141f"/>
    <path id="Path_385" data-name="Path 385" d="M290.944,116.916h3.834v16.612h-3.834Z" transform="translate(-21583 3741)" fill="#1a141f"/>
    <path id="Path_386" data-name="Path 386" d="M241.111,141.833h81.778v3.834H241.111Z" transform="translate(-21583 3741)" fill="#1a141f"/>
  </g>
</svg>
