<svg xmlns="http://www.w3.org/2000/svg" xmlns:xlink="http://www.w3.org/1999/xlink" width="24" height="24" viewBox="0 0 24 24">
    <defs>
        <path id="mcz6pcrt7a" d="M0 0L24 0 24 24 0 24z"/>
    </defs>
    <g fill="none" fill-rule="evenodd">
        <g>
            <g>
                <g>
                    <g transform="translate(-230 -1533) translate(210 1336) translate(20 72) translate(0 125)">
                        <mask id="50kk0xseab" fill="#fff">
                            <use xlink:href="#mcz6pcrt7a"/>
                        </mask>
                        <path fill="#17A5E3" d="M12 0C5.374 0 0 5.374 0 12s5.374 12 12 12 12-5.374 12-12S18.626 0 12 0zm5.618 9.24c.006.12.008.239.008.359 0 3.67-2.786 7.9-7.88 7.901-1.565 0-3.02-.46-4.246-1.247.217.025.437.038.66.038 1.298 0 2.493-.444 3.44-1.189-1.212-.022-2.234-.825-2.587-1.928.169.032.343.05.52.05.254 0 .498-.034.731-.098-1.267-.254-2.222-1.377-2.222-2.722v-.036c.374.209.8.334 1.255.348-.744-.498-1.233-1.348-1.233-2.312 0-.509.138-.985.375-1.396 1.366 1.68 3.408 2.786 5.71 2.902-.048-.204-.072-.416-.072-.633 0-1.533 1.24-2.777 2.77-2.777.797 0 1.516.338 2.022.877.63-.124 1.223-.355 1.759-.674-.208.649-.647 1.192-1.219 1.536.56-.067 1.095-.216 1.591-.437-.37.557-.84 1.046-1.382 1.438z" mask="url(#50kk0xseab)"/>
                    </g>
                </g>
            </g>
        </g>
    </g>
</svg>
