<svg xmlns="http://www.w3.org/2000/svg" width="38" height="30" viewBox="0 0 38 30">
    <g fill="none" fill-rule="evenodd">
        <g fill="#9A968F" fill-rule="nonzero">
            <g>
                <g>
                    <g>
                        <g>
                            <path d="M24.673.007V0h1.731l.633.127c.421.082.804.19 1.148.323.344.133.677.288 1 .466.321.177.613.358.875.542.26.182.493.376.7.58.203.206.522.26.955.16.433-.1.899-.24 1.398-.417.5-.177.994-.377 1.482-.599.488-.222.786-.363.892-.423l.167-.1.006-.01.034-.016.033-.017.033-.017.034-.016.006-.01.01-.007.01-.007.007-.01.033-.01.033-.006-.006.05-.01.05-.017.05-.016.05-.017.033-.017.033-.016.05c-.012.033-.023.078-.034.133-.01.056-.116.278-.316.666-.2.389-.45.783-.75 1.182-.299.4-.567.702-.805.906-.24.206-.398.35-.476.433-.078.084-.172.162-.283.233l-.167.11-.033.016-.033.017-.007.01-.01.007-.01.006-.007.01-.033.017-.033.017-.007.01-.01.006-.01.007-.006.01-.007.01-.01.006-.01.007-.007.01h.167l.932-.2c.622-.133 1.215-.294 1.781-.482l.9-.3.1-.033.05-.017.033-.017.033-.016.033-.017.033-.017.067-.01.067-.006v.066l-.017.007-.017.01-.006.01-.01.007-.01.006-.007.01-.007.01-.01.007-.01.007-.006.01-.007.01-.01.006-.017.033-.016.034-.01.006-.423.566c-.278.373-.427.562-.45.567-.022.006-.053.04-.093.1-.038.062-.273.31-.706.742-.433.433-.856.818-1.272 1.155-.417.34-.628.757-.632 1.252-.007.493-.032 1.05-.077 1.672-.044.621-.127 1.293-.25 2.014-.122.722-.31 1.537-.566 2.447-.255.91-.566 1.798-.932 2.664-.366.866-.749 1.643-1.149 2.33-.4.689-.765 1.272-1.098 1.749-.333.477-.672.927-1.016 1.348-.344.422-.779.897-1.305 1.426-.528.526-.817.814-.866.865-.05.05-.268.231-.652.546-.382.318-.793.635-1.232.953-.438.315-.84.578-1.206.789-.366.21-.808.451-1.325.722-.515.273-1.072.526-1.671.76-.6.232-1.232.449-1.898.649-.666.2-1.31.355-1.931.466-.622.11-1.327.205-2.115.283l-1.182.116V30h-2.164v-.017l-.283-.016c-.189-.011-.344-.023-.466-.034-.122-.01-.583-.072-1.382-.183-.8-.11-1.426-.222-1.881-.333-.455-.11-1.132-.322-2.031-.632-.9-.311-1.668-.625-2.308-.943-.637-.315-1.036-.515-1.198-.599-.16-.082-.34-.184-.54-.306l-.3-.183-.006-.01-.01-.007-.01-.007-.007-.01-.033-.016-.033-.017-.007-.01-.01-.007-.01-.006-.007-.01-.006-.01-.01-.007H0v-.067l.033.007.034.01.15.017c.1.01.371.028.815.05.444.022.916.022 1.415 0 .5-.022 1.01-.072 1.532-.15s1.138-.211 1.848-.4c.71-.188 1.363-.413 1.958-.672.592-.262 1.014-.458 1.265-.586.249-.127.628-.362 1.139-.706l.765-.516.007-.01.01-.007.01-.007.007-.01.006-.01.01-.006.01-.007.007-.01.033-.01.034-.006.006-.034.01-.033.01-.007.007-.01-.266-.016-.516-.034c-.167-.01-.428-.06-.783-.15-.355-.088-.738-.221-1.149-.4-.41-.177-.81-.388-1.198-.632-.389-.244-.67-.447-.843-.609-.17-.16-.393-.386-.666-.68-.27-.294-.506-.597-.706-.908-.2-.311-.39-.67-.572-1.076l-.277-.606-.016-.05-.017-.05-.01-.033-.007-.033.05.006.05.01.367.05c.244.034.627.045 1.148.034.522-.011.883-.034 1.082-.067.2-.033.322-.055.367-.066l.066-.017.084-.017.083-.016.006-.01.01-.007.01-.007.007-.01-.067-.016-.066-.017-.067-.017-.066-.016-.067-.017c-.044-.011-.122-.033-.233-.067-.11-.033-.41-.155-.899-.366-.488-.21-.877-.416-1.165-.616-.29-.2-.565-.42-.826-.656-.26-.24-.545-.548-.856-.925-.31-.378-.588-.816-.832-1.316-.244-.499-.427-.976-.55-1.431-.121-.453-.201-.915-.24-1.382l-.06-.7.034.007.033.01.034.017.033.017.033.016.034.017.516.233c.344.155.771.289 1.282.4.51.11.815.172.915.183l.15.016h.3l-.007-.01-.01-.006-.01-.007-.007-.01-.006-.01-.01-.007-.01-.006-.007-.01-.033-.017-.034-.017-.006-.01-.01-.006-.01-.007-.007-.01-.033-.017-.033-.016-.007-.01-.286-.213c-.182-.14-.373-.321-.573-.543-.2-.222-.4-.455-.6-.7-.2-.244-.378-.506-.532-.782-.156-.277-.32-.63-.493-1.059-.17-.426-.3-.855-.39-1.288-.088-.433-.138-.86-.15-1.282-.01-.422 0-.782.034-1.082.033-.3.1-.638.2-1.016.1-.377.244-.777.433-1.198l.283-.633.016-.05.017-.05.01-.007.007-.01.006-.01.01-.006.01.007.007.01.006.01.01.006.01.007.007.01.007.01.01.006.016.034.017.033.01.007.007.01.45.5c.299.332.654.704 1.065 1.115.41.41.638.623.682.639.045.018.1.069.167.153.066.082.288.279.666.59.377.31.87.67 1.481 1.081.61.411 1.288.816 2.031 1.216.744.4 1.543.76 2.398 1.082.854.322 1.454.533 1.798.633.344.1.932.227 1.764.382.833.156 1.46.256 1.882.3.421.045.71.07.865.077l.234.006-.007-.05-.01-.05-.067-.416c-.044-.277-.066-.666-.066-1.165 0-.5.039-.96.116-1.382.078-.422.194-.849.35-1.282.155-.433.307-.78.456-1.042.15-.26.348-.556.593-.889.244-.333.56-.677.949-1.032.388-.355.832-.672 1.331-.95.5-.277.96-.487 1.382-.632.422-.144.777-.238 1.066-.283.288-.044.433-.07.433-.076z" transform="translate(-1159 -5879) translate(0 5409) translate(210 76) translate(906 394) translate(43.5)"/>
                        </g>
                    </g>
                </g>
            </g>
        </g>
    </g>
</svg>
