<svg xmlns="http://www.w3.org/2000/svg" width="18" height="18" viewBox="0 0 18 18">
    <g fill="none" fill-rule="evenodd">
        <g>
            <g>
                <g>
                    <g>
                        <g>
                            <path d="M0 0L18 0 18 18 0 18z" transform="translate(-1300 -788) translate(0 627) translate(1220 80) translate(0 81) translate(80)"/>
                            <path fill="#3BB3C1" fill-rule="nonzero" d="M15 16.5H3V15c0-2.071 1.679-3.75 3.75-3.75h4.5c2.071 0 3.75 1.679 3.75 3.75v1.5zm-6-5.85c-1.608 0-3.093-.858-3.897-2.25-.804-1.392-.804-3.108 0-4.5S7.393 1.65 9 1.65c2.485 0 4.5 2.015 4.5 4.5s-2.015 4.5-4.5 4.5z" transform="translate(-1300 -788) translate(0 627) translate(1220 80) translate(0 81) translate(80)"/>
                        </g>
                    </g>
                </g>
            </g>
        </g>
    </g>
</svg>
