<svg width="48" height="24" viewBox="0 0 48 24" fill="none" xmlns="http://www.w3.org/2000/svg">
<rect x="0.5" y="1.34741" width="25" height="21.9887" rx="10.9944" fill="#3BB3C1" stroke="white"/>
<path fill-rule="evenodd" clip-rule="evenodd" d="M8.33329 9.76309C8.33329 11.4729 9.89954 12.8577 11.8333 12.8577C13.767 12.8577 15.3333 11.4729 15.3333 9.76309C15.3333 8.05331 13.767 6.66846 11.8333 6.66846C9.89954 6.66846 8.33329 8.05331 8.33329 9.76309ZM11.8333 13.3735C9.25597 13.3735 7.16663 15.2209 7.16663 17.4997H16.5C16.5 15.2209 14.4106 13.3735 11.8333 13.3735ZM16.1284 14.0095C17.9586 14.4254 19.2804 15.8326 19.4067 17.4997H17.6666C17.6666 16.1535 17.0833 14.928 16.1284 14.0095ZM16.5 9.7631C16.5015 10.9359 15.937 12.0537 14.9483 12.8356C15.7817 12.9339 16.6226 12.7093 17.2551 12.2195C17.8877 11.7297 18.2503 11.0223 18.25 10.2789C18.2502 9.05026 17.2702 7.99208 15.9079 7.75004C16.2973 8.36504 16.5012 9.05828 16.5 9.7631Z" fill="white"/>
<rect x="22" y="0.847412" width="26" height="22.9887" rx="11.4944" fill="#3BB3C1" stroke="white" stroke-width="2"/>
<path fill-rule="evenodd" clip-rule="evenodd" d="M31.969 11.3104C32.5942 12.2679 33.7496 12.8577 35 12.8577C36.933 12.8577 38.5 11.4722 38.5 9.76309C38.5 8.05397 36.933 6.66846 35 6.66846C33.7496 6.66846 32.5942 7.25829 31.969 8.21577C31.3437 9.17326 31.3437 10.3529 31.969 11.3104ZM30.3334 17.4997H39.6667V16.4681C39.6667 15.0439 38.3609 13.8893 36.75 13.8893H33.25C31.6392 13.8893 30.3334 15.0439 30.3334 16.4681V17.4997Z" fill="white"/>
</svg>

