<svg xmlns="http://www.w3.org/2000/svg" width="26" height="26" viewBox="0 0 26 26">
    <g fill="none" fill-rule="evenodd">
        <g>
            <g>
                <g>
                    <g>
                        <g>
                            <g transform="translate(-885 -2259) translate(0 1665) translate(210 572) translate(8 8) translate(254 13) translate(413 1)">
                                <rect width="25" height="25" x=".5" y=".5" fill="#3BB3C1" stroke="#FFF" rx="12.5"/>
                                <g>
                                    <path d="M0 0L14 0 14 14 0 14z" transform="translate(6 6)"/>
                                    <path fill="#FFF" fill-rule="nonzero" d="M1.167 12.833c0-2.577 2.089-4.666 4.666-4.666 2.578 0 4.667 2.089 4.667 4.666H1.167zm4.666-5.25c-1.933 0-3.5-1.566-3.5-3.5 0-1.933 1.567-3.5 3.5-3.5 1.934 0 3.5 1.567 3.5 3.5 0 1.934-1.566 3.5-3.5 3.5zm4.295 1.303c1.83.47 3.152 2.062 3.279 3.947h-1.74c0-1.522-.584-2.908-1.539-3.947zm-1.18-1.328c.989-.884 1.554-2.148 1.552-3.475.001-.797-.203-1.58-.592-2.276 1.362.273 2.342 1.47 2.342 2.86 0 .84-.362 1.64-.995 2.194-.632.554-1.473.808-2.307.697z" transform="translate(6 6)"/>
                                </g>
                            </g>
                        </g>
                    </g>
                </g>
            </g>
        </g>
    </g>
</svg>
