<svg xmlns="http://www.w3.org/2000/svg" width="74" height="74" viewBox="0 0 74 74">
    <g fill="none" fill-rule="evenodd">
        <g>
            <g>
                <g>
                    <g transform="translate(-763 -908) translate(210 717) translate(400 147) translate(153 44)">
                        <rect width="74" height="74" fill="#F8F8F8" rx="12"/>
                        <g>
                            <path d="M0 0H34V34H0z" transform="translate(20 20)"/>
                            <path fill="#FF554B" d="M17.231 2.76l12.24 4.42c.27.098.449.353.449.64V17c0 7.148-4.304 11.93-12.74 14.256-.116.032-.24.032-.356 0C8.385 28.993 4.08 24.21 4.08 17V7.82c0-.287.18-.542.449-.64l12.24-4.42c.15-.053.313-.053.462 0zm4.563 9.7l-5.776 6.265-2.751-2.89c-.259-.273-.69-.283-.961-.024-.273.258-.283.689-.024.96l3.251 3.418c.27.284.726.28.993-.008l6.268-6.8c.255-.276.237-.706-.039-.961-.276-.255-.706-.237-.96.04z" transform="translate(20 20)"/>
                        </g>
                    </g>
                </g>
            </g>
        </g>
    </g>
</svg>
