<svg xmlns="http://www.w3.org/2000/svg" width="62.016" height="18.999" viewBox="0 0 62.016 18.999">
  <g id="visa-svgrepo-com" transform="translate(-60.197 -148.968)">
    <path id="Path_789" data-name="Path 789" d="M132.842,167.749l3.136-18.405H141l-3.139,18.405Zm23.139-18.008a12.955,12.955,0,0,0-4.5-.773c-4.957,0-8.449,2.5-8.479,6.074-.028,2.645,2.493,4.12,4.4,5,1.953.9,2.609,1.478,2.6,2.283-.012,1.234-1.559,1.8-3,1.8a10.521,10.521,0,0,1-4.722-.966l-.647-.292-.7,4.12a15.878,15.878,0,0,0,5.588.982c5.273,0,8.7-2.468,8.736-6.288.019-2.094-1.318-3.687-4.212-5-1.753-.851-2.827-1.42-2.816-2.282,0-.765.909-1.583,2.873-1.583a9.255,9.255,0,0,1,3.755.705l.45.212.68-3.989m12.91-.4h-3.876a2.5,2.5,0,0,0-2.627,1.526l-7.451,16.867h5.268s.861-2.268,1.056-2.766l6.425.008c.15.644.61,2.758.61,2.758h4.655l-4.06-18.394Zm-6.15,11.885c.415-1.06,2-5.145,2-5.145-.03.049.412-1.066.665-1.757l.339,1.587s.961,4.393,1.161,5.315h-4.164Zm-34.157-11.885L123.672,161.9l-.523-2.551a14.364,14.364,0,0,0-6.948-7.721l4.491,16.1,5.308-.006,7.9-18.37h-5.314" transform="translate(-50.739 0)" fill="#0e4595"/>
    <path id="Path_790" data-name="Path 790" d="M68.351,152.96h-8.09l-.064.383c6.294,1.523,10.458,5.205,12.187,9.629l-1.759-8.458a2.1,2.1,0,0,0-2.274-1.554" transform="translate(0 -3.617)" fill="#f2ae14"/>
  </g>
</svg>
