<svg xmlns="http://www.w3.org/2000/svg" width="42" height="42" viewBox="0 0 42 42">
  <g id="Group_11" data-name="Group 11" transform="translate(-210 -1679.069)">
    <g id="Group_4" data-name="Group 4" transform="translate(-393.5 252.069)">
      <g id="Rectangle_1" data-name="Rectangle 1" transform="translate(603.5 1427)" fill="#fff" stroke="#3bb3c1" stroke-width="1">
        <rect width="42" height="42" rx="14" stroke="none"/>
        <rect x="0.5" y="0.5" width="41" height="41" rx="13.5" fill="none"/>
      </g>
    </g>
    <path id="onliner" d="M282.191,211.06a10.362,10.362,0,0,1,5.5,2.17l-4.906,4.908a3.589,3.589,0,0,0-.59-.21V211.06Zm-1.831,6.867a3.621,3.621,0,0,0-2.375,5.007l-4.907,4.907a10.408,10.408,0,0,1,7.283-16.78Zm8.665-3.446a10.406,10.406,0,0,1-6.835,17.313v-6.866c1.555-.406,2.447-5.029,2.013-5.626l4.821-4.822ZM280.36,231.8a10.371,10.371,0,0,1-6.031-2.618c5.18-4.56,5.589-4.364,6.031-4.249V231.8Zm.915-12.2a1.831,1.831,0,1,1-1.832,1.832A1.831,1.831,0,0,1,281.276,219.6Z" transform="translate(-50.275 1478.642)" fill="#3bb3c1"/>
  </g>
</svg>
