<svg xmlns="http://www.w3.org/2000/svg" width="42" height="30" viewBox="0 0 42 30">
    <g fill="none" fill-rule="evenodd">
        <g fill="#9A968F" fill-rule="nonzero">
            <g>
                <g>
                    <g>
                        <g>
                            <path d="M17.455 29.417c-7.897-.145-10.593-.276-12.251-.618-1.122-.227-2.096-.73-2.81-1.461-.553-.553-.992-1.397-1.333-2.568C.768 23.795.655 22.983.492 21c-.248-4.473-.307-8.13 0-12.218.254-2.257.377-4.936 2.063-6.499.797-.731 1.723-1.202 2.763-1.397C6.942.578 13.864.334 21.029.334c7.15 0 14.086.244 15.713.552 1.299.244 2.517.975 3.233 1.917 1.538 2.42 1.565 5.43 1.721 7.783.065 1.122.065 7.49 0 8.612-.243 3.72-.438 5.036-.99 6.4-.342.862-.634 1.317-1.138 1.82-.792.776-1.8 1.292-2.893 1.479-6.833.514-12.635.625-19.22.52zm10.463-14.948c-3.801-2.031-7.441-3.915-11.162-5.865V20.27c3.916-2.128 8.043-4.078 11.179-5.817l-.017.016z" transform="translate(-1338 -5879) translate(0 5409) translate(210 76) translate(906 394) translate(222)"/>
                        </g>
                    </g>
                </g>
            </g>
        </g>
    </g>
</svg>
